<?xml version="1.0" encoding="utf-8"?>
<!-- Generator: Adobe Illustrator 18.1.1, SVG Export Plug-In . SVG Version: 6.00 Build 0)  -->
<svg version="1.1" xmlns="http://www.w3.org/2000/svg" xmlns:xlink="http://www.w3.org/1999/xlink" x="0px" y="0px"
	 viewBox="0 0 595.3 841.9" enable-background="new 0 0 595.3 841.9" xml:space="preserve">

<g id="Linhas">
	<g>
		<path d="M218.1,312.6c-4.7-1.2-7.8,4.1-7.5,10.2c0.2,3.5,1.6,10.7,5.4,11c5.5,0.4,5.9-4.3,6.4-8.8
			C222.7,321.3,221.8,313.5,218.1,312.6z"/>
		<path d="M383.1,312.1c4.7-1.3,7.9,4,7.7,10.1c-0.1,3.5-1.3,10.8-5.2,11.1c-5.5,0.6-6-4.2-6.5-8.7
			C378.6,320.9,379.3,313.1,383.1,312.1z"/>
		
			<path fill="none" stroke="#000000" stroke-width="4.1954" stroke-miterlimit="10" d="M380.6,617.8c45.5,6.1,75.9,17.2,75.9,29.8
				c0,19.2-69.7,34.7-155.6,34.7c-85.9,0-155.6-15.5-155.6-34.7c0-12.8,31.1-24,77.4-30"/>
			<path fill="#030303" d="M338.6,636.2c-7,16.5-2,20.4,9.2,9.8c0.5,0.3,0.9,0.6,1.4,0.8c-0.8,16.9,8.3,20.4,14.7,1.1
				c0.4-0.2,0.9-0.4,1.4-0.7c0.7,5.7,3.1,8.9,5.8,9.4c4.1,0.8,11.3-13.7,8-28.3C379.1,628.4,369,665.9,338.6,636.2z"/>
			<path fill="#030303" d="M267.3,633.1c9.1,15.5,4.6,20-7.8,11c-0.4,0.4-0.9,0.7-1.3,1c3,16.7-5.5,21.3-14.4,3
				c-0.5-0.1-0.9-0.3-1.4-0.5c0.1,5.8-1.9,9.3-4.5,10.1c-4,1.3-13-12.2-11.7-27C226.1,630.7,241.1,666.5,267.3,633.1z"/>
			<path fill="#030303" d="M486.9,250.6c9.1-15.5,4.6-20-7.8-11c-0.4-0.4-0.9-0.7-1.3-1c3-16.7-5.5-21.3-14.5-3
				c-0.5,0.2-1,0.3-1.4,0.5c0-5.8-2-9.3-4.5-10.1c-4-1.3-13,12.2-11.7,27.1C445.6,253,460.6,217.1,486.9,250.6z"/>
			<path fill="#030303" d="M210.8,556.5c8.5,15.9,3.8,20.2-8.3,10.7c-0.4,0.3-0.9,0.7-1.3,1c2.3,16.8-6.4,21.1-14.6,2.4
				c-0.5-0.2-0.9-0.4-1.4-0.6c-0.2,5.8-2.3,9.2-4.9,9.9c-4,1.1-12.5-12.7-10.5-27.6C169.7,552.3,183.2,588.9,210.8,556.5z"/>
			<path fill="none" stroke="#000000" stroke-width="4.1954" stroke-miterlimit="10" d="M410.7,349.4c-7.3,29.5-68,50.5-106.4,50.1
				c-19.1-0.2-38.3-2.7-54.5-6.7c-11.1-2.9-29.9-10-42.5-19.7c-8.7-6.7-14.7-14.2-18.6-22"/>
			<path fill="none" stroke="#000000" stroke-width="4.1954" stroke-miterlimit="10" d="M187.7,304.5c7.6-21.4,24.2-40.4,39.7-50.1
				c15.4-9.6,33.2-16.7,51.5-20.6c77.4-16.7,127.8,26.8,136,71.2"/>
			<g>
				<path fill="none" stroke="#000000" stroke-width="4.1954" stroke-miterlimit="10" d="M420.9,353.6
					c-21.3,45.7-76,63.9-131.1,60.9c-61.8-3.3-95.6-23.7-112.9-51.2c-1.3-2-2.5-4.2-3.6-6.3"/>
				<path fill="none" stroke="#000000" stroke-width="4.5869" stroke-miterlimit="10" d="M420.9,353.6
					c-21.3,45.7-76,63.9-131.1,60.9c-61.8-3.3-95.6-23.7-112.9-51.2c-1.3-2-2.5-4.2-3.6-6.3"/>
			</g>
			<g>
				<path fill="none" stroke="#000000" stroke-width="4.1954" stroke-miterlimit="10" d="M163.5,318c-1.8-42.5,22.3-91.2,83-114
					c18.2-6.9,38-10.6,57.8-10.2c35.5,0.7,70.8,13.1,97.5,38.8c17,16.3,26.5,41.1,28.2,66.8c0.3,4.3,0.4,8.4,0.3,12.5"/>
				<path fill="none" stroke="#000000" stroke-width="4.5869" stroke-miterlimit="10" d="M163.5,318c-1.8-42.5,22.3-91.2,83-114
					c18.2-6.9,38-10.6,57.8-10.2c35.5,0.7,70.8,13.1,97.5,38.8c17,16.3,26.5,41.1,28.2,66.8c0.3,4.3,0.4,8.4,0.3,12.5"/>
			</g>
			<path fill="none" stroke="#000000" stroke-width="4.1954" stroke-miterlimit="10" d="M425.6,310.1c-12.6-6.7-27.9-11.9-41.2-14.8
				c-10.9-2.3-25.2-1.2-25.2-1.2c-5.2,0.2-10.2,1.7-14,4.3c-4.8,3.3-7.5,8.1-7.9,13.9c-1.2,18.7,17.3,21.3,27.3,22.7
				c14.7,1.7,26.1,3.9,37.7,9.8c1.4,0.7,2.8,1.5,4.2,2.3c3,1.6,6.2,3.4,9.5,4.8C445.8,364.9,454.3,325.4,425.6,310.1z"/>
			<path fill="none" stroke="#000000" stroke-width="4.1954" stroke-miterlimit="10" d="M260.5,313.1c-0.3-3.2-1.3-6.2-3-8.6
				c-5.2-7.8-15.6-13-38.6-8.6c-14.2,2.7-33,8-47.2,16.1c-29,16.4-19.2,55.1,9.2,43.2c3.9-1.6,7.6-3.8,11.1-5.7
				c1.4-0.8,2.8-1.6,4.2-2.3c11.4-6.1,22.8-8.6,37.5-10.6C243.6,334.7,262.1,331.8,260.5,313.1z"/>
			<g>
				<path d="M213.8,285.3c-0.2-1.1-2.1-0.9-2,0.3c0.4,3.8-3.3,5.4-6.5,5.5c-0.5,0-0.8,0.3-0.9,0.7c-0.7,0.3-1,1.3-0.2,1.8
					c1.5,0.9,3.2,1.3,5,0.8c1.3-0.4,2.2-1.5,2.8-2.6C213.4,289.9,214.3,287.4,213.8,285.3z"/>
				<path d="M389.6,286.3c-0.1-0.4-0.4-0.6-0.9-0.6c-3.2,0-7-1.5-6.6-5.3c0.1-1.1-1.8-1.4-2-0.3c0,0.1,0,0.2,0,0.3c0,0,0,0,0,0
					c0,0,0,0,0,0.1c-0.3,2.1,0.6,4.4,2,6.1c0.6,1.1,1.4,2.1,2.6,2.5c1.4,0.5,2.8,0.2,4.1-0.3c0.3-0.1,0.6-0.3,1-0.5
					C390.6,287.6,390.3,286.6,389.6,286.3z"/>
			</g>
			<path fill="#000100" d="M322.3,336.9c-1-3.1-3.8-5-7-5.5c-3.1-0.5-5.2,0.6-7.3,2.1c-7.4,5.5-16.2-0.7-16.6-0.9
				c-2.1-0.9-4.5-1.3-6.8-0.6c-2.6,0.8-4.8,2.6-5.6,5.3c-1,3.4,1,7.3,4.3,10.5c8.8,8.5,24.4,8.1,32.8,1.4
				C320.6,345.8,323.5,340.9,322.3,336.9z"/>
			<path fill="none" stroke="#000000" stroke-width="4.1954" stroke-miterlimit="10" d="M242.2,355.4c-0.1,7-5.8,12.6-12.9,12.6
				c-7-0.1-12.6-5.8-12.6-12.9c0.1-7,5.8-12.6,12.9-12.5C236.6,342.7,242.2,348.4,242.2,355.4z"/>
			<path fill="none" stroke="#000000" stroke-width="4.1954" stroke-miterlimit="10" d="M384.7,354.3c-0.1,7-5.9,12.6-12.9,12.5
				c-7-0.1-12.6-5.8-12.6-12.9c0.1-7,5.8-12.6,12.9-12.5C379.1,341.5,384.7,347.3,384.7,354.3z"/>
			<g>
				<path d="M226.4,352.3c-0.4,35.9,57.2,33.3,81,32.1c20.7-1.1,73.4-0.8,68.3-32.6c-0.3-1.6-7.1-0.1-6.8,1.8
					c4.7,29.5-46.1,27.5-65.8,28.1c-22.3,0.7-70.3,0.9-69.9-31.3C233.2,349.2,226.4,350.2,226.4,352.3L226.4,352.3z"/>
			</g>
			<path fill="none" stroke="#000000" stroke-width="4.1954" stroke-miterlimit="10" d="M383.5,394.5c10.2,22.1,19.7,63,10.6,101.7
				c-1.4,5.8-3.1,11.5-5.4,17.2c-32.6,81.2-171.7,75-188.6-7.9c-1.1-5.3-1.9-10.7-2.4-16.1c-4.3-42.2,6.1-84.9,9.5-94.8
				c0.2-0.5,0.3-1,0.5-1.4"/>
			<path fill="none" stroke="#000000" stroke-width="4.1954" stroke-miterlimit="10" d="M194.8,383.8c-3.8,1.4-7.5,4.8-10.3,11.3
				c-7.1,16.1-26.3,107.2-16.6,149.3c8.3,36.1,38.8,26.4,44.8,6.8c1.5-4.8,1.9-10,1.8-15"/>
			<path fill="none" stroke="#000000" stroke-width="4.1954" stroke-miterlimit="10" d="M393.7,430.8c1.1-0.2,78.8-43.4,94.6-164.2
				c2.4-18.3-6.9-32-26.1-28.6c-21.2,3.7-26,45.8-29.3,61.4c-0.8,3.9-1.7,8.1-2.6,12.4"/>
			<path fill="none" stroke="#000000" stroke-width="4.1954" stroke-miterlimit="10" d="M221.6,545c-2.6,28.1-2.9,58.8,2.3,77.9
				c4.1,15,13.9,28.5,27.6,23.8c8.3-2.9,16.3-10.3,18.2-23c0.8-5.5,0.5-11.3-0.2-16.5c-1.3-9.5-5.4-32.1-5.7-39.4"/>
			<path fill="none" stroke="#000000" stroke-width="4.1954" stroke-miterlimit="10" d="M372.1,539.6c5.1,24.7,10.6,63.4,8.2,80.8
				c-3.8,27.7-32.1,37.5-43.6,11.6c-2.9-6.5-3.7-14.3-3.7-21.2c0-9.6,1.1-36.9,0.4-44.2c-0.1-0.7-0.1-1.4-0.2-2.1"/>
		
	</g>
</g>
</svg>
