<?xml version="1.0" encoding="utf-8"?>
<!-- Generator: Adobe Illustrator 18.1.1, SVG Export Plug-In . SVG Version: 6.00 Build 0)  -->
<svg version="1.1" xmlns="http://www.w3.org/2000/svg" xmlns:xlink="http://www.w3.org/1999/xlink" x="0px" y="0px"
	 viewBox="0 0 595.3 841.9" enable-background="new 0 0 595.3 841.9" xml:space="preserve">
<g id="Preenchimento">
	<path fill="#FFFFFF" d="M258.8,407.7c-1.6-4-2.9-8.1-3.9-12.1c-2.3-9.5-4-19.7-4.8-29.5c-0.6-7.5-1.2-15.5-1.5-22.7l0-0.3
		c-0.6-10.7-8.9-17.1-16.6-17.1c-7.1,0-12.7,5-15,13.3c-6.4,29.9,14,65.5,37.1,87.4l1.2,1.1l0-1.7c0.1-2.8,0.3-5.6,0.8-8.4
		c0.6-3.3,1.5-6.5,2.7-9.6l0.1-0.3L258.8,407.7z"/>
	<path fill="#FFFFFF" d="M269.7,455.2l2.6-0.2c1.9-0.2,3.8-0.4,5.6-0.6l1.1-0.1l-0.5-0.9c-0.2-0.4-0.4-0.8-0.7-1.1l-0.3-0.3h-0.4
		l-18.5-6.4l-0.3-0.1c-24.9-9.4-45.4-28.5-52.8-37.3c-2.3-2.8-4.5-5.7-6.3-8.7c-2.7-4.3-7.8-13-11.2-23.1l-0.3-0.8l-0.7,0.3
		c-1.7,0.8-3.3,1.7-4.7,2.9c-8.2,6.8-10.9,20.1-6.7,33.2c8.2,25.7,32.4,34.9,52.6,40.1c8.9,2.3,19.6,3.5,31,3.5h0c1,0,2.1,0,3.1,0
		l1.3,0C263.7,455.5,268.8,455.5,269.7,455.2z"/>
	<path fill="#FFFFFF" d="M257.9,443.5c-1.6-4.8-2.4-9.7-2.6-14.8l0-0.3l-0.2-0.2c-22.4-20.8-44.1-57-38.9-87.2l0.3-1.8l-1.1,0.9
		c-1.1-1.3-2.5-2.3-4.1-3c-5.8-2.5-11.6-2.1-16.4,1.1c-6.2,4.2-9.7,12.2-9.5,21.5c0.4,16,10.1,33,14.3,39.5c1.8,2.9,3.9,5.8,6.3,8.6
		c7.7,9.1,27,27.1,51,36.6l1.5,0.6L257.9,443.5z"/>
	<path fill="#FFFFFF" d="M286.2,467.3l-1.3,0c-1.6,0-3.1-0.4-4.6-1l-0.4-0.2l-0.3,0.3c-13.5,10.3-33.3,15-51.7,11.6l-0.8-0.1
		l-0.1,0.8c-0.6,7.6,4.2,15.2,12.2,19.5c3.4,1.8,7.2,2.8,10.8,2.8c4.2,0,7.9-1.3,10.9-3.9c1.5-1.2,2.2-1.7,2.8-1.7
		c0.4,0.1,0.7,0.4,1.1,1.2c0.2,0.4,0.5,0.9,0.9,1.4c2.8,3.7,8,6,13.7,6c0.3,0,0.6,0,1,0l0.9,0l-0.3-0.9c-1.2-3.9-1.9-8-1.9-12.1
		c-0.1-7.9,2.1-15.6,6.4-22.3L286.2,467.3z"/>
	<path fill="#FFFFFF" d="M292.8,454.4c-0.8,0.1-1.6,0.2-2.4,0.2c-3.7,0-7.2-1-8.7-1.6c-0.6-0.3-1.3-0.5-1.9-0.7l-1.6-0.4l0.8,1.5
		c1,1.8,1.4,3.8,1.4,5.8l0,0.8l0.8,0c5.5-0.2,9.4-1.4,11.7-3.6l2.2-2.1L292.8,454.4z"/>
	<path fill="#FFFFFF" d="M279.1,459.9l0.7,0l0-0.7c0-1.3-0.1-2.6-0.6-3.8l-0.2-0.6l-0.6,0.1c-2.8,0.3-5.7,0.6-8.6,0.8l-0.3,0
		l-0.2,0.2c-0.3,0.4-0.6,0.7-0.9,1c-0.7,0.9-1.6,1.9-2,1.9c0,0,0,0,0,0c-0.3-0.1-0.5-0.2-0.8-0.6c-0.5-0.6-0.9-1.3-1.4-1.9L264,456
		l-0.4,0c-12.9,0.3-25.4-0.9-35.5-3.5c-9.9-2.5-24.3-6.9-35.6-15.7l-1.2-0.9l0,1.5c0.1,15.8,8,28.4,22.3,35.5
		c7.6,3.8,16.7,5.8,26.2,5.8c0,0,0,0,0,0c14.2,0,28.3-4.4,38.7-12.1l0.8-0.6l-0.9-0.6c-1.3-0.9-2.4-2-3.2-3.3
		c-0.5-0.7-0.9-1.5-1.3-2.4c0.1,0,0.2,0,0.4,0C275.6,459.8,277.3,459.9,279.1,459.9z"/>
	<path fill="#FFFFFF" d="M441,429.8l-0.3-1.6l-1,1.2c-7.3,9-17.8,16.8-31.2,23.3c-14.3,6.9-34.2,11-53.2,11c-2.8,0-5.6-0.1-8.3-0.3
		l-2-0.1l1.4,1.4c10,10,24.5,15.5,40.8,15.5c11.5,0,23-2.8,32.2-7.9C436.4,463.1,444.3,447.6,441,429.8z"/>
	<path fill="#FFFFFF" d="M438.1,369.8c-1.6-0.8-3.3-1.5-5.1-1.9l-0.8-0.2l-0.1,0.8c-1.3,10.5-4.6,20.1-6.4,24.9
		c-1.2,3.3-2.7,6.5-4.5,9.7c-9.6,17.6-37.2,52.5-72.7,58.4l-0.4,0.2l-1,1.3l1.4,0.1c2.2,0.1,4.5,0.2,6.8,0.2c0,0,0,0,0,0
		c18.9,0,38.7-4.1,52.9-10.9c26.5-12.8,40.5-29.6,42.9-51.4C452.7,387.3,447.4,374.8,438.1,369.8z"/>
	<path fill="#FFFFFF" d="M290.9,481.5c-1-2-1.4-2.6-1.7-2.8l-0.5-0.5l-0.5,0.5c-0.3,0.3-0.7,1-1.1,1.9c-1,2.2-2.2,5.6-2.1,9
		c0.2,5.4,2.4,7.8,4.3,7.8c0.7,0,1.4-0.3,2-0.9c1.2-1.2,1.9-3.5,1.9-6.3C293.2,487.4,292.4,484.5,290.9,481.5z"/>
	<path fill="#FFFFFF" d="M431.3,350.9c-1.5-7.9-6.1-14.7-12-17.8c-4.7-2.5-10.1-2.5-15.5-0.2c-2.9,1.3-5.1,3.2-6.4,5.6l-0.2,0.3
		l0.1,0.3c15.1,38.2-14,98.7-47.5,119.6l-0.2,0.1l-1.1,2.2l1.5-0.3c34.5-6.6,61.3-40.7,70.6-57.8c1.7-3.2,3.2-6.4,4.4-9.7
		C427.5,387.4,434.5,367.3,431.3,350.9z"/>
	<path fill="#FFFFFF" d="M305.6,433.1l-1.1-3.7l-0.3,3.8c-0.7,8-2.7,14.9-5.2,18.1l-0.3,0.4l0,0.3c0,1.4,0,2.6-0.1,3.8
		c-0.5,4.9-3.7,9-8.6,10.7l-3.1,1.2l3.5,0.2c0.2,0,0.4,0,0.7,0c0.2,0,0.4,0,0.7,0c5.4-0.4,11.3-2.3,14.4-13.6
		C308.2,446.8,307.2,438.4,305.6,433.1z"/>
	<path fill="#FFFFFF" d="M437.9,578.8c0.1-3-2.9-7.7-9.6-10.8c-4.1-1.9-8-3.5-11.7-5c-13.5-5.5-25.2-10.3-41.3-28.6
		c-5.8-6.6-10.4-13.7-13.9-21.1l-0.2-0.4l-0.4-0.1c-1-0.1-1.9-0.3-3-0.7l-1.5-0.5l0.6,1.4c0.2,0.4,0.4,0.9,0.6,1.3
		c0.2,0.5,0.5,1,0.7,1.6c10.2,21.9,29.6,42.5,51.9,55c7.5,4,15.7,7.3,26,10.3l1.4,0.3l-0.4-0.9C437.6,580.3,437.8,579.6,437.9,578.8
		z"/>
	<path fill="#FFFFFF" d="M396.4,337.8c-4.5-9-11-10.3-14.5-10.3c-1.5,0-2.9,0.2-4.3,0.7c-6.8,2.1-12.9,9.6-11.4,19.6l0,0.3
		c1.1,7,2.1,15,3,22.5c1.1,9.8,1.5,20.1,1.1,29.9c-0.7,17.4-6.1,31.4-10.4,40.1l-0.1,0.3c0,1.3-0.1,2.5-0.2,3.8
		c-0.3,3.3-1.8,4.4-3.6,5.7c-1.1,0.8-2.4,1.7-3.6,3.4c-0.4,0.5-0.7,1.1-1.1,1.9l-1.3,2.6l2.4-1.7
		C385.4,433.7,412.2,374.4,396.4,337.8z"/>
	<path fill="#FFFFFF" d="M328.2,377.4c-1.7-1.2-3.5-2.2-5.2-3.1c-1.3-0.7-2.7-0.7-3.6-0.2c-0.8,0.5-0.5,1.7,0,2.9
		c0.1,0.4,0.1,0.7-0.2,1c-0.6,0.5-1.9,0.6-2.8,0.1c-5.6-2.6-10.2-4.1-12.9-4.1c-0.4,0-0.7,0-1,0.1c-1.3,0.2-2,0.5-2.2,1
		c-0.2,0.6,0.3,1.5,1.3,2.4c0.2,0.2,0.5,0.4,0.8,0.6c0.1,0.1,0.3,0.2,0.4,0.3l0.2,0.1l0.1,0l0,0.5c-0.3,0.2-1.2,0.4-2.6,0.6
		c-6.7,0.9-12.7,3.2-18,6.7l-1.6,1.1l1.9,0.2c2.2,0.3,4.4,1,6.6,2.1c11.7,6.3,15.4,24,15,38.6l0,0.2l0.1,0.2
		c2.4,4.7,4.7,15.8,2,25.5c-2.3,8.5-6.4,12.7-13.1,13.8l-2.8,0.4l2.6,1c2.5,1,7.7,2.6,13.4,3l2.3,0h0c6.4-0.1,12.6-1.3,17.8-3.5
		c0.3-0.2,0.7-0.3,1.2-0.6c1.9-1,4.5-2.3,9.4-2.3l0.6,0c5.3,0,7.3-1.4,9.6-4.6c0.9-1.1,1.5-2.6,2.3-4.2c0.7-1.4,1.3-2.8,2.1-4
		c1.2-1.7,2.5-2.7,3.7-3.5c1.8-1.2,3.2-2.2,3.4-5.3c0.1-1.3,0.2-2.6,0.2-3.9C360.3,411.2,351.3,392.8,328.2,377.4z M330.6,428
		c-0.9,3.7-4.4,6.6-7.8,6.6l-0.3,0c-1.8-0.1-3.4-1-4.6-2.5c-1.9-2.4-2.6-6.3-1.8-10.3c0.9-4.4,3.6-7.3,7.1-7.3
		c3.6,0,6.5,3.1,7.5,7.9C331,424.4,331,426.3,330.6,428z"/>
	<path fill="#FFFFFF" d="M330.1,422.6c-1-4.5-3.7-7.5-7.1-7.5c-3.2,0-5.8,2.7-6.6,6.9c-0.8,3.9-0.1,7.5,1.7,9.9
		c1.1,1.4,2.6,2.2,4.3,2.3l0.3,0c3.2,0,6.4-2.8,7.3-6.3C330.5,426.3,330.5,424.4,330.1,422.6z"/>
	<g>
		<path fill="#FFFFFF" d="M290.2,467.4l0-0.2c-0.1,0-0.2,0.1-0.2,0.1C290,467.3,290.1,467.3,290.2,467.4z"/>
		<polygon fill="#FFFFFF" points="291,468.6 289.8,468 290.1,467.5 290.1,467.5 289.7,468 288.1,467.2 289.7,466.6 290,467.1 
			290,467.1 289.9,466.5 290.8,466.2 		"/>
	</g>
	<path fill="#FFFFFF" d="M387.7,589.7c-7.4-5.5-14.3-13-20.9-22.9l-1.6-2.4l-0.3,1.5c-14.6-2.4-32.6-3.7-50.8-3.7
		c-12.7,0-25.1,0.6-36.7,1.8l-1.2,0.1l0.6,1c0.5,0.7,0.7,1.6,0.7,2.5c0,0.9-0.2,2-0.6,3.2l-0.4,1.2l1.2-0.2c10.5-1.9,24-2.9,38-2.9
		c32.4,0,57.7,5.2,57.7,11.7c0,6.6-25.4,11.7-57.7,11.7c-22.1,0-42.5-2.6-52-6.6l-0.4-0.2l-0.3,0.2c-0.6,0.4-1.2,0.6-1.8,0.6
		c-1.2,0-2.1-0.5-2.1-0.6c-5.4-3.4-9.5-6.6-12.3-9.6l-0.4-0.4l-0.5,0.3c-0.7,0.4-1.5,0.7-2.3,0.7c-1.3,0-2.4-0.5-2.8-0.8
		c-1.5-0.9-2.8-1.8-4.2-2.7l-0.3-0.2l-0.4,0.2c-5.2,2.5-7.8,5.1-7.8,7.8c0,10.5,38.5,19,85.8,19c29.8,0,57.9-3.5,73.4-9.2l1.3-0.5
		L387.7,589.7z"/>
	<path fill="#FFFFFF" d="M264.8,547.2c-1-1.4-2.5-2.2-4.2-2.4c-2.7-0.3-6.1,1.1-9.2,3.8c-0.5,0.5-1.1,1-1.6,1.5
		c-0.3,0.3-0.7,0.4-0.9,0.3c-0.1-0.1-0.4-0.2-0.2-1.2c0.2-1.1,0.5-4.1,0.4-5.8c-0.4-4.6-3.9-7.2-7.3-7.3l-0.2,0
		c-1.4,0-6.1,0.5-7.1,7.3c-0.3,1.9-0.1,4.1,0.6,6.4c0.2,0.7,0.2,1-0.2,1.2c-0.3,0-0.7-0.5-0.9-0.8c-0.9-1.1-2.3-2.7-4-3.7
		c-3.3-1.9-7.3-1.5-9.4,1c-2,2.3-2.6,6.7,1.7,12.3c3.6,4.8,10.1,10.1,19.3,15.9c0.2,0.1,1.2,0.7,2.5,0.7c0.6,0,1.2-0.1,1.7-0.4
		l0.8-0.4l-0.9-1.1c-2.3-3-3-6.1-1.9-8.3c0.8-1.7,2.6-2.7,4.6-2.7c1.1,0,2.3,0.3,3.3,0.9c0.5,0.3,1,0.6,1.4,1l1.4,1.2l-0.2-1.8
		c-0.1-0.9-0.1-1.7,0-2.4c0.6-4.1,3.3-5.6,5.5-5.6c1.1,0,2.3,0.4,3.3,1.1l0.7,0.5l0.4-0.8c1.3-2.6,1.9-4.9,1.8-6.9
		C265.9,549.3,265.6,548.1,264.8,547.2z"/>
	<path fill="#FFFFFF" d="M417.8,593.9l-0.2-0.8l-0.3-0.2c-15.7-8-31.4-20.1-38.8-27.9c-14.6-15.5-23.3-30.1-28.2-47.3l-0.4-1.3
		l-0.9,1c-0.7,0.8-1.4,1.6-2.3,2.4l-0.3,0.3l0.1,0.4c2.2,13.8,9,28.8,20.8,46c8.2,12.3,16.8,20.9,26.3,26.5
		c3.3,2.2,12.9,6.5,18.7,6.5c1.5,0,2.7-0.3,3.6-0.8C417.3,597.9,418,596.3,417.8,593.9z"/>
	<path fill="#FFFFFF" d="M444.7,584.2c-14.5-3.7-25.3-7.7-34.8-12.8c-22.4-12.5-41.9-33.2-52.1-55.2c-0.3-0.6-0.5-1.1-0.7-1.6
		c-0.4-1-0.9-1.9-1.3-3l-0.1-0.3l-0.3-0.1c-0.2-0.1-0.4-0.2-0.6-0.3l-0.8-0.5l-0.4,0.6c-0.9,1.6-2,3.2-3.1,4.7l-0.2,0.3l0.1,0.4
		c4.8,17.7,13.5,32.6,28.5,48.4c12.1,12.7,45.5,36.3,66.1,36.3h0.2c7.2-0.1,10.8-3.7,11.1-7C456.6,590.7,453.8,586.1,444.7,584.2z"
		/>
	<path fill="#FFFFFF" d="M276.4,565.2c-1.8-2.5-6-2.1-9.5,1c-0.1,0.1-0.2,0.2-0.4,0.3l-1.6-0.9c0.1-1,0.2-2.3,0.1-3.2
		c-0.3-3.3-2.9-5.2-5.3-5.2c-2.6,0-4.5,2-5,5.2c-0.2,1.3-0.1,2.9,0.4,4.6c0.1,0.5,0.1,0.7,0,0.8l-0.1,0.1l-0.2,0
		c-0.2,0-0.4-0.2-0.7-0.6c-0.6-0.8-1.6-1.9-2.9-2.6c-1-0.6-2.1-0.9-3.1-0.9c-1.9,0-3.4,0.9-4.2,2.5c-1,2.1-0.4,4.9,1.8,7.8
		c2.6,3.4,7.2,7.2,13.8,11.3c0.3,0.2,1.1,0.4,1.8,0.4c0.7,0,1.2-0.2,1.7-0.5c0.7-0.6,1.7-1.3,2.8-2.3c0.4-0.4,0.9-0.8,1.4-1.2
		c2.9-2.4,6.5-5.5,8.3-8.8c1-2,1.6-3.8,1.5-5.4C277.2,566.8,276.9,565.9,276.4,565.2z M264.8,566.6
		C264.8,566.5,264.8,566.5,264.8,566.6l1.4,0.3c-0.1,0.1-0.3,0.3-0.4,0.4c-0.1,0.1-0.3,0.3-0.5,0.3h-0.2l-0.2-0.1
		C264.8,567.2,264.7,567,264.8,566.6z"/>
	<path fill="#FFFFFF" d="M301.2,498.9c-0.2-0.3-0.7-1.1-1.3-1.2l-1.5-0.3l0.5,0.9c-0.1,0.2-0.2,0.3-0.3,0.5
		c-1.2,2.4-2.5,6.1-2.3,9.8c0.3,5.3,2.5,7.7,4.4,7.7c0.7,0,1.4-0.3,2-0.9c1.2-1.2,1.8-3.5,1.8-6.3
		C304.4,505.9,303.3,502.5,301.2,498.9z"/>
	<path fill="#FFFFFF" d="M312.4,481.4c-0.9-1.7-1.3-2.2-1.7-2.3l-1.3-0.5l0.2,1c-0.3,0.4-0.7,1.1-1.1,1.9c-0.9,2.1-2,5.2-1.9,8.5
		c0.2,5.4,2.4,7.8,4.3,7.8c0.7,0,1.4-0.3,2-0.9c1.2-1.2,1.9-3.5,1.9-6.3C314.9,487.7,314,484.6,312.4,481.4z"/>
	<path fill="#FFFFFF" d="M414.2,476.6l0.1-1.1l-1.1,0.4c-8,3.2-17,4.8-25.9,4.8c-16.5,0-31.2-5.6-41.3-15.7l-0.4-0.4L345,465
		c-1.8,1.3-3.8,1.8-7.1,1.8l-0.6,0c-4.7,0-7.1,1.2-9.1,2.2c-0.4,0.2-0.8,0.4-1.2,0.6c-5.3,2.2-11.5,3.5-18,3.6l-2.3,0
		c-6.6-0.5-15-3-19.1-5.7l-0.6-0.4l-0.4,0.6c-4.7,6.8-7.1,14.9-7,23.2c0.1,10.8,4.3,20.8,11.8,28.4c7.4,7.5,17.3,11.6,27.7,11.6
		l0.3,0c13.9-0.1,26.8-7.7,33.8-20l0.3-0.6l-0.5-0.4c-3.2-2.3-5.5-5.6-6.6-9.7c0-0.1,0.1-0.3,0.2-0.3c0.1,0,0.2,0.1,0.2,0.2
		c1.9,6.9,7,11.4,14.1,12.3c0.8,0.1,1.7,0.2,2.6,0.2c6.7,0,13.1-3.3,15.9-8.2c0.7-1.2,1-2.1,1.2-2.7c0.2-0.7,0.4-0.9,0.6-1.1
		c0.4-0.2,0.9,0.1,1.9,0.6c0.7,0.3,1.7,0.8,3.2,1.4c5.9,2.5,13.1,1.1,18.9-3.6C412.2,493.2,415.7,484.5,414.2,476.6z"/>
	<path fill="#FFFFFF" d="M298.1,498.7c0.5-1,1-1.5,1.6-1.5c0.9,0,1.6,1,1.8,1.5c2.2,3.7,3.3,7.2,3.4,10.5c0.1,3-0.6,5.4-1.9,6.7
		c-2.5,2.5-6.9,0.7-7.3-7.1C295.6,504.9,296.9,501.1,298.1,498.7z"/>
	<path fill="#FFFFFF" d="M293.7,490.2c0,3-0.7,5.3-2,6.6c-2.5,2.5-6.9,0.6-7.2-7.2c-0.1-3.5,1.1-6.9,2.1-9.2
		c0.8-1.8,1.4-2.5,2.1-2.5c0.7,0,1.4,0.8,2.6,3.3C292.9,484.4,293.7,487.4,293.7,490.2z"/>
	<path fill="#FFFFFF" d="M315.4,490.6c0,3-0.7,5.3-2,6.6c-2.5,2.5-6.9,0.6-7.2-7.2c-0.1-3.3,1-6.6,1.9-8.7c0.5-1.2,1.3-2.7,2.4-2.7
		c1,0,1.8,1.5,2.4,2.7C314.5,484.5,315.3,487.6,315.4,490.6z"/>
	<path fill="#FFFFFF" d="M315.9,569.5c-14.6,0-28.5,1.1-39.1,3.1l-0.4,0.1l-0.3,0.7c-1.8,3.4-5.5,6.5-8.4,9c-0.5,0.4-1,0.8-1.4,1.2
		c-0.5,0.4-0.9,0.8-1.3,1.1l-1,0.8l1.2,0.5c10,3.8,29.4,6.1,50.8,6.1c31.6,0,57.3-5,57.3-11.3C373.2,574.5,347.5,569.5,315.9,569.5z
		"/>
	<g>
		<path fill="#FFFFFF" d="M262.2,565C261.8,564.8,261.6,564.9,262.2,565L262.2,565z"/>
		<path fill="#FFFFFF" d="M268.2,567.4l-6.2-1.7c-0.3-0.1-1-0.3-0.9-0.9l0.1-0.6l0.6,0c0.2,0,0.5,0.1,0.7,0.2L268.2,567.4z"/>
	</g>
</g>
<g id="Linhas">
	<g>
		<path d="M444.8,583c-2.3-0.6-4.6-1.2-6.7-1.8c0.5-0.6,0.8-1.5,0.8-2.5c0.1-3.5-3.1-8.6-10.3-11.9c-4.2-1.9-8-3.5-11.8-5.1
			c-13.4-5.5-24.9-10.2-40.9-28.3c-5.5-6.2-9.9-12.9-13.2-19.9c0.2,0,0.5,0,0.7,0c7.1,0,14-3.5,17-8.8c0.7-1.3,1.1-2.3,1.3-2.9
			c0-0.1,0-0.1,0.1-0.2c0.2,0.1,0.5,0.2,0.8,0.4c0.7,0.4,1.8,0.8,3.2,1.5c6.4,2.7,13.9,1.3,20.1-3.8c7.3-5.9,10.9-15.1,9.3-23.4
			c0-0.2-0.2-0.4-0.3-0.5c1.8-0.8,3.5-1.6,5.1-2.5c18.1-9.9,26-26.5,21.7-45.5c5.9-8,9.5-17,10.6-26.8c1.6-14.2-3.9-27.2-13.7-32.4
			c-1.8-1-3.7-1.6-5.7-2c0.5-5.3,0.5-10.8-0.5-16c-1.6-8.3-6.3-15.3-12.6-18.6c-5-2.7-10.7-2.7-16.5-0.2c-2.7,1.2-4.8,2.8-6.2,4.9
			c-5.3-10.1-13.7-11.7-19.9-9.7c-7.3,2.3-13.8,10.2-12.2,20.9l0,0.3c1.1,7,2.1,15,3,22.5c1.1,9.7,1.5,20,1.1,29.7
			c-0.6,14.9-4.7,27.3-8.5,36c0-27.5-9.4-45.1-31.7-60c-1.8-1.2-3.6-2.3-5.3-3.2c-1.7-0.9-3.5-0.9-4.7-0.2c-1.7,1-1,3-0.5,4.1
			c-0.3,0.1-0.8,0.1-1.4-0.1c-4.7-2.2-11.1-4.7-14.6-4.1c-1.7,0.2-2.8,0.8-3.1,1.8c-0.3,1,0.2,2.2,1.4,3.4l-2.9,0.8
			c-6.8,1.3-12.8,4-18,8c-8.7,0.7-16.1,8.3-20.6,18.3c-1.2-3.2-2.2-6.6-3.1-10.1c-2.3-9.5-4-19.6-4.8-29.3
			c-0.6-7.5-1.2-15.5-1.5-22.6l0-0.3c-0.5-8.9-7.3-18.2-17.8-18.2c-7.7,0-13.7,5.3-16.1,14.1c-1.2-1.2-2.5-2.2-4.1-2.9
			c-6.2-2.7-12.4-2.2-17.5,1.2c-6.5,4.4-10.2,12.8-10,22.5c0.1,5,1.1,10.1,2.6,15c-1.9,0.8-3.6,1.8-5.2,3.1
			c-8.5,7.1-11.4,20.9-7,34.5c3.2,10.1,8.9,17.7,15.8,23.6l-0.2,0c-0.4,17,7.7,30.4,22.9,38c3.9,2,8.2,3.4,12.6,4.4
			c-0.8,8.2,4.2,16.3,12.8,20.9c8.1,4.3,16.9,3.8,23-1.2c0.4-0.4,1.4-1.2,1.8-1.4c0.1,0.1,0.2,0.3,0.3,0.5c0.2,0.4,0.6,0.9,1,1.5
			c3.1,4.1,8.7,6.5,14.7,6.5c0.5,0,1.1,0,1.6-0.1c2,5.6,5.3,10.7,9.5,15c3.8,3.8,8.2,6.8,13,8.8c0.3,2,0.2,7,0.2,8.2
			c-1.1,0.6-2,1.5-3,2.7c-2.6,3.1-4.3,7.8-4,11.6c0.4,3.8,3,4,4.4,0.1c0.5-1.4,1.2-3.7,1.8-5.7c0.2-0.4,0.4-0.8,0.7-1.2
			c0.1,2.6,0.3,5.9,1,8.2c1,3.2,3.9,2.2,4.5-0.5c0.3-1.5,0.2-3.3-0.1-5.1c-0.2-1.4-1.1-6.3-1.5-7.2c0.1-0.3,0.3-0.6,0.4-0.9
			c0.3-0.7,0.6-1.4,0.7-2.1c0-0.6-0.6-1-1.1-1c0.3-1.5,0.2-4,0-5.6c3.7,1.1,7.6,1.7,11.6,1.7c0.1,0,0.2,0,0.3,0
			c1.3,0,2.6-0.1,3.9-0.2c0.2,1.8,0.3,4.9,0.4,6.6c-0.8,0.6-1.6,1.3-2.4,2.3c-2.6,3.1-4.3,7.8-4,11.6c0.4,3.8,3,4,4.4,0.1
			c0.5-1.4,1.2-3.7,1.8-5.7c0.2-0.4,0.4-0.8,0.7-1.2c0.1,2.6,0.3,5.9,1,8.2c1,3.2,3.9,2.2,4.5-0.5c0.3-1.5,0.2-3.3-0.1-5.1
			c-0.2-1.5-1.1-6.3-1.5-7.2c0.1-0.3,0.3-0.6,0.4-0.9c0.3-0.7,0.6-1.4,0.7-2.1c0-0.7-0.7-1.1-1.4-1c-0.1,0-0.2,0.1-0.4,0.1
			c0.1-2-0.2-4.5-0.6-5.7c0,0,0,0,0,0c6.9-1.4,13.4-4.6,18.7-9.2c2.3,12.9,8.6,27,19.1,42.8c-14.5-2.3-32.4-3.6-50.5-3.6
			c-13.3,0-26.1,0.7-38,2l0,0.3c-0.9-0.7-2.1-1.1-3.3-1.1c-2.1,0-4.5,1-6.7,3c0.1-1,0.2-2.1,0.1-2.9c-0.1-1.5-0.6-2.7-1.4-3.7
			c1.5-2.9,2.3-5.6,2.2-8c0-1.6-0.5-3.1-1.3-4.2c-1.2-1.7-3-2.7-5-2.9c-3.1-0.3-6.7,1.1-10.1,4.1c-0.2,0.2-0.5,0.4-0.7,0.6
			c0.2-1.4,0.3-3.6,0.2-5c-0.4-5.3-4.6-8.3-8.4-8.4c-3.3-0.1-7.6,2-8.5,8.3c-0.2,1.4-0.2,3,0.1,4.7c-1-1-2-1.8-3-2.4
			c-3.9-2.2-8.3-1.7-10.9,1.2c-2.3,2.6-3.1,7.6,1.6,13.8c2.9,3.8,7.5,7.9,13.6,12.2c-5,2.6-7.5,5.4-7.5,8.4
			c0,12.6,44.2,20.1,87,20.1c31,0,59.6-3.7,75-9.7c1.2,0.9,2.5,1.7,3.8,2.4c2.5,1.7,12.5,6.7,19.3,6.7c1.6,0,3.1-0.3,4.2-0.9
			c1.2-0.7,2.5-2.1,2.5-5.1c9.2,4.5,18.4,7.6,26,7.6c0.1,0,0.2,0,0.2,0c5.5-0.1,11.8-2.6,12.3-8.1C457.7,590.2,454.7,585,444.8,583z
			 M416.2,563.4c3.7,1.5,7.6,3.1,11.7,5c6.4,3,9.3,7.4,9.2,10.2c0,0.5-0.2,1.5-1,1.8l0.1,0.2c-10.2-3-18.4-6.3-25.9-10.3
			c-22.2-12.4-41.5-32.9-51.6-54.7c-0.3-0.6-0.5-1.1-0.7-1.6c-0.2-0.5-0.4-0.9-0.6-1.4c1,0.3,2.1,0.6,3.2,0.7
			c3.4,7.5,8.1,14.7,14,21.3C390.9,553,402.6,557.8,416.2,563.4z M419.1,471.7c-26.2,14.3-57.2,7.5-72.3-7.5c0,0,0,0,0.1-0.1
			c2.7,0.2,5.5,0.3,8.3,0.3c18.8,0,39-4.1,53.5-11c13.7-6.6,24.2-14.5,31.5-23.6C443.5,447.2,435.9,462.5,419.1,471.7z M437.7,370.2
			c9.1,4.9,14.2,17.2,12.7,30.6c-2.4,21.6-16.3,38.2-42.6,50.8c-16,7.7-39.2,11.8-59.5,10.7c0-0.1,0.1-0.1,0.1-0.2
			c0,0,0.1-0.1,0.1-0.1c16.1-2.6,32-11.3,47.3-25.9c12.2-11.6,21.4-24.6,25.9-32.8c1.8-3.2,3.3-6.5,4.5-9.8
			c1.9-4.8,5.2-14.5,6.4-25.1C434.4,368.8,436.1,369.4,437.7,370.2z M404,333.4c5.2-2.3,10.4-2.2,14.9,0.2c5.7,3,10.1,9.6,11.6,17.3
			c3.2,16.2-3.8,36.2-6,41.9c-1.2,3.2-2.7,6.4-4.4,9.6c-4.4,8.1-13.5,20.9-25.5,32.4c-14.5,13.8-29.6,22.2-44.7,25.1
			c0.1-0.2,0.3-0.5,0.4-0.7c16.9-10.5,32.8-31,42.6-55c10.1-24.6,11.9-48.3,5.1-65.5C399.1,336.5,401.2,334.7,404,333.4z
			 M370.9,400.4c0.4-9.8,0-20.2-1.1-30c-0.9-7.5-1.9-15.5-3-22.6l0-0.3c-1.4-9.7,4.4-16.8,10.9-18.9c5.6-1.8,13.3-0.2,18,9.3
			c7.3,16.8,5.6,40.7-4.6,65.6c-9.2,22.4-23.7,41.7-39.3,52.4c0.4-0.7,0.7-1.4,1.1-2c1.1-1.6,2.3-2.4,3.4-3.2
			c1.9-1.3,3.6-2.5,3.9-6.2c0.1-1.2,0.2-2.5,0.2-3.8C364.8,432,370.1,417.9,370.9,400.4z M300.5,380.3c1.7-0.2,2.5-0.5,2.9-0.7l0,0
			c0.3-0.2,0.3-0.5,0.3-0.7c0-0.3-0.1-0.7-0.5-0.9c-0.1-0.1-0.3-0.3-0.5-0.4c-0.2-0.2-0.5-0.4-0.7-0.6c-1-0.9-1.1-1.5-1.1-1.7
			c0-0.1,0.4-0.4,1.6-0.6c2.4-0.4,7.3,1,13.6,3.9c1.2,0.6,2.8,0.5,3.6-0.3c0.5-0.5,0.7-1.1,0.4-1.8c-0.6-1.6-0.4-2-0.3-2
			c0.6-0.4,1.7-0.4,2.9,0.2c1.7,0.9,3.4,1.9,5.2,3.1c22.9,15.3,31.8,33.4,30.9,62.7c0,1.3-0.1,2.6-0.2,3.9c-0.2,2.8-1.4,3.6-3.1,4.8
			c-1.2,0.9-2.6,1.8-3.9,3.7c-0.8,1.2-1.5,2.7-2.2,4.1c-0.7,1.5-1.4,3-2.2,4c-2.3,3.1-4.1,4.4-9.4,4.4c-5.2,0-8,1.4-10,2.4
			c-0.4,0.2-0.8,0.4-1.1,0.5c-5.1,2.2-11.2,3.4-17.5,3.5l-2.3,0c-4.8-0.3-9.6-1.6-13.4-3.1c7.1-1,11.4-5.5,13.8-14.3
			c2.6-9.6,0.6-20.8-2.1-25.9c0.5-15.2-3.4-32.9-15.4-39.3c-2.4-1.3-4.7-2-7-2.2C287.9,383.5,293.8,381.2,300.5,380.3z M280.2,402.1
			c0-1.7,0.7-3.2,1.7-4.2c2.2-2.5,5.6-1.5,7.9,0.4c1.9,1.9,1.9,4.7,1,7.1c-1.4,1.9-4.2,3.8-6.6,2.9
			C281.7,407.3,279.8,404.9,280.2,402.1z M304.9,433c1.6,5.5,2.5,13.8,0.5,21c-3,10.9-8.6,12.7-13.8,13.1c-0.6,0-1,0-1.3,0
			c-0.1,0-0.2,0-0.2,0c4.7-1.7,8.6-5.6,9.1-11.4c0.1-1.3,0.2-2.6,0.1-3.9c0.1-0.1,0.2-0.2,0.3-0.3
			C302.2,448.2,304.1,441.2,304.9,433z M277.1,452.5c0.2,0.3,0.4,0.7,0.7,1.1c-1.9,0.2-3.8,0.4-5.7,0.6
			C273.4,453.2,275,452.5,277.1,452.5z M279.5,452.9c0.6,0.2,1.2,0.4,1.9,0.6c2,0.8,6.9,2.1,11.4,1.5c-0.2,0.2-0.4,0.4-0.6,0.6
			c-2.6,2.5-7.2,3.3-11.2,3.4C281,456.6,280.3,454.5,279.5,452.9z M290,467.1l0,0.2c-0.1,0-0.2-0.1-0.3-0.1
			C289.9,467.1,290,467.1,290,467.1z M231.9,326.5c9.4,0,15.5,8.4,15.9,16.4l0,0.3c0.3,7.1,0.9,15.2,1.5,22.7
			c0.8,9.8,2.5,20.1,4.8,29.6c1,4.2,2.3,8.3,3.9,12.2c-1.2,3.1-2.1,6.4-2.7,9.8c-0.5,2.8-0.8,5.6-0.8,8.4c-6.2-5.9-12-12.6-17.2-20
			c-16.4-23.1-23.7-48-19.7-66.7C219.7,331.2,225.1,326.5,231.9,326.5z M195.1,338.6c4.6-3.1,10.2-3.5,15.8-1.1
			c1.7,0.8,3.2,1.9,4.3,3.3l0.2-0.1c-3.3,19.2,4,43.2,20.4,66.3c5.6,7.9,12,15.2,18.7,21.5c0.1,5.2,1,10.3,2.6,15.1
			c-5.8-2.3-11.7-5.2-17.5-8.7c-15.1-9.1-27.3-20.6-33.3-27.6c-2.3-2.8-4.4-5.6-6.2-8.5c-4.1-6.5-13.8-23.3-14.2-39.2
			C185.7,350.5,189.2,342.6,195.1,338.6z M176.3,411.6c-4.1-12.9-1.5-25.9,6.5-32.5c1.4-1.1,2.9-2.1,4.5-2.8
			c3.4,10.2,8.5,19,11.3,23.3c1.9,3,4,5.9,6.4,8.7c6,7.2,18.4,18.8,33.7,28c6.5,3.9,12.9,7,19.3,9.4c1.2,3,2.7,6,4.4,8.8
			c-12.2,0.2-24.2-0.9-34-3.4C208.4,446.1,184.4,437,176.3,411.6z M192,437.2c10.7,8.4,24,12.8,35.9,15.9c9.1,2.3,20.1,3.5,31.4,3.5
			c1.4,0,2.8,0,4.2-0.1c0.5,0.7,0.9,1.3,1.5,2c0.3,0.4,0.7,0.8,1.3,0.9c1.1,0.2,2.1-1.4,3.6-3.2c2.9-0.2,5.8-0.5,8.7-0.8
			c0.4,1.1,0.6,2.3,0.5,3.6c-3.4,0-6-0.4-6.2-0.3c0.5,1.2,1,2.4,1.7,3.5c0.9,1.5,2.1,2.7,3.4,3.6c-17.7,13.1-44.9,15.8-64.2,6.3
			C199.8,465.1,192.1,452.7,192,437.2z M266.1,497.3c-0.4-0.5-0.7-1-0.9-1.4c-0.4-0.7-0.8-1.3-1.6-1.5c-0.9-0.2-1.7,0.4-3.4,1.9
			c-6.5,5.5-15.1,4.1-20.9,1c-7.8-4.1-12.4-11.5-11.8-18.9c4,0.8,8.1,1.1,12.3,1.1c14.4,0,29.1-4.4,40-12.8c1.6,0.7,3.3,1.1,5,1.1
			c-4.3,6.8-6.5,14.5-6.5,22.7c0,4.3,0.7,8.5,2,12.4C274.5,503.3,269,501.1,266.1,497.3z M319.3,529.9c-0.1,0-0.2,0-0.3,0
			c-10.3,0-19.9-4-27.2-11.4c-7.4-7.4-11.5-17.3-11.6-27.9c-0.1-8.2,2.3-16.1,6.9-22.8c0,0,0,0,0,0c4.1,2.7,12.5,5.4,19.5,5.9l2.3,0
			c6.6-0.1,12.9-1.3,18.2-3.6c0.4-0.2,0.8-0.4,1.2-0.6c2-1,4.4-2.2,9.1-2.2c3.5,0,5.8-0.5,7.8-1.9c11.1,11.1,26.6,15.9,41.8,15.9
			c9.2,0,18.3-1.8,26.2-4.9c0,0.1,0,0.2,0,0.3c1.5,7.6-1.9,16.1-8.6,21.6c-5.6,4.6-12.4,5.9-18.2,3.5c-1.4-0.6-2.4-1.1-3.1-1.4
			c-1.2-0.6-1.8-0.9-2.4-0.6c-0.6,0.2-0.8,0.8-1,1.5c-0.2,0.6-0.5,1.4-1.2,2.6c-3.1,5.4-10.6,8.6-17.8,7.7
			c-6.8-0.9-11.8-5.2-13.6-11.8c-0.1-0.5-0.6-0.8-1.1-0.7c-0.5,0.1-0.8,0.6-0.7,1.1c1.2,4.4,3.6,7.8,6.9,10.1
			C345.7,522.3,332.9,529.8,319.3,529.9z M266.2,567.6c0.4-0.4,0.8-0.7,1.1-1.1c1.9-1.6,3.8-2.5,5.5-2.5c1.3,0,2.3,0.5,3,1.5
			c0.4,0.6,0.6,1.3,0.7,2.1c0,1.5-0.5,3.1-1.4,5c-1.7,3.2-5.3,6.2-8.1,8.6c-0.5,0.4-1,0.8-1.5,1.2c-1.2,1-2.1,1.8-2.8,2.3
			c-0.4,0.3-0.8,0.4-1.3,0.4c-0.7,0-1.3-0.3-1.4-0.4c-6.5-4.1-11-7.8-13.6-11.2c-2-2.7-2.7-5.2-1.7-7.1c0.6-1.3,2-2.1,3.6-2.1
			c0.9,0,1.9,0.3,2.8,0.8c1.2,0.7,2.1,1.7,2.7,2.4c0.3,0.4,0.7,0.8,1.3,0.8l0.5,0l0.3-0.4c0.3-0.4,0.2-1,0.1-1.4
			c-0.4-1.6-0.6-3-0.4-4.3c0.4-2.9,2-4.6,4.3-4.6c2.1,0,4.4,1.6,4.6,4.5c0.1,1.1-0.1,3.2-0.3,3.9c-0.1,0.4-0.1,1,0.2,1.4
			c0.2,0.3,0.5,0.4,0.8,0.4C265.6,568.1,265.9,567.8,266.2,567.6z M276.8,573.1c10.6-2,24.4-3.1,39-3.1c33.3,0,56.6,5.6,56.6,10.6
			c0,5-23.2,10.6-56.6,10.6c-21.4,0-40.9-2.4-50.6-6.1c0.4-0.3,0.9-0.7,1.4-1.2c0.5-0.4,0.9-0.8,1.4-1.2c3-2.5,6.7-5.6,8.6-9.2
			C276.7,573.4,276.8,573.3,276.8,573.1z M222.4,559.3c-4-5.3-3.5-9.4-1.7-11.5c2-2.3,5.5-2.6,8.6-0.8c1.3,0.8,2.6,2,3.8,3.5
			c0.4,0.5,1.1,1.4,1.9,0.9c0.8-0.4,0.6-1.5,0.4-2c-0.6-2.3-0.8-4.4-0.5-6.2c0.8-5.1,3.9-6.9,6.6-6.8c3,0.1,6.3,2.4,6.6,6.7
			c0.1,1.6-0.2,4.5-0.4,5.6c-0.2,1,0,1.6,0.6,1.9c0.5,0.3,1.2,0.1,1.7-0.4c0.5-0.5,1.1-1,1.6-1.5c3-2.6,6.1-3.9,8.7-3.6
			c1.5,0.2,2.8,0.9,3.8,2.2c0.6,0.9,1,1.9,1,3.2c0,1.9-0.6,4.2-1.8,6.6c-1.1-0.8-2.5-1.2-3.7-1.2c-2.4,0-5.5,1.6-6.2,6.2
			c-0.1,0.8-0.1,1.7,0,2.7c-0.5-0.4-1-0.9-1.6-1.2c-1.2-0.7-2.4-1-3.7-1c-2.3,0-4.3,1.2-5.2,3.1c-1.2,2.5-0.5,5.8,1.9,9
			c0.1,0.2,0.3,0.3,0.4,0.5c-1.8,0.9-3.7-0.2-3.7-0.2C232.5,569.3,226,564,222.4,559.3z M314.1,599.3c-50.9,0-85.1-9.5-85.1-18.3
			c0-2.4,2.6-4.9,7.4-7.2c1.3,0.9,2.7,1.8,4.2,2.7c0.5,0.3,1.8,0.9,3.2,0.9c0.9,0,1.8-0.2,2.7-0.8c2.8,3,7,6.3,12.5,9.7
			c0,0,1.1,0.7,2.4,0.7c0.8,0,1.5-0.2,2.2-0.7c9.6,4,30,6.6,52.3,6.6c28.3,0,58.4-4.4,58.4-12.4c0-8.1-30.1-12.4-58.4-12.4
			c-14.2,0-27.6,1-38.2,2.9c0.4-1.2,0.6-2.4,0.6-3.5c0-1.1-0.3-2.1-0.9-3c11.5-1.2,23.8-1.8,36.7-1.8c18.5,0,36.8,1.3,51.5,3.8
			l0.1-0.4c0.2,0.3,0.4,0.6,0.6,0.9c6.7,10,13.6,17.6,21.1,23.1C371.8,595.8,344.1,599.3,314.1,599.3z M417,593.9
			c0.2,2-0.3,3.4-1.5,4.1c-4.6,2.7-17.8-3.2-21.6-5.7c-9.4-5.5-18-14.1-26.1-26.3c-11.7-17.1-18.5-32.1-20.7-45.8
			c0.8-0.8,1.6-1.6,2.4-2.5c4.9,17.3,13.7,32.1,28.4,47.7c7.5,7.9,23.2,20,39,28.1L417,593.9z M455.5,593.9c-0.3,3-3.7,6.3-10.5,6.4
			c-0.1,0-0.2,0-0.2,0c-20.5,0-53.5-23.5-65.6-36.1c-14.8-15.7-23.6-30.6-28.3-48.1c1.2-1.5,2.2-3.1,3.2-4.8
			c0.3,0.2,0.6,0.3,0.9,0.4c0.4,1.1,0.8,2,1.3,3c0.2,0.5,0.5,1,0.7,1.6c10.3,22.2,29.9,42.9,52.4,55.5c9.6,5.2,20.4,9.1,35,12.9
			C453.1,586.6,455.8,590.8,455.5,593.9z"/>
		<path d="M288.7,477.1c-1.1,0-1.9,1.1-2.7,2.9c-1.1,2.3-2.3,5.9-2.2,9.5c0.2,6.1,3,8.9,5.5,8.9c0,0,0,0,0,0c1,0,2-0.4,2.8-1.2
			c1.4-1.5,2.2-4,2.2-7.1c0-2.9-0.8-6-2.4-9.2C290.7,478.3,289.9,477.1,288.7,477.1z M290.8,495.9c-0.5,0.5-1,0.7-1.5,0.7h0
			c-1.7,0-3.5-2.5-3.7-7.1c-0.1-3.3,1.1-6.5,2-8.7c0.6-1.2,0.9-1.6,1-1.8c0.2,0.2,0.7,0.9,1.6,2.6c1.4,3,2.2,5.8,2.2,8.4
			C292.4,492.7,291.8,494.8,290.8,495.9z"/>
		<path d="M299.7,496.4c-0.9,0-1.7,0.6-2.3,1.9c-1.2,2.5-2.6,6.4-2.4,10.4c0.3,6.1,3,8.8,5.6,8.8c0,0,0,0,0,0c1,0,2-0.4,2.8-1.3
			c1.4-1.5,2.2-4,2.1-7.2c-0.1-3.4-1.2-7.1-3.5-10.8C301.7,497.5,300.9,496.4,299.7,496.4z M302.1,514.9c-0.5,0.5-1,0.7-1.5,0.7
			c-1.7,0-3.5-2.4-3.8-7.1c-0.2-3.6,1.1-7.1,2.2-9.5c0.3-0.7,0.6-0.8,0.6-0.8c0.1,0,0.5,0.3,0.8,0.9c2.1,3.5,3.1,6.8,3.2,9.9
			C303.7,511.7,303.2,513.8,302.1,514.9z"/>
		<path d="M310.4,477.8c-1.4,0-2.3,1.7-3,3.1c-1,2.2-2.1,5.5-2,9c0.2,6.1,3,8.9,5.5,8.9c0,0,0,0,0,0c1,0,2-0.4,2.8-1.2
			c1.4-1.5,2.2-4,2.2-7.1c0-3.1-0.9-6.3-2.6-9.7C312.7,479.4,311.8,477.8,310.4,477.8z M312.4,496.3c-0.5,0.5-1,0.7-1.5,0.7
			c-1.7,0-3.5-2.5-3.7-7.1c-0.1-3.1,0.9-6.2,1.8-8.2c0.8-1.8,1.3-2,1.3-2c0.3,0.1,0.7,0.8,1.4,2c1.6,3.1,2.4,6.1,2.4,8.8
			C314.1,493.1,313.5,495.2,312.4,496.3z"/>
		<path d="M322.4,435.2c0.1,0,0.2,0,0.3,0h0c3.7,0,7.4-3.1,8.5-7.2c0.5-1.8,0.5-3.8,0.1-5.8c-1.1-5.1-4.3-8.4-8.2-8.4
			c-3.8,0-6.8,3.1-7.7,7.8c-0.8,4.2-0.1,8.2,1.9,10.8C318.5,434.1,320.3,435.1,322.4,435.2z M317.1,422c0.7-3.8,3.1-6.3,5.9-6.3
			c3,0,5.5,2.7,6.4,6.9c0.4,1.7,0.3,3.4-0.1,5c-0.8,3.3-3.9,5.9-6.9,5.7c-1.5-0.1-2.8-0.8-3.8-2C317,429.1,316.4,425.6,317.1,422z"
			/>
		<path d="M321.4,432.1c1.7-0.2,2.3-3.4,2.3-5c0.1-2.7-1.3-5.1-3.4-4.5c-1.7,0.4-2,4-1.8,5.6C318.7,430.2,318.9,432.4,321.4,432.1z"
			/>
		<path d="M319.7,421.6c0,0,0.1,0,0.1,0c0.5-0.1,0.9-0.5,0.8-1c-0.1-0.8,0.1-1.5,0.5-1.7c0.2-0.1,0.5-0.1,0.7,0
			c0.4,0.3,0.5,0.9,0.4,1.6c-0.1,0.5,0.3,1,0.8,1.1c0.5,0.1,1-0.3,1.1-0.8c0.3-1.5-0.2-2.8-1.2-3.5c-0.8-0.6-1.9-0.6-2.7-0.1
			c-0.5,0.3-1.6,1.3-1.3,3.5C318.8,421.3,319.2,421.6,319.7,421.6z"/>
	</g>
</g>
</svg>
