<?xml version="1.0" encoding="utf-8"?>
<!-- Generator: Adobe Illustrator 18.1.1, SVG Export Plug-In . SVG Version: 6.00 Build 0)  -->
<svg version="1.1" xmlns="http://www.w3.org/2000/svg" xmlns:xlink="http://www.w3.org/1999/xlink" x="0px" y="0px"
	 viewBox="0 0 595.3 841.9" enable-background="new 0 0 595.3 841.9" xml:space="preserve">
<g id="Preenchimento">
	<g>
		<path fill="#FFFFFF" d="M265.7,552.8c-0.5-1.2-1-2.5-1.3-3.8c-0.2-0.6-0.3-1.3-0.5-1.9l-0.2-0.8l-0.8,0.1c-4.3,0.6-8.4,1.3-12.2,2
			l-0.8,0.2l0,0.8c0.1,1.3-0.4,2.7-1.2,4.1l-0.4,0.7l0.6,0.5c0.5,0.4,0.8,0.9,1.2,1.6l0.3,0.7l0.7-0.2c3.8-1,8.5-1.8,13.9-2.5
			l1.2-0.2L265.7,552.8z"/>
		<path fill="#FFFFFF" d="M259.3,503.6c-3.7-4.7-6.1-10.2-7.4-16.2c-0.6-2.7-1-5.6-1.3-8.4c-2.3-22.3,3.3-44.8,4.9-49.7l0.2-0.7
			l-0.6-0.4c-2.4-1.7-4.7-3.5-6.8-5.4l-0.7-0.7l-0.6,0.8c-0.7,0.9-1.4,2.1-2,3.3c-3.3,7.5-16.9,54.6-10.1,81.6
			c2,7.9,6.3,12.6,11.8,12.7l0.3,0c4.9,0,9.9-3.9,11.5-9.2c0.6-2,1-4.5,1-7.3v-0.3L259.3,503.6z"/>
		<path fill="#FFFFFF" d="M322.9,551.6c-0.6-1.9-0.9-4.1-1.1-6.6l-0.1-0.8l-0.8,0c-10.1-0.5-21-0.5-31.3,0l-0.9,0l0,0.9
			c0,1.6-0.1,3.1-0.2,4.4c-0.1,0.5-0.2,1.1-0.4,1.7l-0.3,1.2l1.2,0c3.8-0.1,7.5-0.2,10.9-0.2c7.5,0,14.9,0.3,21.9,0.8l1.3,0.1
			L322.9,551.6z"/>
		<path fill="#FFFFFF" d="M365.5,406.8c-1.9-0.8-3.7-1.8-5.2-2.6l-1-0.6l-0.4,0.9c-8.9,17.7-31.5,29.1-57.6,29.1
			c-25.9,0-46.4-9.9-54.8-26.5l-0.4-0.8l-0.8,0.5c-2.2,1.2-4.1,2-5.8,2.5l-1.2,0.3l0.6,1c10.8,19,34.1,30.3,62.2,30.3
			c31.8,0,51.9-10.1,65-32.8l0.5-0.9L365.5,406.8z"/>
		<path fill="#FFFFFF" d="M288.4,540.8c-0.2-1.8-0.7-4.5-1.1-7.4c-0.7-4.3-1.7-10.2-1.8-12.9l0-0.7l-0.6-0.2
			c-7.8-2.1-14.7-5.7-20.2-10.5l-1.4-1.2l-0.2,1.8c-0.8,9.8-1.7,28,1.4,39.2c1.6,5.9,4.5,10.3,7.9,12.1c1.2,0.6,2.4,0.9,3.7,0.9
			c0.9,0,1.9-0.2,2.9-0.5c2.5-0.8,8.3-3.7,9.5-12.1C288.8,546.9,288.8,544,288.4,540.8z"/>
		<path fill="#FFFFFF" d="M283.6,386.3c-0.2-1.7-0.7-3.2-1.6-4.5c-3.4-5-9.9-6.5-20.3-4.5c-8.8,1.7-22.1,6.3-30.3,12.6
			c-4,3.1-5.5,7.7-4,12.3c1.5,4.4,5.4,7.5,9.4,7.5c0.7,0,1.4-0.1,2.1-0.3c3-0.8,6-2.5,8.6-4l0.3-0.1c0.7-0.4,1.3-0.8,1.9-1.1
			c6-3.2,12-4.5,19.7-5.6C276.8,397.4,284.4,395.4,283.6,386.3z"/>
		<path fill="#FFFFFF" d="M374.1,387c-5.4-4.1-13.9-7.5-25.4-10c-3-0.7-6.5-0.8-8.9-0.8c-2.6,0-3.7,0-4.3,0.1v0
			c-2.8,0.1-5.5,0.9-7.4,2.3c-2.5,1.7-3.9,4.2-4.2,7.3c-0.6,9.1,7.1,10.9,14.4,11.9c7.7,0.9,13.7,2.1,19.8,5.2
			c0.5,0.3,1.1,0.6,1.7,0.9l0.5,0.3c2.6,1.4,5.5,3,8.4,3.7c0.5,0.1,0.9,0.2,1.4,0.2c3.6,0,7.4-3.2,8.8-7.4
			C379.8,398.3,380.9,392.2,374.1,387z"/>
		<path fill="#FFFFFF" d="M301,324.2c-43.1,0-68.8,31-68.8,61.1c0,0.5,0,1,0,1.6l0.1,2.3l1.4-0.9c2.6-1.7,5.6-3.4,9-4.9l0.4-0.2
			l0.1-0.5c4.7-23.2,28.5-39.4,58-39.4c30.4,0,55.3,15.2,60.5,36.9l0.1,0.5l0.5,0.2c3.6,1.3,6.7,2.8,9.2,4.3l1.4,0.8l0.1-2.1
			c0-0.4,0-0.9,0-1.3C373,349.9,341.4,324.2,301,324.2z"/>
		<path fill="#FFFFFF" d="M401.7,560.8c-1.2-1.8-3.6-3-6.8-3.5c-0.5-0.1-1.1-0.1-1.7-0.2c-0.2,0-0.4-0.1-0.5-0.2
			c0-0.2,0.3-0.4,0.5-0.5c0.7-0.4,2.6-1.7,3.5-2.6c2.5-2.6,2.2-6,0.6-8c-1.8-2.2-5.1-2.5-8-0.6c-0.7,0.5-1.4,1.1-2.1,1.8
			c-0.3,0.4-0.9,1-1.3,1c0,0,0,0,0,0c-0.2-0.1-0.3-0.6-0.3-1.5c0-0.8,0-1.5-0.1-2.2c-0.6-3-2.8-5-5.4-5.1c-2.3,0-5.2,1.9-6.4,7.1
			c-0.1,0.6-0.2,1.3-0.3,2c0,0.3-0.1,1.1-0.5,1.1c-0.1,0-0.3-0.1-0.7-0.6c-0.6-0.8-1.5-2.1-2.2-2.7c-1.2-1.2-2.7-1.8-4.3-1.8
			c-1.4,0-2.7,0.5-3.7,1.3c-1.8,1.5-2.9,4.3-0.5,7.9l0.4,0.6l0.7-0.2c0.3-0.1,0.6-0.1,0.8-0.1c1.6,0,3,1.3,3.4,3.1
			c0,0.2,0.1,0.4,0.1,0.6l0.2,1.7l1.3-1.2c0.3-0.2,0.5-0.4,0.8-0.6c0.8-0.5,1.7-0.8,2.5-0.8c1.4,0,2.5,0.7,3.1,2
			c0.6,1.4,0.3,3-0.8,4.1c-0.2,0.2-0.5,0.5-0.8,0.7l-1.6,1.2l2,0.4c1.6,0.3,2.9,1,3.6,2c0.4,0.6,0.6,1.2,0.5,1.9l-0.1,1l1,0
			c2.3,0,4.4,0.1,6.3,0.1c5.3,0,9.1-0.2,10.5-0.5c2.4-0.5,4.2-1.4,5.5-2.5c0.8-0.7,1.3-1.6,1.5-2.5
			C402.7,563.3,402.4,562,401.7,560.8z"/>
		<path fill="#FFFFFF" d="M348.8,429.2l-0.4-1l-0.9,0.6c-11.6,8.1-26.8,12.1-46.5,12.1c-16.9,0-32.2-4-44.1-11.7l-1-0.6l-0.4,1.1
			c-2.1,6.5-7,28-4.8,49.2c0.3,2.9,0.7,5.8,1.3,8.4c1.3,6.2,3.8,11.8,7.7,16.6l0.1,0.1c7.8,9.8,20.8,16.1,35.6,17.5
			c1.9,0.2,3.8,0.3,5.7,0.3c18.3,0,41-8,50-30.3c1.2-2.9,2.1-5.9,2.8-9C358.2,463.8,354.5,442.3,348.8,429.2z"/>
		<path fill="#FFFFFF" d="M361.5,553.4c-0.9-1.4-1.3-2.7-1.2-4l0-0.8l-0.8-0.2c-3.7-0.7-7.7-1.4-11.8-2l-0.9-0.1l-0.2,1.3
			c-0.3,2.4-1,4.7-2.1,6.7l-0.6,1.1l1.2,0.3c2.8,0.6,5.1,1.2,7.1,1.8l0.4,0.1l0.3-0.2c1.5-0.7,3-0.5,4.2,0.7
			c0.2,0.2,0.5,0.5,0.7,0.7l1.3,1.5l0.4-2.2c0.3-1.7,0.9-2.9,1.9-3.7l0.6-0.5L361.5,553.4z"/>
		<path fill="#FFFFFF" d="M377.1,567.1c-0.8-1.1-2.3-1.9-4.3-2.1c-0.3,0-0.7-0.1-1-0.1c-0.1,0-0.3,0-0.3-0.1c0-0.1,0.2-0.3,0.3-0.3
			c0.5-0.3,1.6-1.1,2.2-1.7c1.3-1.4,1.3-3,0.8-4.1c-0.5-1.2-1.7-2-3.1-2c-0.8,0-1.7,0.3-2.5,0.8c-0.3,0.2-0.7,0.5-1,0.8
			c-0.5,0.5-0.8,0.8-1,0.7c0,0-0.1-0.1-0.2-0.9c0-0.3-0.1-0.8-0.2-1.3c-0.4-1.8-1.8-3.1-3.4-3.1c-1.9,0-3.4,1.7-4,4.6
			c-0.1,0.3-0.1,0.7-0.2,1c-0.1,0.4-0.2,1-0.4,1c-0.1,0-0.3-0.2-0.5-0.6c-0.1-0.1-0.1-0.2-0.2-0.2c-0.4-0.6-0.8-1-1.1-1.3
			c-1-0.9-2-1.1-2.6-1.1c-1.3,0-2.6,0.7-3.1,1.8c-0.6,1.2-0.4,2.7,0.6,4.1c0.5,0.8,1.3,1.5,2.3,2.1c0.3,0.2,0.3,0.3,0.3,0.3l-0.2,0
			c-0.1,0-0.2,0-0.3,0c-0.9-0.2-1.9-0.1-2.6,0c-1.8,0.4-3.1,1.8-3.1,3.5c0,1.9,1.8,3.4,4.6,3.9c1.1,0.2,5.7,0.4,10.3,0.4
			c5.1,0,8.8-0.2,10-0.5c1.5-0.4,2.6-0.9,3.4-1.6c0.5-0.5,0.8-1,0.9-1.6C377.8,568.6,377.6,567.8,377.1,567.1z"/>
		<path fill="#FFFFFF" d="M400.1,349.5c-2.5-2.4-6.3-3.4-10.5-2.6c-9.8,1.7-13,19.3-14.7,28.8c-0.2,1.3-0.5,2.5-0.7,3.5l-1.2,6l0,1
			l0.8,0.5c0.2,0.1,0.3,0.2,0.5,0.3c4.7,3.6,6.5,8.8,4.8,13.7c-1.5,4.3-5.1,7.4-8.8,7.4c-0.5,0-1-0.1-1.5-0.2
			c-0.4-0.1-0.9-0.3-1.3-0.4l-0.9-0.3l-0.4,0.7c-4.8,8.4-10.4,14.9-17.1,19.9l-0.6,0.4l0.3,0.7c2.2,5,4,11,5.2,17.4l0.3,1.5l1.2-0.9
			c6.6-5.1,39.9-33.1,47.9-84.9C404,356.8,402.9,352.2,400.1,349.5z"/>
		<path fill="#FFFFFF" d="M258.8,565.5c-0.7-0.2-1.7-0.2-2.6,0c-0.1,0-0.3,0-0.3,0h-0.1l0-0.1c0,0,0-0.1,0.3-0.3
			c1-0.6,1.8-1.3,2.3-2.1c1-1.4,1.2-2.9,0.6-4.1c-0.6-1.1-1.8-1.8-3.1-1.8c-0.7,0-1.7,0.2-2.6,1.1c-0.3,0.3-0.7,0.7-1.1,1.3
			c0,0.1-0.1,0.1-0.2,0.3c-0.2,0.3-0.4,0.5-0.5,0.5c-0.2,0-0.3-0.5-0.4-1c0-0.4-0.1-0.7-0.2-1c-0.5-2.8-2.1-4.5-4-4.5
			c-1.6,0-3,1.3-3.4,3.1c-0.1,0.5-0.1,0.9-0.2,1.3c-0.1,0.7-0.2,0.8-0.3,0.8c-0.2,0-0.6-0.4-1-0.8c-0.3-0.3-0.7-0.6-1-0.8
			c-0.8-0.5-1.7-0.8-2.5-0.8c-1.4,0-2.5,0.8-3,2c-0.5,1.1-0.5,2.8,0.8,4.1c0.5,0.6,1.7,1.4,2.2,1.7c0.1,0.1,0.3,0.2,0.3,0.3
			c0,0.1-0.2,0.1-0.3,0.1c-0.4,0-0.7,0.1-1.1,0.1c-2,0.2-3.5,1-4.3,2.1c-0.5,0.7-0.7,1.5-0.5,2.3c0.1,0.6,0.4,1.1,0.9,1.6
			c0.8,0.7,1.9,1.3,3.4,1.6c1.2,0.3,4.9,0.5,10,0.5c4.6,0,9.2-0.2,10.3-0.4c2.8-0.5,4.6-2,4.6-3.9
			C261.9,567.3,260.6,565.9,258.8,565.5z"/>
		<path fill="#FFFFFF" d="M248.1,545.6c-1-0.9-2.3-1.3-3.7-1.3c-1.6,0-3.1,0.6-4.3,1.8c-0.6,0.6-1.6,1.8-2.2,2.7
			c-0.3,0.5-0.6,0.6-0.7,0.6c-0.3-0.1-0.4-0.9-0.4-1.1c-0.1-0.7-0.2-1.4-0.3-2c-1.1-5.3-4-7.1-6.4-7.1c-2.6,0-4.8,2.1-5.4,5.1
			c-0.1,0.7-0.2,1.4-0.1,2.1c0,0.9,0,1.5-0.4,1.7c-0.3,0-0.9-0.6-1.2-1c-0.7-0.7-1.4-1.4-2.1-1.8c-2.9-1.9-6.2-1.6-8,0.6
			c-1.6,2-1.9,5.4,0.6,8c0.9,0.9,2.8,2.2,3.5,2.6c0.2,0.1,0.5,0.3,0.5,0.5c0,0.1-0.2,0.2-0.4,0.2c-0.6,0-1.2,0.1-1.7,0.2
			c-3.2,0.5-5.6,1.7-6.8,3.5c-0.8,1.1-1,2.4-0.7,3.8c0.2,0.9,0.7,1.7,1.5,2.5c1.3,1.1,3.1,2,5.4,2.5c1.5,0.3,5.2,0.5,10.5,0.5
			c1.9,0,4,0,6.3-0.1l1,0l-0.1-1c0-0.7,0.1-1.3,0.5-1.9c0.7-1,2-1.7,3.6-2l2-0.4l-1.6-1.2c-0.4-0.3-0.6-0.5-0.8-0.7
			c-1.1-1.2-1.4-2.7-0.8-4.1c0.5-1.2,1.7-2,3.1-2c0.8,0,1.7,0.3,2.5,0.8c0.3,0.2,0.5,0.4,0.8,0.6l1.3,1.2l0.3-1.7
			c0-0.2,0.1-0.4,0.1-0.6c0.4-1.8,1.8-3.1,3.4-3.1c0.2,0,0.5,0,0.8,0.1l0.7,0.2l0.4-0.6C251,549.9,249.9,547.1,248.1,545.6z"/>
		<path fill="#FFFFFF" d="M342.6,507l-0.3-1.7l-1.2,1.2c-5.1,5-11.3,8.9-18.5,11.6l-0.7,0.2l0.1,1.2c0.2,2.5,0.1,9.3-0.1,15.4l0,0.3
			c-0.1,3-0.1,5.8-0.1,7.6c0,4.5,0.7,8.2,2,11.1c2.2,5,5.9,7.9,10.1,7.9c0.4,0,0.9,0,1.4-0.1c5.7-0.8,10.4-6.5,11.4-13.9
			C347.9,538.1,344.7,517.6,342.6,507z"/>
		<path fill="#FFFFFF" d="M360.5,573.2c-3.8-0.1-6.7-0.2-7.5-0.3c-3.2-0.6-4.2-2.1-4.5-3l-0.3-0.8l-0.8,0.2
			c-11.2,2.6-28.9,4.2-47.4,4.2c-14.5,0-26.7-1.6-37.7-3.3l-0.6-0.1l-0.3,0.5c-0.5,0.8-1.6,1.8-4.1,2.3c-1.2,0.2-5.5,0.3-9,0.3
			l-8.4,0.1l8.2,1.8c15.5,3.4,36.2,5.3,56.8,5.3c20.5,0,40.3-1.9,55.8-5.3l7.8-1.7L360.5,573.2z"/>
		<path fill="#FFFFFF" d="M352.5,563.8c-0.2-0.2-0.4-0.5-0.6-0.8c-1-1.4-1.2-2.9-0.5-4.1l0.1-0.1c0-0.1,0.1-0.1,0.1-0.2l0.7-1.1
			l-1.2-0.4c-1.9-0.6-4.2-1.1-6.6-1.6l-0.6-0.1l-0.3,0.5c-2.1,3.2-5.1,5.1-8.3,5.6c-4.7,0.7-9-2.3-11.5-7.8
			c-0.1-0.2-0.1-0.3-0.2-0.5c0-0.1-0.1-0.3-0.2-0.4l-1.5-3.9l-0.3,3.8c-10.5-0.7-21.9-0.9-33.2-0.5l-0.6,0l-0.2,0.6
			c-1.6,4.2-4.6,7.3-8.6,8.7c-2.3,0.8-4.5,0.6-6.6-0.4c-2.2-1.2-4.2-3.4-5.8-6.6l-0.3-0.6l-0.6,0.1c-3.1,0.4-6,0.8-8.6,1.3l0.2-0.2
			l-2.7,0.6l-2.5,0.5l0.2,0.1c-0.4,0.1-0.7,0.2-1.1,0.3l-0.9,0.2l0.3,1.2c0,0.1,0.1,0.2,0.1,0.3l0.4,2.2l1.3-1.5
			c0.2-0.2,0.4-0.5,0.7-0.7c0.1-0.1,0.2-0.2,0.4-0.3l1.4-1l1.6,0.4c1,0.2,1.9,0.9,2.4,1.7c0.6,1.2,0.4,2.7-0.6,4.1
			c-0.2,0.3-0.4,0.5-0.6,0.8l-1.3,1.4l1.9,0.2c0.2,0,0.4,0.1,0.6,0.1c1.9,0.4,3.1,1.9,3,3.5l-0.1,1l0.9,0.1
			c10.9,1.7,23,3.2,37.4,3.2c18.6,0,36.5-1.6,47.7-4.3l0.6-0.1l0.1-0.6c0.2-1.4,1.4-2.5,3-2.9c0.2,0,0.4-0.1,0.6-0.1l1.9-0.2
			L352.5,563.8z"/>
		<g>
			<g>
				<path fill="#FFFFFF" d="M344.9,558.3C344.9,558.3,344.9,558.3,344.9,558.3c0.2-0.3,0.3-0.6,0.4-0.9
					C345.2,557.7,345.1,558,344.9,558.3z"/>
				<path fill="#FFFFFF" d="M344.7,560l-0.3-1.8l0.1-0.1c0.1-0.2,0.2-0.4,0.3-0.7l0.1-0.2l0.9,0.4c-0.1,0.3-0.3,0.7-0.4,1L344.7,560
					z"/>
			</g>
			<g>
				<path fill="#FFFFFF" d="M344.7,560l-0.3-1.8l0.1-0.1c0.1-0.2,0.2-0.4,0.3-0.7l0.1-0.2l0.9,0.4c-0.1,0.3-0.3,0.7-0.4,1L344.7,560
					z"/>
				<path fill="#FFFFFF" d="M344.5,561.6l-0.5-3.5l0.1-0.3c0.1-0.2,0.2-0.4,0.3-0.6l0.3-0.7l1.7,0.7l-0.2,0.4
					c-0.1,0.3-0.3,0.7-0.4,1L344.5,561.6z"/>
			</g>
		</g>
		<g>
			<g>
				<path fill="#FFFFFF" d="M345.1,559.3c0.1-0.3,0.3-0.7,0.4-1C345.4,558.6,345.3,558.9,345.1,559.3
					C345.1,559.2,345.1,559.2,345.1,559.3z"/>
				<path fill="#FFFFFF" d="M344.7,561.4v-2.2h0.5l-0.5,0l0-0.1l0.1-0.2c0.1-0.2,0.2-0.4,0.3-0.7l0.1-0.2l0.9,0.3
					c-0.1,0.4-0.3,0.7-0.4,1L344.7,561.4z"/>
			</g>
			<g>
				<path fill="#FFFFFF" d="M344.7,561.4v-2.2h0.5l-0.5,0l0-0.1l0.1-0.2c0.1-0.2,0.2-0.4,0.3-0.7l0.1-0.2l0.9,0.3
					c-0.1,0.4-0.3,0.7-0.4,1L344.7,561.4z"/>
				<path fill="#FFFFFF" d="M344.2,563.6v-4.8h0.1c0.1-0.2,0.2-0.5,0.3-0.7l0.3-0.7l1.7,0.7l-0.2,0.4c-0.1,0.4-0.3,0.7-0.4,1.1
					L344.2,563.6z"/>
			</g>
		</g>
		<g>
			<g>
				<path fill="#FFFFFF" d="M266.9,558.4c0.2,0.3,0.4,0.6,0.5,0.9c0,0,0-0.1,0-0.1C267.2,559,267,558.7,266.9,558.4z"/>
				<path fill="#FFFFFF" d="M268,561.1l-1-1.5c-0.2-0.3-0.4-0.6-0.6-1l0.8-0.5l0.1,0.2c0.1,0.2,0.2,0.4,0.4,0.6l0.1,0.1L268,561.1z"
					/>
			</g>
			<g>
				<path fill="#FFFFFF" d="M268,561.1l-1-1.5c-0.2-0.3-0.4-0.6-0.6-1l0.8-0.5l0.1,0.2c0.1,0.2,0.2,0.4,0.4,0.6l0.1,0.1L268,561.1z"
					/>
				<path fill="#FFFFFF" d="M268.6,562.9l-2-3c-0.2-0.3-0.4-0.7-0.6-1l-0.2-0.4l1.6-0.9l0.4,0.6c0.1,0.2,0.2,0.4,0.3,0.6l0.2,0.2
					L268.6,562.9z"/>
			</g>
		</g>
		<g>
			<g>
				<path fill="#FFFFFF" d="M266.8,559.4c0.2,0.3,0.4,0.6,0.5,0.9c0,0,0-0.1,0-0.1C267.1,560,267,559.7,266.8,559.4z"/>
				<path fill="#FFFFFF" d="M267.9,562.1l-1-1.6c-0.2-0.3-0.4-0.6-0.6-1l0.8-0.5l0.1,0.2c0.1,0.2,0.3,0.4,0.4,0.6l0.1,0.3
					L267.9,562.1z"/>
			</g>
			<g>
				<path fill="#FFFFFF" d="M267.9,562.1l-1-1.6c-0.2-0.3-0.4-0.6-0.6-1l0.8-0.5l0.1,0.2c0.1,0.2,0.3,0.4,0.4,0.6l0.1,0.3
					L267.9,562.1z"/>
				<path fill="#FFFFFF" d="M268.5,563.9l-2-3.1c-0.2-0.3-0.4-0.7-0.6-1l-0.2-0.4l1.6-0.9l0.4,0.6c0.1,0.2,0.2,0.4,0.4,0.6l0.1,0.1
					l0.1,0.3L268.5,563.9z"/>
			</g>
		</g>
		<g>
			<g>
				<path fill="#FFFFFF" d="M309.7,516c0.2,0.4,0.5,0.8,0.7,1.1c0,0,0-0.1,0-0.1C310.2,516.7,310,516.3,309.7,516z"/>
				<path fill="#FFFFFF" d="M311,518.6l-0.9-1.3c-0.3-0.4-0.5-0.8-0.8-1.1l0.8-0.5l0.2,0.2c0.2,0.3,0.4,0.5,0.5,0.7l0.1,0.1l0,0.3
					L311,518.6z"/>
			</g>
			<g>
				<path fill="#FFFFFF" d="M311,518.6l-0.9-1.3c-0.3-0.4-0.5-0.8-0.8-1.1l0.8-0.5l0.2,0.2c0.2,0.3,0.4,0.5,0.5,0.7l0.1,0.1l0,0.3
					L311,518.6z"/>
				<path fill="#FFFFFF" d="M311.6,520.2l-1.9-2.6c-0.3-0.4-0.5-0.8-0.8-1.2l-0.2-0.4l1.5-1l0.4,0.6c0.2,0.2,0.3,0.5,0.5,0.7
					l0.2,0.2l0,0.4L311.6,520.2z"/>
			</g>
		</g>
		<g>
			<g>
				<path fill="#FFFFFF" d="M309.7,517.1c0.2,0.4,0.5,0.7,0.7,1.1c0,0,0-0.1,0-0.1C310.2,517.8,310,517.5,309.7,517.1z"/>
				<path fill="#FFFFFF" d="M311.1,519.9l-1-1.4c-0.3-0.4-0.5-0.8-0.8-1.1l0.8-0.5l0.2,0.3c0.2,0.3,0.3,0.5,0.5,0.7l0.1,0.3
					L311.1,519.9z"/>
			</g>
			<g>
				<path fill="#FFFFFF" d="M311.1,519.9l-1-1.4c-0.3-0.4-0.5-0.8-0.8-1.1l0.8-0.5l0.2,0.3c0.2,0.3,0.3,0.5,0.5,0.7l0.1,0.3
					L311.1,519.9z"/>
				<path fill="#FFFFFF" d="M311.8,521.6l-2.1-2.8c-0.3-0.4-0.5-0.8-0.8-1.2l-0.2-0.4l1.5-1l0.4,0.6c0.2,0.2,0.3,0.5,0.5,0.7
					l0.1,0.1l0.1,0.3L311.8,521.6z"/>
			</g>
		</g>
		<path fill="#FFFFFF" d="M327.7,378.1c2-1.4,4.7-2.2,7.6-2.3c0,0,1.8-0.1,4.3-0.1c2.4,0,6,0.1,9,0.8c4.2,0.9,8.1,2,11.6,3.1
			l0.8,0.3l-0.2-0.8c-5.8-20.8-30.4-35.4-59.8-35.4c-28.5,0-52,15.5-57.2,37.8l-0.2,0.9l0.8-0.4c5.6-2.4,11.8-4.3,17.1-5.3
			c10.5-2,17.2-0.5,20.8,4.7c0.9,1.4,1.5,3,1.7,4.8c0.9,10.3-9.5,11.9-14.4,12.7c-7.7,1-13.6,2.3-19.6,5.5c-0.6,0.3-1.2,0.7-1.9,1.1
			l-1.5,0.9l0.2,0.4c8.3,16.4,28.6,26.3,54.4,26.3c26,0,48.4-11.3,57.2-28.9l0.2-0.4l-0.8-0.4c-6-3.1-12-4.2-19.6-5.1
			c-5-0.7-15.5-2.2-14.8-12.4C323.6,382.5,325.1,379.9,327.7,378.1z"/>
	</g>
</g>
<g id="Linhas">
	<g>
		<path d="M399.3,347.6c-0.3-0.2-0.7-0.4-1.1-0.6c1.4-8.5-3-10.7-7.7-1.3c-0.2,0.1-0.5,0.2-0.7,0.3c0-3-1-4.9-2.4-5.3
			c-1.9-0.6-6,5.2-6.2,12.2c-3.9,6.4-5.7,16-6.9,22.7c-0.1,0.6-0.2,1.1-0.3,1.6c-3.3-30.6-34-53.8-72.7-53.8
			c-19.6,0-37.5,6.6-50.4,18.7c-12.4,11.6-19.3,27-19.3,43.3c0,1.2,0,2.3,0.1,3.5c-0.2,0.1-0.3,0.2-0.5,0.3c-4.4,3.3-6,8.3-4.3,13.3
			c1.6,4.8,5.9,8.1,10.3,8.1c0,0,0,0,0,0c0.2,0,0.5,0,0.7,0c2.4,4.3,5.3,8.2,8.9,11.7c-0.8,1-1.6,2.2-2.2,3.7
			c-3.5,7.9-17.2,54.5-10.2,82.2c0.5,1.9,1.1,3.6,1.8,5.1c-0.5,7.3,3.6,13.9,5.6,13.3c1.4-0.4,2.5-2.2,2.6-5.2
			c0.2,0.1,0.5,0.2,0.7,0.3c4.3,9.8,8.9,7.6,7.7-1.3c0.2-0.2,0.5-0.3,0.7-0.5c6.1,4.9,8.6,2.9,4.7-4.9c0.6-1,1.1-2.1,1.5-3.2
			c0.5-1.6,0.8-3.5,0.9-5.5c0.6,0.7,1.3,1.4,1.9,2c-0.8,9.4-1.8,25.7,0.5,37.5c-4.4,0.6-8.5,1.3-12.3,2c-0.4-1.1-1-2-1.8-2.7
			c-2.2-1.8-6-2.3-8.9,0.5c-0.7,0.7-1.6,1.8-2.2,2.7c0,0,0-0.1,0-0.1c-0.1-0.7-0.2-1.4-0.3-2c-1.2-5.7-4.4-7.7-7-7.7c0,0,0,0-0.1,0
			c-2.9,0-5.4,2.4-6,5.6c-0.1,0.7-0.2,1.5-0.1,2.3c0,0.1,0,0.3,0,0.6c-0.1-0.1-0.2-0.2-0.4-0.4c-0.7-0.8-1.5-1.4-2.3-1.9
			c-4.1-2.6-7.3-1.2-8.9,0.8c-1.8,2.2-2.2,6.1,0.7,8.9c0.7,0.7,2.1,1.7,3,2.3c-0.2,0-0.5,0.1-0.7,0.1c-3.4,0.5-5.9,1.8-7.3,3.8
			c-0.9,1.3-1.2,2.8-0.8,4.3c0.2,1.1,0.8,2,1.8,2.8c1.3,1.2,3.3,2.1,5.8,2.7c1.9,0.4,6.5,0.5,10.7,0.5c2.8,0,5.5,0,7-0.1
			c0.2,0.3,0.4,0.6,0.7,0.8c0.9,0.8,2.1,1.4,3.7,1.8c0.7,0.2,1.9,0.3,3.2,0.4c16,4.5,40.3,7.3,64.9,7.3c24.2,0,47.4-2.6,63.5-7.2
			c2.1-0.1,4.1-0.2,5.1-0.4c1.6-0.4,2.8-1,3.7-1.8c0.3-0.3,0.5-0.5,0.7-0.8c1.6,0,4.2,0.1,7,0.1c4.2,0,8.8-0.1,10.7-0.5
			c2.5-0.6,4.4-1.5,5.8-2.7c0.9-0.8,1.5-1.8,1.8-2.8c0.4-1.5,0.1-3-0.8-4.3c-1.3-1.9-3.9-3.3-7.3-3.8c-0.2,0-0.5-0.1-0.7-0.1
			c0.9-0.6,2.2-1.6,3-2.3c2.8-2.8,2.4-6.7,0.7-8.9c-1.6-2-4.9-3.4-8.9-0.8c-0.8,0.5-1.5,1.1-2.3,1.9c-0.1,0.2-0.3,0.3-0.4,0.4
			c0-0.2,0-0.4,0-0.5c0-0.8,0-1.6-0.1-2.3c-0.6-3.3-3.1-5.6-6-5.6c0,0,0,0-0.1,0c-2.6,0-5.8,2-7,7.7c-0.1,0.6-0.2,1.3-0.3,2
			c0,0,0,0.1,0,0.1c-0.6-0.9-1.5-2-2.2-2.7c-2.9-2.8-6.7-2.3-8.9-0.5c-0.8,0.7-1.5,1.6-1.8,2.8c-3.8-0.8-7.8-1.4-12.1-2
			c0.7-9.5-1.7-27-4.4-40.3c3.7-4,6.6-8.6,8.6-13.7c1.2-2.9,2.1-6,2.9-9.2c2.7-11.3,2.4-23.7,0.5-34.6c7.3-5.3,40.8-32.8,49-86
			c0.6-3.6,0.2-7-1-9.7C407.4,345.5,405.2,343.5,399.3,347.6z M361.2,403.6l-0.4-0.2c-0.6-0.3-1.3-0.7-1.9-1
			c-6.2-3.2-12.3-4.4-20.1-5.3c-6.8-1-14.1-2.7-13.5-10.9c0.2-2.8,1.5-5.1,3.8-6.6c1.8-1.2,4.3-2,6.9-2.1c0,0,1.8-0.1,4.2-0.1
			c2.4,0,5.8,0.1,8.7,0.8c11.4,2.5,19.8,5.8,25,9.8c6.3,4.9,5.3,10.5,4.5,12.7c-1.3,3.9-4.7,6.8-7.9,6.8c0,0,0,0,0,0
			c-0.4,0-0.9-0.1-1.3-0.2C366.5,406.5,363.7,404.9,361.2,403.6z M284.9,386.4c-0.2-1.9-0.8-3.5-1.7-5c-3.6-5.4-10.5-6.9-21.2-4.9
			c-4.9,0.9-11.1,2.8-17.2,5.3c5.2-22.1,28.3-37.4,56.8-37.4c29.5,0,53.6,14.3,59.3,35c-3.5-1.2-7.3-2.2-11.6-3.1
			c-3.1-0.7-6.7-0.8-9.1-0.8c-2.5,0-4.3,0.1-4.4,0.1c-3,0.1-5.8,1-7.9,2.4c-2.7,1.9-4.3,4.6-4.6,8c-0.7,10.7,10,12.2,15.2,12.9
			c7.6,0.9,13.5,2,19.5,5.1c0.1,0.1,0.3,0.1,0.4,0.2c-8.7,17.4-30.9,28.6-56.8,28.6c-25.7,0-45.8-9.7-54-26c0.3-0.2,0.6-0.4,0.9-0.5
			l0.3-0.1c0.7-0.4,1.3-0.7,1.9-1.1c5.9-3.2,11.8-4.4,19.4-5.5C275.2,398.8,285.9,397.1,284.9,386.4z M233.5,385.5
			c0-15.8,6.6-30.7,18.7-41.9c12.6-11.7,30.1-18.2,49.2-18.2c39.9,0,71.1,25.2,71.1,57.4c0,0.6,0,1.2,0,1.9
			c-2.6-1.6-5.7-3.1-9.4-4.4c-5.4-22.2-30.5-37.6-61.4-37.6c-30,0-54.1,16.5-58.9,40.2c-3.3,1.5-6.4,3.1-9.2,5
			C233.5,387,233.5,386.2,233.5,385.5z M237.3,408.8c-3.7,0-7.2-2.8-8.6-6.8c-1.4-4.2,0-8.4,3.7-11.2c8.1-6.2,21.2-10.8,29.9-12.4
			c2.9-0.5,5.5-0.8,7.7-0.8c5.6,0,9.4,1.6,11.6,4.9c0.8,1.2,1.3,2.6,1.4,4.1c0.7,8.3-6.5,10.1-13.3,11.2c-7.8,1.1-13.9,2.4-20,5.7
			c-0.6,0.3-1.3,0.7-2,1.1l-0.3,0.1c-2.6,1.5-5.5,3.1-8.4,3.9C238.6,408.8,238,408.8,237.3,408.8
			C237.3,408.8,237.3,408.8,237.3,408.8z M240,410.3c2.1-0.6,4.1-1.5,6-2.5c8.5,16.9,29.3,26.9,55.7,26.9
			c26.6,0,49.4-11.6,58.5-29.6l0.2,0.1c1.6,0.9,3.4,1.9,5.3,2.7c-8.8,15.2-24.2,32.3-64.2,32.3C273.5,440.2,250.6,429,240,410.3z
			 M258,511.3c-1.5,5-6.2,8.6-10.9,8.5c-5-0.1-9-4.5-10.9-12c-6.8-26.8,6.8-73.6,10.1-81c0.5-1.2,1.2-2.3,1.8-3.1
			c2.1,2,4.4,3.8,6.9,5.5c-1.7,5.1-7.3,27.6-5,50.1c0.3,2.9,0.7,5.8,1.3,8.5c1.2,6.1,3.8,11.7,7.5,16.5
			C259,506.9,258.7,509.3,258,511.3z M329.6,561.7c0.4,0.2,0.7,0.4,1.1,0.5c-0.3,8.6,4.4,10.2,7.7,0.2c0.2-0.1,0.5-0.2,0.7-0.4
			c0.4,3,1.7,4.7,3,4.9c1.7,0.3,4.4-4.3,4.6-10c1.8,0.4,3.4,0.8,4.8,1.3c-0.2,0.2-0.3,0.4-0.4,0.6c-0.7,1.4-0.5,3.2,0.6,4.8
			c0.3,0.4,0.6,0.8,1.1,1.2c-0.4,0-0.8,0.1-1.1,0.1c-2,0.4-3.3,1.9-3.6,3.6c-11.2,2.7-28.8,4.3-47.7,4.3c-14.3,0-26.5-1.6-37.5-3.3
			c0-0.2,0.1-0.3,0.1-0.5c0-2-1.4-3.7-3.6-4.2c-0.4-0.1-0.7-0.1-1.1-0.1c0.4-0.4,0.8-0.8,1.1-1.2c1.1-1.6,1.3-3.4,0.6-4.8
			c-0.7-1.3-2.2-2.2-3.8-2.2c-1.1,0-2.2,0.4-3.1,1.3c-0.4,0.3-0.8,0.8-1.1,1.2c0-0.3-0.1-0.5-0.1-0.7c-0.1-0.3-0.1-0.6-0.2-0.8
			c3.9-1,8.7-1.9,14.3-2.6c0,7.1,4.3,13.2,6.2,12.5c1.2-0.4,2.2-2,2.3-4.6c0.4,0.1,0.7,0.1,1.1,0.2c4.5,8.7,8.7,6.3,7.3-2.1
			c0.3-0.2,0.6-0.4,0.8-0.6c6.2,4.4,8.5,2.3,4.3-5.2c0.4-0.7,0.7-1.4,0.9-2.1c3.7-0.1,7.5-0.2,11.4-0.2c7.8,0,15.3,0.3,22.4,0.8
			l0-0.3c0.1,0.3,0.2,0.6,0.4,0.9c0.4,1,0.9,1.9,1.5,2.7C321.7,564.8,324.2,566.6,329.6,561.7z M340.3,561c0,0,0.1-0.1,0.1-0.1
			C340.4,561,340.4,561,340.3,561z M289.8,549.8c0.2-1.5,0.3-3.1,0.2-4.8c10.3-0.4,21-0.4,31.2,0c0.1,2.7,0.6,5.2,1.2,7.3
			c-7-0.5-14.4-0.8-22.1-0.8c-3.8,0-7.4,0.1-11,0.2C289.6,551.1,289.7,550.5,289.8,549.8z M321.4,519.8c0.2,2.5,0.1,9.5-0.1,15.2
			c-0.1,3.1-0.1,6.1-0.1,7.9c0,0.3,0,0.5,0,0.8c-10.2-0.4-20.9-0.5-31.2,0c-0.1-0.9-0.1-1.8-0.3-2.8c-0.2-1.8-0.7-4.5-1.2-7.4
			c-0.7-4.5-1.5-9.4-1.8-12.2c2.9,0.7,5.8,1.2,8.9,1.4c2,0.2,3.9,0.3,5.9,0.3C308.4,522.9,315.1,521.8,321.4,519.8z M284.9,520.8
			c0.2,2.7,1.1,8.1,1.8,13c0.5,2.9,0.9,5.6,1.1,7.4c0.4,3.2,0.4,6,0.1,8.4c-1.2,7.9-6.6,10.6-8.9,11.4c-2.1,0.7-4,0.6-5.9-0.4
			c-3.2-1.7-5.9-5.9-7.5-11.5c-3-11-2.2-28.5-1.3-39c1,0.9,2,1.7,3,2.4C272.5,516.2,278.4,519,284.9,520.8z M263.4,547.3
			c0.2,0.8,0.3,1.5,0.5,2.2c0.4,1.5,0.9,2.9,1.5,4.1c-5.6,0.7-10.3,1.6-14.2,2.6c-0.4-0.9-1-1.6-1.5-2.1c1.2-1.8,1.6-3.4,1.4-4.9
			C254.9,548.5,259,547.9,263.4,547.3z M232.9,566.9c-0.6,0.8-0.8,1.7-0.6,2.6c-8.5,0.2-14.9,0-16.9-0.4c-2.2-0.5-4-1.3-5.1-2.4
			c-0.7-0.6-1.2-1.4-1.3-2.1c-0.3-1.1-0.1-2.2,0.6-3.2c1.1-1.6,3.3-2.8,6.3-3.2c0.5-0.1,1.1-0.1,1.7-0.2c0.6-0.1,1-0.3,1-0.8
			c0.1-0.5-0.2-0.9-0.8-1.3c-0.8-0.5-2.6-1.7-3.4-2.5c-2.3-2.3-2-5.3-0.6-7.1c1.3-1.6,3.8-2.6,7.1-0.5c0.7,0.4,1.3,1,2,1.7
			c0.7,0.8,1.4,1.4,2.1,1.1c0.7-0.3,0.7-1.1,0.7-2.3c0-0.7,0-1.4,0.1-2c0.5-2.6,2.4-4.5,4.7-4.5c2.1,0,4.7,1.7,5.7,6.6
			c0.1,0.6,0.2,1.2,0.3,1.9c0.1,0.8,0.3,1.6,1,1.7c0.7,0.2,1.2-0.6,1.5-0.9c0.6-0.9,1.5-2,2.1-2.6c2.3-2.2,5.3-1.9,7.1-0.4
			c1.6,1.3,2.5,3.9,0.3,7.1l0.3,0.2c-0.5-0.2-1-0.3-1.5-0.3c-1.9,0-3.6,1.5-4.1,3.7c-0.1,0.4-0.1,0.8-0.2,1.1c0,0,0,0-0.1-0.1
			c-0.4-0.4-0.7-0.7-1.1-0.9c-1-0.7-2-1-2.9-1c-1.6,0-3,0.9-3.7,2.5c-0.7,1.7-0.3,3.5,1,4.9c0.3,0.3,0.8,0.8,1.3,1.1
			C235.4,564.9,233.8,565.7,232.9,566.9z M234.4,570.8c-0.4-0.4-0.6-0.8-0.7-1.2c-0.1-0.6,0-1.3,0.4-1.8c0.7-0.9,2-1.6,3.8-1.8
			c0.3,0,0.7-0.1,1-0.1c0.6,0,0.8-0.4,0.9-0.7c0.1-0.3,0-0.7-0.6-1.1c-0.5-0.3-1.6-1.1-2-1.6c-1.1-1.1-1.1-2.5-0.7-3.4
			c0.4-1,1.3-1.6,2.4-1.6c0.7,0,1.4,0.3,2.2,0.8c0.3,0.2,0.6,0.4,0.9,0.7c0.6,0.7,1,1,1.4,1c0.8,0,0.9-0.8,1-1.5
			c0-0.3,0.1-0.7,0.2-1.2c0.3-1.5,1.4-2.6,2.7-2.6c1.2,0,2.7,1,3.3,4c0.1,0.3,0.1,0.6,0.2,1c0.1,0.5,0.2,1.6,1,1.6
			c0.5,0,0.8-0.4,1.1-0.8c0.1-0.1,0.1-0.2,0.2-0.2c0.4-0.5,0.8-1,1.1-1.2c0.8-0.7,1.6-0.9,2.2-0.9c1.1,0,2.1,0.6,2.5,1.4
			c0.5,1,0.3,2.2-0.5,3.4c-0.5,0.7-1.2,1.3-2.1,1.9c-0.2,0.1-0.8,0.5-0.6,1.1c0,0.1,0.2,0.6,0.8,0.6c0.1,0,0.2,0,0.4,0
			c0.9-0.1,1.7-0.1,2.4,0c1.5,0.3,2.5,1.5,2.5,2.8c0,1.2-1.1,2.7-4.1,3.2c-1.1,0.2-5.6,0.3-10.2,0.3c0,0,0,0,0,0
			c-5,0-8.7-0.2-9.9-0.5C236.1,571.9,235.1,571.4,234.4,570.8z M246.6,574.1c0.3,0,0.6,0,0.8,0c0,0,0,0,0,0c4,0,9-0.1,10.4-0.4
			c2.5-0.4,3.9-1.5,4.7-2.7c11.1,1.7,23.4,3.3,38,3.3c18.8,0,36.5-1.6,47.8-4.3c0.4,1.5,1.9,3.1,5.1,3.7c1.3,0.2,5.8,0.3,9.7,0.4
			c-15.6,3.6-36.1,5.7-57.6,5.7C283.6,579.8,262.2,577.7,246.6,574.1z M377.3,569.5c-0.1,0.4-0.3,0.8-0.7,1.2
			c-0.7,0.6-1.7,1.1-3.1,1.5c-1.2,0.3-4.9,0.5-9.9,0.5c-4.6,0-9.1-0.2-10.2-0.3c-2.9-0.5-4-2-4.1-3.2c0-1.3,1-2.4,2.5-2.8
			c0.3-0.1,0.7-0.1,1.2-0.1c0.4,0,0.8,0,1.2,0.1c0.2,0,0.3,0,0.4,0c0.6,0,0.8-0.4,0.8-0.6c0.2-0.6-0.4-0.9-0.6-1.1
			c-0.9-0.6-1.6-1.2-2.1-1.9c-0.8-1.2-1-2.4-0.5-3.4c0.5-0.9,1.5-1.4,2.5-1.4c0.6,0,1.4,0.2,2.2,0.9c0.3,0.2,0.7,0.7,1,1.2
			c0.1,0.1,0.1,0.2,0.2,0.2c0.3,0.4,0.5,0.8,1.1,0.8c0.9,0,1-1.1,1-1.6c0-0.4,0.1-0.7,0.2-1c0.6-2.9,2.1-4,3.3-4
			c1.3,0,2.4,1.1,2.7,2.6c0.1,0.5,0.1,0.9,0.2,1.2c0.1,0.7,0.2,1.5,1,1.5c0.4,0,0.8-0.3,1.4-1c0.3-0.3,0.6-0.5,0.9-0.7
			c1.9-1.3,3.8-0.8,4.5,0.9c0.4,0.9,0.4,2.3-0.7,3.4c-0.5,0.5-1.5,1.3-2,1.6c-0.6,0.4-0.7,0.8-0.6,1.1c0.1,0.3,0.3,0.6,0.9,0.7
			c0.4,0,0.7,0.1,1,0.1c1.8,0.2,3.1,0.9,3.8,1.8C377.3,568.3,377.5,568.9,377.3,569.5z M362.9,546.3c1.8-1.5,4.8-1.8,7.1,0.4
			c0.6,0.6,1.5,1.7,2.1,2.6c0.2,0.3,0.7,1,1.5,0.9c0.7-0.2,0.9-1,1-1.7c0.1-0.7,0.2-1.3,0.3-1.9c1-4.9,3.6-6.6,5.7-6.6c0,0,0,0,0,0
			c2.3,0,4.2,1.9,4.7,4.5c0.1,0.6,0.2,1.3,0.1,2c0,1.1,0,2,0.7,2.2c0.7,0.3,1.4-0.4,2.1-1.1c0.6-0.7,1.3-1.3,2-1.7
			c3.3-2.1,5.8-1.1,7.1,0.5c1.4,1.8,1.7,4.8-0.6,7.1c-0.8,0.8-2.6,2-3.4,2.5c-0.6,0.4-0.9,0.8-0.8,1.3c0.1,0.4,0.5,0.7,1.1,0.8
			c0.6,0,1.1,0.1,1.6,0.2c3,0.4,5.2,1.6,6.3,3.2c0.7,1,0.9,2.1,0.6,3.2c-0.2,0.8-0.6,1.5-1.3,2.1c-1.2,1-2.9,1.8-5.1,2.4
			c-2,0.5-8.4,0.6-16.9,0.4c0.1-0.9-0.1-1.8-0.6-2.6c-0.9-1.2-2.5-2.1-4.6-2.4c0.5-0.4,1-0.8,1.3-1.1c1.3-1.4,1.7-3.2,1-4.9
			c-0.6-1.5-2-2.5-3.7-2.5c-1,0-2,0.3-2.9,1c-0.4,0.2-0.7,0.6-1.1,0.9c0,0,0,0-0.1,0.1c0-0.3-0.1-0.7-0.2-1.1
			c-0.5-2.2-2.1-3.7-4.1-3.7c-0.5,0-1,0.1-1.5,0.3l0.3-0.2C360.4,550.2,361.3,547.6,362.9,546.3z M359.9,549.4
			c-0.1,1.4,0.3,3,1.5,4.8c-1,0.8-1.8,2.1-2.2,4.2c0,0.2-0.1,0.5-0.1,0.7c-0.3-0.3-0.7-0.8-1.1-1.2c-0.9-0.8-2-1.3-3.1-1.3
			c-0.7,0-1.4,0.2-2,0.5c-1.7-0.6-3.8-1.1-6.1-1.6c0-0.8-0.1-1.6-0.2-2.4c0.6-1.6,1.1-3.3,1.3-5.1c0-0.2,0.1-0.4,0.1-0.6
			C352.2,548,356.2,548.7,359.9,549.4z M346.1,547.8c-1,7-5.3,12.4-10.6,13.1c-4.4,0.6-8.2-2-10.5-7.3c-1.3-2.8-1.9-6.4-1.9-10.8
			c0-1.7,0.1-4.7,0.1-7.8c0.1-6.1,0.3-12.9,0.1-15.5l0-0.4c2-0.7,3.9-1.5,5.8-2.5c5-2.5,9.4-5.6,13.1-9.3
			C344.5,519.4,347.3,538.9,346.1,547.8z M353.3,482.5c-0.7,3.1-1.7,6.1-2.8,8.9c-9.2,23-34.1,31.3-54.7,29.5
			c-26.9-2.4-39.6-18.9-42.6-33.5c-0.5-2.7-1-5.5-1.3-8.4c-2.2-21.5,2.9-43,4.7-48.8c11.9,7.6,27.3,11.8,44.7,11.8
			c14.8,0,32.1-1.8,47-12.2C353.9,442.5,357.7,463.9,353.3,482.5z M402.7,362c-7.8,50.8-39.9,78.4-47.5,84.3
			c-1.3-6.7-3.2-12.8-5.3-17.7c6.4-4.8,12.4-11.3,17.4-20.1c0.5,0.2,1,0.3,1.6,0.5c0.6,0.1,1.1,0.2,1.7,0.2h0c4,0,8.1-3.4,9.6-8
			c1.8-5.4-0.1-10.9-5.1-14.8c-0.3-0.2-0.6-0.4-0.9-0.6c0-0.2,0-0.4,0-0.5c0.4-2,0.8-3.9,1.2-5.7c0.2-1,0.4-2.2,0.7-3.6
			c1.7-9.2,4.8-26.3,14-27.9c4.1-0.7,7.4,0.1,9.7,2.3C402.4,352.9,403.5,357.1,402.7,362z"/>
		<path d="M259.5,372C259.5,372,259.5,372,259.5,372L259.5,372c0,0,0-0.1,0-0.1c-0.1-0.6-1.1-0.5-1.1,0.1c0.2,2-1.7,2.8-3.4,2.9
			c-0.3,0-0.4,0.2-0.5,0.4c-0.4,0.2-0.5,0.7-0.1,1c0.8,0.4,1.7,0.7,2.6,0.4c0.7-0.2,1.2-0.8,1.5-1.4
			C259.3,374.4,259.7,373.1,259.5,372z"/>
		<path d="M347.9,372.5c0.3,0.6,0.8,1.1,1.4,1.3c0.7,0.3,1.5,0.1,2.2-0.2c0.2-0.1,0.3-0.1,0.5-0.2c0.4-0.3,0.3-0.8-0.1-1
			c-0.1-0.2-0.2-0.3-0.5-0.3c-1.7,0-3.7-0.8-3.5-2.8c0.1-0.6-0.9-0.7-1.1-0.1c0,0,0,0.1,0,0.1c0,0,0,0,0,0c0,0,0,0,0,0
			C346.7,370.4,347.1,371.6,347.9,372.5z"/>
		<path d="M311.7,407.2c2.3-1.8,3.8-4.4,3.2-6.5c-0.5-1.6-2-2.6-3.7-2.9c-1.6-0.3-2.7,0.3-3.8,1.1c-3.9,2.9-8.5-0.4-8.7-0.5
			c-1.1-0.5-2.4-0.7-3.6-0.3c-1.4,0.4-2.5,1.4-2.9,2.8c-0.5,1.8,0.5,3.9,2.3,5.5C299.1,410.9,307.3,410.7,311.7,407.2z"/>
		<path d="M260.7,397.4c2.9,0.2,3.1-2.3,3.3-4.6c0.2-1.9-0.3-6-2.3-6.5c-2.5-0.6-4.1,2.2-3.9,5.4C258,393.4,258.7,397.2,260.7,397.4
			z"/>
		<path d="M348.4,386c-2,0.5-2.3,4.7-2.1,6.6c0.3,2.4,0.5,4.9,3.4,4.6c2-0.2,2.7-4,2.7-5.8C352.6,388.1,350.9,385.3,348.4,386z"/>
		<path d="M270,415.7c2.6-1.2,4.5-3.8,4.5-6.8c0-2-0.7-3.9-2.2-5.4c-1.4-1.5-3.3-2.3-5.4-2.3c-4.1,0-7.6,3.4-7.6,7.5
			c-0.1,4.2,3.3,7.6,7.5,7.7l0.1,0c0.4,0,0.8,0,1.2-0.1c0.4,0.6,1,1.2,1.6,1.8c5.5,5.6,17,8.7,31.7,8.7c0.2,0,0.3,0,0.5,0
			c15.9-0.1,30.9-3.7,35.7-8.7c0.6-0.6,1.1-1.2,1.5-1.8c0.2,0,0.4,0,0.6,0l0.1,0c4.1,0,7.6-3.4,7.6-7.5c0-4.2-3.3-7.6-7.6-7.7
			c-4.1,0-7.5,3.4-7.6,7.5c0,3.3,2,6.1,5,7.2c-0.3,0.3-0.5,0.6-0.9,1c-4.4,4.6-19.2,8-34.4,8.1c-14.5,0.1-25.8-2.9-30.9-8.2
			C270.6,416.5,270.3,416.1,270,415.7z M266.9,414.5v0.9V414.5c-3.2,0-5.8-2.7-5.7-5.8c0-3.1,2.6-5.7,5.8-5.7h0c1.5,0,3,0.6,4,1.7
			c1.1,1.1,1.7,2.5,1.6,4.1c0,2.4-1.6,4.5-3.7,5.3c-0.8-1.4-1.2-3.1-1.1-5.3c0-0.5-0.4-0.9-0.9-1c-0.5,0-0.9,0.4-1,0.9
			c-0.1,2.2,0.3,4,1.1,5.8C267,414.5,266.9,414.5,266.9,414.5z M339.8,415.3C339.8,415.3,339.8,415.3,339.8,415.3l0,0.1L339.8,415.3
			z M334,408.7c0-3.1,2.6-5.7,5.8-5.7h0c3.2,0,5.7,2.6,5.7,5.8c0,3-2.4,5.4-5.3,5.7c0.9-1.9,1.1-3.8,0.7-5.9
			c-0.1-0.5-0.6-0.8-1.1-0.7c-0.5,0.1-0.8,0.6-0.7,1.1c0.4,1.9,0.1,3.6-0.9,5.3C335.8,413.6,334,411.4,334,408.7z"/>
	</g>
</g>
</svg>
