<?xml version="1.0" encoding="utf-8"?>
<!-- Generator: Adobe Illustrator 18.1.1, SVG Export Plug-In . SVG Version: 6.00 Build 0)  -->
<svg version="1.1" xmlns="http://www.w3.org/2000/svg" xmlns:xlink="http://www.w3.org/1999/xlink" x="0px" y="0px"
	 viewBox="0 0 595.3 841.9" enable-background="new 0 0 595.3 841.9" xml:space="preserve">
<g id="Preenchimento">
	<g>
		<path fill="#FFFFFF" d="M303.1,427.8c-0.4-6.4-1-11.1-2-14.9l-0.2-0.7l-0.7,0.2c-7.4,1.7-16.5,2.7-25.1,2.7
			c-9.5,0-17.5-1.1-23.3-3.2l-0.7-0.3l-0.2,0.7c-1,3.3-1.7,7.2-2.1,11.7c-0.1,1.1-0.2,2.1-0.3,3.2l0,0.5l0.5,0.2
			c7.4,3.3,17.9,4,25.4,4c0,0,0,0,0,0c10,0,20.8-1.3,28.3-3.3l0.6-0.2L303.1,427.8z"/>
		<path fill="#FFFFFF" d="M303.7,444.7c-0.1-5.8-0.3-10.6-0.5-15l0-0.9l-0.8,0.2c-7.6,2-18.4,3.3-28.1,3.3c-7.2,0-17.3-0.7-24.9-3.8
			l-0.9-0.4l-0.1,1c-0.2,2.7-0.4,5.2-0.4,7.7c0,2.6,0.1,5.1,0.2,7.3l0.1,2.7l1-2.1c7.4,3.3,17.9,4,25.5,4c10,0,20.9-1.3,28.4-3.3
			l0.5-0.1L303.7,444.7z"/>
		<path fill="#FFFFFF" d="M300.6,411.1c-2.2-6.8-6-11-12.3-13.5c-3.7-1.5-8.1-2.3-12.9-2.3c-1.6,0-3.2,0.1-4.8,0.2
			c-9.9,0.8-15.7,5.4-19,15l-0.2,0.7l0.7,0.2c7.2,2.6,16.6,3.2,23.2,3.2c8.6,0,17.7-0.9,24.9-2.6l0.8-0.2L300.6,411.1z"/>
		<path fill="#FFFFFF" d="M254.8,469.4l0-0.2l-0.1-0.2c-2.5-3.2-4.2-6.7-5.1-10.5c-0.2-0.8-0.4-1.7-0.5-2.6
			c-1.2-5.4-1.7-11.6-1.5-19.1c-0.1-9.8,0.5-20.6,1.1-30.1c0.5-8,0.9-15.6,0.9-22.1l0-0.7l-2.4,0.1l-0.1,0.5
			c-3.9,15.3-7.9,41-7.7,67.3c0,1.6-0.6,3.2-1.5,4.2c-1.3,1.3-3.2,3.3-5.2,5.2c-0.8,0.7-1.7,1.8-1.4,2.5c0.3,0.8,1.9,1,2.3,1
			c0.8-0.1,1.5-0.1,2.4-0.1c0,0,0,0,0,0c0.3,0,0.5,0,0.8,0c0.2,0,0.4,0,0.6,0c0.6,0,0.9,0.1,1.2,0.4c0.5,0.5,0.7,1.5,0.7,3.3
			c0,1.3,0,2.7,0,3.4c0.1,3.1,0.8,3.9,1.2,4.1l0.4,0.1c0.5,0,0.9-0.3,1.3-0.5c0.5-0.4,1.4-1.3,2.7-2.5c0.8-0.8,1.7-1.1,2.4-1
			c0.5,0.1,1.3,0.3,2,1.4c0.6,0.9,1.2,1.8,1.8,2.6c1,1.3,1.8,2.2,2.4,2.5l0.6,0.3l0.3-0.7c0.2-0.3,0.3-0.8,0.3-1.5
			C254.8,474,254.9,471.6,254.8,469.4z"/>
		<path fill="#FFFFFF" d="M294.6,528.1c-3.3,0-6.5,0.1-9.5,0.2l-0.5,0l-0.1,0.5c-0.1,0.5-0.2,0.7-0.3,0.8c-0.1,0.1-0.7,0.7-1.2,1.3
			c-0.5,0.6-1.2,1.3-2,2.1l-1.3,1.3l1.8-0.1c4.4-0.2,8.7-0.3,12.9-0.3l0.6,0l0.3-5.9L294.6,528.1z"/>
		<path fill="#FFFFFF" d="M352,550.4c-9.2-0.3-17.6-1.5-22.9-3.2c-1.3-0.4-2.4-0.9-2.3-1.6c0-0.2,0.5-0.5,2.1-1
			c1.8-0.6,4.5-1.3,6.5-1.9l2.6-0.7l-2.6-0.7c-6.1-1.6-6.3-2.1-6.4-2.3L329,539l0.1-0.2c0.2-0.3,0.7-0.6,1.7-0.9l3.2-1l-3.3-0.4
			c-4.5-0.6-11.5-1.3-19.3-1.7l-0.7,0l-0.1,0.7c-0.3,2.8-0.5,3.7-0.7,4c-0.1,0.1-0.7,0.7-1.2,1.3c-3.6,3.7-14,14.2-15.8,15.7
			c-0.2,0.2-0.4,0.4-0.7,0.5l-1.7,1.2l2.1,0c1.1,0,2.2,0,3.3,0c23.9,0,45.4-2.5,56.3-6.5l3.3-1.2L352,550.4z"/>
		<path fill="#FFFFFF" d="M310.7,484.5l0-0.8l-0.8,0.2c-3.7,0.8-7.7,1.2-11.7,1.4c-0.7,0-1.4,0-2.2,0l-1.6,0l0.1,0.8
			c2.2,15.5,1.9,30,1.2,45.9l-0.2,3.1l-0.2,0c-6.3,1.7-12.5,5.2-16.6,7.7c-0.4,0.2-1.3,1-1.4,1.6l-0.1,0.8l0.7,0.1
			c0.2,0.1,0.7,0.3,1.9,0.4l1.8,0.1c2,0.2,3,0.5,3.2,1.1c0.2,0.6-0.2,1.1-1,2c-0.3,0.3-0.5,0.6-0.8,1c-0.3,0.5-0.6,0.8-0.8,1.2
			c-0.3,0.5-0.7,1.2-0.4,1.9c0.2,0.3,0.7,0.4,1,0.4c0.3,0,0.6-0.1,0.8-0.2c0.7-0.3,1.4-0.6,2.1-1l0.8-0.4c1.7-0.8,2.7-1.3,3.2-0.9
			c0.4,0.2,0.4,0.7,0.3,1.9c0,0.5-0.1,1.1-0.1,1.9c0,1.2,0.1,2,0.3,2.4l0.3,0.6l0.6-0.2c0.4-0.1,0.9-0.5,1.5-1.1
			c1.7-1.5,12.3-12.1,15.8-15.7c0.6-0.7,1-1.1,1.2-1.4c0.3-0.7,0.7-5,0.8-6.9C311,516.7,311.1,498,310.7,484.5z"/>
		<path fill="#FFFFFF" d="M302.1,462.3c-7.4,1.7-17.1,2.7-26,2.7c-9.5,0-17.6-1.1-23.5-3.2l-1.5-0.6l0.6,1.5
			c0.6,1.4,1.2,2.5,1.8,3.5c1.2,2.1,2.9,4.1,4.9,6c4.1,3.8,9.3,6.8,15.7,9c2.8,0.8,5.5,1.2,8.1,1.2c2.2,0,4.3-0.3,6.2-0.8
			c8.1-2.3,12.9-8.3,14.6-18.5l0.2-1L302.1,462.3z"/>
		<path fill="#FFFFFF" d="M303.8,446.7l0-0.9l-0.9,0.2c-7.6,2-18.4,3.3-28.1,3.3c-7.4,0-17.9-0.7-25.5-4.1l-1.1-0.5l0.1,1.2
			c0.3,3.8,0.6,7,1.2,10c0.4,1.5,0.8,3.1,1.3,4.5l0.1,0.3l0.3,0.1c7.4,3.2,17.6,3.8,24.9,3.8c9.2,0,19.2-1.1,26.7-2.9l0.5-0.1
			l0.1-0.5C303.9,456.2,303.8,450.8,303.8,446.7z"/>
		<path fill="#FFFFFF" d="M278.4,542.4c3.1-1.9,7.8-4.6,12.9-6.5l3.8-1.4l-4.1,0.1c-4.4,0.1-8.2,0.2-11.7,0.4l-0.3,0l-0.2,0.2
			c-4.8,4.9-10.6,10.6-11.8,11.7c-0.9,0.8-1.9,1.5-2.6,1.2c-0.8-0.4-0.9-1.9-0.9-3.3c0-0.8,0-1.4,0.1-1.9l0.1-1.7l-1,0.4
			c-0.6,0.2-1.4,0.6-1.9,0.8l-0.8,0.4c-0.7,0.3-1.4,0.7-2.1,1c-0.3,0.1-0.7,0.2-1,0.2c-0.3,0-0.9-0.1-1.3-0.5
			c-0.5-0.5-0.3-1.4,0.3-2.4c0.2-0.4,0.5-0.8,0.8-1.1c0.3-0.5,0.6-0.8,0.9-1.1c0.1-0.2,0.3-0.4,0.5-0.5l1.2-1.4l-1.8,0.3
			c-15.5,2.3-24.7,5.8-24.7,9.4c0,6,24.8,11.2,56.5,11.9l1.2,0l-0.6-1.1c-0.4-0.7-0.4-1.9-0.4-2.8c0-0.8,0-1.4,0.1-1.9l0.1-1.7
			l-1,0.4c-0.6,0.2-1.4,0.6-1.9,0.8l-0.8,0.4c-0.7,0.3-1.4,0.7-2.1,1c-0.3,0.1-0.7,0.2-1,0.2c-0.3,0-0.9-0.1-1.3-0.5
			c-0.5-0.5-0.3-1.4,0.3-2.4c0.2-0.4,0.5-0.8,0.8-1.1c0.3-0.5,0.6-0.8,0.9-1.1c0.2-0.2,0.5-0.5,0.7-0.8l0.6-0.8l-0.9-0.3
			c-0.5-0.2-1.2-0.3-2.3-0.4l-1.8-0.1c-1.7-0.1-2.6-0.5-2.8-1.3C276.6,543.8,277.8,542.7,278.4,542.4z"/>
		<path fill="#FFFFFF" d="M345.8,413.3c-1.3-1.6-2.1-2.7-2.3-2.9c-0.8-0.8-1.5-1.5-2.1-2.2l-1.2-1.4l0,1.9c0.1,10.7-0.3,21.5-0.9,31
			l-0.2,2.9l1.5-2.4c1.6-2.6,3.7-5.2,5.5-7.4c0.8-0.9,1.5-1.9,2.3-2.8C352.2,425.1,351.5,420.7,345.8,413.3z"/>
		<path fill="#FFFFFF" d="M346,342.3c-0.9-4.5-5.9-10.2-9-13.6c-1.1-1.2-2-2.2-2.4-2.8c-0.4-0.5-0.7-1-1-1.5l-1.7-2.7l0.5,3.6
			c0.1,0.9,0.2,1.7,0.3,2.4c1.7,10.7,3.1,21.8,4.2,33.3l0.3,3.1l1.1-2.9c0.5-1.3,1.5-3.3,2.8-5.9C344.1,349.4,346.5,344.4,346,342.3
			z"/>
		<path fill="#FFFFFF" d="M406,478.1c-1.5-1.8-2.8-4-4-6.2c-1.9-3.2-3.8-6.6-6.5-8.9c-3-2.6-5.6-1.4-14.4,2.6
			c-1.1,0.5-2.3,1.1-3.6,1.6c-0.7,0.3-1.5,0.5-2.4,0.7l-2.1,0.4l1.9,0.9c9.4,4.5,19.6,7.8,30.5,9.9l2,0.4L406,478.1z"/>
		<path fill="#FFFFFF" d="M369.4,465.1c-1.7-4.2-2.9-10.2-3.7-14.3c-0.5-2.4-0.7-3.5-0.9-3.9c-1.2-2.4-2.6-3.4-5.5-3.7
			c-0.6-0.1-3.1-0.2-5.9-0.3c-4.6-0.2-10.2-0.4-12.2-0.6l-1.8-0.2l1.1,1.4c4,4.9,12.9,14.2,27.8,22.5l1.7,1L369.4,465.1z"/>
		<g>
			<path fill="#FFFFFF" d="M350.9,384.1l-1.3-2.2l-0.6,1c-3,5-5.8,9-9,12.6l-0.2,0.2l0,0.3c0.1,1.9,0.1,3.8,0.2,5.8l0,2.1l1.2-1.6
				c0.3-0.4,0.7-0.9,1.4-1.8c4.2-5.3,8.4-11,8.6-13.1C351.5,386.2,351.4,385.2,350.9,384.1z"/>
			<path fill="#FFFFFF" d="M338.9,364.5c-0.1-0.1-0.2-0.3-0.2-0.4l-1.6-2.8l0.7,7.7l1.1-1.9c0.3-0.5,0.5-0.9,0.8-1.4l1.7-3
				L338.9,364.5z"/>
		</g>
		<path fill="#FFFFFF" d="M295.9,267.2c-0.3-0.3-1.4-1.4-2.7-2c-0.8-0.4-1.6-0.3-2.1,0.3c-0.5,0.6-0.8,1.6-0.2,2.4
			c0.6,0.9,1.6,1.9,3.2,3l0.7,0.5l-1,0.4c-0.8,0.3-3.4,1.3-3.4,2.5c0.1,0.6,0.3,1.1,0.8,1.4c0.4,0.2,0.8,0.4,1.4,0.4
			c0.4,0,1-0.1,1.5-0.2l0.5-0.1l0-1c0-0.7,0.1-1.4,0.2-2.1l0.1-1.1l0,0l0.3-0.9c0.2-0.8,0.5-1.6,0.9-2.4l0.2-0.4L295.9,267.2z"/>
		<path fill="#FFFFFF" d="M327.3,283.1c-2.2-5.6-6.4-7.1-8.7-7.5c-3.5-0.6-6.6,1.7-7.2,5.1c-0.4,2.3,0.7,5.5,3.5,7
			c1.4,0.7,2.9,1.1,4.3,1.1c4.7,0,7.8-4,8.1-5.2l0.1-0.2L327.3,283.1z"/>
		<g>
			<path fill="#FFFFFF" d="M207,359.5l-1.7,0l0.3,0.9c1.1,3.5,2.7,5.6,4.2,5.6h0h0c1.4,0,2.8-2.1,3.7-5.7l0.2-0.9l-0.9,0
				C210.9,359.4,209,359.5,207,359.5z"/>
			<path fill="#FFFFFF" d="M236.2,366.3L236.2,366.3c-1.5,0-2.9,2.3-3.9,6.1l-0.2,0.9l0.9,0c2.1,0,4.3,0,6.7-0.1l0.9,0l-0.2-0.9
				C239.3,368.6,237.8,366.3,236.2,366.3z"/>
			<path fill="#FFFFFF" d="M266.6,358.3c-2-0.1-4.3-0.2-6.7-0.3l-1,0l0.3,0.9c1.1,3.8,2.7,6.1,4.2,6.1c1.4,0,2.8-2.1,3.8-5.8
				l0.2-0.8L266.6,358.3z"/>
			<path fill="#FFFFFF" d="M183.1,358.5l-1-0.1l0.3,1c1.1,3.9,2.8,6.2,4.3,6.3l0.1,0c1.5,0,2.9-2.1,4.1-5.8l0.3-0.9l-0.9,0
				C187.6,358.9,185.2,358.7,183.1,358.5z"/>
		</g>
		<path fill="#FFFFFF" d="M410.4,481.1c-0.3-0.3-1-0.6-2.1-0.8c-39.9-6.9-60.9-27.8-68.1-36.5l-0.8-0.7l-0.6,1.4l0,0.2
			c-0.6,6.5-1.3,12.3-2.1,17.1c-1.4,7.7-7,14.3-15.9,18.5l-1.4,0.6l1.4,0.6c11.6,5.4,25.6,8.2,41.5,8.2c0,0,0,0,0,0
			c19.3,0,36.9-4.1,45.7-6.5c1.1-0.3,1.9-0.7,2.3-1l0.6-0.5L410.4,481.1z"/>
		<path fill="#FFFFFF" d="M308.7,340.6c-4.1,0-7.3,3.1-7.3,6.9c0,3.8,3.3,6.9,7.3,6.9c4.1,0,7.4-3.1,7.4-6.9
			C316.1,343.7,312.8,340.6,308.7,340.6z"/>
		<path fill="#FFFFFF" d="M208,317.4c-0.6-1-1.3-1.2-1.7-1.2c-0.2,0-0.4,0-0.6,0.1c-1.6,0.5-1.8,3-1.4,5.3c0.3,1.5,1.4,2,2.2,2
			c0.6,0,1.4-0.3,1.8-1C209,321.2,208.9,318.9,208,317.4z"/>
		<path fill="#FFFFFF" d="M343.6,534.5c-0.4-0.9-0.6-1.7-0.7-2.6l-0.1-0.8l-0.5-0.1c-9.3-1.3-19.6-2.2-30.6-2.6l-0.7,0l0,0.7
			c0,1.1-0.1,2.1-0.1,3.1c0,0.3,0,0.8-0.1,1.4l0,0.7l0.7,0c10,0.5,18.7,1.6,23.4,2.3l-0.1,0.3l1-0.2c2.3-0.5,4.8-0.9,7.3-1.3
			l0.9-0.1L343.6,534.5z"/>
		<path fill="#FFFFFF" d="M378.7,528.3l-0.1-0.7l-0.7,0.1l-0.2,0c-0.3,0-0.7,0-1.2,0.1c-2.2,0.4-4.4,1.4-6.4,2.9
			c-0.5,0.4-0.9,0.5-1.3,0.5c-0.9,0-1.4-0.9-1.7-1.5c-0.4-0.8-0.9-1.6-1.5-2.4c-1.5-1.9-3.3-3.8-4.8-4c-1,0-2.2,1.2-3.7,2.9
			l-0.3,0.3c-1,1.2-1.8,2.5-2.4,3.7c-0.3,0.6-0.7,1.3-1.3,1.3c-0.4,0-0.9-0.4-1.3-0.8l-0.4-0.3c-2.3-1.9-5.3-2.9-7.4-2.5
			c-0.2,0-0.3,0.1-0.4,0.1l-0.5,0.2l0,0.5c0,0.6,0,1.7,0.2,3.1c1.4,8.9,11.9,12.2,18.2,12.2c0.3,0,0.5,0,0.8,0
			c7.4-0.3,14.1-6,16.2-13.9C378.8,529,378.8,528.6,378.7,528.3z"/>
		<path fill="#FFFFFF" d="M284.4,490.1l-0.2-5.8l-0.6-0.1c-3.1-0.5-6.2-1.3-9.1-2.3c-1.3-0.3-2.7-0.8-4-1.3l-1.1-0.4l0.2,1.2
			c1.7,12.4,1.2,21.9,0.7,32.8c-0.1,2.5-0.3,5.2-0.4,8l-0.2,3.1l-0.2,0c-6.3,1.7-12.5,5.2-16.6,7.7c-0.4,0.2-1.3,1-1.4,1.6l-0.2,0.6
			l0.6,0.2c0.2,0.1,0.6,0.3,2,0.4l1.8,0.1c2,0.2,3,0.5,3.2,1.1c0.2,0.6-0.2,1.1-1,2c-0.3,0.3-0.5,0.6-0.8,1
			c-0.3,0.5-0.6,0.8-0.8,1.2c-0.3,0.5-0.7,1.2-0.4,1.9c0.2,0.3,0.7,0.4,1,0.4c0.3,0,0.6-0.1,0.8-0.2c0.7-0.3,1.4-0.6,2.1-1l0.8-0.4
			c1.7-0.8,2.7-1.3,3.2-0.9c0.3,0.2,0.4,0.7,0.3,1.9c0,0.5-0.1,1.1-0.1,1.9c0,1.2,0.1,2,0.3,2.4l0.3,0.6l0.6-0.2
			c0.4-0.1,0.9-0.5,1.5-1.1c1.7-1.5,12.3-12.1,15.8-15.7c0.6-0.7,1-1.1,1.2-1.4c0.3-0.7,0.7-5,0.8-6.9
			C285.1,509,284.8,500.7,284.4,490.1z"/>
		<path fill="#FFFFFF" d="M377.7,549c-5.9,1-12.9,1.5-20.1,1.5l-1.4,0l-0.2,0.1c-8.9,4.9-33,8.2-60.1,8.2
			c-35.7,0-63.7-5.4-63.7-12.4c0-3.5,7.1-6.7,19.9-9l2.7-0.5l-2.6-0.9c-1-0.3-1.1-0.8-1.1-1c-0.2-0.9,1-2,1.6-2.4l3.2-1.9l-3.5,0.5
			c-23.4,3.5-37.4,9.1-37.4,15.1c0,10.1,37.1,18.3,82.6,18.3c45.7,0,73.9-7.5,80.7-14.4l1.5-1.5L377.7,549z"/>
		<path fill="#FFFFFF" d="M390.9,541.2c-3.1-2.6-7.7-4.4-13.7-5.5l-0.5-0.1l-0.3,0.4c-3.3,5.1-8.6,8.3-14.1,8.6
			c-6.1,0.2-14.3-2.3-17.9-8.3l-0.2-0.4l-0.5,0.1c-4.6,0.7-9.2,1.5-12.4,2.4l-2.4,0.7l2.1,0.7c1.1,0.4,2.6,0.8,4.4,1.3
			c0.5,0.1,1.8,0.5,1.8,1.1c0,0.5-0.6,0.8-1.8,1.2c-1.9,0.5-4.6,1.3-6.5,1.9l-2.3,0.8l1.9,0.7c0.2,0.1,0.3,0.1,0.6,0.2
			c6.4,2.1,16.9,3.3,28,3.3h0.3c9.4,0,18.2-0.9,24.9-2.5c5.8-1.4,9.5-3.3,9.5-4.9C391.9,542.1,391.3,541.5,390.9,541.2z"/>
		<path fill="#FFFFFF" d="M176.9,319.6c-0.4-1.9-1.6-3-3-2.8c-0.4,0.1-0.7,0.2-1,0.6c-0.8,0.9-0.9,2.8-0.7,4.3
			c0.1,0.6,0.4,2,1.2,2.6c0.3,0.2,0.6,0.3,0.9,0.3c0.4,0,0.8-0.1,1.2-0.3C176.9,323.5,177.3,321.3,176.9,319.6z"/>
		<path fill="#FFFFFF" d="M375.1,343.7c-0.7-0.3-1.5-0.6-2.2-0.9c-1.8-0.9-2.7-1.5-2.9-2.2c-0.2-0.6,0.1-1.2,0.5-2l0.3-0.5
			c0.4-0.7,1.8-3.7,2.9-6.1c0.6-1.3,0.7-2.2,0.3-2.7c-0.4-0.5-1.1-0.6-1.6-0.6c-0.3,0-0.6,0-0.9,0.1c-1.8,0.4-3.7,0.9-4.6,1.3
			c-1.2,0.6-2,1-2.6,0.7c-0.5-0.3-0.7-1-0.8-2.6c-0.2-1.8-0.5-3.5-0.8-5c-0.4-1.7-1-2.7-1.8-2.9c-0.5,0-1,0.4-1.5,1.2
			c-1.5,2.5-2.9,5.2-4,7.9c-0.8,1.9-1.2,2.6-1.7,2.8c-0.5,0.2-0.9-0.1-1.5-0.5l-0.2-0.1c-0.6-0.4-1.2-0.7-1.8-1.1
			c-0.4-0.2-0.7-0.5-1.1-0.7c-1.1-0.7-1.9-1-2.5-1l-0.5,0l-0.2,0.4c-0.1,0.2-0.4,0.7,0.3,3.1l0.1,0.2c0.4,1.4,0.8,2.7,1.3,4.2
			c0.5,1.5,1,3,1.4,4.6c0.8,3.1,0,5.4-0.1,5.5c-2.4,6.8-6.6,15.4-11.2,22.9l-0.3,0.6c-4.3,7-11.2,16.6-19.8,23.1c0,0-0.1,0-0.2-0.1
			c-0.1-0.1,0-0.3,0-0.3c8.4-6.4,15.3-16,19.6-23l0.1-0.2l0-0.2c-1.2-14.2-2.9-28.3-5-41.8c-0.1-0.7-0.2-1.6-0.4-2.6
			c-1.1-8.2-3.1-23.5-14.9-24.2c-4.5-0.3-7.4,1.9-8.9,3.6c-2.8,3.2-3.7,7.7-3.2,10.4c0.5,2.3-0.6,2.9-1.4,3.1
			c-2.5,0.8-7.8,1.3-13.1,1.3c-4.4,0-8.1-0.3-10.4-0.9c-1.9-0.5-2.1-0.6-2.2-2.6l0-1.1c0-0.9-0.1-1.7-0.1-2.6
			c-0.5-8.6-6-11.6-10.9-11.6c-0.2,0-0.3,0-0.5,0c-6,0.3-12.1,5-11.8,12.3c0,0.7,0.1,1.4,0.1,2.2l0,0.4c0.1,1.9-0.6,2.3-1.8,2.5
			c-2.4,0.4-5.5,0.5-9.7,0.5c-2,0-3.9,0-5.8-0.1c-1.8,0-3.5-0.1-5.3-0.1c0,0,0,0,0,0l-0.9,0c-1.5,0-3,0-4.6,0.1
			c-2.7,0.1-5.6,0.1-8.2,0c-0.4,0-0.8,0-1.2-0.1c-2.8-0.1-4.5-0.4-5.6-5.3c-0.8-3.8-2.8-6.1-5.3-6.1l-0.2,0
			c-2.3,0.1-4.7,2.4-5.1,6.6c0,0.4-0.1,0.8-0.1,1.2c-0.1,2.3-0.3,2.5-2.2,2.6l-2.4,0.2c-6.4,0.6-10.3,0.8-12.6,0.8
			c-2.2,0-2.8-0.2-3-0.3c-0.8-0.5-1.2-1.5-1.3-2.8c-0.1-4.1-1-6.5-2.6-7.3c-1.2-0.7-2.3-0.8-3.4-0.3c-2.8,1.2-4.8,5.9-5.4,8.8
			c-0.8,3.5-1.7,12.3-1.9,20.8c0,2.9,0.1,17.5,8.4,19.8c3.9,1.1,19.3,2,32.9,2c5.7,0,10.6-0.2,14.7-0.5c10.6-0.8,20.4-1.2,29.2-1.2
			c14.8,0,23.4,1.1,29,1.9c4.4,0.6,6.7,0.8,8.3,0.2c3.2-1.3,6-2.8,5.6-7.1c0-0.1,0.1-0.2,0.2-0.3c0.1,0,0.2,0.1,0.2,0.2
			c0.5,4.6-2.7,6.3-5.8,7.5l-0.4,0.2l-0.1,0.4c-0.3,2.4-1.1,4.4-2.3,5.9c-4.7,6-36.7,7.6-54.8,7.6c-1.5,0-2.8,0-3.9,0
			c-3.9-0.1-9-0.1-15.2-0.1c-11.6,0-24.3,0.1-24.9,0.2c-2,0.2-3.3,1.3-3.4,2.9c-0.1,1.7,1.5,3.9,4.4,4.5c10,2,27.9,2.4,41.2,2.4
			c14.5,0,28.1-0.5,35.1-1c0.1,0,0.2,0.1,0.2,0.2c0,0.1-0.1,0.2-0.2,0.3c-3.6,0.2-8.5,0.5-14,0.7l-0.7,0l0,0.7
			c0,6.5-0.5,14.1-0.9,22.1c-0.1,2.4-0.3,4.8-0.4,7.2l1.4,0.2c3-12.3,9.4-18.2,20.5-19.1c1.6-0.2,3.3-0.2,4.8-0.2
			c4.9,0,9.3,0.8,13.1,2.3c14.8,5.9,15.1,20,15.7,48l0,1.2c0.3,12.4,0.7,31.2-15.8,35.8c-0.9,0.2-1.8,0.4-2.8,0.6l-4.8,0.7l4.8,0.7
			c3.4,0.5,6.9,0.7,10.3,0.7c0.7,0,1.4,0,2.1,0c15.8-0.5,35.3-6.8,38.1-23.1c2.7-15.4,3.9-39.8,3.2-63.7l0-1.7l-1.2,1.2
			c-3.9,4.1-8.4,7.9-14.4,11.9c0,0-0.1,0-0.2-0.1c-0.1-0.1,0-0.3,0.1-0.3c17.9-12.3,24.2-22.2,39.4-55c0.7-1.6,2.1-3,3.5-3.5
			c1.5-0.6,4.6-1.7,7.7-2.7c1.7-0.5,2.6-1.2,2.6-2C377,344.8,375.5,343.9,375.1,343.7z M316.5,347.6c0,4.1-3.5,7.4-7.8,7.4
			c-4.3,0-7.8-3.3-7.8-7.4c0-4.1,3.5-7.4,7.8-7.4C313,340.2,316.5,343.5,316.5,347.6z M208.6,322.9c-0.4,0.8-1.2,1.3-2.2,1.3
			c-1.1,0-2.4-0.6-2.7-2.4c-0.4-2.3-0.2-5.3,1.8-5.9c0.2-0.1,0.5-0.1,0.7-0.1c0.8,0,1.6,0.5,2.1,1.4
			C209.3,318.7,209.5,321.3,208.6,322.9z M175.6,324.6c-1,0.5-1.9,0.5-2.6,0c-1-0.7-1.3-2.3-1.4-2.9c-0.2-1.5,0-3.6,0.8-4.6
			c0.3-0.4,0.8-0.7,1.3-0.7c0.1,0,0.3,0,0.4,0c1.5,0,2.7,1.2,3.1,3.2C177.8,321.4,177.3,323.8,175.6,324.6z"/>
		<path fill="#FFFFFF" d="M339.1,274.3c-0.7-0.8-2-0.7-3.2-0.4c-1.1,0.3-2.2,0.6-3.1,0c-0.5-0.3-1-0.9-1.5-1.8
			c-3.8-7.3-7.9-14-15.8-14.8c-4.6-0.5-9.4,0.8-13,3.5c-4.7,3.5-7.4,8.6-7.4,13.8c0,3.9,1.3,7.6,3.7,10.8c3.6,4.7,10.2,9.7,18.1,9.7
			c7,0,13.5-4,19-11.6c0.8-1.1,1.5-2.2,2-3.2C339.5,277.2,339.9,275.3,339.1,274.3z M319.2,289.3c-1.5,0-3-0.4-4.6-1.2
			c-3-1.5-4.1-4.9-3.7-7.5c0.6-3.2,3.3-5.6,6.6-5.6c0.4,0,0.8,0,1.2,0.1c2.4,0.4,6.8,2,9.1,7.9c0.1,0.2,0.1,0.7-0.7,1.9
			C325.8,286.9,322.9,289.3,319.2,289.3z"/>
	</g>
</g>
<g id="Linhas">
	<path d="M268.1,311.8c-1-0.7-2.3-0.7-3.4-0.1c-1.3,0.8-1.9,2.4-1.6,4.5c0.1,0.5,0.5,0.8,0.9,0.8c0,0,0.1,0,0.1,0
		c0.5-0.1,0.9-0.5,0.8-1.1c-0.2-1.3,0.1-2.2,0.8-2.6c0.4-0.3,0.9-0.2,1.3,0c0.6,0.4,0.9,1.3,0.7,2.5c-0.1,0.5,0.3,1,0.8,1.1
		c0.5,0.1,1-0.3,1.1-0.8C269.9,314.3,269.4,312.7,268.1,311.8z"/>
	<path d="M313.5,317.1c0,0,0.1,0,0.1,0c0.5-0.1,0.9-0.5,0.8-1.1c-0.2-1.3,0.1-2.2,0.8-2.6c0.4-0.3,0.9-0.2,1.3,0
		c0.6,0.4,0.9,1.3,0.7,2.5c-0.1,0.5,0.3,1,0.8,1.1c0.5,0.1,1-0.3,1.1-0.8c0.3-1.9-0.2-3.5-1.5-4.4c-1-0.7-2.3-0.7-3.4-0.1
		c-1.3,0.8-1.9,2.4-1.6,4.5C312.6,316.8,313,317.1,313.5,317.1z"/>
	<path d="M205.7,315.5c-2.4,0.7-2.7,3.9-2.3,6.7c0.4,2,2,2.9,3.4,2.9h0c1.2,0,2.3-0.6,2.8-1.6c0.9-1.8,0.8-4.6-0.3-6.4
		C208.5,315.6,207.1,315,205.7,315.5z M208,322.6c-0.2,0.5-0.8,0.6-1.2,0.6c-0.6,0-1.4-0.4-1.5-1.4c-0.3-1.9-0.2-4.2,1-4.5
		c0.1,0,0.3-0.1,0.4-0.1c0.4,0,0.8,0.3,1.1,0.8C208.5,319.2,208.6,321.3,208,322.6z"/>
	<path d="M268.5,324.6c-0.5,0-1,0.2-1.4,0.3c0.5-0.5,1.2-1,1.5-1.6c0.7-1.5-0.5-3.1-1.5-3.3c-0.7-0.2-1.5,0.1-2.1,1
		c-1.1,1.7-1,4.3-0.7,6.2c0.3,1.7,1.8,3.5,3.5,2.9c1.6-0.5,1.7-3.5,1.5-4.9C269.2,324.8,268.8,324.5,268.5,324.6z"/>
	<path d="M317.8,323.3c0.7-1.5-0.5-3.1-1.5-3.4c-0.7-0.2-1.5,0.1-2.1,1c-1.1,1.7-1,4.3-0.7,6.2c0.3,1.7,1.8,3.5,3.5,2.9
		c1.6-0.5,1.7-3.5,1.5-4.9c0-0.3-0.4-0.6-0.7-0.5c-0.5,0-1,0.2-1.4,0.3C316.8,324.4,317.5,323.9,317.8,323.3z"/>
	<path d="M304.7,267.4c-0.7-0.2-1.5,0.6-1.8,1.8c-0.3,1.2-0.1,2.3,0.6,2.5c0.7,0.2,1.5-0.6,1.8-1.8
		C305.6,268.7,305.3,267.6,304.7,267.4z"/>
	<path d="M328.1,285.6c0.7-1.1,1-1.9,0.8-2.5c-2.4-6.2-7.1-7.9-9.6-8.4c-0.4-0.1-0.8-0.1-1.3-0.1c-3.6,0-6.7,2.6-7.3,6.2
		c-0.5,2.8,0.8,6.5,4.1,8.2c1.6,0.8,3.3,1.2,4.9,1.2C323.5,290.2,326.6,287.7,328.1,285.6z M312.5,281.1c0.5-2.7,2.8-4.6,5.5-4.6
		c0.3,0,0.6,0,1,0.1c2.2,0.4,6.1,1.8,8.1,7c-0.3,0.9-3.1,4.7-7.5,4.7c-1.3,0-2.7-0.4-4-1C313.1,286,312.1,283.2,312.5,281.1z"/>
	<path d="M309.1,355.9c4.7,0,8.5-3.6,8.5-8.1c0-4.5-3.8-8.1-8.5-8.1c-4.7,0-8.5,3.6-8.5,8.1C300.6,352.3,304.4,355.9,309.1,355.9z
		 M309.1,341.6c3.7,0,6.6,2.8,6.6,6.2c0,3.4-3,6.2-6.6,6.2c-3.7,0-6.6-2.8-6.6-6.2C302.5,344.4,305.4,341.6,309.1,341.6z"/>
	<path d="M409.2,479.4c-2.3-1.7-4-4.7-5.8-7.8c-1.9-3.3-3.9-6.8-6.8-9.2c-3.6-3.1-7.1-1.5-15.7,2.4c-1.1,0.5-2.3,1.1-3.6,1.6
		c-2,0.9-3.8,0.9-4.9,0.8l-0.2,0c-0.1,0-0.2-0.1-0.3-0.1c-2.1-3.5-3.7-11.4-4.7-16.2c-0.5-2.6-0.8-3.8-1-4.3c-1.4-2.8-3.2-4-6.4-4.4
		c-0.7-0.1-3-0.2-6-0.3c-4.4-0.2-10.4-0.4-12.2-0.6c0,0,0,0,0,0c1.6-2.7,3.6-5.2,5.7-7.6c0.8-0.9,1.5-1.9,2.3-2.8
		c4.9-6.1,2.7-11.5-2.5-18.1c-0.9-1.2-2.1-2.6-2.4-3c-3.6-3.6-3.7-3.8-2.3-6.3c0.1-0.2,0.9-1.2,1.7-2.2c4.2-5.3,8.6-11.2,8.9-13.7
		c0.2-1.3,0.1-2.5-0.4-3.7l-1.4-2.3c4.1-7.1,8.3-15.7,13.5-27c0.6-1.3,1.8-2.5,2.9-2.9c1.5-0.6,4.5-1.7,7.7-2.7
		c2.2-0.7,3.4-1.7,3.4-3c0.1-1.8-2.1-3-2.6-3.3c-0.7-0.3-1.4-0.6-2.1-0.9c-1.9-0.9-2.2-1.4-2.3-1.5c-0.1-0.2,0.2-0.6,0.4-1
		c0.1-0.2,0.2-0.3,0.3-0.5c0.4-0.7,1.8-3.7,3-6.1c0.8-1.7,0.9-3,0.1-3.9c-1-1.3-3-1-3.6-0.9c-1.9,0.4-3.9,1-4.8,1.4
		c-0.4,0.2-1.2,0.6-1.5,0.7c-0.1-0.4-0.2-1.3-0.3-1.7c-0.2-1.8-0.5-3.6-0.8-5.1c-0.5-2.3-1.4-3.5-2.6-3.8c-0.7-0.1-1.8,0.1-2.8,1.7
		c-1.6,2.5-3,5.3-4.1,8.1c-0.5,1.3-0.8,1.8-0.9,2c-0.1-0.1-0.4-0.2-0.5-0.3l-0.2-0.1c-0.6-0.3-1.2-0.7-1.7-1.1
		c-0.4-0.2-0.8-0.5-1.1-0.7c-1.3-0.8-3.1-1.7-4.3-0.8c-1.4,1-0.7,3.5-0.3,4.6l0.1,0.2c0.4,1.4,0.8,2.8,1.3,4.2c0.5,1.5,1,3,1.4,4.6
		c0.7,2.7,0,4.8,0,4.8c-1.7,4.8-4.4,11.1-8.1,17.6c-0.5-0.8-0.7-1.3-0.7-1.5c0-0.8,1.6-4.1,3-6.8c3.2-6.4,5.5-11.1,5-13.6
		c-0.9-4.8-5.9-10.4-9.2-14.2c-1-1.2-1.9-2.2-2.3-2.7c-1.6-2.4-2.7-4.3-3.3-6l-0.1,0c-1.3-7.5-4.1-16.4-11.8-18.8c0-0.3,0-0.5,0-0.8
		c0-1.1,0.1-2.4-0.1-3.6c4.8-0.9,10.7-3.8,16.4-11.7c0.8-1.1,1.5-2.3,2.1-3.3c1.3-2.4,2.6-5.4,1.1-7.3c-0.6-0.8-1.4-1.1-2.4-1.1
		c-0.7,0-1.4,0.2-2,0.4c-0.5,0.2-1.1,0.3-1.5,0.3c-0.3,0-0.4-0.1-0.7-0.2c-0.2-0.1-0.6-0.4-1.1-1.4c-4-7.6-8.3-14.5-16.8-15.4
		c-0.7-0.1-1.4-0.1-2.1-0.1c-4.3,0-8.4,1.4-11.8,3.9c-2.3,1.7-4.2,3.8-5.5,6.1c-0.6-0.5-1.5-1.3-2.5-1.8c-1.3-0.7-2.6-0.5-3.5,0.5
		c-0.9,1-1.1,2.6-0.4,3.8c0.5,0.8,1.3,1.7,2.5,2.5c-1.6,0.7-3.3,1.8-3.1,3.3c0.1,0.9,0.6,1.7,1.3,2.2c0.6,0.4,1.3,0.6,2.1,0.6
		c0.4,0,0.9-0.1,1.5-0.2c0.4,3.3,1.7,6.4,3.8,9.1c3.1,4,8.3,8.2,14.7,9.6c0,0.8,0,1.6,0,2.4c0,0.7,0,1.4-0.1,2.2
		c-2.3,0.8-4,2.2-5.1,3.4c-3,3.5-4,8.4-3.4,11.4c0.3,1.4-0.1,1.6-0.6,1.8c-4.4,1.3-17.4,1.7-22.9,0.3c-1.3-0.3-1.3-0.3-1.3-1.6
		l0-0.9c0-0.9-0.1-1.9-0.1-2.8c-0.6-9.8-7.2-13-12.7-12.7c-6.6,0.3-13.2,5.5-13,13.5c0,0.7,0.1,1.5,0.1,2.3l0,0.4
		c0.1,1.1-0.1,1.2-0.8,1.3c-4.3,0.6-10.2,0.5-15.3,0.4c-1.9,0-3.7-0.1-5.3-0.1c-1.8,0-3.7,0-5.5,0.1c-2.7,0.1-5.5,0.1-8.2,0
		c-0.4,0-0.9-0.1-1.3-0.1c-2.4-0.1-3.6-0.1-4.5-4.4c-1.2-5.4-4.2-7.1-6.7-7c-3.3,0.2-5.8,3.3-6.2,7.6c0,0.4-0.1,0.8-0.1,1.3
		c0,0.4,0,1.2-0.1,1.3c-0.1,0.1-0.6,0.1-1.1,0.1l-0.3,0c-0.5,0-1.2,0.1-2,0.2c-3.4,0.3-13.7,1.2-14.9,0.7c-0.5-0.3-0.7-0.9-0.7-1.8
		c-0.1-2.9-0.5-6.9-3.3-8.3c-1.5-0.9-3-1-4.4-0.4c-3.4,1.5-5.5,7-6.1,9.7c-0.8,3.6-1.8,12.1-1.9,21.1c-0.1,4.3,0.4,18.5,9.3,21
		c1.3,0.4,3.7,0.7,7,1c1.3,5,3.3,7.8,5.7,7.8c0,0,0,0,0,0c2.2,0,4-2.4,5.4-7.1c3.9,0.2,8.1,0.3,12.2,0.3c1.3,4.4,3.3,7,5.5,7
		c0,0,0.1,0,0.1,0c1.5,0,3.6-1.3,4.9-7.1c2.6-0.1,5-0.2,7.3-0.4c15.3-1.1,26.9-1.3,35.8-1.1c1.3,4.8,3.3,7.5,5.5,7.5c0,0,0,0,0,0
		c1.5,0,3.6-1.2,5.1-7c5,0.4,8.7,0.9,11.6,1.2c3.2,0.4,5.4,0.7,7.1,0.5c-0.3,1.8-1,3.4-1.9,4.6c-3.4,4.4-25.6,6.4-43.6,7
		c-1.2-4.7-3.1-7.3-5.4-7.3c0,0,0,0-0.1,0c-1.6,0-3.7,1.4-5.1,7.5c-1.3,0-2.5,0-3.6,0c-13.6-0.3-39.4,0-40.2,0.1
		c-3.2,0.4-4.4,2.3-4.5,4.1c-0.1,2.3,1.7,4.9,5.4,5.7c9.4,1.9,25.7,2.4,41.3,2.4c5.7,0,11.2-0.1,16.3-0.2c-3.9,15.6-7.8,41-7.6,67.1
		c0,1.3-0.5,2.6-1.2,3.4c-1.3,1.3-3.2,3.3-5.2,5.1c-1.6,1.5-2.1,2.8-1.6,3.9c0.7,1.5,2.9,1.7,3.5,1.7c0.7-0.1,1.5-0.1,2.3-0.1
		c0.3,0,0.6,0,0.8,0c0.4,0,0.9-0.1,1,0c0.1,0.1,0.4,0.5,0.3,2.4c0,1.3,0,2.7,0,3.4c0.1,2.9,0.7,4.5,1.9,5.1c0.6,0.3,1.6,0.4,2.9-0.6
		c0.6-0.4,1.5-1.3,2.8-2.6c0.3-0.3,0.9-0.8,1.4-0.7c0.5,0.1,0.9,0.5,1.1,0.9c0.6,1,1.2,1.9,1.9,2.7c1.4,1.8,2.6,3.1,3.8,3.1
		c0.1,0,0.3,0,0.4-0.1c1.2-0.3,1.5-1.7,1.6-2.9c0.2-1.5,0.3-3.1,0.3-4.6c0.1,0.1,0.1,0.1,0.2,0.2c3.3,3.6,7.5,6.6,12.1,8.6
		c1.9,12.8,1.4,22,0.8,33.6c-0.1,2.6-0.3,5.2-0.4,8l-0.2,2.3c-4.1,1.2-8.2,3.1-11.6,5c-10.1,1.3-43.1,6.4-43.1,16.9
		c0,12.2,42.6,19.4,83.8,19.4c42.2,0,77.5-7.1,83-16.6c0.7-0.1,1.5-0.3,2.1-0.5c4.7-1.1,10.4-3.1,10.4-6c0-0.8-0.5-1.7-1.4-2.4
		c-3.2-2.6-7.8-4.5-13.6-5.7c0.7-1.3,1.2-2.7,1.6-4.1c0.4-1.4,0.5-2.5-0.1-3.2c-0.6-0.7-1.5-0.7-1.8-0.7c-0.4,0-0.8,0-1.4,0.1
		c-2.4,0.4-4.8,1.5-6.9,3.1c-0.4,0.3-0.5,0.3-0.6,0.3c-0.1,0-0.3-0.2-0.7-0.8c-0.5-0.9-1-1.7-1.7-2.6l-0.1-0.1
		c-1.8-2.1-3.6-4.1-5.4-4.4l-0.2,0c-1.6,0-3.2,1.6-4.7,3.3l-0.3,0.3c-1,1.3-1.9,2.6-2.6,4c-0.1,0.3-0.2,0.5-0.3,0.5
		c-0.1-0.1-0.3-0.3-0.5-0.4l-0.4-0.3c-2.5-2.1-5.9-3.2-8.4-2.8c-1.1,0.2-1.5,0.8-1.7,1.2l-0.1,0.2l0,0.2c0,0,0,0.6,0,1.4
		c-9.3-1.3-19.4-2.2-30.2-2.6c0.4-14.6,0.5-30.9,0.1-43.1c2.5-0.6,4.8-1.4,7-2.3c13.7,6.7,29,9,43.5,9c19.2,0,36.7-4,46-6.6
		c1.5-0.4,3.6-1.2,3.5-2.8C412.2,480.5,410.7,479.7,409.2,479.4z M378,468.1c1.3-0.6,2.5-1.1,3.7-1.6c8.7-4,11.1-4.9,13.7-2.7
		c2.6,2.2,4.5,5.5,6.4,8.7c1.3,2.3,2.6,4.5,4.1,6.3c-11.8-2.3-21.9-5.8-30.3-9.9C376.3,468.7,377.1,468.5,378,468.1z M353.8,443.9
		c2.8,0.1,5.3,0.2,5.9,0.3c2.6,0.3,3.9,1.1,4.9,3.3c0.2,0.3,0.5,2.1,0.8,3.8c0.8,4.2,2,10.2,3.7,14.3c-14.6-8.1-23.4-17.3-27.6-22.3
		C343.5,443.5,349.2,443.7,353.8,443.9z M343.3,411.1c0.2,0.2,0.9,1,2.3,2.8c5.6,7.2,6.2,11.1,2.5,15.8c-0.7,0.9-1.5,1.9-2.3,2.8
		c-2,2.4-4,4.8-5.6,7.5c0.7-9.6,1-20.2,0.9-31.1C341.8,409.6,342.5,410.3,343.3,411.1z M350.8,384.8c0.4,0.8,0.4,1.6,0.3,2.6
		c-0.2,2.2-6,9.6-8.5,12.8c-0.7,0.9-1.1,1.4-1.4,1.8c0-1.9-0.1-3.8-0.2-5.8c3.3-3.7,6.2-7.8,9.1-12.7L350.8,384.8z M338.6,367
		c-0.1-0.8-0.1-1.5-0.2-2.3c0.2,0.3,0.4,0.7,0.7,1l0.5-0.3C339.2,366,338.9,366.5,338.6,367z M334.5,326.4c0.4,0.7,1.3,1.7,2.4,2.9
		c3,3.4,8,9,8.8,13.3c0.4,2.1-2.6,8.1-4.8,12.4c-1.4,2.7-2.3,4.6-2.8,6c-1.1-11.3-2.5-22.5-4.2-33.3c-0.1-0.7-0.2-1.6-0.4-2.5
		c0-0.1,0-0.2,0-0.3C333.8,325.4,334.1,325.9,334.5,326.4z M291.9,267.7c-0.3-0.6-0.2-1.2,0.2-1.6c0.3-0.3,0.8-0.4,1.3-0.1
		c1.2,0.6,2.2,1.6,2.4,1.9c-0.4,0.8-0.7,1.7-0.9,2.6C293.1,269.3,292.3,268.3,291.9,267.7z M292,275.3c-0.4-0.2-0.5-0.6-0.5-0.8
		c0-0.4,1.3-1.2,3-1.8c-0.1,0.7-0.2,1.5-0.2,2.2c0,0.2,0,0.3,0,0.5C293.3,275.6,292.4,275.6,292,275.3z M299.7,285.2
		c-2.4-3.1-3.6-6.6-3.6-10.4c0-5,2.6-9.8,7.1-13.2c3-2.3,6.8-3.5,10.6-3.5c0.6,0,1.3,0,1.9,0.1c7.6,0.8,11.6,7.3,15.3,14.4
		c0.6,1.1,1.2,1.8,1.8,2.1c0.5,0.3,1,0.5,1.6,0.5c0.7,0,1.3-0.2,2-0.4c0.5-0.2,1.1-0.3,1.5-0.3c0.4,0,0.7,0.1,1,0.4
		c0.4,0.5,0.5,1.8-1.3,5.2c-0.5,1-1.2,2.1-2,3.1c-5.3,7.4-11.6,11.3-18.4,11.3h0C309.6,294.6,303.2,289.7,299.7,285.2z M314.7,298.5
		c0-0.7,0-1.4,0-2.2c0.8,0.1,1.7,0.2,2.5,0.2c0.5,0,1.1,0,1.7-0.1c0.1,1.1,0.1,2.3,0.1,3.3c0,0.2,0,0.3,0,0.4
		c-0.5-0.1-1-0.1-1.5-0.2c-1-0.1-2,0-2.9,0.1C314.7,299.6,314.7,299,314.7,298.5z M187.1,365.2C187.1,365.2,187.1,365.2,187.1,365.2
		c-1,0-2.5-1.8-3.7-5.8c2.2,0.2,4.6,0.3,7.2,0.5C189.3,363.8,188,365.2,187.1,365.2z M210.2,365.5c-1,0-2.4-1.6-3.5-5.1
		c2.2,0,4.4,0,6.5-0.1C212.3,364.1,211.1,365.5,210.2,365.5z M263.8,364.4C263.8,364.4,263.8,364.4,263.8,364.4
		c-1,0-2.4-1.8-3.5-5.6c2.4,0.1,4.7,0.2,6.7,0.3C265.9,363.1,264.6,364.4,263.8,364.4z M236.6,367.3c1,0,2.4,1.7,3.5,5.5
		c-2.3,0.1-4.6,0.1-6.7,0.1C234.4,368.8,235.7,367.3,236.6,367.3z M188.8,380.8c-2.6-0.5-3.9-2.3-3.9-3.7c0.1-1.2,1.1-2.1,2.8-2.3
		c0.8-0.1,26.2-0.3,40-0.1c11.1,0.2,53.6-0.5,59.3-7.8c1.3-1.7,2.1-3.8,2.4-6.3c2.4-1,6.8-2.8,6.2-8.2c-0.1-0.5-0.5-0.9-1-0.8
		c-0.5,0.1-0.9,0.5-0.8,1c0.4,3.8-2.1,5.1-5.1,6.3c-1.5,0.6-3.8,0.3-8-0.2c-8.6-1.1-24.5-3.2-58.3-0.7c-16,1.2-42.4-0.1-47.4-1.6
		c-7.8-2.2-7.9-16.3-7.9-19.1c0.1-8.5,1.1-17.2,1.9-20.7c0.6-2.7,2.5-7.3,5-8.4c0.9-0.4,1.8-0.3,2.8,0.3c1.4,0.7,2.2,3,2.3,6.8
		c0.1,1.9,0.9,2.9,1.6,3.3c1,0.7,5.1,0.6,16.1-0.3c0.8-0.1,1.5-0.1,2-0.2l0.3,0c2.4-0.2,2.8-0.7,2.9-3.3c0-0.4,0-0.8,0.1-1.1
		c0.4-3.7,2.5-5.8,4.5-5.9c2.2-0.1,4,2,4.7,5.5c1.2,5.3,3.2,5.7,6.3,5.9c0.4,0,0.8,0,1.2,0.1c2.8,0.2,5.6,0.1,8.4,0
		c1.8,0,3.6-0.1,5.4-0.1c1.6,0,3.4,0,5.3,0.1c5.2,0.1,11.2,0.2,15.6-0.5c1.8-0.3,2.5-1.3,2.4-3.3l0-0.4c-0.1-0.8-0.1-1.5-0.1-2.2
		c-0.2-6.9,5.5-11.3,11.2-11.6c4.8-0.2,10.2,2.5,10.7,11c0.1,0.9,0.1,1.8,0.1,2.8l0,0.9c0.1,2.4,0.6,2.7,2.8,3.3
		c5.8,1.5,19.2,1.1,23.9-0.3c1.7-0.5,2.3-1.8,1.9-3.9c-0.5-2.5,0.4-6.7,3-9.8c1.5-1.7,4.1-3.6,8.3-3.4c11.2,0.7,13.2,15.6,14.2,23.6
		c0.1,1,0.2,1.8,0.4,2.6c2.1,13.5,3.8,27.6,5,41.7c-5.3,8.6-12,17.1-19.4,22.8c-0.4,0.3-0.5,0.9-0.2,1.3c0.3,0.4,0.9,0.5,1.3,0.2
		c7.6-5.8,14.4-14.4,19.8-23.2c0.2-0.1,0.3-0.3,0.3-0.5c5.2-8.5,9.1-17,11.2-23c0-0.1,1-2.6,0.1-5.9c-0.4-1.6-0.9-3.1-1.4-4.7
		c-0.4-1.3-0.9-2.7-1.3-4.1l-0.1-0.2c-0.6-2-0.4-2.5-0.4-2.6c0,0,0.5-0.2,2.2,0.9c0.4,0.2,0.7,0.5,1.1,0.7c0.6,0.4,1.2,0.8,1.8,1.1
		l0.2,0.1c0.7,0.4,1.3,0.8,2.1,0.5c0.8-0.3,1.3-1.2,2.1-3.2c1-2.6,2.4-5.3,3.9-7.7c0.5-0.8,0.8-0.9,0.9-0.9c0.1,0,0.7,0.5,1.1,2.3
		c0.3,1.5,0.6,3.2,0.8,4.9c0.2,1.7,0.4,2.7,1.2,3.2c0.9,0.5,1.9,0,3.3-0.7c0.8-0.4,2.7-0.9,4.4-1.3c0.8-0.2,1.5-0.1,1.8,0.2
		c0.2,0.2,0.2,0.9-0.4,2c-1.2,2.4-2.6,5.4-2.9,6.1c-0.1,0.2-0.2,0.3-0.2,0.5c-0.4,0.8-0.9,1.6-0.5,2.5c0.3,0.9,1.2,1.7,3.3,2.7
		c0.7,0.3,1.4,0.6,2.2,0.9c0.4,0.2,1.4,1,1.4,1.4c0,0.2-0.5,0.8-2.1,1.3c-3.2,1-6.2,2.1-7.8,2.7c-1.6,0.6-3.1,2.1-3.9,3.9
		c-15.2,32.7-21.4,42.6-39.2,54.7c-0.4,0.3-0.5,0.9-0.2,1.3c0.2,0.3,0.5,0.4,0.8,0.4c0.2,0,0.4-0.1,0.5-0.2c5.8-4,10.4-7.7,14.4-12
		c0.7,23.9-0.5,48.1-3.2,63.6c-1.7,9.9-12.6,21.7-37.5,22.5c-4.5,0.1-8.7-0.1-12.6-0.6c1.1-0.1,2.2-0.4,3.2-0.7
		c17-4.8,16.6-23.9,16.3-36.5l0-1.2c-0.6-28.3-1-42.5-16.2-48.6c-3.9-1.6-8.4-2.3-13.4-2.3c-1.6,0-3.3,0.1-4.9,0.3
		c-11.4,0.9-18,6.9-21.1,19.6c0.1-2.4,0.3-4.9,0.4-7.2c0.5-8.1,0.9-15.7,0.9-22.2c5.7-0.2,10.6-0.4,14-0.7c0.5,0,0.9-0.5,0.9-1
		c0-0.5-0.5-0.9-1-0.9C250.3,383.2,206.4,384.3,188.8,380.8z M295,527.2c-3.2,0-6.3,0.1-9.3,0.2c0.2-1.8,0.3-3.8,0.4-4.6
		c0.5-13.5,0.2-21.9-0.2-32.5c-0.1-1.5-0.1-3.2-0.2-4.8c2.6,0.4,5.2,0.6,7.8,0.7C295.7,500,295.6,513.1,295,527.2z M276.5,545.1
		c0.4,1.6,2.7,1.8,3.5,1.8l1.8,0.1c1.2,0.1,1.8,0.2,2.1,0.3c-0.2,0.2-0.4,0.5-0.6,0.7c-0.3,0.3-0.6,0.7-0.9,1.1l-0.1,0.1
		c-0.3,0.4-0.5,0.8-0.8,1.2c-1.1,1.8-0.7,2.8-0.3,3.3c0.8,0.9,2.2,0.9,3.2,0.5c0.7-0.3,1.5-0.7,2.2-1l0.8-0.4
		c0.5-0.2,1.3-0.6,1.8-0.8c0,0.2,0,0.4,0,0.6c0,0.5-0.1,1.2-0.1,1.9c0,1.2,0.1,2.4,0.5,3.2c-33.2-0.7-55.8-6.2-55.8-11.1
		c0-2.4,6.3-6.1,24.1-8.7c-0.1,0.2-0.3,0.4-0.5,0.5c-0.3,0.3-0.6,0.7-0.9,1.1l-0.1,0.1c-0.3,0.4-0.5,0.8-0.8,1.1
		c-1.1,1.8-0.7,2.8-0.3,3.3c0.8,0.9,2.2,0.9,3.2,0.5c0.7-0.3,1.4-0.6,2.1-1l0.8-0.4c0.5-0.2,1.3-0.6,1.8-0.8c0,0.2,0,0.4,0,0.6
		c0,0.5-0.1,1.2-0.1,1.9c0,1.7,0.2,3.4,1.3,3.9c0.2,0.1,0.5,0.2,0.7,0.2c0.9,0,1.8-0.7,2.7-1.4c1.3-1.1,7.4-7.1,11.9-11.7
		c3.8-0.2,7.7-0.3,11.7-0.4c-5,1.9-9.8,4.5-13.1,6.6C277.8,542.4,276.2,543.7,276.5,545.1z M310.9,539.9c0.3-0.7,0.6-2.5,0.7-4.2
		c7.5,0.4,14.3,1.1,19.3,1.7c-1.3,0.4-1.9,0.7-2.1,1.3l-0.2,0.5l0.2,0.4c0.2,0.5,0.4,1,6.8,2.7c0,0,0,0,0,0c0,0,0,0,0,0
		c-2,0.5-4.7,1.3-6.5,1.9c-1.9,0.6-2.5,0.9-2.6,1.5c-0.3,1.4,1.6,2,2.7,2.4c5.5,1.8,13.9,2.9,23.1,3.3c-10.6,3.9-32.1,6.5-56,6.5
		c-1.1,0-2.2,0-3.3,0c0.2-0.2,0.5-0.4,0.7-0.6c1.8-1.5,12.2-12,15.9-15.8C310.8,540.2,310.9,540.1,310.9,539.9z M294.8,532.1
		l-0.1,1.4c-4.4,0-8.8,0.1-12.9,0.3c0.8-0.8,1.5-1.5,2-2.1c1.3-1.3,1.3-1.4,1.4-1.5c0.1-0.2,0.2-0.6,0.3-1c3.1-0.1,6.2-0.2,9.5-0.2
		C294.9,530.1,294.9,531.1,294.8,532.1z M252,412.7c6.3,2.3,14.8,3.3,23.6,3.3c8.9,0,18-1,25.3-2.7c1.1,4.1,1.6,9,2,14.8
		c-13.7,3.7-40,5.2-53.2-0.6c0.1-1.1,0.2-2.1,0.3-3.2C250.4,419.9,251,416,252,412.7z M252.5,411c3.2-9.4,9-13.8,18.4-14.5
		c1.6-0.2,3.2-0.2,4.8-0.2c4.8,0,9,0.7,12.7,2.2c6.3,2.5,9.9,6.8,11.9,13.1C286.4,414.7,264.6,415.4,252.5,411z M249,437
		c0.1-2.5,0.2-5,0.4-7.6c6,2.5,14.8,3.8,25.3,3.8c0.2,0,0.5,0,0.7,0c9.8-0.1,20-1.3,27.5-3.3c0.2,4.5,0.3,9.4,0.5,15
		c-13.9,3.8-41.1,5.3-54-0.9l-0.1,0.3C249.1,441.9,249.1,439.5,249,437z M249.4,446.1c6,2.6,15.1,4.1,25.9,4.1c0.2,0,0.5,0,0.7,0
		c9.8-0.1,20-1.3,27.4-3.3c0.1,4.9,0.1,9.8-0.5,14.3c-13.4,3.2-38,4.7-51.1-0.9c-0.5-1.4-0.9-2.9-1.3-4.4
		C250,452.9,249.6,449.6,249.4,446.1z M254.8,466.7c-0.1-0.2-0.2-0.4-0.4-0.5c-0.6-1.1-1.2-2.3-1.7-3.4c6.4,2.3,15,3.2,23.7,3.2
		c9.6,0,19.2-1.1,26.2-2.7c-1.4,8.5-5.2,15.4-14.1,17.9c-1.9,0.5-3.9,0.8-6,0.8c-3.2,0-6.5-0.6-9.7-1.7
		C264.5,477,258.5,472.1,254.8,466.7z M254.2,476.3c-0.1,0.7-0.2,1.1-0.3,1.3c-0.2-0.1-0.9-0.6-2.2-2.3c-0.6-0.8-1.2-1.6-1.8-2.6
		c-0.8-1.3-1.8-1.6-2.5-1.7c-0.7-0.1-1.8,0.1-2.9,1.2c-1.3,1.3-2.1,2.1-2.6,2.5c-0.5,0.4-0.8,0.4-0.9,0.4c0,0-0.7-0.4-0.8-3.4
		c0-0.7,0-2,0-3.3c0-2-0.2-3.2-0.9-3.8c-0.7-0.7-1.6-0.6-2.4-0.6c-0.2,0-0.4,0-0.7,0c-0.8,0-1.7,0.1-2.4,0.1c-0.4,0-1.5-0.2-1.6-0.5
		c-0.1-0.1,0.1-0.7,1.2-1.7c2-1.9,4-3.9,5.3-5.2c1.1-1.1,1.7-2.9,1.7-4.7c-0.2-26.2,3.8-51.7,7.7-67.1c0.4,0,0.8,0,1.1,0
		c0,6.4-0.4,14-0.9,22c-0.6,9.8-1.2,20.3-1.1,30.2c-0.2,6.7,0.1,13.3,1.5,19.3c0.2,0.9,0.3,1.7,0.5,2.6c1,4.1,2.8,7.7,5.3,10.8
		C254.6,471.9,254.5,474.1,254.2,476.3z M270,526.3l0.6-0.2l0.3-3.6c0.1-2.8,0.3-5.5,0.4-8c0.6-11.4,1.1-20.5-0.6-32.9
		c1.3,0.5,2.6,0.9,3.9,1.2c3,1,6.2,1.8,9.4,2.3c0.1,1.8,0.1,3.5,0.2,5.2c0.4,10.6,0.7,19,0.2,32.3c-0.1,2.7-0.5,5.9-0.8,6.7
		c-0.1,0.2-0.5,0.5-1.1,1.1c-3.5,3.6-14,14.2-15.7,15.7c-0.8,0.7-1.2,0.9-1.3,0.9c-0.1-0.2-0.2-0.8-0.2-2.2c0-0.7,0-1.3,0.1-1.8
		c0.1-1.2,0.1-2-0.6-2.5c-0.8-0.5-1.8-0.1-3.9,0.9l-0.9,0.4c-0.7,0.3-1.4,0.7-2,0.9c-0.5,0.2-0.9,0.1-1,0c0-0.1,0-0.4,0.4-1
		c0.2-0.4,0.5-0.7,0.7-1.1l0.1-0.1c0.2-0.3,0.5-0.6,0.7-0.9c0.7-0.8,1.5-1.7,1.1-2.7c-0.4-1-1.8-1.4-3.8-1.5l-1.8-0.1
		c-1.4-0.1-1.7-0.4-1.8-0.3c0-0.2,0.6-0.8,1-1.1C257.7,531.4,263.9,528,270,526.3z M297.9,564.1c-49,0-81.9-9.1-81.9-17.5
		c0-5.5,14.3-11.1,36.8-14.4c-0.1,0-0.1,0.1-0.2,0.1c-0.6,0.4-2.2,1.7-1.9,3.1c0.2,0.8,0.9,1.2,1.6,1.5c-9.4,1.7-20.5,4.8-20.5,9.7
		c0,8.5,33.2,13.1,64.4,13.1c27.2,0,51.4-3.3,60.4-8.3c0.3,0,0.6,0,0.9,0c0.1,0,0.2,0,0.2,0c7.4,0,14.3-0.6,20.3-1.5
		C371,557.2,340.9,564.1,297.9,564.1z M390.8,541.9c0.6,0.5,0.7,0.8,0.7,1c0,0.8-2.4,2.6-8.9,4.2c-6.6,1.6-15.3,2.4-24.7,2.4
		c-0.1,0-0.2,0-0.2,0c-11.1,0-21.5-1.2-27.9-3.3c-0.2-0.1-0.4-0.1-0.5-0.2c0.1,0,0.2-0.1,0.4-0.1c1.8-0.6,4.5-1.3,6.4-1.8
		c1.2-0.3,2.3-0.8,2.3-1.8c0-1.2-1.6-1.6-2.3-1.8c-2.1-0.6-3.5-1-4.4-1.3c0.1,0,0.2,0,0.2-0.1c3.2-0.9,7.7-1.7,12.3-2.4
		c3.4,5.7,10.9,8.7,17.7,8.7c0.3,0,0.6,0,0.8,0c5.9-0.3,11.4-3.7,14.7-8.9C383.2,537.6,387.7,539.4,390.8,541.9z M344.4,528.9
		c0.3,0,0.5-0.1,0.8-0.1c1.9,0,4.2,0.9,6,2.4l0.3,0.3c0.6,0.5,1.1,1,1.8,1c1.1,0,1.7-1.2,1.9-1.7c0.6-1.2,1.4-2.5,2.4-3.6l0.3-0.3
		c0.7-0.8,2.3-2.7,3.2-2.7c1.3,0.2,3.5,2.8,4.2,3.8c0.6,0.8,1.1,1.5,1.5,2.3c0.2,0.5,0.9,1.9,2.4,1.9c0.6,0,1.1-0.2,1.7-0.7
		c1.9-1.5,4-2.4,6-2.7c0.7-0.1,1.2-0.1,1.4-0.1c0,0.1,0,0.5-0.2,1.5c-2,7.6-8.4,13-15.5,13.4c-0.3,0-0.5,0-0.8,0
		c-6,0-16.1-3.2-17.5-11.7c-0.2-1.3-0.2-2.4-0.2-3C344.2,529,344.3,528.9,344.4,528.9z M342.5,532c0,0.1,0,0.2,0,0.3
		c0.2,1,0.4,1.9,0.8,2.8c-2.6,0.4-5.1,0.8-7.4,1.3l0,0c-4.6-0.7-13.7-1.9-24.1-2.4c0-0.6,0.1-1.1,0.1-1.4c0-1,0.1-2.1,0.1-3.2
		C323,529.7,333.2,530.6,342.5,532z M310.1,532.4c-0.1,2.7-0.5,5.9-0.8,6.7c-0.2,0.2-0.8,0.9-1.1,1.1c-3.5,3.6-14,14.2-15.7,15.7
		c-0.8,0.7-1.2,0.9-1.3,0.9c-0.1-0.2-0.2-0.8-0.2-2.2c0-0.7,0-1.3,0.1-1.8c0.1-1.2,0.1-2-0.6-2.5c-0.8-0.5-1.8-0.1-3.9,0.9l-0.8,0.4
		c-0.7,0.3-1.4,0.7-2.1,1c-0.5,0.2-0.9,0.1-1,0c0-0.1,0-0.4,0.4-1c0.2-0.4,0.5-0.8,0.8-1.1l0.1-0.1c0.2-0.3,0.5-0.6,0.7-0.9
		c0.7-0.8,1.5-1.7,1.1-2.7c-0.4-1-1.8-1.4-3.8-1.5l-1.8-0.1c-1.4-0.1-1.7-0.4-1.8-0.3c0-0.2,0.6-0.8,1-1.1
		c4.1-2.5,10.2-5.9,16.4-7.6l0.6-0.2l0.3-3.6c0.7-16,1.1-30.5-1.2-46c0.3,0,0.5,0,0.8,0c0.7,0,1.5,0,2.2,0c4.2-0.1,8.2-0.6,11.8-1.4
		C310.7,498.3,310.6,516.8,310.1,532.4z M408.2,482.7c-15.8,4.4-55.6,12.9-86.7-1.6c8.9-4.2,14.8-10.8,16.2-19
		c0.9-4.9,1.6-10.8,2.1-17.2c0.1-0.2,0.1-0.3,0.2-0.5c7.2,8.7,28.3,29.8,68.5,36.7c0.9,0.2,1.5,0.5,1.7,0.7
		C410.1,482,409.6,482.3,408.2,482.7z"/>
	<path d="M235.5,532.8C235.1,532.6,234.9,532.7,235.5,532.8L235.5,532.8z"/>
	<g>
		<path d="M351,518.1c-0.8,0-1.5,0.3-2.1,0.9c-0.6,0.6-0.9,1.3-0.9,2.1c0,1.6,1.3,3,3,3h0c1.6,0,3-1.3,3-3
			C353.9,519.5,352.6,518.1,351,518.1z"/>
		<path d="M371.4,518.1c-1.6,0-3,1.3-3,3c0,1.6,1.3,3,3,3h0c0.8,0,1.5-0.3,2.1-0.9c0.6-0.6,0.9-1.3,0.9-2.1
			C374.3,519.4,373,518.1,371.4,518.1z"/>
	</g>
	<path d="M174.1,315.9c-0.7,0.1-1.3,0.4-1.7,1c-1,1.2-1.2,3.5-1,5.2c0.1,0.9,0.5,2.6,1.7,3.4c0.5,0.3,1,0.5,1.6,0.5
		c0.5,0,1.1-0.1,1.7-0.4c2-0.9,2.6-3.7,2.1-5.9C177.9,317.1,176.2,315.6,174.1,315.9z M175.5,323.8c-0.6,0.3-1.1,0.3-1.4,0.1
		c-0.4-0.3-0.7-1.1-0.9-2.1c-0.2-1.5,0.1-3.1,0.6-3.7c0.2-0.2,0.3-0.3,0.6-0.3c0.1,0,0.2,0,0.2,0c1.1,0,1.8,1.2,2,2.3
		C176.9,321.5,176.6,323.3,175.5,323.8z"/>
</g>
</svg>
