<?xml version="1.0" encoding="utf-8"?>
<!-- Generator: Adobe Illustrator 18.1.1, SVG Export Plug-In . SVG Version: 6.00 Build 0)  -->
<svg version="1.1" xmlns="http://www.w3.org/2000/svg" xmlns:xlink="http://www.w3.org/1999/xlink" x="0px" y="0px"
	 viewBox="0 0 595.3 841.9" enable-background="new 0 0 595.3 841.9" xml:space="preserve">
<g id="Preenchimento">
	<path fill="#FFFFFF" d="M354.3,380.8c-0.8-3.2-2-6.6-3.4-10.5c-0.7-1.9-1.2-2.9-1.5-3.6c-0.5-1.2-0.6-1.3-0.3-2.4
		c0.2-0.9,0.6-2.5,1-6.1c0.6-5.7,0.9-9.9,0.7-12.7c-0.8-18.5-7.4-38-17.6-52c-2-2.6-7.9-10.3-14.2-10.3c-0.5,0-1.1,0.1-1.6,0.2
		c-5.6,1.2-6.9,6.3-8.2,11.2l-0.4,1.4c-1.1,4.8-1.6,12.2-2.1,19.5c-0.5,6.8-0.9,13.2-1.8,17.7c-0.1,0.3-0.5,1-0.9,1
		c-1.2-0.2-2.2-0.3-3.1-0.3l-2.8-0.3c-3.7,0-7.5,0.5-11.1,1.3l-0.2,0c-0.6,0-1.1-0.7-1.2-1.1c-1.1-4.8-1.9-12.1-2.8-19.2l0-0.1
		c-0.8-7.1-1.7-14.4-2.8-19.3l-0.4-1.3c-1.3-4.9-2.6-10-8.2-11.2c-4.6-1-9.8,2.3-15.8,10.2c-7.1,9.8-12.6,23-15.7,37.3
		c-1.8,8.3-5,29.2-6.3,45.4c-1.6,20.4,1.7,29.9,13.7,38.9c4.6,3.5,9.9,6.1,14.9,7.3c10.5,2.4,21.1,3.7,31.7,3.7
		c11.8,0,23.3-1.5,34-4.6C350.8,414.4,359.6,400.9,354.3,380.8z M314.7,329.5c-0.3-6.2,1.2-15.3,2.8-21.8c1.2-4.9,3.2-7.6,5.7-7.6
		c2.4,0,4.9,2.4,7.7,7.2c2.4,4.2,4.7,9.2,6.8,14.9c1.3,3.4,3.6,10.9,4.1,16.8c0.2,2.6-0.2,4.5-1.3,5.6c-1.6,1.7-4.5,1.5-7.6-0.6
		c-2.5-1.6-6.7-3.9-9-4.8c-1.3-0.5-2.6-1-4.3-1.5C317.4,336.9,315,335.3,314.7,329.5z M267.3,300c2.5,0,4.5,2.7,5.7,7.6
		c1.5,6.4,3.1,15.5,2.8,21.8c-0.3,5.9-2.8,7.5-4.9,8.2l-0.3,0.1c-1.4,0.5-2.7,0.9-4,1.4c-2.4,0.9-6.6,3.2-9,4.8
		c-3.1,2.1-6.1,2.3-7.6,0.6c-1-1.1-1.5-3-1.3-5.6c0.6-7.1,3.7-15.8,4.1-16.8c2.1-5.7,4.3-10.7,6.8-14.9
		C262.4,302.4,264.9,300,267.3,300z"/>
	<path fill="#FFFFFF" d="M254.9,420.1l-0.4-0.2c-2.7-1.3-5.3-2.9-7.7-4.7c-12.1-9.2-15.7-19.2-14-39.7c0.7-8.4,1.8-17.3,2.7-23.3
		l0-0.2l-0.1-0.2c-0.4-0.4-0.7-0.8-1-1.2c-0.3-0.4-0.6-0.8-1-1.2c-2-2.3-3.9-3.4-5.6-3.3c-3.3,0.2-6.3,4.8-9.8,10.2l-1.1,1.6
		c-15.8,23.7-12.4,52.6-2.1,70.7c0,0-0.1,2.1-2.6,1.1c-0.3-0.1-0.6-0.2-1-0.4c-0.4-0.2-0.9-0.4-1.4-0.7c-1.4-0.8-2.6-1.4-3.3-1
		c-0.4,0.3-1,1.1-0.9,3.5c0.4,40.1,32.1,49,45.7,51l0.7,0.1l-0.2-0.7c-0.8-3.3-1.9-8-2.5-12c-2.8-18.8-1.1-34.4,5.4-49L254.9,420.1z
		"/>
	<path fill="#FFFFFF" d="M274.7,490.1c-2-1.3-4.6-0.8-7,1.5c-0.3,0.3-0.7,0.5-1,0.5c-0.2,0-0.3,0-0.4-0.1c-0.7-0.2-1.2-1.4-1.9-4.4
		l-0.1-0.4c-7.2-26.7-6.3-45.5,3-62.8l0.3-0.6l-0.6-0.1c-1.9-0.4-3.5-0.7-5-1.1c-1.9-0.5-3.9-1.1-5.8-2l-0.4-0.2l-0.2,0.4
		c-6.4,14.4-8.1,29.8-5.3,48.4c1.1,7.1,3.7,17.2,5.2,22c0.1,0.5,0.1,0.9-0.1,1.2c-0.3,0.4-0.9,0.5-1.3,0.5l-0.2,0
		c-2.9-0.2-4.9,0.8-5.9,2.7c-1,2.1-0.5,5.1,1.2,7c0.7,0.8,2.2,2.1,4.5,2.1c0.8,0,1.6-0.1,2.4-0.4c0.3-0.1,1.1-0.3,1.4,0.1
		c0.4,0.4,0.3,0.9,0.1,1.9c-0.1,0.2-0.1,0.5-0.2,0.7c-0.2,1.1-0.2,2.1,0.1,3c0.7,2.3,3.1,3.8,6.1,3.8c0.7,0,1.4-0.1,2.1-0.3
		c2.8-0.7,5.4-3.1,4.4-7.6c-0.1-0.4-0.2-0.8-0.3-1.2c-0.1-0.4-0.3-0.8-0.5-1.2c-0.1-0.2-0.2-0.3-0.3-0.6c-0.4-0.6-0.6-1.1-0.4-1.5
		c0.1-0.2,0.4-0.4,1.1-0.4c0.3,0,0.6,0,0.8,0.1c0.5,0.1,1,0.1,1.4,0.1c2.8,0,4.7-1.1,5.4-3.2C278.3,495.4,277.1,491.7,274.7,490.1z"
		/>
	<path fill="#FFFFFF" d="M273.8,555.3c-2.3,0.2-4.6,0.4-6.8,0.7l-0.5,0.1l0.1,0.5c0.1,0.6,0.3,1.2,0.4,1.8l0.1,0.7
		c0,0.3,0.1,0.5,0.1,0.8l0.1,0.8l0.5-0.1c1.9-0.3,4-0.6,6-0.9l0.4-0.1l0-0.4c0-1,0-2.1,0.1-3.5l0-0.5L273.8,555.3z"/>
	<path fill="#FFFFFF" d="M309.9,569.2c-0.5-1.9-2.1-3.4-4.5-4.3c-1.1-0.4-2.3-0.6-3.6-0.5c-1.6,0.1-2.7,0.1-3.6,0.1
		c-0.8,0-1.6,0-2.3-0.1c-1.3-0.2-4.9-2.5-6.9-3.9l-0.9-0.6c-2-1.3-2.1-1.4-2.2-3.6c0-0.4,0-0.8-0.1-1.4c-0.1-1.3-0.2-42.1,1.6-57.5
		l0.1-0.4l-0.4-0.1c-2.7-0.5-5.5-1.2-8.1-2.2l-0.7-0.3l0.1,0.7c0.1,1.2,0,2.3-0.3,3.2c-0.2,0.4-0.6,1.3-1.4,2.1l-0.1,0.1l-0.4,15.8
		c-0.4,16.8-1,37.7-1,43.9c0,1.3,0,2.2,0,2.8c0,0.6,0,1.1,0,1.3c0.1,1.2,0.2,1.7,0.2,1.9l0.3,0.4c0.8,1.1,9.8,6.2,15.3,9.2l0.2,0.1
		l0.1,0.2c0.2,0.6,0.5,1.2,0.8,1.8c0.8,1.2,1.7,2.1,2.7,2.6c0.8,0.4,1.7,0.7,2.5,0.8c0.3,0,0.6,0,0.8,0c2.5,0,4.4-1,5.2-2.7
		c0.9-2,0.2-4.5-2-6.7c-0.2-0.2-0.4-0.4-0.6-0.7c-0.2-0.2-0.1-0.5,0.1-0.6c0.3-0.2,0.5-0.1,0.7,0.1c0.2,0.2,0.4,0.4,0.5,0.6
		c2.2,2.2,3.1,4.8,2.4,7l-0.3,0.9l0.9-0.3c1.7-0.6,2.9-2,3.2-3.7c0.4-2.1-0.5-4.2-2.5-5.5c-0.4-0.3-0.9-0.5-1.4-0.7
		c-0.1,0-0.2-0.1-0.2-0.2c0-0.1,0-0.2,0-0.4c0.1-0.2,0.4-0.3,0.6-0.2c0.6,0.2,1.1,0.5,1.6,0.8c1.2,0.8,2.2,1.9,2.6,3.3l0.5,1.4
		l0.4-1.4C310.1,571.1,310.1,570.1,309.9,569.2z"/>
	<path fill="#FFFFFF" d="M297.6,582.3c-0.1,0-0.3,0-0.4,0c-1-0.1-1.9-0.4-2.8-0.9c-1.2-0.6-2.2-1.6-3.1-3c-0.3-0.5-0.6-1-0.8-1.6
		l-0.1-0.2l-0.1-0.1c-8.8-4.9-14.7-8.5-15.3-9.4c-0.2-0.2-0.3-0.4-0.3-0.4l0,0c-0.1-0.3-0.2-0.6-0.4-2.5c0-0.2,0-0.7,0-1.3
		c0-0.4,0-1.1,0-1.9l0-0.5l-0.5,0.1c-2,0.3-4,0.5-5.8,0.8l-0.4,0.1l0.1,1.4c0.1,0.6,0.1,1.3,0.2,1.9c0,0.4,0.1,0.8,0.2,1.3
		c0.3,1.7,0.6,3.7,0.1,5.3c-0.2,0.8-1,1.6-2.3,2.5c-1,0.6-3.5,1.7-4.8,1.7l-1.1,0.4c-1.1,0.5-2.3,1-3.5,1.4l-1.3,0.5l1.3,0.4
		c9.9,2.8,24.9,4.6,41.2,4.9l0-0.9L297.6,582.3z"/>
	<path fill="#FFFFFF" d="M341.6,562.2l-0.7-0.1l0.2,0.7c0.5,2-0.1,4.1-1.4,5.9l-0.1,0.2c-0.5,2.5-2.4,4.3-5.1,4.9l-0.2,0
		c-0.1,0-0.1,0-0.2,0l-0.2,0l-0.1,0.1c-1.3,1.5-3.5,2.2-6,2.1c-1-0.1-1.9-0.3-2.9-0.8c-1.2-0.6-2.2-1.6-3.1-2.9
		c-0.3-0.5-0.6-1-0.9-1.6l-0.1-0.2l-0.2-0.1c-8.9-4.6-14.9-8.1-15.5-9c-0.2-0.2-0.3-0.4-0.3-0.4c-0.1-0.2-0.2-0.5-0.3-1.8l0-0.4
		l-1.7,0c-3.8,0-7.8,0.1-12.2,0.3l-1.4,0.1l1.2,0.8c2.2,1.5,5,3.2,5.9,3.3c0.5,0.1,1.1,0.1,1.8,0.1l0.3,0c0.9,0,2,0,3.5-0.1
		c1.4-0.1,2.7,0.1,3.9,0.6c2.6,1,4.4,2.7,5,4.9c0.6,2.1,0,4.4-1.5,6.3l-0.1,0.2c-0.5,2.5-2.5,4.3-5.2,4.7l-0.6,0.1l-0.1,0.1
		c-1.1,1.2-2.9,1.9-5.1,1.9l0,0.9c1.5,0,3,0,4.6,0c31.3,0,57.8-5.6,57.8-12.2C360.5,567.9,353.5,564.5,341.6,562.2z"/>
	<path fill="#FFFFFF" d="M304.4,557.4c0-0.5,0-1.5-0.1-2.8v-0.5l-0.5,0c-5.6-0.1-11.2,0-16.5,0.3l-0.5,0l0,0.5c0,0.5,0.1,1,0.1,1.4
		c0,1.1,0.1,1.5,0.8,2.1l0.1,0.1l0.2,0c4.8-0.3,9.8-0.4,14.7-0.4l1.6,0L304.4,557.4z"/>
	<path fill="#FFFFFF" stroke="#FFFFFF" stroke-width="0.9265" stroke-miterlimit="10" d="M340.9,339c-0.5-5.8-2.8-13.1-4-16.5
		c-2-5.6-4.3-10.6-6.7-14.8c-3.2-5.6-5.6-6.8-6.9-6.8c-2,0-3.8,2.5-4.8,6.9c-1.4,6.1-3,15.4-2.8,21.5c0.2,5.3,2.3,6.7,4.3,7.3
		c1.6,0.6,3,1,4.3,1.5c2.5,1,6.7,3.2,9.2,4.9c1.6,1,3.1,1.6,4.3,1.6c0.9,0,1.6-0.3,2.1-0.9C340.8,343,341.1,341.3,340.9,339z"/>
	<path fill="#FFFFFF" d="M263.7,385.3c-2.1,0-3.9,0.8-5.2,2.2c-1.3,1.4-2.1,3.2-2,5.2c0.1,3.9,3.3,7.1,7.3,7.1h0l0.1,0
		c1.9,0,3.7-0.8,5.1-2.2c1.3-1.4,2.1-3.2,2-5.2C270.8,388.5,267.6,385.3,263.7,385.3z"/>
	<g>
		<path fill="#FFFFFF" d="M311.4,411.7c-1.5,0.6-3,1.1-4.6,1.5l-0.5,0.1l0.1,0.5c0.5,1.7,1.4,2.7,2.4,2.7l0.1,0
			c1.3-0.1,2.5-1.8,3.1-4.3l0.2-0.9L311.4,411.7z M308.8,416C308.8,416,308.8,416,308.8,416L308.8,416L308.8,416z"/>
		<path fill="#FFFFFF" d="M287.2,412.2l-0.9-0.3l0.3,0.9c0.8,2.6,1.8,4.3,2.9,4.3l0,0c0.6,0,1.6-0.5,2.6-2.9l0.2-0.5l-0.5-0.1
			C290.2,413.2,288.7,412.7,287.2,412.2z"/>
	</g>
	<path fill="#FFFFFF" stroke="#FFFFFF" stroke-width="0.9265" stroke-miterlimit="10" d="M272.2,307.9c-1-4.4-2.8-6.9-4.8-6.9
		c-1.4,0-3.7,1.2-6.9,6.8c-2.4,4.2-4.7,9.1-6.7,14.8c-1.3,3.4-3.6,10.8-4,16.5c-0.2,2.3,0.2,4,1,4.9c0.5,0.6,1.2,0.8,2.1,0.8
		c1.2,0,2.8-0.6,4.3-1.6c2.5-1.7,6.7-3.9,9.2-4.9c1.3-0.5,2.7-1,4.1-1.5l0.3-0.1c2-0.7,4-2.1,4.3-7.3
		C275.2,323.3,273.6,314,272.2,307.9z"/>
	<path fill="#FFFFFF" d="M335.9,463.8c-0.5-16.4-13.2-23.9-24.8-23.9l-0.4,0c-13.4,0.1-27,9.5-27,27.4c0,14.5,10,25.4,24.2,26.6
		c0.6,0,1.2,0.1,1.7,0.1c1.7,0,3.4-0.2,5-0.6l0.1,0.2l0.5-0.2c0.5-0.2,1-0.4,1.6-0.7c8.3-3.9,14.1-10,16.8-17.8
		c1.1-3.2,1.9-6.7,2.3-10.5L335.9,463.8L335.9,463.8z"/>
	<path fill="#FFFFFF" d="M336.4,455.5c-0.2-15.9-5.4-30.5-6.8-33.3l1.9-1.5l-2.4,0.7c-0.1,0-0.3,0.1-0.4,0.1
		c-0.2,0.1-0.3,0.1-0.5,0.2c-10.8,3.1-22.4,4.6-34.3,4.6c-8.3,0-16.7-0.8-25-2.3l-0.3-0.1l-0.2,0.3c-9.4,17.2-10.4,35.9-3.2,62.6
		l0.1,0.5c0.4,1.8,0.8,3,1.1,3.5l0.3,0.5l0.4-0.4c1.7-1.7,3.4-2.5,5.2-2.5c1.3,0,2.3,0.5,2.9,0.9c1.3,0.8,2.3,2.2,2.9,3.9l0.5,1.1
		l0.3-0.7c5.6,2.1,11.7,3.2,17.9,3.2c3.8,0,7.6-0.4,11.2-1.2l2.9-0.7l-3-0.2c-14.7-1.2-25-12.5-25-27.5c0-18.4,14-28.2,28-28.3
		c8.9,0,20.6,4.4,24.6,16.8l0.9,2.9L336.4,455.5z"/>
	<path fill="#FFFFFF" d="M258.9,565.3c0.3-0.8,0.7-1.4,1.1-2c0.6-0.8,1-1.4,0.9-2.5c-0.1-1.1-0.7-2.5-0.9-3l-0.1-0.3l-0.3,0
		c-1.1,0.1-2.3-0.1-3.6-0.5c-1.3-0.4-2.7-0.9-4.2-1.4c-3-1.1-6.1-2.2-8.8-2.2c-0.2,0-0.3,0-0.5,0c-0.8,0-1.5,0.3-2.3,0.5
		c-0.8,0.2-1.7,0.5-2.5,0.5c-0.9,0-1.7-0.3-2.4-0.9c-0.9-0.7-1.7-1.9-2.4-3.4l-0.3-0.7l-0.5,0.6c-2.4,2.8-3.8,6.4-4.6,8.9
		c-0.7,2.1-3.8,13.8-3.4,15.6c0.1,0.4,0.3,0.7,0.5,0.9c1.4,1.1,3.3,1.2,3.9,1.2c0.1,0,0.1,0,0.1,0l5.7,0.7c1.5,0.2,3.1,0.5,4.6,0.8
		l0.1-0.5l0,0l0.1,0.5c2.2,0.5,4.4,0.9,6.7,0.9c0.1,0,0.3,0,0.4,0c4.2-0.2,9.3-2.3,13.4-4.1l0.6-0.3l-0.1-0.4
		C259,571.5,258.3,567.4,258.9,565.3z"/>
	<path fill="#FFFFFF" d="M323.5,555l-2.1-0.2l1.8,1c1.1,0.6,2.5,1.3,3,1.4c0.6,0.1,1.2,0.1,2.1,0.1c0.8,0,1.9-0.1,3.5-0.2
		c1.4-0.1,2.7,0.1,3.9,0.5c2,0.7,3.5,1.8,4.5,3.3l0.1,0.2l0.2,0c13.5,2.5,20.9,6.1,20.9,10.1c0,8.2-29.8,13.1-58.7,13.1
		c-19.7,0-38-2.1-48.8-5.7l-0.1,0l-0.1,0.1c-2.9,1-5.4,1.6-7.4,1.7c-2.5,0.1-5-0.5-7.4-1c-1.5-0.3-3-0.6-4.5-0.8l-4.3-0.5l2.2,1.1
		c12.3,6.4,39.1,10.5,68.4,10.5c46.4,0,75-9.2,75-17.7C375.6,564.1,354.6,557.4,323.5,555z"/>
	<path fill="#FFFFFF" d="M340.1,562.7c-0.6-1.9-2.2-3.4-4.6-4.2c-1.1-0.4-2.3-0.5-3.6-0.4c-1.6,0.1-2.7,0.2-3.6,0.2
		c-1,0-1.7,0-2.3-0.1c-0.9-0.1-3.3-1.4-6.5-3.4l-1.4-0.9c-2-1.3-2.2-1.4-2.3-3.5c0-0.4-0.1-0.8-0.1-1.4c-0.1-1.3-1.8-37.6-0.8-53.9
		l0-0.7l-0.7,0.3c-3,1.1-6.2,2-9.5,2.5l-0.4,0.1l0,0.4c0.1,14.4,0.5,45.4,0.7,55.6l0,1.5c0,1.3,0,2.2,0.1,2.8c0,0.6,0,1.1,0.1,1.3
		c0.1,1.2,0.2,1.7,0.2,1.9l0.1,0.2c0,0.1,0.1,0.2,0.2,0.3c0.9,1,10,6,15.5,8.8l0.2,0.1l0.1,0.2c0.2,0.6,0.5,1.2,0.9,1.7
		c0.8,1.2,1.8,2,2.8,2.6c0.8,0.4,1.7,0.7,2.5,0.7c0.2,0,0.4,0,0.6,0c2.6,0,4.6-1,5.4-2.8c0.9-2,0.1-4.5-2.1-6.6
		c-0.2-0.2-0.4-0.4-0.6-0.7c-0.2-0.2-0.1-0.5,0.1-0.7c0.3-0.3,0.5-0.1,0.7,0.1c0.2,0.2,0.4,0.4,0.6,0.6c2.2,2.2,3.2,4.7,2.6,6.9
		l-0.2,0.9l0.9-0.4c1.7-0.7,2.8-2.1,3.1-3.8c0.4-2.1-0.6-4.2-2.6-5.4c-0.4-0.3-0.9-0.5-1.5-0.7c-0.2-0.1-0.4-0.4-0.3-0.6
		c0.1-0.2,0.4-0.4,0.6-0.3c0.6,0.2,1.1,0.5,1.6,0.8c1.3,0.8,2.2,1.9,2.7,3.2l0.5,1.3l0.4-1.4C340.4,564.6,340.4,563.6,340.1,562.7z"
		/>
	<path fill="#FFFFFF" d="M393.3,367.3c-0.5-0.2-1-0.4-1.1-0.9c-0.1-0.5,0.3-0.9,1.1-1.5c0.2-0.1,0.4-0.3,0.6-0.5
		c0.8-0.8,1.4-1.6,1.8-2.5c1.2-3.1-1.3-6.5-4.4-7.7c-0.5-0.2-1.5-0.6-2.7-0.6c-1.6,0-3.9,0.7-5.5,3.9c-0.2,0.4-0.3,0.7-0.4,1.1
		c-0.1,0.4-0.2,0.9-0.3,1.3c0,0.2,0,0.4-0.1,0.7c-0.1,0.7-0.1,1.2-0.6,1.4c-0.6,0.2-1.2-0.4-1.8-0.9c-2.5-2.5-5.2-3.1-7.3-1.7
		c-2.4,1.5-3.7,5.2-2.8,7.9c0.8,2.3,3.1,3.4,6.5,3.1c0.8-0.1,1.2,0.3,1.3,0.5c0.4,0.6,0.1,1.8-1.2,4.7l-0.2,0.4
		c-13.6,32.5-24.6,41.5-44,49.5l-0.4,0.2l0.1,0.4c0.8,2.4,2,6.2,3.1,11.1l0.1,0.6l0.5-0.2c16-7.2,28.3-16,40.1-37.3
		c3.6-6.6,8.5-17.8,10-22c0.2-0.5,0.5-0.8,0.8-0.9c0.4-0.1,1,0.1,1.5,0.5c1.5,1.3,2.9,1.9,4.3,1.9c0.7,0,1.4-0.2,2-0.5
		c2.1-1,3.5-3.7,3.3-6.3C397.7,371.3,397,368.6,393.3,367.3z"/>
	<path fill="#FFFFFF" d="M263.8,553.3c-1.4-0.9-3.2-1.6-5-2.3c-0.6-0.2-1.1-0.4-1.6-0.6c-4.7-1.9-9.2-3.6-13.8-4
		c-2.8-0.2-5.5,0.8-8.2,1.8c-0.3,0.1-0.7,0.3-1,0.4l-0.9,0.3l0.2,0.4c0.3,0.7,1.1,2.6,2.3,3.6c0.6,0.4,1.2,0.7,1.9,0.7
		c0.7,0,1.4-0.2,2.3-0.5c0.8-0.2,1.6-0.5,2.5-0.5c3-0.2,6.4,1.1,9.7,2.3c1.5,0.5,2.8,1,4.1,1.3c1.1,0.3,2,0.5,2.8,0.5
		c2,0,3.6-0.9,5-2.7l0.3-0.4L263.8,553.3z"/>
	<path fill="#FFFFFF" d="M226.1,559.8c-4.1-6.1-8.1-11.4-11.7-15.7c-4.2-5-12.3-12.9-15.8-13c-0.5,0-0.7,0.2-0.9,0.3
		c-0.2,0.2-1.1,1.7,4.1,7.3c2,2.2,4.9,4.9,8.2,8c3.9,3.7,9.3,8.7,15.1,14.6l0.6,0.6l0.5-1.9L226.1,559.8z"/>
	<path fill="#FFFFFF" d="M231.5,549.2c-0.3-6.1-0.4-11.4-0.5-16.2c-0.1-5-0.2-9.3-0.5-12.5c-0.5-6.5-1.8-8.8-2.9-8.8h0
		c-0.4,0-0.7,0.2-1,0.6c-2.5,2.9-1.9,15.3-1,22.4c0.6,5,1.7,10.7,3.2,17l0.2,1.1l0.6-0.9c0.6-0.9,1.1-1.7,1.7-2.3l0.1-0.1
		L231.5,549.2z"/>
	<path fill="#FFFFFF" d="M227.8,555.1c-3.5-9.3-7-17.5-10.5-24.2c-3.8-7.4-11.5-19.7-15.9-20.9c-0.6-0.1-1-0.1-1.4,0.1
		c-1.1,0.7-0.9,3.8,3,10.5c1.9,3.3,4.7,7.5,7.9,12.4c4.3,6.4,9.6,14.4,15.4,24.1l0.5,0.8l0.3-0.9c0.2-0.5,0.4-1,0.6-1.6l0.1-0.2
		L227.8,555.1z"/>
	<path fill="#FFFFFF" d="M267.1,566.2c-0.1-0.5-0.1-0.9-0.2-1.3c-0.1-0.6-0.1-1.3-0.2-1.9c-0.1-1.2-0.2-2.5-0.5-3.8l-0.1-0.7
		c-0.2-1.2-0.4-2.5-0.9-3.6l-0.3-0.7l-0.5,0.6c-1,1.2-2,2-3.2,2.4l-0.5,0.2l0.2,0.4c0.3,0.7,0.7,1.9,0.8,3c0.2,1.4-0.5,2.3-1.1,3.1
		c-0.4,0.5-0.7,1-0.9,1.7c-0.6,2,0.4,6.3,1.2,8.7l0.1,0.4l0.4-0.1c0.9-0.2,2.9-0.8,3.9-1.5c1.1-0.7,1.8-1.5,1.9-2
		C267.7,569.8,267.4,567.8,267.1,566.2z"/>
	<g>
		<path fill="#FFFFFF" d="M245.3,557.3C244.9,557.1,244.8,557.2,245.3,557.3L245.3,557.3z"/>
		<path fill="#FFFFFF" d="M249.1,558.9l-3.9-1.1c-0.3-0.1-0.8-0.2-0.7-0.6l0.1-0.4l0.4,0c0.2,0,0.4,0.1,0.6,0.2L249.1,558.9z"/>
	</g>
</g>
<g id="Linhas">
	<g>
		<path d="M274.7,371.8c-0.2,0.9-0.3,2-0.2,3.1c0,0.5,0,1.4,0.2,2.3c0.5,2.5,2.2,3,3.5,2.1c1.4-1,1.9-7.4,0.3-8.9
			C277.1,369.3,275.2,369.8,274.7,371.8z"/>
		<path d="M321.2,369.9c-0.2,0.9-0.3,2-0.2,3.1c0,0.5,0,1.4,0.2,2.3c0.5,2.5,2.2,3,3.5,2.1c1.4-1,1.9-7.4,0.3-8.9
			C323.6,367.4,321.7,367.9,321.2,369.9z"/>
		<path d="M276.3,399.4l-1.8-0.3c-0.6,4.4,5,9.2,8.1,11.2c0.8,0.5,1.7,0.9,2.6,1.3c1.2,5.4,3.1,6.6,4.5,6.7c0,0,0.1,0,0.1,0
			c1,0,2.6-0.6,3.9-4.1c1.7,0.3,3.4,0.4,5.2,0.4c2.2,0,4.3-0.2,6.5-0.6c0.7,2.4,2.1,3.8,3.7,3.8c0.1,0,0.1,0,0.2,0
			c2.3-0.1,4-2.8,4.6-6.8c0.9-0.5,1.8-0.9,2.6-1.5c5.6-3.7,9.5-9.8,10.2-15.5c0.4-0.1,0.7-0.2,1.1-0.3c1.8-0.8,3-2.6,3.1-4.4
			c0.1-2-1.1-3.6-3.2-4.3c-1.1-0.3-2.4-0.5-3.6-0.5c-2.9,0-5,1-6.1,2.7c-5.2,0.2-12,0.4-18,0.5c-5.1,0.1-9.5,0.2-11.7,0.3l0.1,1.8
			c2.2-0.1,6.5-0.2,11.6-0.3c5.7-0.1,12.1-0.3,17.2-0.5c-0.3,1.8,0.5,3.5,2.2,4.6c1.2,0.5,2.5,0.8,3.9,0.8c0.4,0,0.8,0,1.3-0.1
			c-0.8,5.1-4.4,10.3-9.3,13.6c-9.7,6.1-22.2,6.4-32,0.7C280.3,406.7,275.9,402.4,276.3,399.4z M309.2,416c-0.8,0-1.5-0.9-2-2.4
			c1.6-0.4,3.1-0.9,4.6-1.6C311.3,414.5,310.1,415.9,309.2,416z M289.8,416.5c-0.5,0-1.6-0.9-2.5-4c1.5,0.6,3,1,4.6,1.4
			C291.2,415.8,290.3,416.6,289.8,416.5z"/>
		<path d="M253.1,346.2c1.5,0,3.3-0.6,5.1-1.8c2.4-1.6,6.6-3.8,8.9-4.8c1.3-0.5,2.6-0.9,4.1-1.5l0.2-0.1c2.3-0.8,4.9-2.4,5.2-8.6
			c0.3-6.3-1.3-15.4-2.8-21.9c-1.2-5.2-3.4-8-6.2-8c-2.6,0-5.2,2.4-8.1,7.5c-2.4,4.2-4.7,9.3-6.8,15c-0.4,1-3.5,9.6-4.1,16.9
			c-0.2,2.7,0.2,4.8,1.4,6C250.7,345.7,251.8,346.2,253.1,346.2z M250.4,339c0.5-5.7,2.7-13,4-16.4c2-5.6,4.3-10.5,6.7-14.7
			c3.3-5.7,5.5-6.5,6.5-6.5c1.8,0,3.4,2.5,4.4,6.6c1.4,6,3,15.3,2.7,21.4c-0.2,5-2,6.3-4,6.9l-0.2,0.1c-1.5,0.5-2.9,1-4.2,1.5
			c-2.5,1-6.7,3.2-9.3,4.9c-2.5,1.6-4.8,2-5.8,0.8C250.5,342.8,250.2,341.2,250.4,339z"/>
		<path d="M319.8,338c1.5,0.5,3,1,4.3,1.5c2.3,0.9,6.5,3.1,8.9,4.8c1.8,1.2,3.6,1.8,5.1,1.8c0,0,0,0,0,0c1.3,0,2.4-0.4,3.1-1.3
			c1.1-1.2,1.6-3.3,1.4-6c-0.5-5.9-2.8-13.4-4.1-16.9c-2.1-5.7-4.4-10.7-6.8-15c-2.9-5-5.6-7.5-8.1-7.5c-2.8,0-4.9,2.8-6.2,8
			c-1.5,6.5-3.1,15.6-2.8,21.9C314.9,335.6,317.5,337.3,319.8,338z M319.2,308c1-4.1,2.6-6.6,4.4-6.6c1,0,3.3,0.9,6.5,6.6
			c2.4,4.2,4.6,9.1,6.7,14.7c1.3,3.4,3.5,10.6,4,16.4c0.2,2.2-0.1,3.8-0.9,4.6c-0.4,0.5-1,0.7-1.8,0.7h0c-1.1,0-2.6-0.5-4.1-1.5
			c-2.6-1.7-6.8-4-9.3-4.9c-1.4-0.5-2.8-1-4.4-1.6c-1.9-0.6-3.7-1.9-4-6.9C316.2,323.3,317.7,314,319.2,308z"/>
		<path d="M394.2,366c0,0,0.1-0.1,0.1-0.1c0.2-0.2,0.4-0.4,0.7-0.5c1-0.9,1.7-1.9,2.1-3c1.5-3.9-1.5-8-5.1-9.5
			c-3.1-1.3-7.5-1-9.9,4.1c-0.2,0.4-0.4,0.8-0.5,1.3c-0.1,0.5-0.3,1-0.4,1.5c0,0.1,0,0.3-0.1,0.5c0,0,0,0-0.1-0.1
			c-4.3-4.2-7.8-2.7-9-1.9c-2.9,1.9-4.5,6.2-3.3,9.5c0.5,1.4,2.2,4.6,7.9,4c-0.1,0.5-0.4,1.4-1.2,3.2l-0.2,0.4
			c-13.4,32-24.2,40.9-43.1,48.7c-0.4-1.2-0.8-2.1-1.1-2.6c21.9-7,30.3-20.8,24.9-41c-0.9-3.3-2-6.7-3.5-10.6
			c-0.7-1.9-1.2-3-1.5-3.7c-0.4-0.8-0.4-0.8-0.2-1.5c0.2-0.9,0.6-2.6,1-6.3c0.6-5.7,0.9-10,0.7-12.9c-0.9-18.8-7.5-38.5-17.8-52.7
			c-2.1-2.7-8.3-10.9-15.3-10.9c-0.6,0-1.3,0.1-1.9,0.2c-6.4,1.4-8,7.4-9.3,12.2c-0.1,0.5-0.2,0.9-0.4,1.4c-1.1,5-1.6,12.5-2.1,19.7
			c-0.5,6.7-0.9,13.1-1.7,17.4c-0.9-0.1-1.8-0.2-2.6-0.2l-2.7-0.3l-0.1,0c-3.8,0-7.6,0.5-11.3,1.3c-1.1-4.7-1.9-12-2.8-19.1
			c-0.8-7.2-1.7-14.5-2.8-19.6c-0.1-0.4-0.2-0.9-0.4-1.4c-1.3-4.8-2.9-10.8-9.3-12.2c-0.6-0.1-1.3-0.2-1.9-0.2
			c-4.7,0-9.7,3.6-15.3,10.9c-7.2,9.9-12.9,23.4-16,37.8c-0.9,4.1-2.1,11.4-3.3,19.7c-0.3-0.4-0.6-0.7-0.9-1.1
			c-2.3-2.7-4.5-3.9-6.7-3.8c-4,0.3-7,4.9-10.9,10.8L216,357c-16.1,24.3-12,52.5-3.7,69.3l0.1,0.2c0.5,1,0.7,1.5,0.7,1.8
			c-0.2,0-0.5-0.1-1.1-0.3c-0.3-0.1-0.7-0.3-1.1-0.6c-1.4-0.8-3.2-1.9-4.7-1c-1.1,0.7-1.6,2.2-1.6,4.7c0.5,42.5,36.6,50.8,47.6,52.4
			l0,0c0.8,3.2,1.6,6.2,2.2,8.2c-0.1,0-0.1,0-0.2,0c-4.6-0.3-6.5,2-7.2,3.5c-1.3,2.6-0.7,6.1,1.4,8.6c2,2.3,5,3.1,8.2,2.1
			c0,0.1,0,0.1,0,0.2c-0.1,0.3-0.1,0.6-0.2,0.8c-0.2,1.3-0.2,2.6,0.1,3.7c1,3.2,4.2,4.7,7.4,4.7c0.8,0,1.6-0.1,2.4-0.3
			c3.2-0.8,6.6-3.8,5.4-9.3c-0.1-0.5-0.2-0.9-0.4-1.4c-0.2-0.4-0.3-0.9-0.6-1.4c-0.1-0.1-0.1-0.3-0.2-0.4c0,0,0.1,0,0.1,0
			c2.1,0.3,3.7,0,4.9-0.5c-0.1,4.1-0.2,9.1-0.4,14.5c-0.3,12.9-0.7,28.2-0.9,37.4c-2.5,0.2-4.9,0.5-7.3,0.8
			c-0.3-0.7-0.6-1.3-1.1-1.7l-0.2-0.3l0,0c0,0,0,0,0,0L265,552l-0.1,0.1c-1.6-1.1-3.6-1.8-5.4-2.4c-0.5-0.2-1.1-0.4-1.6-0.6
			c-4.8-1.9-9.4-3.7-14.2-4.1c-3.1-0.3-6.1,0.9-8.8,1.9c-0.6,0.3-1.3,0.5-1.9,0.7c-0.2-5.4-0.3-10.3-0.4-14.6
			c-0.1-5.1-0.2-9.4-0.5-12.8c-0.6-6.9-2-10.1-4.4-10c-0.5,0-1.3,0.2-2,1.1c-3.7,4.5-1.3,23.3-1.3,23.5c0.5,4,1.3,8.4,2.3,13.2
			c-2.7-6.7-5.4-12.7-8-17.8c-0.1-0.2-10.3-19.8-16.7-21.6c-0.9-0.3-1.8-0.2-2.5,0.3c-2.2,1.4-1.4,5.5,2.5,12.3
			c1.9,3.4,4.7,7.6,8,12.5c2.5,3.8,5.4,8.1,8.5,13c-1-1.3-2-2.4-2.9-3.6c-0.1-0.1-11.4-13.3-16.7-13.5c-1,0-1.6,0.4-2,0.7
			c-1.6,1.6-0.2,4.6,4.1,9.2c2.1,2.2,5,4.9,8.3,8.1c4.4,4.1,9.8,9.2,15.8,15.4c-1.1,4.3-2.5,10.4-2.2,12c0.2,0.8,0.5,1.3,1,1.7
			c1.5,1.2,3.4,1.4,4.4,1.4c10.2,7.6,39.3,12.8,72.4,12.8c37.6,0,76.4-7.1,76.4-19.1c0-10.3-28.5-16.7-56.9-18.5c0,0-0.1,0-0.1-0.1
			c-0.3-0.2-0.7-0.4-0.9-0.6c-1.6-1-1.6-1-1.6-2.5c0-0.4-0.1-0.8-0.1-1.4c-0.1-1.4-1.9-39-0.7-54.5c0,0,0,0,0,0
			c0.3-0.1,0.6-0.2,0.9-0.4c8.7-4,14.7-10.5,17.5-18.6c4.2-12.1,3.1-25.8,1-36.4c16-7.2,29.2-16.5,41.1-38.1
			c3.6-6.6,8.5-17.8,10.1-22.1c0,0,0.1,0.1,0.2,0.1c3.5,3.1,6.4,2.3,7.8,1.6c2.6-1.3,4.3-4.4,4.1-7.7
			C399.2,369.6,397.4,367.2,394.2,366z M336.2,455.5c-3.8-11.7-14.7-17.1-25-17.1c-0.1,0-0.2,0-0.2,0c-7.2,0.1-14.3,2.7-19.4,7.3
			c-5.8,5.3-8.9,12.7-8.9,21.4c0,15.2,10.4,26.7,25.4,27.9c-9.5,2.1-20.1,1.4-29.2-2.1l0,0.1c-0.6-1.7-1.6-3.2-3.1-4.1
			c-1.2-0.8-4.6-2.3-8.7,1.6c-0.2-0.4-0.5-1.3-1-3.2l-0.1-0.5c-7.1-26.6-6.2-45.2,3.1-62.3c8.3,1.5,16.8,2.3,25.1,2.3
			c11.9,0,23.5-1.6,34.4-4.6c0.3-0.1,0.6-0.2,0.9-0.3l-0.2,0.1C330.2,423.4,336,438.6,336.2,455.5z M334.4,574.3c0.1,0,0.1,0,0.2,0
			l0.2,0c2.9-0.5,5-2.5,5.5-5.2c1.5-2,2-4.2,1.5-6.3c13.6,2.7,18.6,6.1,18.6,8.5c0,5.5-23.5,11.7-57.3,11.7c-1.5,0-3,0-4.5,0
			c2.2,0,4.1-0.8,5.3-2.1c0.1,0,0.2,0,0.2,0l0.2,0c2.9-0.5,5-2.4,5.6-5.1c1.6-2.1,2.2-4.5,1.6-6.7c-0.7-2.4-2.5-4.2-5.3-5.2
			c-1.3-0.5-2.7-0.7-4.1-0.6c-1.5,0.1-2.6,0.1-3.5,0.1c-0.9,0-1.5,0-2-0.1c-0.7-0.1-3.1-1.5-5.7-3.2c4.4-0.2,9-0.3,13.5-0.3
			c0.2,1.4,0.3,1.6,0.3,1.8l0.1,0.1c0,0,0.1,0.2,0.3,0.4c1,1.4,11.9,7.1,15.7,9.1c0.2,0.6,0.6,1.2,0.9,1.7c1,1.4,2.1,2.4,3.3,3
			c1,0.5,2,0.8,3.1,0.8c0.2,0,0.5,0,0.7,0C331.1,576.5,333.2,575.7,334.4,574.3z M260.4,576.4l1-0.4c1.4,0,4-1.1,5.1-1.7
			c1-0.6,2.2-1.7,2.5-2.8c0.5-1.7,0.2-3.8-0.1-5.5c-0.1-0.4-0.1-0.9-0.2-1.2c-0.1-0.6-0.1-1.3-0.2-1.9c0-0.3-0.1-0.6-0.1-0.9
			c1.8-0.3,3.8-0.6,5.8-0.8c0,0.9,0,1.5,0,1.9c0,0.7,0,1.1,0,1.4c0.1,1.9,0.2,2.3,0.3,2.5l0.1,0.1c0,0,0.1,0.2,0.3,0.5
			c1,1.4,11.7,7.4,15.5,9.5c0.2,0.6,0.5,1.2,0.9,1.7c0.9,1.4,2,2.4,3.2,3.1c1,0.5,2,0.8,3,0.9c0.1,0,0.2,0,0.3,0
			c-16.2-0.3-31-2.1-40.9-4.9C258.1,577.4,259.3,576.9,260.4,576.4z M304.1,554.6L304.1,554.6c0,1.3,0,2.3,0.1,2.8
			c0,0.1,0,0.1,0,0.2c-0.4,0-0.8,0-1.1,0c-5,0-10,0.1-14.8,0.4c-0.5-0.5-0.6-0.8-0.6-1.8c0-0.4,0-0.8-0.1-1.4
			C293,554.6,298.7,554.5,304.1,554.6z M304.1,552.7c-5.5-0.1-11.1,0-16.5,0.3c-0.1-8.2,0-41.6,1.6-55.4c2.6,0.4,5.2,0.6,7.8,0.6
			c2.1,0,4.3-0.1,6.4-0.4C303.5,512,304,542.4,304.1,552.7z M240.7,330.3c3-14.2,8.6-27.4,15.6-37.1c5.2-6.8,9.8-10.2,13.8-10.2
			c0.5,0,1,0.1,1.5,0.2c5.3,1.2,6.6,6.1,7.9,10.8c0.1,0.5,0.2,0.9,0.4,1.3c1.1,4.9,1.9,12.2,2.8,19.3c0.8,7.1,1.7,14.5,2.8,19.3
			c0.1,0.5,0.8,1.5,1.7,1.5l0.3,0c3.7-0.8,7.4-1.3,11.1-1.3l2.7,0.3c1,0,2,0.1,3,0.3l0.1,0c0.8,0,1.3-1,1.4-1.4
			c0.9-4.5,1.3-10.9,1.8-17.8c0.5-7.2,1-14.6,2.1-19.4c0.1-0.5,0.3-0.9,0.4-1.4c1.3-4.8,2.6-9.7,7.9-10.8c0.5-0.1,1-0.2,1.5-0.2
			c6,0,11.9,7.7,13.8,10.2c10.1,13.9,16.6,33.2,17.5,51.7c0.1,2.7-0.1,7.1-0.7,12.6c-0.4,3.6-0.8,5.2-1,6.1
			c-0.3,1.2-0.3,1.4,0.3,2.7c0.3,0.7,0.8,1.7,1.5,3.6c1.4,3.8,2.6,7.2,3.4,10.4c5.3,19.8-3.5,33.1-26.1,39.5
			c-10.7,3-22.1,4.5-33.9,4.5c-10.6,0-21.2-1.2-31.6-3.7c-5-1.2-10.2-3.8-14.7-7.2c-11.8-8.9-15.1-18.3-13.5-38.5
			C235.7,359.5,238.9,338.5,240.7,330.3z M222.5,468.9c-10.5-9-15.9-21.7-16.1-37.8c0-2.5,0.5-3,0.7-3.1c0.6-0.3,2,0.5,2.9,1
			c0.5,0.3,1,0.6,1.4,0.7c1,0.4,2.4,0.8,3.2-0.1c1-1.1,0-2.8-0.5-3.9l-0.1-0.2c-8.2-16.4-12.1-43.8,3.6-67.4l1.1-1.6
			c3.4-5.2,6.4-9.8,9.5-10c1.6-0.1,3.3,0.9,5.2,3.1c0.3,0.4,0.6,0.8,0.9,1.2c0.3,0.4,0.6,0.8,1,1.3c-1.1,7.7-2.1,16-2.7,23.4
			c-1.7,20.7,1.9,30.9,14.2,40.1c2.5,1.9,5.1,3.5,7.8,4.8c-6.5,14.7-8.3,30.3-5.4,49.2c0.5,3.6,1.5,8,2.5,12
			C244.8,480.5,232.5,477.5,222.5,468.9z M270.8,500.7c-0.9-0.1-2-0.2-2.4,0.6c-0.4,0.7,0,1.4,0.4,2c0.1,0.2,0.2,0.3,0.3,0.5
			c0.2,0.4,0.4,0.8,0.5,1.2c0.1,0.4,0.2,0.7,0.3,1.1c1.1,5.3-2.8,6.8-4.1,7.1c-3,0.8-6.7-0.2-7.6-3.2c-0.3-0.8-0.3-1.8-0.1-2.8
			c0-0.3,0.1-0.5,0.2-0.7c0.2-0.8,0.4-1.7-0.2-2.3c-0.6-0.6-1.6-0.3-1.9-0.2c-3.4,1.1-5.5-0.5-6.4-1.5c-1.6-1.9-2.1-4.6-1.1-6.5
			c0.9-1.8,2.8-2.6,5.4-2.4c0.8,0.1,1.5-0.2,1.9-0.7c0.2-0.3,0.5-0.8,0.2-1.6c-1.4-4.7-4.1-14.9-5.2-21.9
			c-2.8-18.5-1.1-33.9,5.2-48.2c2,0.9,4,1.5,5.9,2c1.7,0.4,3.3,0.7,5,1.1c-9.3,17.4-10.2,36.4-3,63.2l0.1,0.4
			c0.8,3.3,1.3,4.4,2.2,4.7c0.4,0.1,1.1,0.2,1.8-0.5c2.3-2.2,4.6-2.7,6.5-1.5c2.2,1.4,3.3,4.9,2.4,7.4
			C276.4,500.1,274.1,501.1,270.8,500.7z M278.9,498.5c0.4-1.1,0.5-2.2,0.4-3.4c2.6,1,5.4,1.7,8.1,2.2c-1.9,15.6-1.7,56.3-1.6,57.6
			c0,0.5,0.1,1,0.1,1.4c0.1,2.3,0.3,2.6,2.4,4c0.3,0.2,0.6,0.4,0.9,0.6c0.5,0.4,5.4,3.7,7.1,4c0.6,0.1,1.3,0.1,2.3,0.2
			c0.9,0,2.1,0,3.6-0.1c1.2-0.1,2.3,0.1,3.4,0.5c2.2,0.8,3.7,2.2,4.2,4c0.2,0.9,0.2,1.8-0.1,2.8c-0.5-1.4-1.5-2.6-2.8-3.5
			c-0.5-0.3-1-0.6-1.6-0.8c-0.5-0.2-1,0-1.2,0.5c-0.2,0.5,0,1,0.5,1.2c0.5,0.2,1,0.4,1.4,0.7c1.8,1.1,2.7,3,2.3,5
			c-0.3,1.6-1.4,2.8-2.9,3.4c0.7-2.4-0.2-5.1-2.5-7.5c-0.2-0.2-0.4-0.4-0.5-0.6c-0.3-0.4-0.9-0.4-1.3-0.1c-0.4,0.3-0.4,0.9-0.1,1.3
			c0.2,0.2,0.4,0.5,0.6,0.7c2,2.1,2.7,4.4,1.9,6.2c-0.8,1.7-2.9,2.6-5.6,2.4c-0.8-0.1-1.6-0.3-2.3-0.7c-1-0.5-1.8-1.4-2.6-2.5
			c-0.3-0.5-0.6-1-0.8-1.6l-0.1-0.3l-0.3-0.2c-6.9-3.8-14.5-8.3-15.2-9.1c-0.1-0.1-0.1-0.2-0.2-0.2c0-0.2-0.1-0.6-0.2-1.9
			c0-0.2,0-0.6,0-1.3c0-0.5,0-1.5,0-2.8c0.1-6.2,0.6-27,1-43.7c0.1-5.9,0.3-11.3,0.4-15.7C278.2,500,278.7,499.1,278.9,498.5z
			 M274.2,555.7c0,1.4,0,2.6-0.1,3.5c-2.1,0.3-4.1,0.5-6,0.9c-0.1-0.4-0.1-0.7-0.2-1.1l-0.1-0.7c-0.1-0.6-0.2-1.2-0.4-1.8
			C269.6,556.2,271.9,555.9,274.2,555.7z M266,558.6l0.1,0.7c0.2,1.2,0.3,2.5,0.5,3.7c0.1,0.6,0.1,1.3,0.2,1.9
			c0,0.4,0.1,0.8,0.2,1.3c0.2,1.5,0.6,3.4,0.2,4.7c-0.1,0.3-0.7,1-1.8,1.7c-0.9,0.6-2.8,1.2-3.7,1.4c-0.9-2.5-1.7-6.6-1.2-8.4
			c0.2-0.6,0.5-1,0.9-1.5c0.6-0.9,1.4-1.9,1.2-3.4c-0.1-1-0.5-2.2-0.8-3.1c1.3-0.4,2.4-1.3,3.4-2.5
			C265.5,556.2,265.8,557.5,266,558.6z M235.7,548.7c2.6-1,5.3-2,7.9-1.8c4.5,0.4,9,2.1,13.7,4c0.5,0.2,1.1,0.4,1.6,0.6
			c1.7,0.6,3.6,1.3,5,2.2c-1.8,2.5-3.9,3.1-7.3,2.1c-1.3-0.3-2.6-0.8-4.1-1.4c-3.3-1.2-6.8-2.4-9.9-2.3c-0.9,0-1.8,0.3-2.6,0.5
			c-1.6,0.5-2.6,0.7-3.7-0.1c-0.9-0.7-1.6-2.1-2.1-3.3C234.7,549.1,235.2,548.9,235.7,548.7z M227.3,512.5c0.3-0.3,0.5-0.4,0.7-0.4
			c0,0,0,0,0,0c0.5,0,1.9,1.5,2.4,8.3c0.3,3.3,0.4,7.6,0.5,12.6c0.1,4.7,0.2,10,0.5,16c-0.6,0.8-1.2,1.6-1.7,2.4
			c-1.4-6.2-2.5-11.9-3.2-16.9C225.4,527,225.1,515.2,227.3,512.5z M203.7,520.3c-3.9-6.9-3.8-9.4-3.1-9.8c0.2-0.1,0.5-0.2,1-0.1
			c4,1.1,11.5,12.7,15.6,20.6c3.5,6.7,7,14.9,10.5,24.2c-0.2,0.5-0.4,1.1-0.6,1.6c-5.7-9.6-11-17.6-15.4-24.1
			C208.4,527.8,205.6,523.6,203.7,520.3z M210.7,546.3c-3.3-3.1-6.2-5.8-8.2-8c-5-5.3-4.2-6.6-4.1-6.6c0.1-0.1,0.2-0.2,0.6-0.2
			c3.2,0.1,10.9,7.6,15.4,12.8c3.7,4.3,7.6,9.6,11.7,15.7c-0.1,0.3-0.2,0.6-0.3,0.9C220,555,214.8,550.2,210.7,546.3z M224.8,574.5
			c-0.4-1.6,2.5-13,3.4-15.4c0.8-2.6,2.2-6,4.5-8.8c0.6,1.3,1.4,2.7,2.5,3.6c1.9,1.5,3.8,0.9,5.4,0.4c0.7-0.2,1.4-0.4,2.2-0.5
			c2.7-0.1,6,1,9.1,2.2c1.5,0.5,2.9,1,4.2,1.4c1.4,0.4,2.6,0.6,3.8,0.5c0.4,0.9,0.8,2,0.9,2.9c0.1,0.8-0.2,1.3-0.8,2.2
			c-0.4,0.6-0.9,1.2-1.1,2.1c-0.7,2.3,0.2,6.7,1.2,9.4l-0.2,0.1c-4,1.7-9.1,3.8-13.2,4c-2.4,0.1-4.8-0.4-7.1-0.9
			c-1.5-0.3-3.1-0.7-4.7-0.8l-1.7-0.2c-1.3-0.2-2.6-0.3-3.9-0.5l-0.1,0l-0.1,0c0,0-2.3,0.1-3.8-1.1
			C225,575.1,224.9,574.9,224.8,574.5z M375.4,571.8c0,8.3-30,17.3-74.6,17.3c-29.3,0-56.2-4.2-68.2-10.5c0,0,0.1,0,0.1,0l1.7,0.2
			c1.5,0.2,2.9,0.5,4.5,0.8c2.3,0.5,4.6,1,7.1,1c0.2,0,0.3,0,0.5,0c2.4-0.1,5-0.8,7.6-1.7c10.9,3.6,29.2,5.8,49,5.8
			c15.6,0,30.3-1.3,41.4-3.7c8.1-1.8,17.8-4.9,17.8-9.8c0-5.4-11.4-8.7-21.2-10.5c-1-1.6-2.6-2.8-4.7-3.5c-1.3-0.4-2.7-0.6-4.1-0.5
			c-1.7,0.1-2.7,0.2-3.5,0.2c-0.9,0-1.5,0-2-0.1c-0.4-0.1-1.5-0.6-2.8-1.3C353.9,557.7,375.4,564.5,375.4,571.8z M315.7,548.9
			c0,0.5,0.1,1,0.1,1.4c0.1,2.3,0.4,2.6,2.5,3.9c0.3,0.2,0.6,0.4,0.9,0.6c0.1,0,0.2,0.1,0.3,0.2l0,0.1c0.1,0,0.2,0,0.2,0
			c1.4,0.9,5.2,3.3,6.7,3.5c0.6,0.1,1.3,0.1,2.3,0.1c0.8,0,1.9-0.1,3.6-0.2c1.2-0.1,2.4,0.1,3.4,0.4c2.2,0.8,3.7,2.1,4.3,3.9
			c0.3,0.9,0.3,1.8,0,2.8c-0.5-1.4-1.5-2.6-2.9-3.4c-0.5-0.3-1.1-0.6-1.7-0.8c-0.5-0.2-1,0.1-1.2,0.5c-0.2,0.5,0.1,1,0.5,1.2
			c0.5,0.2,1,0.4,1.4,0.7c1.8,1.1,2.7,3,2.4,4.9c-0.3,1.6-1.3,2.8-2.9,3.4c0.6-2.4-0.3-5.1-2.7-7.4c-0.2-0.2-0.4-0.4-0.5-0.6
			c-0.3-0.4-0.9-0.4-1.3-0.1c-0.4,0.3-0.4,0.9-0.1,1.3c0.2,0.2,0.4,0.5,0.6,0.7c2.1,2,2.8,4.3,2,6.1c-0.8,1.8-2.8,2.7-5.5,2.5
			c-0.8,0-1.6-0.3-2.3-0.7c-1-0.5-1.9-1.3-2.6-2.4c-0.3-0.5-0.6-1-0.8-1.6l-0.1-0.3l-0.3-0.2c-7-3.6-14.7-7.9-15.4-8.7
			c-0.1-0.1-0.1-0.2-0.2-0.2c0-0.2-0.1-0.6-0.2-1.9c0-0.2,0-0.6-0.1-1.3c0-0.5,0-1.5-0.1-2.8l0-1.7c-0.1-10.2-0.6-41.1-0.7-55.4
			c3.3-0.5,6.6-1.4,9.6-2.5C313.9,511.1,315.6,547.6,315.7,548.9z M333.5,474.6c-2.6,7.7-8.3,13.7-16.5,17.5c-0.5,0.2-1,0.4-1.5,0.7
			l0-0.2c-2.2,0.6-4.6,0.8-7,0.6c-14-1.1-23.8-11.8-23.8-26.1c0-13.3,9.1-26.8,26.5-26.9c0.1,0,0.1,0,0.2,0
			c11.6,0,24.2,7.5,24.5,23.9h0C335.3,467.7,334.6,471.2,333.5,474.6z M394.5,378.7c-1.8,0.9-3.8,0.4-5.8-1.4
			c-0.6-0.6-1.3-0.8-1.9-0.6c-0.4,0.1-0.9,0.4-1.2,1.1c-1.6,4.2-6.4,15.4-10,21.9c-8.6,15.7-18.4,27.4-39.8,37.1
			c-1-4.5-2.1-8.3-3.1-11.1c19.5-8,30.5-17.1,44.2-49.7l0.2-0.4c1.4-3.1,1.6-4.3,1.1-5.1c-0.2-0.3-0.7-0.8-1.7-0.7
			c-3.1,0.3-5.3-0.6-6-2.8c-0.9-2.5,0.3-5.9,2.6-7.3c2-1.3,4.4-0.7,6.8,1.6c0.7,0.7,1.4,1.3,2.3,1c0.8-0.3,0.9-1.2,0.9-1.8
			c0-0.2,0-0.4,0.1-0.6c0.1-0.4,0.2-0.8,0.3-1.2c0.1-0.4,0.3-0.8,0.4-1.1c2.3-4.9,6.4-3.6,7.5-3.1c2.8,1.2,5.2,4.3,4.1,7.2
			c-0.3,0.8-0.9,1.6-1.6,2.3c-0.2,0.2-0.4,0.3-0.6,0.5c-0.7,0.5-1.4,1.1-1.2,1.9c0.1,0.9,1.1,1.2,1.4,1.3c3.4,1.2,4.1,3.7,4.2,5.1
			C397.8,375.3,396.5,377.8,394.5,378.7z"/>
		<path d="M245.6,557.3C245.2,557.1,245.1,557.2,245.6,557.3L245.6,557.3z"/>
		<path d="M264,383.9l-0.2,0c-4.8,0.1-8.6,4.1-8.5,8.8c0.1,4.7,4,8.5,8.6,8.5l0.2,0c2.3,0,4.5-1,6.1-2.7c1.6-1.7,2.5-3.9,2.4-6.2
			C272.5,387.7,268.6,383.9,264,383.9z M268.9,397.2c-1.3,1.3-2.9,2-4.8,2.1l-0.1,0c-3.7,0-6.7-3-6.8-6.7c-0.1-3.7,2.9-6.9,6.7-6.9
			l0.1,0c3.7,0,6.7,3,6.8,6.7C270.8,394.2,270.1,395.9,268.9,397.2z"/>
	</g>
</g>
</svg>
