<?xml version="1.0" encoding="utf-8"?>
<!-- Generator: Adobe Illustrator 18.1.1, SVG Export Plug-In . SVG Version: 6.00 Build 0)  -->
<svg version="1.1" id="Layer_1" xmlns="http://www.w3.org/2000/svg" xmlns:xlink="http://www.w3.org/1999/xlink" x="0px" y="0px"
	 viewBox="0 0 198.4 198.4" enable-background="new 0 0 198.4 198.4" xml:space="preserve">
<g>
	<path fill="#3C2415" stroke="#3C2415" stroke-width="1.8321" stroke-miterlimit="10" d="M90,83.8c0.8-1.2,0.9-2.6,0.4-3.8
		c-0.4-0.9-1-1.8-1.7-2.8c-0.2,0.2-0.4,0.3-0.7,0.4c-0.9,0.3-1.7-0.6-2.5-0.9c-0.7-0.2-0.9,1.8-1.2,2.2c-0.2,0.4-0.5,0.6-0.9,0.9
		c-0.9,0.6-1.8-0.2-2.7-0.3c0.3,1.1,0.6,2.1,1.1,3c1.1,2.2,2.7,3.4,4.5,3.4C87.7,85.9,89.1,85.1,90,83.8z"/>
	<path fill="#FFFFFF" stroke="#FFFFFF" stroke-width="1.8321" stroke-miterlimit="10" d="M81.7,77.8c0.3,0.1,0.9,0.7,1.1,0.3
		c0.5-1,0.3-1.9,1.2-2.6c0.7-0.6,1.5-0.7,2.3-0.3c0.3,0.1,0.6,0.3,0.9,0.5c0.3,0.2,0.4,0.3,0.3,0.2c-2-2.2-4.6-4.3-6.6-6L79.8,69
		c0,0-0.1-0.1-0.1-0.1c0,0.2,0,0.4,0,0.7c0,1.7,0.1,5.1,0.7,8.2C80.8,77.7,81.2,77.7,81.7,77.8z"/>
	<path fill="#A7A9AC" stroke="#A7A9AC" stroke-width="1.8321" stroke-miterlimit="10" d="M91.3,88.3c1-0.8,0.5-1.9-0.2-2.7
		c-0.6,0.7-1.4,1.3-2.3,1.7c0,0.1,0.1,0.1,0.1,0.2C89.3,88.6,90.3,89.1,91.3,88.3z"/>
	<path fill="#8B5E3C" stroke="#8B5E3C" stroke-width="1.8321" stroke-miterlimit="10" d="M93.3,88.3c-0.2,0.6-0.6,1.2-1.3,1.6
		c-0.7,0.4-1.4,0.5-2,0.4c1.6,5.3,7.5,21.1,23.7,36.1c3.9,3.6,5,3.2,5,3.2c0.2-0.1,0.5-1.4-1.2-5.3C108.6,103.5,97.2,91.8,93.3,88.3
		z"/>
</g>
<path fill="#0B050C" d="M119.3,123.8c-10.6-25-25.1-37.1-26-37.8c-0.2-0.5-0.6-0.9-1-1.3c-0.1-0.1-0.1-0.1-0.2-0.1
	c0.9-1.6,0.9-3.5,0.2-5.1c-1.9-4.1-6.6-8-10.1-10.8L81.4,68c-0.1-0.1-0.2-0.2-0.3-0.3c-0.5-0.5-1.1-1-1.8-1c-0.4,0-0.7,0.1-1,0.4
	c-0.5,0.5-0.6,1.2-0.6,2.6c0,3.5,0.3,10,2.4,13.9c2,3.9,4.8,4.5,6.2,4.5c0,0,0,0,0,0c0.3,0,0.7,0,1-0.1c0,0,0,0.1,0,0.1
	c0.1,0.3,0.3,0.6,0.5,0.9l-0.1,0c0,0.2,1.1,5.1,4.7,12.4c3.3,6.7,9.5,16.7,20,26.5c2.7,2.5,4.7,3.7,6.2,3.7c0.4,0,0.8-0.1,1.2-0.4
	C121.2,130.3,121,127.9,119.3,123.8z M79.7,69.1c0,0,0.1,0.1,0.1,0.1c0.1,0.1,0.2,0.2,0.3,0.3l0.7,0.6c2.1,1.7,4.6,3.7,6.6,5.9
	c0.1,0.2,0.1,0-0.3-0.2c-0.3-0.2-0.6-0.3-0.9-0.5c-0.8-0.3-1.6-0.2-2.3,0.3c-0.9,0.7-0.8,1.7-1.2,2.6c-0.2,0.4-0.8-0.2-1.1-0.3
	c-0.5-0.1-0.9-0.1-1.4-0.1c-0.6-3.1-0.7-6.5-0.7-8.2C79.7,69.5,79.7,69.3,79.7,69.1z M86.3,86.2c-1.7,0-3.3-1.2-4.5-3.4
	c-0.4-0.9-0.8-1.9-1.1-3c0.9,0.1,1.8,0.9,2.7,0.3c0.4-0.2,0.6-0.5,0.9-0.9c0.3-0.5,0.5-2.4,1.2-2.2c0.8,0.2,1.5,1.1,2.5,0.9
	c0.3-0.1,0.5-0.2,0.7-0.4c0.7,0.9,1.3,1.8,1.7,2.7c0.5,1.2,0.4,2.6-0.4,3.8C89.2,85.3,87.8,86.2,86.3,86.2L86.3,86.2z M91.1,85.9
	c0.8,0.8,1.3,2,0.2,2.7c-1,0.7-2,0.2-2.4-0.9c0-0.1-0.1-0.1-0.1-0.2C89.7,87.2,90.5,86.6,91.1,85.9z M118.7,129.8c0,0-1.1,0.4-5-3.2
	c-16.2-15-22.1-30.8-23.7-36c0.7,0.1,1.4,0,2.1-0.5c0.6-0.4,1-0.9,1.2-1.5c3.9,3.6,15.4,15.2,24.2,36
	C119.2,128.4,118.9,129.7,118.7,129.8z"/>
</svg>
