<?xml version="1.0" encoding="utf-8"?>
<!-- Generator: Adobe Illustrator 18.1.1, SVG Export Plug-In . SVG Version: 6.00 Build 0)  -->
<svg version="1.1" xmlns="http://www.w3.org/2000/svg" xmlns:xlink="http://www.w3.org/1999/xlink" x="0px" y="0px"
	 viewBox="0 0 595.3 841.9" enable-background="new 0 0 595.3 841.9" xml:space="preserve">
<g id="Preenchimento">
	<path fill="#FFFFFF" d="M280.7,518.9c-3.9-1.9-9-3.1-13.9-3.1c-5,0-9.6,1.1-13.5,3.2c-0.4,0.2-0.7,0.4-0.9,0.6l-0.7,0.5l0.7,0.5
		c0.4,0.3,0.7,0.6,0.9,0.9c0.4,0.5,0.6,1.1,0.7,1.8l0.1,0.4l0.4,0.1c3.4,0.8,8.1,1.2,13.1,1.2c0,0,0,0,0,0c5.5,0,10.6-0.5,14.2-1.5
		c0.5-0.1,0.9-0.3,1.2-0.4l0.3-0.2l0-0.3C283.6,521.2,282.8,519.9,280.7,518.9z"/>
	<path fill="#FFFFFF" d="M347.3,330.2c-3.8,1.1-6.9,0.2-8.3-2.4c-1.7-3-0.9-7.5,1.6-9.8c1.9-1.7,4.5-1.9,7.3-0.6l1.5,0.7l-0.6-1.5
		c-3.7-9.1-7.6-14.7-12.6-20.8c-0.6-0.9-1.2-1.7-1.7-2.5l-0.2-0.2l0.3-0.1c1.3-0.4,2.7-1,3.9-1.7c1.3-0.7,2.5-1.4,3.6-2.3
		c4.7-3.6,6.6-9.5,4.9-15.6c-2-7.6-8.7-12.8-16.3-12.8l-0.2,0c-7.7,0.1-13.7,5.7-15.8,14.8c-0.3,1.1-0.5,2.4-0.7,3.7l0,0.2l-0.2-0.1
		c-5.4-1.6-11.8-2.6-19-3c-4.5-0.2-9.1-0.3-14,0l0,0l-0.1,0c-8.3,0.5-16.5,1.7-23.1,3.4l-0.2,0.1l-0.1-0.2c-0.3-0.9-0.4-1.7-0.6-2.5
		c-0.1-0.4-0.1-0.9-0.3-1.5c-1.6-7.7-6.5-12.7-13.3-13.7c-0.8-0.1-1.6-0.2-2.4-0.2c-6.4,0-12.6,3.5-15.4,8.8
		c-1.3,2.4-2.2,6.6-0.7,10.9c1.6,4.6,5.6,8.3,11.9,10.9c0.7,0.3,1.3,0.5,1.9,0.7l0.3,0.1l-0.2,0.2c-3.9,4-10.9,12.3-13.7,21.9
		l-0.4,1.5l1.3-0.8c3.4-1.9,6.5-1.9,8.6,0.2c2.4,2.4,3,6.9,1.2,9.8c-1.6,2.6-4.7,3.3-8.4,2.1l-0.8-0.2l-0.1,0.6
		c-0.1,0.6,0.1,2,0.5,4.2l0.1,0.5c2.6,14.3,5.7,25,9.8,33.7l0.2,0.2c0.4,0.4,0.6,0.5,0.9,0.7c0.2,0.1,0.4,0.3,0.8,0.6
		c13.5,10.4,32.5,16.7,50.9,16.7c6.3,0,12.5-0.7,18.2-2.2c8.7-2.2,16.4-5.9,23.1-11c1.4-1,2.7-2.1,3.8-3.3c0.9-0.7,1.7-1.5,2.6-2.2
		l0.1-0.1l0.1-0.2c3.9-8.1,7.2-18,10.2-31.1l0.1-0.4c0.5-2.2,0.8-3.5,0.7-4.2l-0.1-0.6L347.3,330.2z"/>
	<path fill="#FFFFFF" d="M333.9,341.1c3.8,0,6.9,3.1,6.9,6.9c0,3.8-3.1,6.9-6.9,6.9c-3.8,0-6.9-3.1-6.9-6.9
		C327,344.2,330.1,341.1,333.9,341.1z"/>
	<path fill="#FFFFFF" d="M329.6,286.6c-3.9,0-7-3-7-6.6c0-3.6,3.1-6.6,7-6.6c3.8,0,7,3,7,6.6C336.6,283.6,333.5,286.6,329.6,286.6z"
		/>
	<path fill="#FFFFFF" d="M258,308.7c-3.8,0-7-3-7-6.6c0-3.6,3.1-6.6,7-6.6c3.8,0,7,3,7,6.6C265,305.7,261.8,308.7,258,308.7z"/>
	<path fill="#FFFFFF" d="M275.3,370.6l-0.3-0.3l-0.4,0.2c-0.3,0.1-0.5,0.2-0.7,0.2c-1.7,0.2-3.6-1.5-4.8-4.2l-0.1-0.3l-0.3-0.1
		c-1-0.2-1.9-0.5-2.7-0.7c-4.7-1.7-7.8-4.8-8.9-8.7c-1.1-4.1,0.6-7.9,0.7-8c0-0.1,0.1-0.1,0.3-0.1c0.1,0,0.1,0.2,0.1,0.3
		c-0.2,0.4-1.7,4-0.7,7.8c1,3.8,4.1,6.8,8.7,8.4c0.8,0.3,1.7,0.5,2.7,0.7l1.7,0.3l-1.1-1.3c-3.8-4.7-4.2-9.8-3.8-13.2
		c0.7-6.3,4.5-12.8,9.6-16.1c6.2-4.1,13-5.1,19.4-2.9c6.8,2.3,12.5,7.9,14.9,14.7c2.3,6.6,1.5,13.1-2.2,17.3l-1.2,1.5l1.9-0.5
		c0.5-0.1,1-0.3,1.5-0.4c4.5-1.6,7.6-4.6,8.7-8.4c1.1-4-0.7-7.7-0.7-7.8c0-0.1,0-0.2,0.2-0.3c0.1,0,0.1,0,0.2,0.1
		c0.1,0.2,1.8,4,0.7,8.1c-1.1,3.9-4.2,7-8.9,8.7c-1,0.4-2.1,0.6-3.3,0.9l-0.4,0.1l-0.1,0.3c-0.9,2.7-2.4,4.3-4.1,4.3
		c-0.1,0-0.1,0-0.3-0.1l-0.3-0.1L301,371c-4.6,5.3-9,7.8-13,7.6C282.9,378.3,278.3,373.9,275.3,370.6z"/>
	<path fill="#FFFFFF" d="M289.1,302.3c-3.8,0-7-3-7-6.6c0-3.6,3.1-6.6,7-6.6s7,3,7,6.6C296.1,299.3,293,302.3,289.1,302.3z"/>
	<path fill="#FFFFFF" d="M281.2,326.8c-3.9,0-7-3-7-6.6c0-3.6,3.1-6.6,7-6.6c3.9,0,7,3,7,6.6C288.2,323.9,285.1,326.8,281.2,326.8z"
		/>
	<path fill="#FFFFFF" d="M322.9,308.5c0,3.6-3.1,6.6-7,6.6c-3.8,0-7-3-7-6.6c0-3.6,3.1-6.6,7-6.6
		C319.8,301.9,322.9,304.8,322.9,308.5z"/>
	<path fill="#FFFFFF" d="M242,286.6c-3.8,0-7-3-7-6.6c0-3.6,3.1-6.6,7-6.6c3.9,0,7,3,7,6.6C249,283.6,245.8,286.6,242,286.6z"/>
	<path fill="#FFFFFF" d="M240.1,354.9c-3.8,0-6.9-3.1-6.9-6.9c0-3.8,3.1-6.9,6.9-6.9c3.8,0,6.9,3.1,6.9,6.9
		C247,351.8,243.9,354.9,240.1,354.9z"/>
	<path fill="#FFFFFF" d="M273.3,475.8c-0.3-7.2-0.4-11-0.5-17.4l0-2.3l-0.4-0.2c-3.4-1.3-6.6-3.1-9.7-5.2l-1-0.7l0,1.2
		c0.1,5.3,0.3,9.8,0.5,14.1l0,0.3c0.1,3.1,0.3,6.3,0.4,10l0,0.6l0.6,0c3.1-0.2,6.7-0.1,9.3,0.2l0.7,0.1L273.3,475.8z"/>
	<path fill="#FFFFFF" d="M277.4,487.4c-0.2-0.7-0.4-1.5-0.4-2.3c0-0.9,0.2-1.8,0.5-2.6l0.1-0.5l-0.5-0.2c-2.5-0.9-5.3-1-7.9-1
		l-1.2,0c-0.6,0-1.2,0-1.8,0c-1.9-0.1-3.6,0.1-5.8,0.4c-0.3,0-0.6,0.1-1,0.2c-0.6,0.2-1.4,0.4-2.1,0.3l-0.9-0.1l0.2,0.9
		c0.2,0.8,0.5,1.7,0.5,2.6c0,0.8-0.2,1.5-0.4,2.3c-0.4,1.3-0.8,2.5,0.2,3.6l0.3,0.3l0.4-0.2c0.4-0.2,0.9-0.3,1.3-0.5l0.5-0.3
		l-0.1-0.6c-0.2-1.5-0.1-2.1,0.5-2.5c2-1.3,4.6-2.1,7.4-2.1c2.7,0,5.4,0.7,7.1,1.9c0.8,0.5,1,0.8,0.8,2.5l0,0.5l0.5,0.2
		c0.4,0.2,0.9,0.3,1.3,0.5l0.5,0.2l0.3-0.5C278,489.6,277.8,488.6,277.4,487.4z"/>
	<path fill="#FFFFFF" d="M240.1,341.5c-3.6,0-6.5,2.9-6.5,6.5c0,3.6,2.9,6.5,6.5,6.5c3.6,0,6.5-2.9,6.5-6.5
		C246.6,344.4,243.7,341.5,240.1,341.5z"/>
	<path fill="#FFFFFF" d="M251.5,388.4c-13-11.8-20-27.3-25.1-55l-0.1-0.4c-0.6-3.1-0.7-4.5-0.3-4.9c0.2-0.2,0.6-0.4,1.2-0.2
		c3.6,1.2,6.5,0.5,7.9-1.9c1.7-2.7,1.1-7.1-1.1-9.3c-2.1-2.1-5.1-2-8.5,0.1c-0.6,0.4-1.4,0.8-1.8,0.6c-0.3-0.2-0.3-0.7-0.2-1.3
		c0-0.2,0.1-0.5,0.1-0.7c0-0.5,0-1,0-1.5c0-0.5-0.1-0.9-0.2-1.4c-1.2-5-4.7-5.8-6.7-5.8c-0.6,0-1.2,0.1-1.5,0.1
		c-3.6,0.7-7.2,3.7-6.6,7.5c0.1,1.1,0.6,2.1,1.3,3.1c0.2,0.2,0.4,0.5,0.5,0.7c0.6,0.7,0.9,1.1,0.7,1.5c-0.2,0.4-0.9,0.5-1.2,0.5
		c-4.3,0.5-5.8,3.4-6.3,5c-0.8,2.9,0.1,6.1,2.2,7.8c1.9,1.5,4.5,1.5,7.3,0c0.6-0.3,1.1-0.4,1.4-0.2c0.3,0.1,0.5,0.4,0.5,0.9
		c0.7,4.8,3.2,17.9,5.5,25.6c5.4,18.2,13.5,31.8,25.6,42.7l0.7,0.7l0.3-0.9c1.3-4.2,3.1-8.4,5.2-12.6l2.2-4.3L251.5,388.4z"/>
	<path fill="#FFFFFF" d="M315.9,302.3c-3.6,0-6.6,2.8-6.6,6.2c0,3.4,2.9,6.2,6.6,6.2c3.6,0,6.6-2.8,6.6-6.2
		C322.5,305.1,319.5,302.3,315.9,302.3z"/>
	<path fill="#FFFFFF" d="M289.1,289.5c-3.6,0-6.6,2.8-6.6,6.2c0,3.4,2.9,6.2,6.6,6.2c3.6,0,6.6-2.8,6.6-6.2
		C295.7,292.2,292.8,289.5,289.1,289.5z"/>
	<path fill="#FFFFFF" d="M281.2,314c-3.6,0-6.6,2.8-6.6,6.2c0,3.4,2.9,6.2,6.6,6.2c3.6,0,6.6-2.8,6.6-6.2
		C287.8,316.8,284.8,314,281.2,314z"/>
	<path fill="#FFFFFF" d="M317.4,241.6c-1.2-1.2-3-1.9-5.1-1.9c-3.3,0-7.2,1.6-10.7,4.6c-10,8.2-17.2,19.1-20.3,30.8l-0.2,0.8l0.8,0
		c4.2-0.2,8.4-0.2,12.4,0l0.4,0l0.2-0.4c1.8-4.4,5.2-9,10.1-13.6c1-0.9,2-1.9,3.2-2.9c2.2-2,4.5-4.1,6.5-6.1
		C318.8,248.7,319.8,244.2,317.4,241.6z"/>
	<path fill="#FFFFFF" d="M333.9,341.5c-3.6,0-6.5,2.9-6.5,6.5c0,3.6,2.9,6.5,6.5,6.5c3.6,0,6.5-2.9,6.5-6.5
		C340.4,344.4,337.5,341.5,333.9,341.5z"/>
	<path fill="#FFFFFF" d="M242,273.8c-3.6,0-6.6,2.8-6.6,6.2c0,3.4,2.9,6.2,6.6,6.2c3.6,0,6.6-2.8,6.6-6.2
		C248.5,276.5,245.6,273.8,242,273.8z"/>
	<path fill="#FFFFFF" d="M329.6,273.8c-3.6,0-6.6,2.8-6.6,6.2c0,3.4,2.9,6.2,6.6,6.2c3.6,0,6.6-2.8,6.6-6.2
		C336.2,276.5,333.3,273.8,329.6,273.8z"/>
	<g>
		<path fill="#FFFFFF" d="M270.7,366.4l-1.2-0.1l0.6,1.1c1,1.8,2.4,2.9,3.7,2.9l0.2,0c1.2-0.1,2.1-1.2,2.6-3l0.2-0.9l-0.9,0.1
			C274,366.6,272.7,366.6,270.7,366.4z M273.8,369.6L273.8,369.6L273.8,369.6L273.8,369.6z"/>
		<path fill="#FFFFFF" d="M304.7,366.4c-2,0.2-3.5,0.1-5.1-0.1l-1-0.1l0.3,0.9c0.6,2.1,1.7,3.3,3,3.3h0h0c1.2,0,2.5-1.2,3.4-3.1
			l0.4-1L304.7,366.4z"/>
	</g>
	<path fill="#FFFFFF" d="M309.2,347.2c-2.3-6.7-7.9-12.2-14.6-14.5c-6.3-2.1-13-1.1-19.1,2.9c-4.9,3.3-8.7,9.6-9.4,15.8
		c-0.4,3.7,0.1,9,4.5,13.9l-0.6,0.6l1.3,0.1c0.6,0.1,1.3,0.1,1.9,0.1c0,0,0,0,0,0c4.2,0,8.2-1.2,11.2-3.3c1.9-1.4,2.9-2.8,3-4.5
		l0-0.5l-0.4-0.2c-4.8-1.9-12.3-6.4-12.1-8.3c0.1-0.5,0.3-1,0.7-1.6c2.9-4.9,7.2-11.3,12-11.3c4.8,0,8.4,5.7,11,9.5
		c0.5,0.8,1,1.5,1.4,2.1c0.7,0.8,0.9,1.2,0,2.9c-0.9,1.6-8.3,5.9-11.4,6.8l-0.5,0.1l0.1,0.5c0.2,1.6,1.2,3.1,3,4.4
		c3,2.1,7,3.3,11.2,3.3c0.8,0,1.5,0,2.3-0.1l0.3-0.1c0.3-0.2,0.5-0.4,0.8-0.6l0,0c0,0,0,0,0,0l0.2-0.2
		C309.3,362.2,312.1,355.8,309.2,347.2z"/>
	<path fill="#FFFFFF" d="M298.5,371.9c-3.2-1.8-6.6-2.7-10-2.7c-5.3,0-9.1,2.2-10.1,2.9l-0.7,0.4l0.6,0.5c3.5,3.3,6.7,5,9.7,5.1
		c0.2,0,0.3,0,0.5,0c3.1,0,6.5-1.8,10.1-5.3l0.6-0.6L298.5,371.9z"/>
	<path fill="#FFFFFF" d="M258,295.9c-3.6,0-6.6,2.8-6.6,6.2c0,3.4,2.9,6.2,6.6,6.2c3.6,0,6.6-2.8,6.6-6.2
		C264.5,298.6,261.6,295.9,258,295.9z"/>
	<path fill="#FFFFFF" d="M300.3,370.2c-0.9-0.7-1.6-2-2-3.7l-0.1-0.4l-0.4-0.1c-2.6-0.6-4.9-1.6-6.8-2.9c-1.2-0.8-2.1-1.8-2.6-2.8
		l-0.5-1l-0.5,1c-0.5,1-1.4,1.9-2.6,2.8c-2.1,1.5-4.7,2.5-7.6,3l-3.1,0.6l2.8,0.6c-0.3,1-0.6,1.7-1.1,2.3l-0.4,0.4l0.4,0.4
		c0.4,0.5,0.9,0.9,1.3,1.4l0.4,0.4l0.4-0.3c2.7-2,6.7-3.1,10.5-3.1c3.7,0,7.3,1,10.6,3l0.4,0.3l1.3-1.4L300.3,370.2z"/>
	<path fill="#FFFFFF" d="M298.2,346.1c-2.4-3.7-6-9.2-10.5-9.2c-3.1,0-6.5,3.1-10.5,9.3l-0.7,1.2l1.4-0.2c2.9-0.5,7.7-0.5,9.7-0.5
		c3.1,0,7.4,0.1,10.2,0.6l1.4,0.3L298.2,346.1z"/>
	<path fill="#FFFFFF" d="M314,457.7c0-2.4-0.1-4.9-0.1-7.5l0-1.2l-1,0.7c-2.9,2.2-6,4.1-9.3,5.5l-0.4,0.2l0,0.4c0,3.4,0.1,6.2,0.2,9
		c0.1,3.4,0.3,6.8,0.2,11.2l0,0.6l10.5-0.3l0-0.6C314.1,469.3,314.1,463.7,314,457.7z"/>
	<path fill="#FFFFFF" d="M319.9,487.1c-0.2-0.7-0.5-1.5-0.5-2.3c0-0.9,0.2-1.8,0.4-2.6l0.3-0.9l-0.9,0.1c-0.8,0.1-1.6-0.1-2.3-0.3
		c-0.3-0.1-0.6-0.1-0.9-0.2c-2.1-0.3-3.8-0.4-5.7-0.3c-0.8,0-1.6,0.1-2.4,0.1c-2.7,0.1-5.8,0.1-8.5,1.3l-0.5,0.2l0.2,0.5
		c0.2,0.8,0.5,1.6,0.5,2.6c0,0.8-0.2,1.5-0.4,2.3c-0.3,1.2-0.5,2.2,0,3.1l0.3,0.5l0.5-0.2c0.4-0.2,0.8-0.3,1.3-0.5l0.5-0.2l-0.1-0.5
		c-0.1-1-0.1-1.6,0.2-2c1-1.4,4.4-2.4,8-2.4c2.9,0,5.6,0.7,7.1,1.8c0.6,0.4,0.6,1,0.5,2.4l0.6,0.2l-0.6,0l-0.1,0.5l0.5,0.1
		c0.5,0.1,0.9,0.2,1.3,0.4l0.4,0.2l0.3-0.4C320.7,489.6,320.3,488.4,319.9,487.1z"/>
	<path fill="#FFFFFF" d="M318.3,385.6c-0.8-1.3-1.8-2.6-2.9-4.1l-0.3-0.4l-0.4,0.2c-2.4,0.9-4.7,1.6-7,2.2
		c-15.2,3.8-33.1,2.6-48.8-3.2l-0.5-0.2l-0.3,0.4c-0.7,1.1-1.5,2.2-2.1,3.3c-9,14.8-20.7,42.6,2.4,63.2c4.3,3.8,9.3,6.9,14.6,8.9
		l0.2,0.1c4.6,1.7,9.3,2.6,13.9,2.6c5.2,0,10.6-1.2,15.9-3.4c4.8-2.1,9.1-4.9,13-8.4C333.2,430.9,328.3,400.6,318.3,385.6z
		 M316.3,427.4c-3.1,14.4-17.6,22-30.4,22c-13.3,0-23.6-7.5-27.7-20.1c-2.7-8.4-1.8-17.2,2.6-24c5.2-8.3,14.9-13.2,25.9-13.2
		c10.2,0,19.6,4.5,24.9,12C316.2,410.6,318,419.4,316.3,427.4z"/>
	<path fill="#FFFFFF" d="M357.7,382.6c-0.9-7.5-2.3-13.6-4.6-19.1l-0.6-1.5l-0.5,1.5c-2,5.5-4.1,10.3-6.5,14.7l-0.1,0.2l0,0.2
		c2.4,15.6-0.8,34.9-16.9,42.5l-0.8-0.2l-0.1,0.7c-0.4,4.6-1.4,8.9-2.9,12.8l-0.4,1.1l1.1-0.2C345.3,430.9,360.5,406.3,357.7,382.6z
		"/>
	<path fill="#FFFFFF" d="M311.2,404.3c-5.3-7.4-14.5-11.8-24.6-11.8c-10.8,0-20.4,4.9-25.5,13c-4.3,6.8-5.2,15.4-2.5,23.7
		c4,12.4,14.2,19.8,27.3,19.8c12.6,0,27-7.4,30-21.6C317.5,419.4,315.8,410.8,311.2,404.3z"/>
	<path fill="#FFFFFF" d="M370.8,328.2c-0.4-1.7-1.7-4.6-6-5.3c-0.3,0-1-0.2-1.1-0.6c-0.1-0.4,0.1-0.8,0.8-1.5
		c0.2-0.2,0.3-0.4,0.5-0.6c0.8-1,1.3-2,1.5-3.1c0.7-3.7-2.7-7-6.3-7.8c-0.4-0.1-1.1-0.2-1.8-0.2c-1.9,0-5.2,0.7-6.6,5.5
		c-0.1,0.4-0.2,0.9-0.3,1.3c-0.1,0.5-0.1,1-0.1,1.5c0,0.2,0,0.5,0,0.7c0.1,0.7,0.1,1.1-0.2,1.3c-0.4,0.2-1.2-0.2-1.8-0.6
		c-3.3-2.3-6.3-2.4-8.5-0.4c-2.4,2.1-3.1,6.5-1.6,9.3c1.4,2.5,4.2,3.3,7.8,2.2c0.6-0.2,1,0,1.2,0.2c0.4,0.5,0.3,1.8-0.5,4.9
		l-0.1,0.4c-6.3,27.1-13.8,41.9-26.8,53l-0.4,0.3l0.2,0.4c1.9,3.5,3.4,7.4,4.6,11.5l0.3,0.9l0.7-0.6c12-10.3,19.7-22.1,25.8-39.6
		c2.6-7.6,5.8-20.5,6.7-25.3c0.1-0.4,0.3-0.7,0.6-0.9c0.4-0.2,0.9-0.1,1.4,0.3c1.5,0.9,2.9,1.4,4.2,1.4c1.1,0,2.2-0.3,3.1-1
		C370.4,334.3,371.5,331.1,370.8,328.2z"/>
	<g>
		<path fill="#FFFFFF" d="M326.2,518.4c-0.2-1.6-1.2-3.4-2.1-4.9c-0.7-1.3-1.4-2.4-1.7-3.5c-0.1-0.5-0.2-1-0.2-1.4
			c0-0.4-0.1-0.9-0.2-1.3c-0.2-0.7-0.5-1.1-0.9-1.6c-0.2-0.3-0.4-0.6-0.6-0.9c-0.7-1.4-0.6-3.1-0.6-4.7l0-0.8c0-1,0.1-2,0.2-3l0.1-1
			c0.2-2.2-0.3-3.5-1.5-4c-0.4-0.2-0.8-0.3-1.3-0.4l-0.5-0.1l-0.2,0.5c-0.3,0.7-0.6,1.4-0.9,2c-0.1,0.1-0.1,0.1-0.3,0.1
			c-0.1,0-0.1-0.1-0.1-0.1c0,0,0-0.1,0-0.2c0.7-1.1,1.2-2.4,1.3-3.4c0.1-1.3,0.1-1.8-0.3-2.1c-1.6-1.1-3.9-1.7-6.7-1.7
			c-3,0-6.8,0.8-7.9,2.3c-0.2,0.3-0.2,0.6-0.1,1.9c0.1,1,0.7,2.3,1.4,3.3c0.1,0.1,0,0.2-0.2,0.3c0,0-0.1,0-0.2-0.1
			c-0.4-0.6-0.9-1.4-1.2-2.2l-0.2-0.6L301,491c-0.6,0.2-1.2,0.5-1.7,0.7c-1.8,0.8-1.7,2.2-1.5,3.7c0.1,0.5,0.1,0.9,0.2,1.4
			c0.1,0.9,0.3,2,0.4,3l0.1,0.8c0.1,1.6,0.3,3.4-0.3,4.8c-0.2,0.4-0.4,0.7-0.6,1c-0.3,0.5-0.6,1-0.8,1.7c-0.1,0.4-0.1,0.8-0.1,1.3
			c0,0.5,0,0.9-0.1,1.4c-0.3,1.2-0.9,2.5-1.5,3.8c-0.9,1.8-1.8,3.7-1.8,5.4l0,1.9l1.1-1.5c0.5-0.6,1.1-1.1,2-1.6
			c1.8-0.9,3.7-1.7,5.9-2.3l0.4-0.1l0.1-0.4l0.3-0.8c0.3-0.7,0.5-1.5,0.8-2.2l0.4-1.4l-1.4,0.7c-0.1,0-0.2,0.1-0.3,0.2
			c-0.1,0-0.1,0-0.2-0.1c-0.1-0.1,0-0.2,0.1-0.3c0.4-0.3,1-0.5,1.6-0.8l0.3-0.1l0.1-0.3c0.4-1.2,0.6-2.2,0.8-3.2l0.2-1.2l-1.3,0.6
			c-0.3,0.1-0.5,0.3-0.9,0.4c-0.1,0-0.1,0-0.2-0.1c-0.1-0.1,0-0.2,0.1-0.3c0.5-0.3,1.1-0.6,1.8-0.9l0.4-0.1l0.1-0.7
			c0-0.1,0-0.3,0-0.4c0.1-1.2,0-2.4-0.3-3.7l-0.2-0.8l-0.7,0.4c-0.9,0.5-1.6,1-2.1,1.5c-0.1,0.1-0.1,0.1-0.3,0
			c-0.1-0.1-0.1-0.2,0-0.3c0.6-0.7,1.5-1.4,2.6-1.8l0.5-0.2l-0.1-0.5c-0.3-1.3-0.7-2.5-1.2-3.8l-0.2-0.5c0-0.1,0-0.1,0-0.2
			c0,0,0-0.1,0.2-0.1c0.1,0,0.2,0,0.2,0.1l0.2,0.5c0.4,1.3,0.8,2.5,1.2,3.7l0.2,0.6l0.6-0.2c2.3-0.7,5.1-0.7,7.6,0l0.6,0.2l0.1-0.6
			c0.3-1.2,0.6-2.4,0.9-3.5l0.3-0.9c0-0.1,0.1-0.2,0.3-0.1c0.1,0,0.2,0.1,0.1,0.3l-0.3,0.9c-0.4,1.3-0.7,2.5-1,3.7l-0.1,0.5l0.5,0.2
			c0.6,0.3,1.2,0.5,1.7,0.8c0.1,0,0.1,0.2,0.1,0.3c0,0.1-0.1,0.1-0.3,0.1c-0.4-0.2-0.7-0.4-1.1-0.5l-1-0.4l-0.1,0.8
			c-0.2,1.3-0.2,2.5-0.2,3.7l0,0.5l0.4,0.1c0.9,0.2,1.8,0.5,2.4,0.9c0.1,0,0.1,0.1,0.1,0.1c0,0,0,0.1,0,0.2
			c-0.1,0.1-0.1,0.1-0.3,0.1c-0.4-0.3-1-0.5-1.6-0.7l-1-0.3l0.2,1c0.2,1.3,0.6,2.5,0.9,3.7l0.3,0.4l0.3,0.1c0.5,0.1,1,0.3,1.5,0.4
			c0.1,0,0.2,0.1,0.2,0.2c0,0.1-0.1,0.2-0.2,0.2l-1.8-0.5l0.4,1.1c0.4,0.9,0.7,1.9,1.1,2.8l0.3,0.7l0.3,0.1c2.4,0.5,4.6,1.2,6.5,2.2
			c0.4,0.2,0.7,0.4,1.1,0.7l1.2,0.9L326.2,518.4z"/>
		<path fill="#FFFFFF" d="M304.8,511l1-0.2c1.2-0.3,2.7-0.5,4.3-0.6c1.2-0.1,2.4,0,3.8,0.4l1,0.2l-0.3-1c-0.4-1.2-0.6-2.4-0.8-3.5
			l-0.1-0.5l-0.5-0.1c-2.2-0.3-5-0.1-7.2,0.5l-0.4,0.1l-0.1,0.4c-0.1,1-0.4,2.1-0.6,3.2L304.8,511z"/>
		<path fill="#FFFFFF" d="M315.2,511.6l-0.1-0.3l-0.3-0.1c-1.4-0.4-2.9-0.7-4.7-0.6c-2.1,0.1-3.8,0.4-5.2,0.8l-0.3,0.1l-0.1,0.3
			c-0.4,1.2-0.8,2.4-1.1,3.5l-0.3,1l1.1-0.2c3.8-0.8,7.9-0.9,11.7-0.4l1.1,0.2l-0.4-1C316,513.8,315.6,512.7,315.2,511.6z"/>
		<path fill="#FFFFFF" d="M314,500.5l-0.5-0.2c-2.5-0.7-5.3-0.8-7.6-0.1l-0.5,0.2l0.1,0.6c0.3,1.5,0.4,2.9,0.4,4.1l-0.1,0.9l0.8-0.2
			c2-0.5,4.4-0.7,6.4-0.5l0.7,0.1l0-0.7c-0.1-1.2,0-2.4,0.2-3.7L314,500.5z"/>
	</g>
	<path fill="#FFFFFF" d="M326.2,520.7l-0.1-0.3c-0.4-0.7-1-1.2-2-1.7c-3.7-1.9-8.2-2.9-12.9-2.9c-5.2,0-10.3,1.2-14.5,3.4
		c-2,1-2.8,2.3-2.4,3.8l0,0.4l0.3,0.1c0.4,0.1,0.8,0.3,1.2,0.4c3,0.7,7.3,1.1,12,1.1c0,0,0,0,0,0c6.8,0,13.3-0.8,17.1-2.1
		c0.5-0.2,0.8-0.3,1.2-0.5l0.2-0.2l0-0.3C326.4,521.6,326.3,521.1,326.2,520.7z"/>
	<path fill="#FFFFFF" d="M252.9,521.8c-1.5-2.1-5.1-1.8-8,0.8c-0.3,0.3-0.6,0.6-1,0.9c-0.1,0.1-0.3,0.2-0.4,0.2h-0.1l-0.1-0.1
		c-0.1-0.1-0.1-0.4-0.1-0.7c0.1-0.6,0.3-2.5,0.2-3.5c0-0.2,0-0.5-0.1-0.7l-0.3-0.9c-0.8-1.8-2.5-2.8-4.1-2.8c-2.2,0-3.8,1.7-4.2,4.4
		c-0.2,1.1-0.1,2.4,0.3,3.9c0.1,0.4,0.1,0.6,0,0.7l-0.1,0.1l-0.1,0c-0.2,0-0.4-0.2-0.6-0.5c-0.5-0.7-1.4-1.6-2.4-2.2
		c-0.8-0.5-1.7-0.7-2.6-0.7c-1.6,0-2.9,0.8-3.5,2.1c-0.9,1.8-0.3,4.2,1.5,6.6c2.2,2.9,6.1,6.1,11.6,9.6c0.2,0.1,0.9,0.3,1.6,0.3
		c0.6,0,1.1-0.1,1.4-0.4c0.6-0.5,1.4-1.1,2.3-1.9c0.4-0.3,0.8-0.6,1.2-1c2.4-2.1,5.5-4.6,7-7.5c0.9-1.7,1.3-3.2,1.3-4.5
		C253.5,523.1,253.3,522.3,252.9,521.8z"/>
	<g>
		<path fill="#FFFFFF" d="M271.4,500.6l-0.5-0.1c-2.5-0.7-5.4-0.7-7.5-0.2l-0.6,0.2l0.1,0.6c0.3,1.4,0.4,2.6,0.4,3.8l0,0.7l0.7-0.1
			c2-0.3,4.4-0.2,6.4,0.3l0.8,0.1l-0.1-0.8c-0.1-1.2,0-2.5,0.2-3.9L271.4,500.6z"/>
		<path fill="#FFFFFF" d="M262.1,511l1-0.3c1-0.2,2.3-0.5,3.8-0.5c1.6,0.1,3.1,0.2,4.3,0.5l1,0.2l-0.3-1c-0.3-1.1-0.6-2.1-0.7-3.2
			l-0.1-0.4l-0.4-0.1c-2.2-0.6-5-0.7-7.2-0.4l-0.5,0.1l-0.1,0.5c-0.1,1.1-0.4,2.3-0.7,3.5L262.1,511z"/>
		<path fill="#FFFFFF" d="M272.6,511.7l-0.1-0.3l-0.3-0.1c-1.4-0.3-3.1-0.6-5.2-0.7c-1.7-0.1-3,0.2-4.7,0.7l-0.3,0.1l-0.1,0.3
			c-0.4,1.1-0.8,2.3-1.2,3.4l-0.4,1l1.1-0.2c3.8-0.6,7.9-0.6,11.7,0.1l1.1,0.2l-0.4-1C273.4,514.1,273,512.9,272.6,511.7z"/>
		<path fill="#FFFFFF" d="M284.1,519.7c-0.1-1.8-1-3.6-2-5.4c-0.7-1.3-1.3-2.5-1.6-3.7c-0.1-0.5-0.1-1-0.2-1.5c0-0.4,0-0.9-0.1-1.3
			c-0.2-0.7-0.5-1.1-0.8-1.6c-0.2-0.3-0.4-0.6-0.6-0.9c-0.7-1.4-0.6-3.2-0.5-4.8l0.1-0.8c0-1,0.2-2,0.3-3l0.1-0.5
			c0.3-2.2,0.3-3.8-1.7-4.6c-0.5-0.2-1-0.4-1.6-0.6l-0.6-0.2l-0.2,0.6c-0.3,0.8-0.7,1.6-1.1,2.2c-0.1,0.1-0.1,0.1-0.3,0.1
			c-0.1,0-0.1-0.1-0.1-0.1c0,0,0-0.1,0-0.2c0.7-1,1.3-2.4,1.4-3.3c0.2-1.3,0.2-1.8-0.6-2.3c-1.7-1.1-4.3-1.8-6.9-1.8
			c-2.7,0-5.3,0.7-7.1,2c-0.4,0.3-0.5,0.8-0.3,2.1c0.1,1,0.7,2.3,1.4,3.4c0.1,0.1,0,0.2-0.2,0.3c0,0-0.1,0-0.2-0.1
			c-0.4-0.5-0.7-1.2-1-1.9l-0.2-0.5l-0.5,0.1c-0.5,0.1-0.9,0.3-1.4,0.5c-1.6,0.8-1.5,1.7-1.2,4.4c0.1,1,0.3,2.2,0.3,3.6l0,0.8
			c0.1,1.5,0.2,3.3-0.4,4.7c-0.2,0.4-0.4,0.7-0.6,1c-0.3,0.5-0.7,0.9-0.8,1.6c-0.1,0.4-0.1,0.8-0.1,1.3c0,0.5,0,0.9-0.1,1.4
			c-0.3,1.2-0.9,2.4-1.6,3.5c-0.9,1.6-1.8,3.3-1.8,5l0.1,1.2l1-0.7c0.2-0.2,0.5-0.3,0.8-0.5c1.9-1,4.1-1.9,6.5-2.4l0.3-0.1l0.3-0.7
			c0.3-0.9,0.7-1.9,1-2.8l0.4-1.1l-1.8,0.5c-0.1,0-0.2-0.1-0.2-0.2c0-0.1,0-0.1,0-0.2c0,0,0.1-0.1,0.1-0.1c0.5-0.1,1-0.3,1.5-0.4
			l0.5-0.1l0.1-0.3c0.4-1.2,0.6-2.5,0.8-3.7l0.2-1l-1,0.3c-0.6,0.2-1.1,0.5-1.7,0.8c-0.1,0-0.1,0-0.2-0.1c0-0.1,0-0.1,0-0.2
			c0,0,0-0.1,0.1-0.1c0.6-0.4,1.4-0.7,2.4-1l0.4-0.1l0-0.4c0.1-1.2,0-2.5-0.3-3.9l-0.2-0.8l-0.7,0.4c-0.5,0.3-0.9,0.5-1.4,0.8
			c0,0-0.1,0-0.2-0.1c-0.1-0.1-0.1-0.2,0-0.3c0.5-0.4,1-0.7,1.7-1l0.5-0.2l-0.1-0.5c-0.3-1.2-0.7-2.4-1-3.5l-0.3-0.9
			c0-0.1,0-0.1,0-0.2c0,0,0.1-0.1,0.2-0.1c0.1,0,0.2,0,0.2,0.1l0.3,0.9c0.4,1.1,0.7,2.3,1,3.4l0.2,0.6l0.6-0.2
			c2.2-0.6,5.1-0.5,7.6,0.1l0.6,0.2l0.1-0.6c0.3-1.3,0.7-2.6,1.1-4l0.1-0.5c0-0.1,0.1-0.1,0.3-0.1c0.1,0,0.2,0.2,0.1,0.3l-0.1,0.5
			c-0.4,1.4-0.8,2.7-1.2,4.1l-0.1,0.5l0.5,0.2c1.1,0.4,2,1,2.6,1.5c0.1,0.1,0.1,0.2,0,0.3c-0.1,0.1-0.1,0.1-0.3,0
			c-0.5-0.5-1.3-0.9-2.2-1.3l-0.7-0.3l-0.1,0.8c-0.2,1.3-0.3,2.4-0.2,3.5c0,0.2,0,0.3,0.1,0.4l0.1,0.7l0.4,0.1
			c0.8,0.3,1.4,0.6,1.9,0.8c0.1,0.1,0.1,0.2,0.1,0.3c0,0.1-0.1,0.1-0.3,0.1c-0.2-0.1-0.5-0.3-0.9-0.5l-1.1-0.5l0.2,1.2
			c0.2,0.9,0.5,1.9,0.8,3.1l0.1,0.3l0.3,0.1c0.7,0.2,1.2,0.5,1.7,0.7c0.1,0,0.1,0.1,0.1,0.1c0,0,0,0.1,0,0.2c0,0.1-0.1,0.1-0.3,0.1
			c-0.1,0-0.1-0.1-0.3-0.2l-1.4-0.7l0.5,1.5c0.3,0.7,0.5,1.5,0.8,2.2l0.3,0.9l0.1,0.4l0.4,0.1c2.2,0.5,4.2,1.2,6,2.1
			c0.9,0.5,1.6,1,2.1,1.6l1.2,1.4L284.1,519.7z"/>
	</g>
	<g>
		<path fill="#FFFFFF" d="M328.9,523l-0.9-0.2l0.1,0.9c0.1,0.5,0.1,1,0.1,1.5c0,2.5-0.8,5.7-1.8,6.3c-0.5,0.3-1,0.5-1.6,0.8
			c-3.5,1.3-9.5,2-16.1,2c-4.8,0-9.1-0.4-11.9-1.1c-0.9-0.2-1.7-0.5-2.3-0.8c-1.1-0.6-2-3.7-2.1-6.2c-0.1-1.5,0.1-2.6,0.4-3.2
			l0.4-0.6l-0.1-0.3c-0.2-0.6-0.3-1.2-0.3-1.9l0-0.6l-0.6,0c-1.8,0-3.7-0.1-5.5-0.1l-2.1,0l0,0.6c0,0.6-0.1,1.1-0.3,1.6l-0.1,0.4
			l0.3,0.5c0.4,0.6,0.6,1.7,0.5,3.2c-0.1,2.5-0.9,5.7-2,6.3c-0.6,0.3-1.3,0.6-2.3,0.9c-3.3,0.9-8.5,1.4-14.1,1.4
			c-5.7,0-10.8-0.6-14-1.6c-0.6-0.2-1.2-0.4-1.6-0.7l-0.6-0.5l-0.4,0.4c-1.5,1.6-3.3,3.1-4.7,4.3c-0.4,0.4-0.8,0.7-1.2,1
			c-0.4,0.4-0.8,0.7-1.2,1l-1,0.8l1.3,0.2c10.6,2,24.7,3.1,39.6,3.1l1.9,0c31.9-0.2,58.8-5.7,58.8-12
			C343.7,528.9,341.8,525.8,328.9,523z"/>
		<path fill="#FFFFFF" d="M228.1,531.2l-0.3-0.4l-0.4,0.3c-0.3,0.2-0.5,0.3-0.7,0.4l-0.7,0.2l0.3,0.6c0.7,1.4,2.6,2.7,5.7,3.9l4,1.6
			l-3.4-2.7C230.8,533.8,229.3,532.5,228.1,531.2z"/>
	</g>
	<g>
		<path fill="#FFFFFF" d="M284,515.7c0.4,0.8,0.7,1.7,0.9,2.5c2.5,0,5,0,7.5,0.1c0.2-0.8,0.5-1.6,0.9-2.5c-2.8-0.1-5.7-0.1-8.5-0.1
			L284,515.7z"/>
		<path fill="#FFFFFF" d="M292.9,518.9l-0.5,0c-2,0-3.9-0.1-5.9-0.1l-2,0l-0.1-0.5c-0.2-0.8-0.5-1.5-0.9-2.4l-0.4-0.9l1.8,0
			c2.7,0,5.5,0,8.5,0.1l0.9,0l-0.4,0.8c-0.4,0.9-0.7,1.7-0.9,2.4L292.9,518.9z M286.5,517.6c1.8,0,3.7,0,5.5,0
			c0.1-0.4,0.3-0.8,0.4-1.2c-2.6-0.1-5.1-0.1-7.4-0.1c0.2,0.4,0.3,0.9,0.4,1.3L286.5,517.6z"/>
	</g>
	<path fill="#FFFFFF" d="M243.1,506.5c-0.9-1.2-2.1-1.9-3.6-2.1c-2.3-0.3-5.1,0.9-7.8,3.2c-0.4,0.4-0.9,0.8-1.4,1.3
		c-0.3,0.3-0.6,0.4-0.8,0.2c-0.1,0-0.4-0.2-0.2-1c0.2-0.9,0.4-3.5,0.3-4.9c-0.3-3.9-3.3-6.1-6.2-6.2l-0.2,0c-2.5,0-5.3,1.6-6,6.2
		c-0.2,1.6-0.1,3.4,0.5,5.5c0.2,0.6,0.1,0.9-0.2,1c-0.3,0-0.6-0.5-0.8-0.7c-0.7-0.9-1.9-2.2-3.4-3.1c-2.8-1.6-6.2-1.3-8,0.8
		c-1.7,1.9-2.2,5.7,1.4,10.4c3.1,4,8.6,8.6,16.3,13.4c0,0,1,0.6,2.2,0.6c0.5,0,1-0.1,1.5-0.3l0.7-0.3l-0.8-1c-1.9-2.6-2.5-5.1-1.6-7
		c0.7-1.4,2.2-2.3,3.9-2.3c1,0,1.9,0.3,2.8,0.8c0.4,0.2,0.8,0.5,1.2,0.9l1.2,1l-0.2-1.6c-0.1-0.7-0.1-1.4,0-2
		c0.5-3.5,2.8-4.7,4.6-4.7c0.9,0,1.9,0.3,2.8,0.9l0.6,0.4l0.3-0.6c1.1-2.2,1.6-4.1,1.5-5.8C244,508.3,243.7,507.3,243.1,506.5z"/>
	<path fill="#FFFFFF" d="M274.9,477.2c-0.3-0.1-0.8-0.2-1.4-0.3l-0.8-0.1l-0.3,0l-0.6,0c-1.3-0.1-2.8-0.2-4.3-0.2l-0.7,0l-0.2,0
		l-0.7,0c-0.5,0-0.9,0-1.3,0l-0.1,0l0,0c-1.1,0-2.2,0.1-3.1,0.2l-0.6,0.1l0,0l-0.4,0l-0.7,0.1c-0.4,0.1-0.8,0.2-1.1,0.3
		c-1.7,0.6-2.5,1.6-2.4,3.1l0.1,0.3l0.3,0.2c0.2,0.2,0.6,0.3,1,0.3c0.6,0,1.2-0.2,1.8-0.3c0.3-0.1,0.5-0.1,0.8-0.2l0.6-0.1l0.4-0.1
		l0.6-0.1c1.6-0.2,2.8-0.3,4.2-0.2l0.7,0l0.4,0l1.6,0c1.1,0,2.2,0,3.3,0.1l0.6,0l0.4,0l0.6,0.1c1.3,0.1,2.5,0.4,3.6,0.8l0.8,0.3
		l0.1-0.8C277.9,478.9,277,477.8,274.9,477.2z"/>
	<path fill="#FFFFFF" d="M317.4,477.2c-0.3-0.1-0.8-0.2-1.4-0.3l-0.8-0.1l-0.3,0l-0.6,0c-1.3-0.1-2.8-0.2-4.3-0.2l-0.7,0l-0.2,0
		l-0.7,0c-0.5,0-0.9,0-1.3,0l-0.1,0l0,0c-1.1,0-2.2,0.1-3.1,0.2l-0.6,0.1l0,0l-0.4,0l-0.7,0.1c-0.4,0.1-0.8,0.2-1.1,0.3
		c-1.7,0.6-2.5,1.6-2.4,3.1l0.1,0.3l0.3,0.2c0.2,0.2,0.6,0.3,1,0.3c0.6,0,1.3-0.2,1.8-0.3c0.3-0.1,0.5-0.1,0.8-0.2l0.6-0.1l0.4-0.1
		l0.6-0.1c1.6-0.2,2.8-0.3,4.2-0.2l0.7,0l0.4,0l1.6,0c1.1,0,2.2,0,3.3,0.1l0.6,0l0.4,0l0.6,0.1c1.3,0.1,2.5,0.4,3.6,0.8l0.8,0.3
		l0.1-0.8C320.5,478.9,319.6,477.8,317.4,477.2z"/>
	<path fill="#FFFFFF" d="M251,517.8l0.1-0.8l-0.8,0.1c-2.1,0.3-4.2,0.5-6.2,0.8l-0.6,0.2l0.1,0.6c0,0.2,0.1,0.4,0.1,0.6
		c0,0.5,0,1.3-0.1,2.3l-0.1,1.5l1.2-1c1.8-1.5,3.5-2.3,5.3-2.3c0,0,0,0,0.1,0c0.1,0,0.1,0,0.2,0l0.7,0.1l-0.1-0.7
		C250.9,518.7,250.9,518.2,251,517.8z"/>
	<path fill="#FFFFFF" d="M284.5,523.7l-0.2-0.9l-0.8,0.5c-0.5,0.3-1.1,0.5-1.8,0.7c-3.5,0.9-8.7,1.5-14.3,1.5
		c-4.8,0-9.4-0.4-12.8-1.2l-0.7-0.1l-0.1,0.7c-0.1,1.2-0.6,2.4-1.3,3.8c-0.4,0.7-0.8,1.4-1.4,2.1l-0.4,0.6l0.6,0.4
		c0.4,0.2,0.9,0.5,1.5,0.6c3.1,1,7.9,1.6,13.6,1.6c0,0,0,0,0,0c5.5,0,11.1-0.6,14.2-1.4c0.9-0.2,1.6-0.5,2.2-0.9
		c0.8-0.5,1.7-3.6,1.8-6.2C284.7,524.7,284.6,524.1,284.5,523.7z"/>
	<path fill="#FFFFFF" d="M327.6,522.8l-0.3-0.9l-0.7,0.6c-0.4,0.3-0.9,0.6-1.6,0.8c-3.8,1.3-10.4,2.2-17.2,2.2
		c-4.7,0-9.1-0.4-12.2-1.1c-0.8-0.2-1.4-0.4-1.9-0.7l-0.8-0.5l-0.1,0.9c-0.1,0.5-0.1,1.1-0.1,1.7c0.1,2.6,1.1,5.6,1.9,6.1
		c0.6,0.3,1.3,0.6,2.2,0.8c2.7,0.7,7.2,1.1,12,1.1c6.5,0,12.3-0.7,15.8-2c0.6-0.2,1.1-0.4,1.6-0.7c0.8-0.5,1.6-3.6,1.6-6.2
		C327.8,524.1,327.7,523.4,327.6,522.8z"/>
	<path fill="#FFFFFF" d="M327.4,518.2l-0.8-0.1l0,0.8c0,0.4,0,0.9-0.2,1.3l-0.1,0.2l0.1,0.2c0.1,0.2,0.1,0.3,0.2,0.5l0.1,0.3
		l0.4,0.2c0.1,0.1,0.3,0.2,0.4,0.5l0.1,0.2l0.3,0.1c13.3,2.7,16.1,5.9,16.1,8.1c0,7.5-30.1,12.2-59.2,12.4l-2,0
		c-15.7,0-30.3-1.2-41.1-3.5l-0.2,0l-0.2,0.1c-1.6,0.7-2.9-0.2-2.9-0.2c-0.5-0.3-0.9-0.6-1.5-1l-0.2-0.1c-8.3-2.2-10.7-4.6-11.2-6.2
		l-0.1-0.4l-0.4,0c-1-0.1-1.9-0.4-2.2-0.6c-2.4-1.5-4.6-3-6.7-4.5l-0.4-0.3l-0.4,0.3c-2.2,1.5-3.3,3.1-3.3,4.7
		c0,8.8,32.5,16,72.5,16c40,0,72.5-7.2,72.5-16C357.3,526.1,346.1,521.2,327.4,518.2z"/>
	<g>
		<path fill="#FFFFFF" d="M229.1,511C228.7,510.8,228.5,510.8,229.1,511L229.1,511z"/>
		<path fill="#FFFFFF" d="M234.1,513l-5.1-1.4c-0.3-0.1-0.9-0.3-0.9-0.8l0.1-0.5l0.6,0c0.2,0,0.5,0.1,0.7,0.2L234.1,513z"/>
	</g>
</g>
<g id="Linhas">
	<g>
		<path fill="#040700" d="M240.9,517.5C240.6,517.3,240.4,517.3,240.9,517.5L240.9,517.5z"/>
		<path fill="#040700" d="M268.7,364.9c-0.8-0.2-1.6-0.4-2.4-0.7c-4.3-1.5-7.2-4.4-8.2-7.9c-1-3.7,0.6-7.2,0.7-7.3
			c0.2-0.5,0-1-0.4-1.2c-0.5-0.2-1,0-1.2,0.4c-0.1,0.2-2,4.2-0.8,8.5c1.1,4.2,4.5,7.4,9.4,9.2c0.9,0.3,1.8,0.6,2.8,0.8
			c1.3,2.8,3.3,4.6,5.2,4.6c0.1,0,0.2,0,0.3,0c0.2,0,0.5-0.1,0.8-0.2c3.1,3.4,7.8,7.9,13.1,8.2c0.2,0,0.4,0,0.6,0
			c4,0,8.4-2.6,13-7.8c0.1,0,0.2,0.1,0.4,0.1c0,0,0.1,0,0.1,0c2,0,3.7-1.7,4.7-4.7c1.1-0.2,2.2-0.5,3.3-0.9c4.9-1.8,8.2-5,9.4-9.2
			c1.2-4.3-0.7-8.4-0.8-8.5c-0.2-0.5-0.8-0.7-1.2-0.4c-0.5,0.2-0.7,0.8-0.4,1.2c0,0,1.7,3.6,0.7,7.3c-1,3.6-3.9,6.4-8.2,7.9
			c-0.4,0.2-0.9,0.3-1.3,0.4c3.2-3.8,4.8-10.2,2.2-17.8c-2.4-7-8.3-12.8-15.3-15.2c-4.7-1.6-11.9-2.3-20,3
			c-5.2,3.4-9.2,10.1-9.9,16.7C264.6,355,265,360.1,268.7,364.9z M273.9,369.5c-0.8,0.1-2-0.7-3.1-2.3c0.8,0.1,1.6,0.1,2.4,0.1
			c0.9,0,1.7-0.1,2.6-0.2C275.4,368.6,274.7,369.4,273.9,369.5z M288.1,377.5c-3.4-0.2-6.6-2.4-9.2-4.9c3.2-2.1,10.8-4.8,19.1-0.1
			C294.4,376,291.1,377.7,288.1,377.5z M299.3,371.1c-8.8-5.1-17.5-2.9-21.8,0.2c-0.4-0.4-0.8-0.8-1.2-1.3c0.6-0.7,1.1-1.7,1.4-3.2
			l-0.2,0c2.8-0.5,5.4-1.6,7.6-3.1c1.2-0.9,2.1-1.8,2.7-2.9c0.6,1,1.5,2,2.7,2.9c2,1.4,4.4,2.4,7,3c0.4,1.8,1.2,3.2,2.1,4
			C299.6,370.9,299.5,371,299.3,371.1z M287.5,345.9c-2.7,0-6.8,0.1-9.6,0.5c3.7-5.8,7-8.8,9.8-8.8c4.1,0,7.6,5.3,9.9,8.9
			C294.7,346,290.4,345.9,287.5,345.9z M301.9,369.7c-0.8,0-1.7-0.9-2.3-2.6c1,0.1,1.9,0.2,2.9,0.2c0.7,0,1.4,0,2-0.1
			C303.8,368.9,302.8,369.7,301.9,369.7z M266.8,351.6c0.7-6,4.3-12.2,9.1-15.3c7.5-4.9,14.1-4.2,18.4-2.8c6.5,2.2,11.9,7.6,14.2,14
			c2.7,7.8,0.5,14.1-3,17.2l-0.1,0c0,0.1,0,0.1,0,0.1c-0.2,0.2-0.5,0.4-0.7,0.6c-4.7,0.5-9.5-0.6-13-3.1c-1.7-1.2-2.5-2.4-2.7-3.8
			c3.1-1,10.7-5.3,11.7-7.1c1.1-1.9,0.9-2.7,0-3.8v0c-0.4-0.5-0.9-1.3-1.4-2.1c-2.5-3.9-6.3-9.7-11.5-9.7c-5.1,0-9.6,6.6-12.6,11.7
			c-0.5,0.5-0.8,1.2-0.9,1.9c-0.2,2.7,8.2,7.3,12.5,9.1c-0.1,1.4-1,2.7-2.7,3.9c-3.4,2.4-8.1,3.5-12.6,3.1l0,0
			C266.9,360.6,266.4,355.2,266.8,351.6z"/>
		<path fill="#040700" d="M318.5,328.3c0.3-0.2,0.6-0.5,0.9-0.8c0.3,0,0.6-0.1,0.7-0.1c1.3-0.8,2.2-1.9,3.3-2.9
			c0.2-0.2-0.5-0.2-0.9-0.1c0.4-0.4,0.8-0.8,1.2-1.3c0.2-0.2-0.2-0.2-0.6-0.1c0.1-0.1,0.3-0.3,0.4-0.4c0.3-0.4-0.8-0.2-1,0
			c-1.6,1.2-3.1,2.6-4.4,4.2c-0.1,0.2,0.1,0.2,0.3,0.2c-0.3,0.4-0.7,0.9-1,1.3C317.2,328.8,318.4,328.5,318.5,328.3z"/>
		<path fill="#040700" d="M249,322.4C249,322.4,249,322.4,249,322.4c-0.2,0.2-0.3,0.4-0.2,0.6c0.3,0.3,0.5,0.5,0.8,0.8
			c-0.4,0.1-0.6,0.3-0.4,0.5c1.1,0.9,2.1,2,3.3,2.6c0.1,0.1,0.4,0.1,0.6,0c0.4,0.3,0.7,0.6,1.1,0.8c0,0,0,0,0,0c0,0,0,0,0,0
			c0,0,0.1,0,0.1,0.1c0.3,0.2,1.3-0.1,1-0.6c-0.3-0.4-0.6-0.7-0.9-1.1c0.2-0.1,0.3-0.3,0.1-0.4c-1.3-1.5-2.9-2.8-4.6-3.9
			C249.7,321.6,248.6,322,249,322.4z"/>
		<path fill="#040700" d="M249.7,280c0-4-3.5-7.3-7.7-7.3c-4.2,0-7.7,3.3-7.7,7.3c0,4,3.5,7.3,7.7,7.3
			C246.2,287.3,249.7,284,249.7,280z M236.1,280c0-3,2.6-5.5,5.8-5.5c3.2,0,5.9,2.5,5.9,5.5c0,3-2.6,5.5-5.9,5.5
			C238.7,285.4,236.1,283,236.1,280z"/>
		<path fill="#040700" d="M320.2,333.8c-0.1,1.8,0.1,4.6,0.3,5.2c0.3,0.9,1,1.9,2.1,1.6c1.3-0.3,2-1.6,2.2-2.7c0-0.3,0.3-2.3,0-4.2
			C324.2,329.9,320.5,330.6,320.2,333.8z"/>
		<path fill="#040700" d="M256.8,333.8c-0.2-3.1-4-3.9-4.6-0.1c-0.3,1.9,0,3.9,0,4.2c0.2,1.1,0.9,2.4,2.2,2.7
			c1.1,0.3,1.9-0.7,2.1-1.6C256.7,338.3,256.9,335.6,256.8,333.8z"/>
		<path fill="#040700" d="M329.6,287.3c4.2,0,7.7-3.3,7.7-7.3c0-4-3.5-7.3-7.7-7.3c-4.2,0-7.7,3.3-7.7,7.3
			C321.9,284,325.4,287.3,329.6,287.3z M329.6,274.5c3.2,0,5.8,2.5,5.8,5.5c0,3-2.6,5.5-5.8,5.5c-3.2,0-5.8-2.5-5.8-5.5
			C323.8,276.9,326.4,274.5,329.6,274.5z"/>
		<path fill="#040700" d="M258,309.4c4.2,0,7.7-3.3,7.7-7.3c0-4-3.5-7.3-7.7-7.3c-4.2,0-7.7,3.3-7.7,7.3
			C250.3,306.1,253.7,309.4,258,309.4z M258,296.6c3.2,0,5.8,2.5,5.8,5.5c0,3-2.6,5.5-5.8,5.5c-3.2,0-5.8-2.5-5.8-5.5
			C252.1,299,254.7,296.6,258,296.6z"/>
		<path fill="#040700" d="M281.2,327.6c4.2,0,7.7-3.3,7.7-7.3c0-4-3.5-7.3-7.7-7.3c-4.2,0-7.7,3.3-7.7,7.3
			C273.5,324.3,277,327.6,281.2,327.6z M281.2,314.8c3.2,0,5.8,2.5,5.8,5.5c0,3-2.6,5.5-5.8,5.5c-3.2,0-5.8-2.5-5.8-5.5
			C275.4,317.2,278,314.8,281.2,314.8z"/>
		<path fill="#040700" d="M289.1,303c4.2,0,7.7-3.3,7.7-7.3c0-4-3.5-7.3-7.7-7.3c-4.2,0-7.7,3.3-7.7,7.3
			C281.4,299.7,284.9,303,289.1,303z M289.1,290.2c3.2,0,5.8,2.5,5.8,5.5c0,3-2.6,5.5-5.8,5.5c-3.2,0-5.8-2.5-5.8-5.5
			C283.3,292.6,285.9,290.2,289.1,290.2z"/>
		<path fill="#040700" d="M315.9,315.8c4.2,0,7.7-3.3,7.7-7.3c0-4-3.5-7.3-7.7-7.3c-4.2,0-7.7,3.3-7.7,7.3
			C308.2,312.5,311.7,315.8,315.9,315.8z M315.9,303c3.2,0,5.8,2.5,5.8,5.5c0,3-2.6,5.5-5.8,5.5c-3.2,0-5.8-2.5-5.8-5.5
			C310.1,305.4,312.7,303,315.9,303z"/>
		<path fill="#040700" d="M371.9,327.9c-0.8-3.3-3.3-5.5-6.8-6.2c0.1-0.1,0.1-0.2,0.2-0.2c0.2-0.2,0.4-0.5,0.6-0.7
			c0.9-1.1,1.5-2.3,1.7-3.6c0.8-4.4-3-8.2-7.1-9.1c-3.5-0.8-8.1,0.3-9.8,6.1c-0.1,0.5-0.2,1-0.3,1.5c-0.1,0.5-0.1,1.1-0.1,1.6
			c0,0.2,0,0.4,0,0.7c-0.1,0-0.1-0.1-0.2-0.1c-0.2-0.1-0.3-0.2-0.5-0.3c0.4-0.2,0.5-0.7,0.4-1.1c-3.8-9.3-7.7-15-12.9-21.3
			c-0.3-0.5-0.7-1-1-1.5c1-0.4,2-0.8,2.9-1.3c1.3-0.7,2.6-1.5,3.8-2.4c5.1-3.9,7.1-10.2,5.4-16.8c-2.2-8.1-9.3-13.7-17.4-13.7
			c-0.1,0-0.2,0-0.3,0c-3.1,0-13.5,1.3-16.9,15.7c-0.2,0.9-0.4,1.8-0.5,2.7c-5.2-1.4-11-2.3-16.9-2.7c1.8-4,5-8.2,9.6-12.5
			c1-1,2.1-1.9,3.2-2.9c2.2-2,4.5-4.1,6.5-6.2c5.5-5.7,4.9-10.5,2.7-12.9c-3.1-3.3-10-3.5-17.4,2.6c-10.4,8.5-17.7,19.8-20.8,31.9
			c-8,0.5-15.6,1.6-21.8,3.2c-0.1-0.5-0.2-1-0.3-1.5c-0.1-0.5-0.2-1-0.3-1.6c-1.7-8.2-6.9-13.5-14.3-14.5c-7.7-1.1-15.5,2.7-19,9.2
			c-1.4,2.6-2.4,7.2-0.8,11.8c1.7,4.9,5.9,8.8,12.5,11.6c0.2,0.1,0.4,0.2,0.6,0.3c-3.8,4-9.2,10.8-12.1,18.8c0-0.1,0-0.3-0.1-0.4
			c-1.4-5.9-6-7.2-9.5-6.5c-4.1,0.8-8.2,4.4-7.5,8.8c0.2,1.2,0.7,2.5,1.5,3.6c0.2,0.3,0.4,0.5,0.6,0.7c0.1,0.1,0.1,0.2,0.2,0.2
			c-3.6,0.5-6.2,2.6-7.1,5.8c-0.9,3.3,0.1,7,2.5,9c1.3,1.1,4.2,2.5,8.6,0.1c0.1-0.1,0.2-0.1,0.3-0.1c0.7,4.9,3.3,18,5.6,25.8
			c5.5,18.5,13.8,32.3,26.2,43.5l0.5-0.5c-4.1,14-4.3,31.4,11.3,45.3c0.9,0.8,1.9,1.6,2.9,2.4c0.1,5.8,0.3,10.4,0.6,15.3
			c0.2,3.2,0.3,6.5,0.4,10.3c-1.4,0.1-2.6,0.3-3.5,0.6c-3.9,1.3-3.2,4.4-2.9,5.7c0.1,0.3,0.1,0.5,0.2,0.8c0.2,0.8,0.4,1.6,0.4,2.3
			c0,0.6-0.2,1.3-0.4,1.9c-0.4,1.3-0.9,3,0.3,4.5c-0.9,1.1-0.7,2.6-0.5,4.5c0.1,1,0.3,2.1,0.3,3.5c0,0.3,0,0.5,0.1,0.8
			c0.1,1.5,0.2,3-0.3,4.1c-0.1,0.3-0.3,0.5-0.5,0.8c-0.4,0.5-0.8,1.1-1,2c-0.1,0.5-0.1,1-0.2,1.5c0,0.4,0,0.8-0.1,1.2
			c-0.3,1-0.8,2.1-1.4,3.2c-0.5,0.9-0.9,1.7-1.3,2.7c-2.4,0.3-4.8,0.6-7.1,0.9c-0.1-0.2-0.2-0.4-0.4-0.6c1.3-2.5,1.9-4.7,1.8-6.8
			c0-1.4-0.4-2.7-1.2-3.7c-1.1-1.4-2.6-2.3-4.4-2.5c-2.7-0.3-5.7,0.9-8.6,3.5c-0.1,0.1-0.2,0.2-0.3,0.3c0.1-1.2,0.2-2.8,0.2-3.9
			c-0.4-4.5-4-7.1-7.2-7.2c-2.9-0.1-6.6,1.7-7.4,7.2c-0.2,1.1-0.2,2.3,0,3.6c-0.6-0.6-1.4-1.2-2.3-1.7c-3.3-1.9-7.2-1.5-9.4,1
			c-2,2.3-2.7,6.6,1.3,11.9c1.9,2.5,4.7,5.2,8.4,8c-2.1,1.6-3.2,3.4-3.2,5.2c0,10.7,37.5,17.2,73.7,17.2c36.2,0,73.7-6.4,73.7-17.2
			c0-8-19.7-12.3-31.4-14.1l0,0.1c-0.4-1.4-1.2-2.8-2-4.1c-0.7-1.2-1.3-2.3-1.6-3.3c-0.1-0.4-0.1-0.8-0.2-1.2c0-0.5-0.1-1-0.2-1.5
			c-0.2-0.9-0.7-1.4-1-2c-0.2-0.3-0.4-0.5-0.5-0.8c-0.6-1.1-0.5-2.6-0.4-4.1c0-0.3,0-0.5,0-0.8c0-1,0.1-2,0.2-2.9l0.1-1
			c0.1-1.7-0.1-3.1-0.8-4c1.2-1.6,0.7-3.2,0.2-4.6c-0.2-0.7-0.4-1.3-0.5-1.9c0-0.8,0.2-1.6,0.4-2.4c0.1-0.3,0.1-0.5,0.2-0.8
			c0.7-3.2-0.6-5.1-4.1-5.8c-0.6-0.1-1.2-0.2-1.8-0.3c0-6.4,0-12-0.1-17.9c0-2.8-0.1-5.7-0.1-8.8c0.6-0.5,1.2-1,1.7-1.5
			c3.4-3.1,6-6.9,7.9-11.1c0.1,0.1,0.3,0.1,0.4,0.1c0.1,0,0.1,0,0.2,0c20.8-4.3,36.5-29.5,33.7-54c-1-8.4-2.7-15-5.4-21
			c2.6-7.7,5.7-20.4,6.6-25.2c0.1,0,0.2,0.1,0.3,0.1c4.3,2.6,7.2,1.3,8.6,0.3C371.5,334.9,372.7,331.3,371.9,327.9z M302,244.8
			c6.4-5.3,12.4-5.4,14.8-2.7c2.2,2.4,1.1,6.4-2.7,10.3c-2,2-4.3,4.1-6.5,6.1c-1.1,1-2.1,2-3.2,2.9c-4.9,4.6-8.4,9.3-10.3,13.7
			c-4.1-0.2-8.2-0.2-12.3,0C285,263.6,292.1,252.9,302,244.8z M238.6,292.4c-0.6-0.2-1.2-0.4-1.9-0.7c-6.1-2.6-9.9-6.1-11.5-10.5
			c-1.4-4.1-0.5-8.1,0.7-10.3c3.1-5.8,10.3-9.3,17.1-8.3c6.6,1,11.2,5.7,12.7,13.1c0.1,0.6,0.2,1,0.3,1.5c0.1,0.8,0.3,1.6,0.6,2.6
			l0.3,0.8l0.8-0.2c6.4-1.7,14.5-2.9,22.9-3.4c0,0,0,0,0,0c0,0,0,0,0,0c4.6-0.3,9.4-0.3,14,0c0,0,0.1,0,0.1,0
			c6.6,0.4,13.1,1.3,18.8,3l1,0.3l0.1-1.1c0.2-1.3,0.4-2.5,0.6-3.6c2.1-8.8,7.7-14.2,15.1-14.3c7.3-0.2,13.9,4.9,15.8,12.3
			c1.6,5.8-0.2,11.4-4.7,14.8c-1.1,0.9-2.3,1.6-3.5,2.3c-1.2,0.7-2.5,1.2-3.8,1.6l-1.2,0.4l0.8,1c0.5,0.7,1.1,1.5,1.7,2.4l0.1,0.1
			c4.9,6,8.7,11.6,12.4,20.4c-4.1-1.9-6.8-0.2-7.9,0.8c-2.8,2.5-3.6,7.4-1.8,10.6c1.6,3,5,4,9.1,2.8c0,0.5-0.1,1.5-0.7,3.8l-0.1,0.4
			c-2.9,12.7-6.2,22.7-10.1,30.9c0,0-0.1,0-0.1,0.1c-0.8,0.7-1.6,1.5-2.5,2.2c-1.2,1.1-2.5,2.2-3.8,3.2c-6.6,5.1-14.3,8.7-22.8,10.8
			c-22.6,5.6-50.1-0.1-68.5-14.4c-0.4-0.3-0.7-0.5-0.9-0.6c-0.2-0.2-0.4-0.3-0.8-0.6c-4.1-8.8-7.1-19.6-9.7-33.5l-0.1-0.5
			c-0.5-2.3-0.5-3.3-0.5-3.8c4.1,1.4,7.5,0.5,9.3-2.4c2-3.2,1.4-8.1-1.3-10.7c-1.1-1.1-4.2-3.3-9.2-0.5c2.7-9.4,9.5-17.3,13.4-21.4
			l1.1-1.1L238.6,292.4z M319.3,385c-0.8-1.2-1.7-2.4-2.6-3.7c5.3-2.1,10.2-4.9,14.7-8.3c1-0.8,2-1.6,3-2.5
			c-3.8,6.7-8.2,12.1-13.6,16.7C320.2,386.5,319.8,385.7,319.3,385z M252.5,387.7c-5.4-4.9-9.8-10.5-13.4-17.3
			c5.4,4,11.5,7.3,17.9,9.9c-0.6,0.9-1.3,1.9-1.9,2.9C254.3,384.5,253.4,386,252.5,387.7z M221.4,359c-2.3-7.7-4.8-20.7-5.5-25.5
			c-0.1-0.9-0.6-1.2-0.9-1.4c-0.6-0.3-1.3-0.2-2.1,0.2c-2.6,1.4-4.8,1.5-6.5,0.1c-1.8-1.5-2.7-4.4-1.9-7c0.4-1.5,1.7-4.1,5.7-4.5
			c0.4,0,1.4-0.2,1.7-1c0.3-0.8-0.3-1.5-0.8-2.3c-0.2-0.2-0.3-0.4-0.5-0.6c-0.7-0.9-1.1-1.9-1.2-2.8c-0.5-3.4,2.8-6.1,6-6.7
			c1.4-0.3,6-0.7,7.3,5.1c0.1,0.4,0.2,0.8,0.2,1.3c0,0.4,0.1,0.9,0,1.4c0,0.2,0,0.4-0.1,0.7c-0.1,0.7-0.2,1.6,0.5,2
			c0.8,0.5,1.7,0,2.6-0.5c3.1-1.9,5.8-2,7.6-0.2c2.1,2,2.5,6,1,8.4c-1.3,2.1-3.8,2.7-7.1,1.6c-1-0.3-1.6,0.1-1.9,0.3
			c-0.7,0.7-0.7,2,0,5.6l0.1,0.4c5.2,28.2,12.4,43.9,25.8,55.8l0.3-0.3c-1.8,3.5-3.6,7.7-5,12.2C234.8,390.4,226.8,376.9,221.4,359z
			 M263,465.4c-0.2-4.5-0.4-8.7-0.5-13.8c3,2.1,6.3,3.8,9.6,5.1l0,1.8c0.1,6.6,0.2,10.3,0.5,17.3c-2.5-0.2-6.1-0.3-9.2-0.2
			C263.3,471.8,263.2,468.5,263,465.4z M319.2,487.4c0.4,1.3,0.6,2.1,0.1,2.9c-0.4-0.2-0.9-0.3-1.3-0.4c0,0,0,0,0-0.1
			c0.1-1.4,0.1-2.4-0.8-3.1c-4.4-3.2-14-2.2-16.2,0.8c-0.5,0.6-0.4,1.5-0.3,2.5c-0.4,0.1-0.8,0.3-1.1,0.5c-0.3-0.6-0.2-1.4,0.2-2.5
			c0.2-0.8,0.4-1.6,0.4-2.5c0-1-0.3-1.8-0.5-2.7c2.5-1,5.4-1.1,8.2-1.2c0.8,0,1.6,0,2.5-0.1c1.9-0.1,3.5,0,5.6,0.2
			c0.2,0,0.5,0.1,0.8,0.2c0.7,0.2,1.6,0.3,2.4,0.3c-0.2,0.9-0.4,1.8-0.4,2.8C318.7,485.8,319,486.6,319.2,487.4z M301.2,478.2
			c0.5-0.2,1.1-0.3,1.6-0.4c0,0.1,0,0.1,0,0.2c0.2,0.4,0.3,1.1,0.5,1.7c0,0.1,0,0.1,0,0.2c-1.4,0.2-2.8,0.4-4.2,1
			C299,479.8,299.3,478.9,301.2,478.2z M314.7,477.4c0,0.3,0,0.6,0,0.9c0,0.5,0,0.9,0,1.4c-1.5-0.1-2.7-0.2-4.1-0.1c0-0.5,0-1,0-1.5
			c0-0.2,0-0.4,0-0.6L314.7,477.4z M308.6,477.6c0,0.2,0,0.4,0,0.6c0,0.5,0.1,1,0,1.5c-0.3,0-0.6,0-0.9,0c-0.8,0-1.7,0-2.5,0.1
			c0-0.1-0.1-0.3-0.1-0.4c-0.1-0.6-0.3-1.1-0.4-1.7L308.6,477.6z M302.1,456.6c0,3,0.1,5.6,0.2,8.2c0.1,3.6,0.2,6.9,0.2,11.2
			c-0.7,0.1-1.3,0.3-1.9,0.5c-4.1,1.4-3.3,4.5-3,5.6c0.1,0.3,0.2,0.7,0.3,1c0.2,0.8,0.5,1.5,0.5,2.3c0,0.6-0.2,1.3-0.4,2
			c-0.3,1.2-0.7,2.6,0,3.9c-1.7,1.3-1.4,3.3-1.3,4.4c0.1,0.5,0.1,1,0.2,1.4c0.1,1,0.3,1.9,0.3,2.9c0,0.3,0,0.5,0.1,0.8
			c0.1,1.5,0.3,3.1-0.2,4.3c-0.1,0.3-0.3,0.6-0.5,0.9c-0.3,0.5-0.7,1.2-0.9,2.1c-0.1,0.5-0.1,1-0.1,1.5c0,0.4,0,0.9-0.1,1.2
			c-0.2,1-0.8,2.2-1.4,3.4c-3.5-0.1-7.1-0.1-10.8-0.1c0-0.1-0.1-0.1-0.1-0.2c-0.7-1.2-1.3-2.4-1.5-3.4c-0.1-0.4-0.1-0.8-0.1-1.3
			c0-0.5-0.1-1-0.2-1.5c-0.2-0.9-0.6-1.5-1-2c-0.2-0.3-0.4-0.5-0.5-0.8c-0.5-1.2-0.4-2.7-0.3-4.3c0-0.3,0-0.5,0.1-0.8
			c0-1,0.2-2,0.3-2.9l0.1-0.5c0.2-1.7,0.4-3.8-1.3-5.2c0.7-1.3,0.3-2.7-0.1-3.9c-0.2-0.7-0.4-1.3-0.4-1.9c0-0.8,0.2-1.5,0.4-2.3
			l0.1-0.4c0.9-3.4-0.2-5.5-3.5-6.3c-0.2,0-0.4-0.1-0.7-0.1c-0.3-7.2-0.4-10.9-0.5-17.6l0-1c4.3,1.5,8.7,2.3,13.1,2.3
			C292.1,459.6,297.2,458.6,302.1,456.6z M294.8,522.9c-0.1-0.4-0.5-1.7,2-3c8.1-4.2,19.1-4.5,26.8-0.5c0.9,0.5,1.4,1,1.7,1.4
			c0,0.1,0.1,0.2,0.1,0.2c0.1,0.3,0.1,0.6,0.1,0.9c-0.2,0.1-0.5,0.3-1,0.4c-6.6,2.3-21.1,2.8-28.7,1
			C295.5,523.1,295.1,523,294.8,522.9C294.8,522.9,294.8,522.9,294.8,522.9z M313.1,506.5c0.2,1.1,0.4,2.2,0.8,3.3
			c-1.2-0.3-2.5-0.4-3.9-0.3c-1.6,0.1-3,0.3-4.3,0.6c0.3-1,0.5-2,0.6-3.1C308.4,506.4,310.9,506.2,313.1,506.5z M306.5,505.1
			c0.1-1.4-0.1-2.8-0.4-4.2c2-0.6,4.5-0.6,7,0.1c-0.2,1.2-0.3,2.4-0.2,3.6C310.8,504.4,308.5,504.6,306.5,505.1z M310.1,511.4
			c1.6-0.1,3,0.2,4.4,0.5c0.4,1.1,0.8,2.1,1.2,3.1c-3.8-0.5-7.8-0.4-11.6,0.4c0.4-1.1,0.7-2.2,1.1-3.3
			C306.5,511.8,308.1,511.5,310.1,511.4z M227.6,531.7c1.1,1.1,2.4,2.3,3.9,3.5c-2.5-1-4.1-2.1-4.6-3.2
			C227.2,532,227.4,531.9,227.6,531.7z M227.7,528.9c-1.7-2.2-2.2-4.3-1.5-5.8c0.5-1.1,1.6-1.7,2.9-1.7c0.8,0,1.5,0.2,2.3,0.6
			c1,0.6,1.7,1.4,2.2,2c0.3,0.4,0.6,0.8,1.2,0.8l0.5,0l0.3-0.4c0.3-0.4,0.2-1,0.1-1.3c-0.4-1.3-0.5-2.5-0.3-3.6
			c0.3-2.4,1.7-3.8,3.5-3.8c1.7,0,3.6,1.3,3.8,3.7c0.1,0.9-0.1,2.6-0.2,3.3c0,0.2-0.2,0.8,0.2,1.3c0.4,0.5,1.2,0.5,1.8,0
			c0.3-0.3,0.6-0.6,1-0.9c2.7-2.4,5.6-2.8,7-0.9c0.3,0.5,0.5,1,0.5,1.7c0,1.2-0.4,2.6-1.2,4.2c-1.4,2.7-4.4,5.2-6.8,7.3
			c-0.4,0.4-0.8,0.7-1.2,1c-0.7,0.6-1.5,1.2-2.3,1.9c-0.3,0.2-0.6,0.3-1,0.3c-0.6,0-1-0.2-1.1-0.3
			C233.7,534.9,229.8,531.7,227.7,528.9z M270.6,506.9c0.2,1,0.4,2,0.7,3c-1.2-0.2-2.6-0.4-4.3-0.4c-1.4-0.1-2.7,0.1-3.9,0.4
			c0.3-1.1,0.5-2.2,0.7-3.4C266,506.3,268.5,506.4,270.6,506.9z M264,504.7c0-1.3-0.1-2.5-0.4-3.8c2.2-0.6,4.8-0.4,7,0.2
			c-0.2,1.3-0.3,2.6-0.2,3.9C268.4,504.6,266.1,504.4,264,504.7z M262.6,512c1.4-0.4,2.8-0.7,4.4-0.6c2,0.1,3.7,0.3,5,0.6
			c0.4,1.1,0.8,2.2,1.2,3.3c-3.8-0.7-7.9-0.7-11.6-0.1C261.8,514.2,262.2,513.1,262.6,512z M260.3,517.3
			C260.3,517.3,260.3,517.3,260.3,517.3c7.3-1.6,15.1-0.2,20.2,2.3c2.5,1.2,2.2,2.5,2.1,2.9c0,0,0,0,0,0.1c-0.3,0.1-0.6,0.2-1.1,0.4
			c-6.9,1.8-19.5,1.9-26.8,0.3c-0.1-0.8-0.4-1.5-0.8-2.1c-0.3-0.4-0.6-0.7-0.9-0.9c0.2-0.2,0.4-0.3,0.7-0.4
			C255.7,518.6,258,517.8,260.3,517.3z M283.9,525.1c0,2.7-0.9,5.5-1.4,5.8c-0.5,0.3-1.2,0.6-2,0.8c-5.8,1.6-20.3,2.1-27.4-0.2
			c-0.5-0.2-0.9-0.3-1.3-0.5c0.5-0.7,1-1.4,1.4-2.1c0.7-1.4,1.2-2.7,1.3-3.9c3.6,0.8,8.2,1.1,12.8,1.1c5.4,0,10.7-0.5,14.5-1.5
			c0.8-0.2,1.4-0.5,1.9-0.7C283.9,524.3,283.9,524.6,283.9,525.1z M244.8,537.8c0.4-0.3,0.8-0.7,1.2-1c1.5-1.3,3.2-2.7,4.7-4.3
			c0,0,0.1,0.1,0.1,0.1c0.5,0.3,1.1,0.5,1.8,0.8c3.5,1.1,8.8,1.6,14.2,1.6c5.4,0,10.9-0.5,14.2-1.5c1-0.3,1.8-0.6,2.4-1
			c1.6-0.9,2.3-5,2.3-6.9c0.1-1.6-0.2-2.8-0.6-3.5c0-0.2-0.1-0.3-0.2-0.4c0.2-0.6,0.3-1.1,0.3-1.7c2.3,0,4.6,0,6.8,0
			c0,0.7,0.1,1.4,0.3,2.1c-0.1,0.1-0.2,0.3-0.2,0.4c-0.5,0.8-0.6,2-0.5,3.6c0.1,2.2,1,6,2.5,6.8c0.7,0.4,1.5,0.7,2.4,0.9
			c2.8,0.7,7.4,1.1,12.3,1.1c5.8,0,12-0.6,16.1-2c0.7-0.2,1.2-0.5,1.8-0.8c1.4-0.9,2.1-4.6,2.2-6.9c0-0.5,0-1-0.1-1.5
			c10.3,2.3,14.1,5,14.1,6.8c0,5.1-23.8,11-58.1,11.2c-15.4,0.1-30.2-1-41.2-3.1C244.1,538.4,244.5,538.1,244.8,537.8z M326.9,523.2
			c0.1,0.3,0.2,0.8,0.2,1.5c0.1,2.7-0.8,5.5-1.3,5.9c-0.4,0.2-0.9,0.5-1.4,0.7c-7,2.5-21.5,2.3-27.3,0.9c-0.8-0.2-1.5-0.4-2-0.7
			c-0.5-0.3-1.5-3-1.6-5.8c0-0.5,0-0.9,0.1-1.2c0.6,0.3,1.3,0.5,1.9,0.7c3.3,0.8,7.7,1.2,12.3,1.2c6.5,0,13.3-0.8,17.4-2.2
			C326,523.8,326.5,523.5,326.9,523.2z M292.3,518.2c-2.4,0-4.8-0.1-7.3-0.1c-0.2-0.8-0.5-1.6-0.8-2.3c3,0,6.1,0,9,0.1
			C292.8,516.7,292.5,517.4,292.3,518.2z M274.6,486.7c-3.7-2.4-10.7-3-15.3,0.2c-1,0.7-1,1.7-0.8,3.2c0,0,0,0,0,0.1
			c-0.4,0.1-0.9,0.3-1.3,0.4c-0.6-0.7-0.4-1.5,0-2.9c0.2-0.8,0.5-1.6,0.5-2.5c0-1-0.2-1.8-0.4-2.7c0.8,0,1.6-0.2,2.3-0.4
			c0.3-0.1,0.6-0.2,0.9-0.2c2.1-0.3,3.7-0.5,5.6-0.4c0.8,0,1.6,0,2.4,0c2.8,0,5.7,0,8.2,0.9c-0.2,0.8-0.5,1.7-0.5,2.7
			c0,0.9,0.2,1.7,0.5,2.5c0.3,1.1,0.5,1.9,0.2,2.5c-0.4-0.1-0.8-0.3-1.2-0.4C275.9,488.1,275.8,487.4,274.6,486.7z M265.7,477.4
			C265.7,477.4,265.7,477.4,265.7,477.4c0,0.3,0,0.5,0,0.8c0,0.5,0,1,0,1.5c-1.5,0-2.8,0.1-4.1,0.2c0-0.4-0.1-0.9-0.1-1.4
			c0-0.3,0-0.6,0-0.9C262.7,477.4,264.2,477.4,265.7,477.4z M277.1,480.6c-1.1-0.4-2.3-0.6-3.5-0.8c0.1-0.6,0-1.3-0.1-2.2
			c0.5,0.1,0.9,0.1,1.2,0.2C276.4,478.4,277.1,479.1,277.1,480.6z M271.7,479.7c-1.1,0-2.1-0.1-3.2-0.1c-0.3,0-0.6,0-0.9,0
			c0-0.5,0-1,0-1.5c0-0.3,0-0.5,0-0.8c0,0,0,0,0,0c1.4,0,2.8,0.1,4,0.2c0,0,0,0.1,0,0.1C271.7,478.4,271.7,479.1,271.7,479.7z
			 M258.7,478.1c0.3-0.1,0.6-0.2,0.9-0.2c0,0.2,0,0.4,0,0.7c0,0.5,0,1.1,0.1,1.6c-0.2,0.1-0.5,0.1-0.7,0.2c-0.7,0.2-1.8,0.5-2.1,0.2
			c0,0-0.1-0.1-0.1-0.1C256.8,479.4,257.1,478.6,258.7,478.1z M253.7,514.1c0.6-1.2,1.3-2.4,1.6-3.7c0.1-0.5,0.1-1,0.2-1.5
			c0-0.4,0-0.8,0.1-1.1c0.1-0.5,0.4-0.9,0.7-1.4c0.2-0.3,0.4-0.6,0.6-1c0.8-1.6,0.6-3.4,0.5-5.1c0-0.3,0-0.5,0-0.8
			c-0.1-1.5-0.2-2.7-0.3-3.7c-0.3-2.6-0.3-3.1,0.8-3.6c0.3-0.2,0.7-0.3,1.2-0.4c0.3,0.8,0.7,1.5,1,2c0.2,0.3,0.5,0.4,0.8,0.4
			c0.2,0,0.4-0.1,0.5-0.2c0.4-0.3,0.5-0.9,0.2-1.3c-0.6-0.9-1.1-2.2-1.2-3c-0.1-1-0.1-1.3,0-1.4c3.9-2.7,10.1-2.2,13.2-0.2
			c0.4,0.3,0.5,0.3,0.3,1.6c-0.1,0.8-0.6,2.1-1.2,3c-0.3,0.4-0.2,1,0.2,1.3c0.4,0.3,1,0.2,1.3-0.2c0.4-0.6,0.8-1.5,1.2-2.3
			c0.5,0.2,1,0.4,1.5,0.5c1.4,0.6,1.5,1.5,1.2,3.9l-0.1,0.5c-0.1,1-0.2,2-0.3,3.1c0,0.3,0,0.5,0,0.8c-0.1,1.7-0.2,3.6,0.5,5.2
			c0.2,0.4,0.4,0.7,0.6,1c0.3,0.5,0.6,0.9,0.7,1.4c0.1,0.4,0.1,0.8,0.1,1.2c0,0.5,0.1,1,0.2,1.6c0.3,1.3,1,2.5,1.7,3.9
			c0.8,1.6,1.7,3.2,1.8,4.7c-0.5-0.5-1.2-1-2.1-1.5c-1.9-0.9-3.9-1.6-6-2.2c0,0,0-0.1,0-0.1l-0.3-0.8c-0.2-0.6-0.5-1.3-0.7-1.9
			c0,0,0,0,0,0c0.1,0.1,0.3,0.1,0.5,0.1c0.3,0,0.6-0.2,0.8-0.5c0.3-0.4,0.1-1-0.3-1.3c-0.5-0.3-1.1-0.6-1.8-0.8
			c-0.3-0.9-0.6-1.9-0.8-2.9c0.2,0.1,0.5,0.2,0.6,0.4c0.2,0.1,0.3,0.1,0.5,0.1c0.3,0,0.6-0.2,0.8-0.4c0.3-0.4,0.1-1-0.3-1.3
			c-0.6-0.3-1.2-0.7-2-0.9c0-0.2-0.1-0.4-0.1-0.6c-0.1-1.1,0-2.1,0.2-3.2c0.8,0.3,1.4,0.7,1.9,1.1c0.2,0.2,0.4,0.3,0.6,0.3
			c0.2,0,0.5-0.1,0.7-0.3c0.3-0.4,0.3-1,0-1.3c-0.7-0.6-1.6-1.2-2.8-1.6c0.3-1.3,0.7-2.6,1.1-3.9l0.2-0.5c0.2-0.5-0.1-1-0.6-1.2
			c-0.5-0.2-1,0.1-1.2,0.6l-0.2,0.5c-0.4,1.3-0.8,2.6-1.1,3.9c-2.4-0.6-5.3-0.8-7.8-0.1c-0.3-1.1-0.6-2.3-1-3.4l-0.3-0.9
			c-0.2-0.5-0.7-0.8-1.2-0.6c-0.5,0.2-0.8,0.7-0.6,1.2l0.3,0.9c0.4,1.1,0.7,2.3,1,3.4c-0.6,0.3-1.2,0.6-1.8,1.1
			c-0.4,0.3-0.5,0.9-0.1,1.3c0.3,0.4,0.9,0.5,1.3,0.1c0.3-0.2,0.6-0.5,1-0.6c0.2,1.1,0.3,2.3,0.3,3.4c-0.9,0.3-1.8,0.6-2.5,1.1
			c-0.4,0.3-0.6,0.8-0.3,1.3c0.3,0.4,0.8,0.6,1.3,0.3c0.4-0.2,0.8-0.5,1.3-0.6c-0.2,1.2-0.5,2.3-0.8,3.5c0,0-0.1,0-0.1,0
			c-0.5,0.1-1,0.3-1.5,0.4c-0.5,0.1-0.8,0.6-0.7,1.1c0.1,0.5,0.6,0.8,1.1,0.7c0.2,0,0.3-0.1,0.5-0.1c-0.3,0.9-0.6,1.7-0.9,2.6
			l-0.1,0.4c-2.3,0.6-4.6,1.4-6.6,2.5c-0.3,0.1-0.5,0.3-0.7,0.4C252.1,517.1,252.9,515.6,253.7,514.1z M250.2,517.8
			c-0.1,0.4-0.1,0.9,0,1.4c-0.1,0-0.2,0-0.3,0c-1.8,0-3.7,0.8-5.5,2.3c0.1-0.7,0.1-1.6,0.1-2.2c0-0.3-0.1-0.5-0.1-0.7
			C246.3,518.3,248.2,518,250.2,517.8z M207.5,516.8c-3.4-4.4-2.9-7.8-1.4-9.5c1.6-1.9,4.5-2.1,7.1-0.7c1.4,0.8,2.5,2,3.2,2.9
			c0.3,0.4,1,1.2,1.8,0.8c0.8-0.4,0.5-1.4,0.4-1.8c-0.5-1.9-0.7-3.7-0.5-5.2c0.6-4.2,3.2-5.6,5.5-5.6c2.5,0.1,5.2,2,5.5,5.5
			c0.1,1.3-0.1,3.8-0.3,4.7c-0.2,1.1,0.2,1.6,0.6,1.8c0.5,0.3,1.1,0.1,1.6-0.4c0.5-0.5,0.9-0.9,1.3-1.3c2.5-2.2,5.1-3.3,7.2-3
			c1.3,0.1,2.3,0.8,3.1,1.8c0.5,0.7,0.8,1.6,0.8,2.6c0,1.6-0.4,3.4-1.4,5.4c-0.9-0.6-2-1-3.1-1c-2.1,0-4.8,1.4-5.4,5.4
			c-0.1,0.6-0.1,1.3-0.1,2c-0.3-0.3-0.7-0.6-1.1-0.8c-1-0.6-2.1-0.9-3.2-0.9c-2,0-3.7,1-4.6,2.7c-1.1,2.2-0.5,5,1.6,7.8
			c0.1,0.1,0.1,0.2,0.2,0.3c-1.4,0.6-2.8-0.3-2.8-0.3C215.9,525.2,210.5,520.8,207.5,516.8z M356.6,531.1c0,7.4-28.9,15.3-71.8,15.3
			c-43,0-71.8-7.9-71.8-15.3c0-1.3,1-2.7,2.9-4.1c2,1.5,4.2,3,6.7,4.5c0.4,0.3,1.3,0.6,2.4,0.7c0.9,2.5,4.8,4.8,11.7,6.6
			c0.5,0.3,1,0.6,1.5,0.9c0.3,0.2,1.2,0.6,2.1,0.6c0.5,0,1-0.1,1.5-0.3c10.9,2.2,25.5,3.4,41.2,3.4c0.7,0,1.3,0,2,0
			c29.1-0.2,60-4.8,59.9-13.1c0-3.6-5.6-6.5-16.6-8.8c-0.2-0.3-0.4-0.5-0.6-0.7c0,0-0.1,0-0.1-0.1c0,0-0.1,0-0.1,0
			c0-0.2-0.1-0.4-0.2-0.6c0.1-0.5,0.2-0.9,0.2-1.4C348.9,522.4,356.6,527.5,356.6,531.1z M321.4,507.4c0.1,0.3,0.1,0.7,0.2,1.2
			c0,0.5,0.1,1,0.2,1.5c0.4,1.2,1.1,2.4,1.8,3.7c0.8,1.5,1.7,3,1.9,4.4c-0.3-0.2-0.6-0.4-1-0.6c-2-1-4.3-1.8-6.6-2.3l-0.1-0.4
			c-0.3-0.9-0.7-1.7-1-2.6c0.2,0,0.3,0.1,0.5,0.1c0.5,0.1,1-0.2,1.1-0.7c0.1-0.5-0.2-1-0.7-1.1c-0.5-0.1-1-0.3-1.6-0.4
			c0,0-0.1,0-0.1,0c-0.4-1.1-0.7-2.3-0.9-3.4c0.5,0.2,0.9,0.4,1.3,0.6c0.4,0.3,1,0.1,1.3-0.3c0.3-0.4,0.1-1-0.3-1.3
			c-0.7-0.4-1.6-0.8-2.5-1c-0.1-1.1,0-2.2,0.1-3.3c0.4,0.2,0.8,0.3,1.1,0.6c0.4,0.2,1,0.1,1.3-0.4c0.2-0.4,0.1-1-0.4-1.3
			c-0.6-0.3-1.1-0.6-1.7-0.8c0.3-1.2,0.6-2.4,0.9-3.6l0.3-0.9c0.1-0.5-0.2-1-0.6-1.1c-0.5-0.1-1,0.1-1.1,0.6l-0.3,0.9
			c-0.3,1.1-0.6,2.3-0.9,3.5c-2.7-0.7-5.5-0.7-7.8,0c-0.3-1.2-0.7-2.4-1.2-3.6l-0.2-0.5c-0.2-0.5-0.7-0.7-1.2-0.6
			c-0.5,0.2-0.7,0.7-0.6,1.2l0.2,0.5c0.4,1.2,0.8,2.4,1.2,3.7c-1.1,0.5-2,1.2-2.7,2c-0.3,0.4-0.3,1,0.1,1.3c0.2,0.2,0.4,0.2,0.6,0.2
			c0.3,0,0.5-0.1,0.7-0.3c0.4-0.5,1-1,1.8-1.3c0.2,1.1,0.3,2.3,0.3,3.4c0,0.2,0,0.4,0,0.6c-0.7,0.3-1.4,0.6-1.9,1
			c-0.4,0.3-0.5,0.9-0.3,1.3c0.2,0.3,0.5,0.4,0.8,0.4c0.2,0,0.4,0,0.5-0.2c0.2-0.1,0.4-0.3,0.6-0.4c-0.2,1-0.4,1.9-0.7,2.9
			c-0.7,0.2-1.3,0.5-1.8,0.8c-0.4,0.3-0.6,0.8-0.3,1.3c0.2,0.3,0.5,0.4,0.8,0.4c0.2,0,0.3,0,0.5-0.1c0,0,0,0,0,0
			c-0.2,0.7-0.4,1.3-0.7,2l-0.3,0.8c0,0,0,0.1,0,0.1c-2.1,0.6-4.1,1.3-6,2.3c-0.9,0.5-1.6,1-2.1,1.6c0.1-1.5,0.9-3.2,1.7-4.8
			c0.7-1.4,1.3-2.6,1.6-4c0.1-0.5,0.1-1.1,0.1-1.5c0-0.4,0-0.8,0.1-1.2c0.1-0.6,0.4-1,0.7-1.4c0.2-0.3,0.4-0.7,0.6-1.1
			c0.7-1.6,0.5-3.5,0.4-5.2c0-0.3,0-0.5-0.1-0.8c-0.1-1-0.2-2.1-0.4-3.1c-0.1-0.5-0.1-0.9-0.2-1.4c-0.2-1.6-0.1-2.5,1.1-3
			c0.5-0.2,1-0.4,1.6-0.6c0.3,0.9,0.8,1.7,1.2,2.3c0.2,0.3,0.5,0.4,0.8,0.4c0.2,0,0.4-0.1,0.5-0.2c0.4-0.3,0.5-0.9,0.2-1.3
			c-0.7-0.9-1.2-2.2-1.3-3c-0.2-1-0.1-1.3-0.1-1.4c1.3-1.8,9.7-3.2,13.6-0.4c0,0.1,0.1,0.4,0,1.4c-0.1,0.8-0.6,2.1-1.2,3.1
			c-0.3,0.4-0.2,1,0.3,1.3c0.4,0.3,1,0.1,1.3-0.3c0.3-0.5,0.7-1.2,1-2c0.4,0.1,0.7,0.2,1.1,0.3c0.3,0.1,1.3,0.5,1,3.3l-0.1,1
			c-0.1,1-0.2,2-0.2,3c0,0.3,0,0.5,0,0.8c-0.1,1.6-0.1,3.5,0.7,5.1c0.2,0.4,0.4,0.7,0.7,1C321,506.5,321.2,506.9,321.4,507.4z
			 M319.4,480.2c-0.5,0.2-1.7,0-2.3-0.2c-0.2,0-0.4-0.1-0.6-0.1c0-0.5,0.1-1.1,0.1-1.6c0-0.2,0-0.5,0-0.7c0,0,0,0,0.1,0
			C318.6,478.1,319.4,478.8,319.4,480.2z M313.3,457.7c0.1,5.9,0.2,11.5,0.1,17.9l-9,0.2c0-4.2-0.1-7.6-0.2-11.1
			c-0.1-2.7-0.2-5.5-0.2-8.9c3.2-1.4,6.3-3.3,9.3-5.5C313.2,452.9,313.2,455.4,313.3,457.7z M315.5,446.1c-3.9,3.5-8.2,6.3-12.8,8.3
			c0,0-0.1,0-0.1,0.1c-5,2.2-10.3,3.3-15.5,3.3c-4.5,0-9.2-0.9-13.7-2.6c0,0-0.1,0-0.1,0c-5.1-1.9-10.1-4.9-14.4-8.8
			c-9.7-8.7-23-28.3-2.3-62.2c0.7-1.1,1.4-2.2,2.1-3.2c9.6,3.6,20,5.5,30.3,5.5c6.4,0,12.8-0.7,18.8-2.3c2.4-0.6,4.8-1.3,7-2.2
			c1,1.4,2,2.7,2.9,4c5.4,8.2,8.8,19.6,8.9,30.6C326.7,429,322.8,439.4,315.5,446.1z M344.6,381.3c1.6,14.6-1.8,31.5-16.2,38.6
			c0.3-5.8-0.3-11.8-1.7-17.5C334,396.2,339.8,389.4,344.6,381.3z M325.4,434.5c1.5-4,2.5-8.3,2.9-12.7c0,0,0,0,0.1,0
			c0.1,0,0.3,0,0.4-0.1c16.5-7.7,19.8-27.3,17.4-43.2c2.4-4.4,4.5-9.2,6.5-14.5c2.2,5.3,3.6,11.3,4.5,18.6
			C359.7,406,345,430.1,325.4,434.5z M367.9,335.2c-1.7,1.3-4,1.1-6.5-0.4c-0.7-0.5-1.5-0.6-2.1-0.3c-0.4,0.2-0.8,0.5-1,1.4
			c-0.9,4.8-4,17.6-6.7,25.2c-6,17.2-13.7,29.1-25.5,39.2c-1.1-4-2.7-7.9-4.6-11.4c13.1-11.1,20.7-26.2,27-53.3l0.1-0.4
			c0.9-3.6,1-4.9,0.3-5.6c-0.3-0.3-0.9-0.7-1.9-0.4c-3.3,0.9-5.8,0.3-7-1.9c-1.4-2.5-0.7-6.4,1.4-8.4c1.9-1.7,4.6-1.6,7.6,0.5
			c0.8,0.6,1.7,1.1,2.5,0.7c0.7-0.4,0.7-1.3,0.6-2c0-0.2,0-0.4,0-0.7c0-0.5,0-0.9,0.1-1.4c0.1-0.4,0.1-0.8,0.3-1.2
			c1.6-5.7,6.2-5.1,7.6-4.8c3.3,0.8,6.4,3.6,5.7,7c-0.2,0.9-0.6,1.9-1.3,2.8c-0.2,0.2-0.4,0.4-0.5,0.6c-0.6,0.7-1.2,1.4-0.9,2.2
			c0.3,0.8,1.3,1,1.7,1.1c3.9,0.6,5.1,3.3,5.4,4.8C370.7,331,369.8,333.9,367.9,335.2z"/>
		<path fill="#040700" d="M326.3,348c0,4.2,3.4,7.6,7.6,7.6c4.2,0,7.6-3.4,7.6-7.6c0-4.2-3.4-7.6-7.6-7.6
			C329.7,340.3,326.3,343.8,326.3,348z M333.9,342.2c3.2,0,5.8,2.6,5.8,5.8c0,3.2-2.6,5.8-5.8,5.8c-3.2,0-5.8-2.6-5.8-5.8
			C328.2,344.8,330.7,342.2,333.9,342.2z"/>
		<path fill="#040700" d="M286.6,391.4c-11.2,0-21.1,5.1-26.5,13.5c-4.5,7-5.4,16-2.6,24.6c4.2,12.9,14.8,20.6,28.4,20.6
			c17.3,0,28.8-11.3,31.1-22.5c1.8-8.3-0.1-17.2-4.8-23.9C306.6,396,297.1,391.4,286.6,391.4z M315.2,427.2
			c-2.2,10.5-13,21.1-29.3,21.1c-12.7,0-22.7-7.2-26.6-19.3c-2.6-8.1-1.7-16.5,2.4-23.1c5-7.9,14.4-12.7,24.9-12.7
			c9.9,0,18.9,4.3,24,11.5C315.1,411,316.8,419.4,315.2,427.2z"/>
		<path fill="#040700" d="M232.5,348c0,4.2,3.4,7.6,7.6,7.6c4.2,0,7.6-3.4,7.6-7.6c0-4.2-3.4-7.6-7.6-7.6
			C235.9,340.3,232.5,343.8,232.5,348z M240.1,342.2c3.2,0,5.8,2.6,5.8,5.8c0,3.2-2.6,5.8-5.8,5.8c-3.2,0-5.8-2.6-5.8-5.8
			C234.4,344.8,236.9,342.2,240.1,342.2z"/>
		<path fill="#040700" d="M221.2,533.1C221.1,533,221,533,221.2,533.1L221.2,533.1z"/>
		<path fill="#040700" d="M229.1,511C228.7,510.8,228.5,510.8,229.1,511L229.1,511z"/>
	</g>
</g>
</svg>
