<?xml version="1.0" encoding="utf-8"?>
<!-- Generator: Adobe Illustrator 18.1.1, SVG Export Plug-In . SVG Version: 6.00 Build 0)  -->
<svg version="1.1" xmlns="http://www.w3.org/2000/svg" xmlns:xlink="http://www.w3.org/1999/xlink" x="0px" y="0px"
	 viewBox="0 0 595.3 841.9" enable-background="new 0 0 595.3 841.9" xml:space="preserve">
<g id="Preenchimento">
	<path fill="#FFFFFF" d="M280.2,512.6l0-0.6l-0.6,0c-2.3,0-4.4-0.1-6.5-0.2c-5.8-0.4-11.3-1.7-16.4-4.1l-1.3-0.6l0.4,1.3
		c0.6,2.3,1.2,4.9,1.4,6.2c1,6.1,1.6,12.5,2.2,18.2c0.6,6,1.1,11.1,1.9,14.7c1.1,4.7,5.3,6.4,8.5,6.4l0.2,0c3.2-0.1,7.3-1.9,8.2-6.8
		C279,542.6,280.6,527.8,280.2,512.6z"/>
	<path fill="#FFFFFF" d="M246.4,501.1c-4.9-4.3-8.5-9.5-10.7-15.5c-8.4-22.7-0.9-53.6,4.4-70.1l0.1-0.3l-0.2-0.3
		c-14.6-17.2-10.2-45.9-2.7-60l0.2-0.4l-0.3-0.3c-15.5-16.9-19.1-16.9-20.3-16.9l-0.5,0c-8.3,0-17.9,13.4-24.5,34.1
		c-11.1,34.9-14.8,95.8,20.7,120.7c8.2,5.8,18.1,9.2,29.6,10.2c1.1,0,2.5,0,3.8,0.1l1.8,0.1L246.4,501.1z"/>
	<path fill="#FFFFFF" d="M308.2,539.3l-0.5,0l-0.2,0.4c-1.7,3.8-4.8,5.9-8.4,5.9l-0.2,0c-3.9-0.1-7.4-2.5-8.3-5.8
		c-0.1-0.3-0.2-0.7-0.3-1.1l-0.1-0.5l-0.5,0c-3.1,0-6.3,0-9.3,0.1l-0.6,0l-0.1,0.6c-0.3,3.4-0.7,6.5-1,8.2c-0.8,4.3-4.2,7.1-8.6,7.2
		l-0.2,0c-3.7,0-7.9-2.1-9-6.7c-0.4-1.8-0.8-4.1-1.2-7.4l-0.1-0.6l-0.6,0.1c-3.1,0.3-6.1,0.8-8.8,1.2l-0.5,0.1l0,0.5
		c0,1.5-0.5,3.1-1.4,4.8c-1.6,3.1-4.9,5.8-7.5,8l-1,0.8l1.2,0.3c10.7,2.9,27.9,4.6,46.1,4.6c31.3,0,56.8-4.9,56.8-10.9
		C343.8,545.3,329.5,541.4,308.2,539.3z"/>
	<path fill="#FFFFFF" d="M261.7,428c-0.8-0.2-1.5-0.5-2.3-0.7l-0.5-0.2l-0.3,0.4c-1.4,2-2.8,4.1-4,6.3l-0.3,0.5l0.5,0.3
		c0.6,0.4,1.3,0.9,1.9,1.5l0.6,0.6l0.4-0.7c1.4-2.4,2.8-4.8,4.3-7l0.5-0.7L261.7,428z"/>
	<path fill="#FFFFFF" d="M310,507.3l0-1l-0.9,0.4c-5.9,2.7-12.9,4.4-21,5l-0.7,0.1l0.1,0.7c0.5,4,0.9,7.9,1.3,11.6
		c0.6,6.5,1.2,12.1,2.2,15.6c0.8,3,4.3,5.4,7.9,5.5l0.3,0c3.9,0,7-2.5,8.5-7C309.1,533.8,310.4,521.1,310,507.3z"/>
	<path fill="#FFFFFF" d="M289.9,537c-0.2-1.2-0.4-2.6-0.6-4.3l-0.1-0.6l-0.6,0c-2.1,0-4.2-0.1-6.4-0.1l-2,0l0,0.6
		c-0.1,1.6-0.2,3.1-0.3,4.5l-0.1,0.7l0.7,0c2.9-0.1,5.8-0.1,8.8-0.1l0.8,0L289.9,537z"/>
	<path fill="#FFFFFF" d="M357.1,384.2c-4.3-10.2-9.5-19.2-15.5-26.7l-0.4-0.5l-0.5,0.4c-37.4,31.9-33.7,67.7-33.2,71.7l0.1,0.6
		l2.3-0.2c0.3,0,8.4,0,18.4,3.9l0.9,0.3l0-1c0-5.1,1.5-31.3,27.7-47.8l0.5-0.3L357.1,384.2z"/>
	<path fill="#FFFFFF" d="M293.9,484.1c-0.9-2.4-2.6-4.9-4.9-7.3c-1.1-1.2-2.8-2.9-4.7-4.6l-0.2-0.2c-3.3-3.2-7.1-6.9-8.5-8.7
		c-3.8-4.9-7.3-10.3-10.5-15.1c-2.1-3.1-4.1-6.1-5.8-8.5c-3.1-4.2-6.6-6.5-10-6.5c-2.1,0-4,0.9-5.4,2.6c-1.8,2.2-2.6,5.4-2,8.9
		c2,11.4,13.8,38.6,30.3,52.1c0.7,0.6,1.5,1.1,2.3,1.6c2.4,1.5,5,2.3,7.6,2.3c4.2,0,8.1-2.1,10.5-5.6
		C294.7,491.7,295.2,487.7,293.9,484.1z"/>
	<path fill="#FFFFFF" d="M259.5,538.5c-0.2-1.6-0.3-3.3-0.5-5l-0.1-0.6l-0.6,0c-6.7,0.5-13.1,1.2-19.1,2.1l-0.7,0.2l0.1,0.7
		c0,0.2,0.1,0.4,0.1,0.6c0,0.6,0,1.4-0.1,2.4l-0.2,1.6l1.2-1.1c1.9-1.6,3.8-2.5,5.5-2.5c1.4,0,2.7,0.6,3.5,1.7
		c0.3,0.3,0.4,0.7,0.6,1.2l0.2,0.5l0.6-0.1c2.7-0.5,5.7-0.9,8.8-1.2l0.6-0.1L259.5,538.5z"/>
	<path fill="#FFFFFF" d="M257,388.2c-4.6,0.1-8.3,3.8-8.2,8.4c0.1,4.4,3.8,8,8.2,8l0.2,0c2.2,0,4.2-0.9,5.7-2.5
		c1.5-1.6,2.3-3.6,2.3-5.8C265.1,391.8,261.5,388.2,257,388.2z"/>
	<path fill="#FFFFFF" d="M257.7,426.7c-4.1-1.6-7.8-3.4-11-5.6c-2-1.4-3.8-2.9-5.5-4.7l-0.8-0.8l-0.3,1.1
		c-5.1,16.1-12.3,46.5-4.1,68.8c0.9,2.6,2.2,5,3.7,7.4l1.4,2.2l-0.2-2.6c-0.7-8.8-0.2-17.9,1.5-27.2c0.5-3,1.3-6,2.1-9l0.1-0.2
		l-0.1-0.2c-1.6-4.2-2.7-8.1-3.3-11c-0.6-3.6,0.1-6.9,2.1-9.2c2.4-2.8,6.2-3.6,10-1.6l0.5,0.3l0.3-0.5c1.2-2,2.5-4,3.8-5.9l0.5-0.7
		L257.7,426.7z"/>
	<path fill="#FFFFFF" d="M247.4,462.5c-0.6-1.4-1.2-2.7-1.7-4l-0.7-1.8l-0.5,1.9c-0.7,2.6-1.1,4.7-1.5,6.7
		c-2.6,14.3-1.7,24.7-1.4,28.6c0.1,0.7,0.1,1.1,0.1,1.4l0,0.2l0.1,0.2c0.5,0.6,1,1.2,1.5,1.8l1.2,1.3l0-1.8c0-0.7,0-1.6-0.1-2.4
		c-0.2-4.4-0.4-11.9,0.7-19.7c0.6-4,1.4-8.1,2.3-12l0.1-0.2L247.4,462.5z"/>
	<path fill="#FFFFFF" d="M252.2,323.1c-3.7-3.6-8.2-4.7-12.6-3.3c-2.2,0.7-4,2.3-5.3,4.5c-3,5.3-1,10.2,6.2,14.9l1,0.7l0-1.2
		c0-0.4,0.1-0.7,0.2-1c0.3-0.5,0.7-0.8,1.1-0.9c0.6-0.1,1.2,0.3,1.6,0.6c0.4,0.3,0.6,0.6,0.9,0.9c0.5,0.6,0.9,1,1.5,1
		c0.3,0,0.5-0.1,0.7-0.1c0.4-0.2,0.7-0.4,0.8-0.6c0.2-0.4,0-0.9-0.3-1.7c-0.1-0.3-0.3-0.7-0.3-1c-0.2-0.8-0.1-1.5,0.4-1.8
		c0.3-0.2,1-0.3,1.8,0.1c0.5,0.3,0.8,0.7,1.1,1.1c0.5,0.6,0.9,1,1.4,1c0.3,0,0.5-0.1,0.7-0.2c0.9-0.5,0.7-1.4,0.4-2.5
		c-0.4-1.6-0.5-3,1.6-3.7l0.7-0.2l-0.2-0.6C254.4,325.6,252.4,323.4,252.2,323.1z"/>
	<path fill="#FFFFFF" d="M293.4,316.7c-0.5-5.2-2.9-8.8-7.3-10.5c-1.5-0.6-3.1-0.9-4.7-0.9c-3.7,0-7,1.5-8.8,3.8
		c-1.4,1.9-1.8,4.3-1,6.9c0.7,2.4,2.5,4.4,3.9,5.6c0.4,0.3,0.7,0.7,1,1l0.7,0.7l0.4-0.9c0.1-0.2,0.2-0.4,0.3-0.5
		c0.4-0.4,0.9-0.6,1.5-0.6c0,0,0,0,0,0c0.7,0,1.3,0.4,1.9,1c0.3,0.3,0.5,0.7,0.7,1.1c0.4,0.7,0.7,1.3,1.6,1.3c0.1,0,0.2,0,0.4,0
		c0.4-0.1,0.7-0.2,0.9-0.4c0.3-0.4,0.2-0.9,0.1-1.7c-0.1-0.3-0.1-0.7-0.1-1c0-0.8,0.3-1.5,0.8-1.7c0.1,0,0.2-0.1,0.4-0.1
		c0.4,0,0.8,0.2,1.3,0.6c0.4,0.4,0.6,0.9,0.9,1.3c0.4,0.7,0.7,1.3,1.4,1.3c0.2,0,0.3,0,0.5-0.1c1-0.3,1-1.3,1-2.5
		c-0.1-1.6,0-3,1.9-3.3l0.6-0.1L293.4,316.7z"/>
	<path fill="#FFFFFF" d="M415.3,406.3l-2-5.2l-0.1,7.5c0.4,1.7,0.1,3.5-0.7,5.2c-0.8,1.6-2.3,2.6-4.3,2.9c-0.8,0.1-1.6,0-2.5-0.3
		c-2.9-1.1-2.9-2.7-2.9-4.6c0-0.4,0-0.9,0-1.3c-0.1-0.7-0.2-1-0.3-1.2l-0.6-1.1l-0.9,0.4l-0.4,0.8c-0.1,0.2-0.2,0.4-0.2,0.7
		c-0.9,3.6,0,6.5,2.7,8.3c1.5,1,3.3,1.6,5,1.6c0.4,0,0.8,0,1.2-0.1c2.8-0.4,5-2.5,6.3-5.7C416.7,411.3,416,408.3,415.3,406.3z"/>
	<path fill="#FFFFFF" d="M410.8,419.5l-0.9,0.2c-0.2,0.1-0.4,0.1-0.7,0.2c-0.9,0.1-1.8,0.1-3.1-0.1l-0.8-0.2l0,0.8
		c-0.1,2.5-0.2,4.3-0.2,5.7c0,1.3,0.7,2,1.4,2.3c0.4,0.2,0.9,0.3,1.3,0.3c0.7,0,1.4-0.2,1.8-0.6c0.8-0.6,0.7-2.8,0.7-2.8l0.4-4.8
		L410.8,419.5z"/>
	<path fill="#FFFFFF" d="M411.6,401.1c-1.3,0.1-2.5,0.1-4.2-0.1l-0.7-0.1l-0.1,0.7c-0.2,2.4-0.7,8.5-1.1,14.3l0,0.5l0.5,0.1
		c0.5,0.1,1,0.2,1.4,0.2c0.2,0,0.4,0,0.6-0.1c1.1-0.2,2.1-0.6,2.8-1.2l0.2-0.2l1.2-14.3L411.6,401.1z"/>
	<path fill="#FFFFFF" d="M422.2,374.1l0.3,0.1l-1.2-1.5l-1.3-1.9l0.1,0.4c-2-2.1-4.7-3.5-7.5-4.1c-0.8-0.1-1.6-0.2-2.4-0.2
		c-6.7,0-12.4,4.8-13.6,11.4c-0.6,3.1,0,6.2,1.5,9l0.4,0.8l15.5-14.6c0,0,0.1,0,0.2,0.1c0.1,0.1,0.1,0.2,0,0.3l-15.4,14.6l0.3,0.5
		c2.1,2.9,5.2,4.9,8.8,5.5c0.8,0.1,1.6,0.2,2.4,0.2c6.7,0,12.4-4.8,13.6-11.4C424.3,380.1,423.7,376.9,422.2,374.1z M420.3,373.7
		l-15.7,14.7c0,0-0.1,0-0.2-0.1c-0.1-0.1-0.1-0.2,0-0.3l15.5-14.7l0.2,0l0.1,0l0,0.1C420.4,373.5,420.4,373.6,420.3,373.7z"/>
	<path fill="#FFFFFF" d="M405.5,402.9c-15.6-1-17.7,12.7-20,27.3c-2,12.6-4.4,28.3-18.6,26.6l0.5,0.4c-0.3,0.5-0.6,1-1,1.4l-2.3,1
		c1.7,0.6,10.2,0.8,14.1-1.7c7.4-4.8,9.1-15.7,10.8-26.3c1.9-12.2,3.9-24.8,15.7-24.8c0.2,0,0.4,0,0.7,0l1,0l0.3-3.8L405.5,402.9z"
		/>
	<path fill="#FFFFFF" d="M413.6,361.3c-1.2-0.2-2.3-0.3-3.5-0.3c-9.6,0-17.9,6.9-19.6,16.4c-0.9,5.2,0.2,10.5,3.3,14.9
		c3,4.4,7.6,7.3,12.8,8.2c1.2,0.2,2.3,0.3,3.5,0.3c9.6,0,17.9-6.9,19.6-16.4C431.6,373.5,424.4,363.2,413.6,361.3z M424.2,383.3
		c-1.2,6.8-7.1,11.8-14.1,11.8c-0.8,0-1.7-0.1-2.5-0.2c-7.8-1.4-12.9-8.8-11.6-16.6c1.2-6.8,7.1-11.8,14-11.8c0.8,0,1.7,0.1,2.5,0.2
		C420.4,368.1,425.5,375.6,424.2,383.3z"/>
	<path fill="#FFFFFF" d="M367.3,417.9l-0.2-1l-0.8,0.6c-11.3,8.2-17.8,19.1-20.1,26.6l-0.1,0.4l0.3,0.3c0.6,0.5,1.1,1.1,1.7,1.6
		c0.6,0.6,1.4,1.6,2.3,2.8c2.9,3.7,7.8,9.9,11.8,10.8c0.3,0.1,0.7,0.1,1,0.1c0.5,0,0.9-0.1,1.3-0.2
		C374.1,456.2,368.5,424.3,367.3,417.9z"/>
	<path fill="#FFFFFF" d="M331.9,449.2c-0.8-6.1-1.9-11.3-2.7-14.6l-0.1-0.3l-0.3-0.1c-10.1-4.1-18.5-4.2-18.9-4.2
		c-7.1,0.7-14.1,1.1-21,1.1c-13,0-20.8-1.3-20.9-1.3c-1.4-0.3-3-0.7-4.6-1.2l-0.4-0.1l-0.3,0.4c-1.8,2.5-3.4,5.2-4.9,7.9l-0.2,0.4
		l0.3,0.3c0.6,0.7,1.2,1.3,1.6,2c1.8,2.4,3.8,5.4,5.9,8.6c3.1,4.7,6.7,10,10.5,15c1.3,1.7,5.1,5.4,8.5,8.7c1.9,1.9,3.7,3.6,4.9,4.8
		c2.4,2.5,4.1,5,5,7.5c1.4,3.8,0.9,7.9-1.5,11.3c-2.5,3.6-6.6,5.8-10.9,5.8c-2.7,0-5.3-0.8-7.8-2.4c-0.8-0.5-1.5-1-2.3-1.6
		c-11.3-9.3-19.4-24-23.2-32l-0.8-1.7l-0.4,1.8c-0.8,3.5-1.4,6.7-1.8,9.8c-1.1,7.8-0.9,15.2-0.7,19.6c0.1,2.3,0.1,3.5,0,3.9
		l-0.1,0.4l0.3,0.3c7.2,7.1,17.2,11.5,28.1,12.2c2.6,0.2,5.2,0.3,7.7,0.3c0,0,0,0,0,0c18.1,0,31.7-4.7,40.4-13.9
		C331,487.2,334.6,470.9,331.9,449.2z"/>
	<path fill="#FFFFFF" d="M238.2,522.9c-0.9-1.3-2.2-2-3.8-2.2c-2.5-0.3-5.4,0.9-8.2,3.4c-0.5,0.4-1,0.9-1.5,1.4
		c-0.3,0.3-0.6,0.4-0.8,0.3c-0.1-0.1-0.4-0.2-0.2-1.1c0.2-1,0.5-3.6,0.3-5.1c-0.3-4.2-3.5-6.4-6.5-6.5l-0.2,0
		c-2.6,0-5.6,1.7-6.4,6.6c-0.2,1.7-0.1,3.6,0.5,5.8c0.2,0.6,0.2,0.9-0.2,1.1c-0.3,0-0.6-0.5-0.8-0.7c-0.8-1-2-2.4-3.6-3.3
		c-2.9-1.7-6.5-1.3-8.4,0.8c-1.8,2-2.3,6,1.5,11c3.3,4.3,9.1,9,17.3,14.2c0,0,1,0.6,2.3,0.6c0.6,0,1.1-0.1,1.5-0.3l0.7-0.4l-0.8-1
		c-2.1-2.7-2.7-5.4-1.7-7.4c0.7-1.5,2.3-2.4,4.1-2.4c1,0,2,0.3,3,0.8c0.4,0.2,0.9,0.6,1.3,0.9l1.2,1.1l-0.2-1.7
		c-0.1-0.8-0.1-1.5,0-2.2c0.5-3.7,3-5,4.9-5c1,0,2,0.3,2.9,1l0.6,0.4l0.3-0.7c1.1-2.3,1.7-4.4,1.6-6.1
		C239.1,524.8,238.8,523.8,238.2,522.9z"/>
	<path fill="#FFFFFF" d="M309.8,533.1l-0.6-0.1l-0.1,0.6c-0.3,1.8-0.6,3.3-0.9,4.4l-0.2,0.8l0.8,0.1c21.9,2.2,35.6,6.1,35.6,10.2
		c0,6.4-25.1,11.4-57.2,11.4c-18.6,0-36-1.8-46.7-4.7l0.4-1.5l-1.6,1.4c-0.9,0.7-1.6,1.4-2.2,1.8c-0.5,0.4-1.1,0.6-1.8,0.6
		c-1,0-1.8-0.5-1.9-0.5c-4.8-3-8.5-5.9-11-8.6l-0.4-0.4l-0.5,0.3c-0.6,0.4-1.3,0.6-2.1,0.6c-1.2,0-2.1-0.4-2.5-0.7
		c-2.5-1.6-4.9-3.2-7.1-4.8l-0.4-0.3L209,544c-2.3,1.6-3.5,3.3-3.5,5c0,9.3,34.4,16.9,76.7,16.9c42.3,0,76.7-7.6,76.7-16.9
		C359,540.9,334.3,535.2,309.8,533.1z"/>
	<path fill="#FFFFFF" d="M341.1,458.9c-1.8-1.6-4.3-3.2-7.2-4.9l-1.1-0.6l0.1,1.2c0.8,9.8,0.1,18.5-1.9,25.9l-0.2,0.6l0.6,0.2
		c1.4,0.4,2.6,0.6,3.6,0.6l0.3,0c2.2,0,4.2-0.7,6.1-2.1c3.6-2.7,5.6-5.9,5.7-9.3C347.3,466.6,345.2,462.5,341.1,458.9z"/>
	<path fill="#FFFFFF" d="M366.9,416c-0.5-2.4-1-4.7-1.5-6.8c-2-8.2-4.6-16.1-7.5-23.3l-0.3-0.7l-0.7,0.4
		c-27.9,17.7-27.3,46.8-27.3,48l0,0.4l0.4,0.2c5.5,2.3,10.5,5.5,14.9,9.3l0.7,0.6l0.3-0.9c1.2-3.7,6.4-16.4,20.7-26.5l0.3-0.2
		L366.9,416z"/>
	<path fill="#FFFFFF" d="M248.5,539c-1.6-2.2-5.4-1.9-8.5,0.9c-0.3,0.3-0.7,0.6-1,1c-0.1,0.1-0.3,0.2-0.5,0.2h-0.1l-0.1-0.1
		c-0.1-0.1-0.1-0.4-0.1-0.7c0.1-0.7,0.3-2.6,0.2-3.7c0-0.2-0.1-0.5-0.1-0.7l2.9,0.8l-3.1-1.7c-0.8-2-2.7-3-4.4-3
		c-2.3,0-4.1,1.8-4.5,4.6c-0.2,1.2-0.1,2.6,0.4,4.1c0.1,0.4,0.1,0.6,0,0.7l-0.1,0.1l-0.1,0c-0.2,0-0.4-0.2-0.6-0.5
		c-0.6-0.7-1.4-1.7-2.6-2.3c-0.9-0.5-1.8-0.8-2.8-0.8c-1.7,0-3.1,0.8-3.7,2.2c-0.9,1.9-0.3,4.4,1.6,7c2.3,3.1,6.5,6.5,12.3,10.1
		c0.2,0.2,1,0.4,1.6,0.4c0.6,0,1.1-0.2,1.5-0.5c0.6-0.5,1.5-1.2,2.5-2c0.4-0.3,0.8-0.7,1.3-1.1c2.6-2.2,5.8-4.9,7.4-7.9
		c0.9-1.8,1.4-3.4,1.4-4.8C249.2,540.4,249,539.6,248.5,539z"/>
	<g>
		<path fill="#FFFFFF" d="M235.8,534.5C235.5,534.3,235.3,534.3,235.8,534.5L235.8,534.5z"/>
		<path fill="#FFFFFF" d="M241.2,536.6l-5.5-1.5c-0.3-0.1-0.9-0.2-0.8-0.8l0.1-0.6l0.6,0c0.2,0,0.5,0.1,0.6,0.2L241.2,536.6z"/>
	</g>
	<path fill="#FFFFFF" d="M306.9,332.3c-0.1,0-6.3-2-11.8-2.8c-2.1-0.3-2.6-0.6-2.9-0.9c-0.2-0.3-0.1-0.6-0.1-0.8l0-0.2
		c0.5-2.1,1.3-5.6,1.3-9.2v-0.8l-0.8,0.1c-1.4,0.3-1.4,1.5-1.3,2.8c0.1,1.4,0,2.6-1.3,2.9c-1.3,0.3-1.9-0.4-2.4-1.5
		c-0.2-0.4-0.4-0.9-0.8-1.2c-0.4-0.3-0.7-0.5-1-0.5l-0.8,0.2l0.1,0.4c0,0.1-0.1,0.4-0.1,0.7c0,0.3,0,0.6,0.1,1
		c0.1,0.7,0.2,1.5-0.2,2c-0.2,0.3-0.6,0.5-1.2,0.6c-1.3,0.2-1.8-0.6-2.4-1.5c-0.2-0.3-0.4-0.7-0.6-1c-0.4-0.5-1-0.8-1.6-0.9
		c-0.3,0-0.7,0.1-1.1,0.5c-0.5,0.5-0.5,1.2-0.2,1.9l-0.2,0.1l0.3,0.6c0.4,0.7,0.7,1.3,1,1.9c0.6,1.7,0.9,2.5,0.6,3.1
		c-0.3,0.5-1,0.6-2.4,0.7c-8.3,0.7-15.2,4-18.6,6c-0.9,0.7-1.6,0.8-1.9,0.4c-0.2-0.2-0.3-0.6-0.2-1.1c0.2-1.7,0.1-3.5-0.4-5.3
		l-0.2-0.7l-0.7,0.2c-1.9,0.6-1.6,1.9-1.3,3.2c0.3,1.3,0.5,2.4-0.7,3c-1.2,0.6-2.1-0.2-2.7-0.9c-0.3-0.4-0.6-0.7-1-1
		c-0.4-0.2-0.7-0.3-0.9-0.3l-1,0.3l0.3,0.5c0,0.2,0,0.4,0.1,0.7c0.1,0.3,0.2,0.6,0.3,0.9c0.3,0.7,0.5,1.4,0.3,2
		c-0.2,0.4-0.5,0.7-1,0.9c-1.3,0.5-2.1-0.3-2.6-1c-0.3-0.3-0.5-0.6-0.8-0.8c-0.5-0.4-0.8-0.5-1.3-0.5c-0.3,0.1-0.6,0.3-0.9,0.7
		c-0.4,0.6-0.2,1.3,0.2,1.9l-0.3,0.3l0.7,0.5c1.5,0.9,2.4,2,2.5,3.1c0.1,0.8-0.1,1.6-0.7,2.3c-0.3,0.4-0.7,0.8-1.2,1.3
		c-1.5,1.7-3.6,4-5.2,6.7c-8.4,14.4-12.3,44.4,2.6,61.3l0,0c1.8,2.1,3.9,3.9,6.1,5.4c5.8,3.9,12.9,6.8,21.1,8.6
		c0.3,0.1,8.1,1.3,20.8,1.3c5.6,0,11.5-0.3,17.6-0.8l0.7-0.1l-0.1-0.7c-0.9-6.5-3.3-40.4,32.8-71.6l0.6,0.7l1-0.8
		C331.9,345.3,320.3,336.9,306.9,332.3z M265.7,396.2c0,2.3-0.8,4.5-2.4,6.1c-1.6,1.7-3.7,2.6-6,2.6l-0.2,0c-4.7,0-8.5-3.8-8.6-8.4
		c-0.1-4.8,3.7-8.7,8.4-8.8l0.2,0C261.7,387.8,265.6,391.5,265.7,396.2z"/>
</g>
<g id="Linhas">
	<g>
		<path d="M235.6,534.5C235.3,534.3,235.1,534.3,235.6,534.5L235.6,534.5z"/>
		<path d="M194.7,523.4C194.2,523.2,194,523.3,194.7,523.4L194.7,523.4z"/>
		<path d="M412.5,366c-0.9-0.2-1.8-0.2-2.6-0.2c-7.3,0-13.5,5.2-14.7,12.4c-1.5,8.1,4,15.9,12.1,17.4c0.9,0.2,1.8,0.2,2.6,0.2
			c7.3,0,13.5-5.2,14.8-12.4C426.1,375.3,420.7,367.5,412.5,366z M422.8,383.1c-1.1,6.3-6.6,10.8-12.9,10.8c-0.8,0-1.6-0.1-2.3-0.2
			c-3.5-0.6-6.3-2.5-8.3-5.2l15-14.1c0.4-0.4,0.4-0.9,0-1.3c-0.4-0.4-0.9-0.4-1.3,0L398.3,387c-1.3-2.5-1.9-5.5-1.3-8.5
			c1.1-6.3,6.6-10.8,12.9-10.8c0.8,0,1.6,0.1,2.3,0.2c3.3,0.6,6,2.3,7.9,4.7c-0.3-0.1-0.6,0-0.8,0.2l-15.5,14.7
			c-0.4,0.4-0.4,0.9,0,1.3c0.2,0.2,0.4,0.3,0.7,0.3c0.2,0,0.5-0.1,0.6-0.3l15.5-14.7c0.2-0.2,0.3-0.4,0.3-0.6
			C422.7,376.3,423.5,379.7,422.8,383.1z"/>
		<path d="M412.1,360.6c-10.7-1.4-20.2,6.9-22.5,16.9c-2.5,11,5.6,20.7,15.8,23.1c0,0.4-0.1,0.9-0.1,1.6
			c-16.2-1.1-18.3,13.6-20.3,27.9c-1.9,13.1-3.7,25.6-15.9,25.8c4.3-11.1-0.2-36.3-2.8-46.9C353.4,357,327,338,307,331.3
			c-0.3-0.1-6.5-2-12-2.8c-1.2-0.2-1.8-0.3-2-0.4l0-0.1c1.2-5.1,4.3-18.5-6.8-22.8c-1.6-0.6-3.4-0.9-5.2-0.9c-4.1,0-7.7,1.6-9.7,4.3
			c-1.6,2.2-2,4.9-1.2,7.9c0.8,2.7,2.7,4.8,4.2,6.2c1.5,1.4,2.7,3,3.3,4.7c0.2,0.6,0.6,1.6,0.7,2c-0.3,0.1-1.1,0.2-1.5,0.2
			c-6.3,0.5-13.1,2.7-19,6.1l-0.1,0.1c-0.1,0.1-0.2,0.2-0.3,0.2c0.8-7.5-4.5-13.2-4.7-13.5c-3-2.8-6.2-4.3-9.7-4.3
			c-1.4,0-2.7,0.2-4.1,0.7c-2.4,0.8-4.5,2.6-5.9,5c-5.4,9.5,5.1,15.6,8.5,17.6c1.3,0.8,2.2,1.7,2.3,2.6c0.1,0.5-0.1,0.9-0.4,1.4
			c-0.3,0.4-0.7,0.8-1.2,1.3c-1.5,1.6-3.4,3.8-5,6.4c-15.6-17-19.3-16.9-21-16.8l-0.2,0c0,0,0,0,0,0c-9,0-18.8,13.3-25.6,34.9
			c-6.7,21-9.2,45.2-6.9,66.2c2.8,25.6,12.5,44.9,28.1,55.8c8.4,5.9,18.5,9.4,30.1,10.4c2.5,0,5.5,0.1,5.9,0.2l0.1-0.2
			c1.9,1.5,4,2.8,6.2,4c0.8,2.7,1.5,6,1.8,7.5c0.9,5.7,1.5,11.6,2.1,16.9c-6.9,0.5-13.4,1.2-19.4,2.1c-0.1-0.2-0.3-0.5-0.4-0.7
			c1.3-2.6,2-5,2-7.1c0-1.5-0.4-2.8-1.2-3.8c-1.1-1.5-2.7-2.4-4.6-2.6c-2.8-0.3-6,1-9.1,3.6c-0.1,0.1-0.3,0.3-0.4,0.4
			c0.1-1.3,0.3-3.1,0.2-4.2c-0.4-4.8-4.2-7.5-7.6-7.6c-3-0.1-6.9,1.8-7.7,7.5c-0.2,1.2-0.2,2.5,0,4c-0.7-0.7-1.5-1.4-2.5-1.9
			c-3.5-2-7.5-1.6-9.9,1.1c-2.1,2.4-2.8,6.9,1.4,12.5c2,2.7,5,5.5,8.9,8.5c-2.3,1.7-3.4,3.6-3.4,5.5c0,11.3,39.6,18.1,77.8,18.1
			c38.3,0,77.8-6.8,77.8-18.1c0-6.1-13.2-13.8-50.1-16.9c0.9-6.4,1.4-15.8,1.1-25.5c4.2-2.1,7.8-4.8,10.8-8c4.1-4.4,7.2-9.7,9.1-16
			c1.3,0.4,2.7,0.6,3.9,0.6c0.1,0,0.1,0,0.2,0c0.5,0,1,0,1.4-0.1c4.4,7.3,7.4,5.8,6.4-2c0.2-0.1,0.5-0.3,0.7-0.5
			c6.3,4.7,10,1.3,4.3-6.6c0-0.3,0.1-0.5,0.1-0.8c2.4,1.1,4.3,0.8,5.1-0.3c1.3-1.6-1.9-8-7.7-10.6c-1-1.4-2.3-2.8-3.8-4.2
			c-2.2-1.8-5-3.7-8.4-5.6c-0.1-1.1-0.2-2.3-0.4-3.4c-0.7-5.3-1.6-10-2.4-13.3c5.4,2.4,11.2,6.1,16.5,11.5c0.5,0.5,1.3,1.6,2.3,2.7
			c3.2,4,8,10.2,12.5,11.2c0.4,0.1,0.9,0.1,1.3,0.1c0.6,0,1.2-0.1,1.7-0.3c0.7-0.3,1.3-0.6,1.9-1.1c0.4,0.7,1.1,1.2,2.1,1.2
			c0,0,0,0,0,0c16.2-0.1,18.7-15.7,20.8-29.5c2.1-13.2,3.9-24.6,15.5-24.2c-0.2,2.3-0.4,5-0.5,7.6c-1-0.8-1-1.8-1-3.1
			c0-0.5,0-0.9,0-1.4c-0.1-0.8-0.2-1.5-0.7-1.9c-0.4-0.3-0.8-0.5-1.2-0.6l-0.2,0c-0.5,0-1.4,0.2-1.8,1.9c-0.9,3.9,0.1,7.1,3,9.1
			c0.5,0.4,1.1,0.7,1.7,0.9c-0.1,2.6-0.2,4.7-0.2,6.1c0,1.5,0.7,2.7,2,3.3c0.6,0.3,1.2,0.4,1.8,0.4c0.9,0,1.9-0.3,2.5-0.8
			c1.1-0.9,1.1-3.1,1.1-3.8l0.5-5.5c1.8-1.1,3.3-2.8,4.2-5.2c1.6-4,0-8.7-2-11.7l-0.7-1l0.1-0.8c8.2-1.5,14.9-8.6,16.7-16.7
			c0,0,0-0.1,0-0.1c0,0,0-0.1,0-0.1C431.8,372.1,423.9,362.2,412.1,360.6z M366,416.1c-11.4,8.1-18.2,18.9-20.9,26.8
			c-4.9-4.3-10.1-7.3-14.9-9.4c-0.1-2.3-0.2-30,26.9-47.3c2.8,6.9,5.3,14.5,7.5,23.2C365,411.5,365.5,413.8,366,416.1z M308.1,429
			c-0.7-5-3.8-39.6,32.9-70.9c5.6,7,10.8,15.7,15.4,26.4c-26.4,16.6-28,42.8-28,48.3c-9.9-3.9-17.9-3.9-18.5-3.9h-0.1l0,0
			C309.2,428.9,308.6,428.9,308.1,429z M272.1,315.9c-0.7-2.4-0.4-4.6,0.9-6.3c1.6-2.2,4.8-3.5,8.2-3.5c1.6,0,3.1,0.3,4.5,0.8
			c4.8,1.9,6.5,5.8,6.8,9.9c-2.5,0.4-2.5,2.6-2.4,3.9c0.1,1.4,0,1.7-0.5,1.8c-0.5,0.1-0.6,0.1-1.1-0.9c-0.3-0.5-0.5-1.1-1-1.5
			c-1.1-1-2-0.8-2.4-0.6c-0.7,0.3-1.1,1.2-1.1,2.3c0,0.4,0.1,0.8,0.1,1.1c0.1,0.4,0.2,1,0,1.2c0,0.1-0.2,0.1-0.5,0.2
			c-0.7,0.1-0.8-0.1-1.3-1c-0.2-0.4-0.4-0.8-0.8-1.2c-0.6-0.7-1.5-1.2-2.3-1.2c-0.7,0-1.4,0.2-2,0.8c-0.2,0.2-0.3,0.4-0.4,0.6
			c-0.3-0.4-0.7-0.7-1.1-1.1C274.5,320,272.8,318.1,272.1,315.9z M234.7,324.7c1.2-2,2.9-3.5,4.9-4.2c1.2-0.4,2.3-0.6,3.5-0.6
			c3,0,5.8,1.3,8.4,3.7c0,0,2,2.2,3.3,5.5c-2.8,0.9-2.3,3.1-2,4.5c0.3,1.3,0.3,1.6-0.1,1.8c-0.5,0.3-0.6,0.2-1.3-0.6
			c-0.4-0.4-0.8-0.9-1.3-1.2c-1.3-0.7-2.1-0.3-2.5-0.1c-0.6,0.5-0.9,1.4-0.6,2.5c0.1,0.4,0.2,0.7,0.4,1.1c0.2,0.4,0.4,1,0.3,1.2
			c0,0.1-0.2,0.2-0.4,0.3c-0.6,0.2-0.8,0.1-1.5-0.7c-0.3-0.3-0.6-0.7-1-1c-0.5-0.4-1.2-0.9-2.1-0.7c-0.6,0.1-1.1,0.5-1.6,1.2
			c-0.2,0.4-0.4,0.8-0.4,1.2C233.8,334.1,231.9,329.6,234.7,324.7z M243.8,347.8c0.5-0.5,0.9-1,1.2-1.4c0.7-0.9,1-1.9,0.8-2.9
			c-0.2-1.3-1.2-2.6-2.8-3.6l0.1-0.1c-0.5-0.5-0.8-1.2-0.6-1.7c0.2-0.3,0.4-0.4,0.4-0.4c0.1,0,0.3,0,0.8,0.4
			c0.3,0.2,0.5,0.5,0.7,0.7c0.6,0.7,1.6,1.8,3.4,1.1c0.7-0.3,1.2-0.7,1.4-1.2c0.4-0.8,0-1.7-0.3-2.5c-0.1-0.3-0.2-0.6-0.3-0.8
			c-0.1-0.4,0-0.7,0-0.7c0,0,0.3,0,0.7,0.2c0.3,0.2,0.5,0.5,0.8,0.8c0.6,0.8,1.7,2,3.4,1.1c1.6-0.9,1.2-2.6,1-3.7
			c-0.3-1.5-0.4-2.1,0.8-2.5c0.4,1.5,0.6,3.2,0.4,5c-0.1,0.8,0,1.3,0.4,1.7c0.3,0.3,0.6,0.5,1,0.5c0.7,0,1.4-0.5,1.8-0.8
			c5.7-3.3,12.2-5.3,18.2-5.8c1.4-0.1,2.4-0.2,3-1c0.5-0.9,0.1-1.9-0.5-3.7c-0.3-0.7-0.6-1.4-1-2.1l0,0c-0.3-0.6-0.5-1.4-0.2-1.7
			c0.2-0.2,0.4-0.3,0.7-0.3c0.4,0,0.8,0.3,1.1,0.6c0.2,0.3,0.4,0.6,0.6,0.9c0.4,0.8,1,1.9,2.5,1.9c0.1,0,0.3,0,0.5,0
			c0.7-0.1,1.3-0.4,1.6-0.8c0.6-0.7,0.4-1.7,0.3-2.5c0-0.3-0.1-0.6-0.1-0.9c0-0.5,0.1-0.7,0.1-0.7c0,0,0.3,0,0.6,0.3
			c0.2,0.2,0.4,0.6,0.6,1c0.4,0.9,1.2,2.3,3.1,1.8c1.9-0.5,1.8-2.3,1.7-3.6c-0.1-1.5,0-2,0.8-2.1c0,3.5-0.8,6.9-1.3,9.1l0,0.2
			c0,0.2-0.2,0.8,0.2,1.4c0.5,0.7,1.5,0.9,3.4,1.2c5.4,0.8,11.6,2.7,11.7,2.7c10.3,3.5,22.4,10.4,33.3,23.6
			c-37.1,31.7-34.3,66.9-33.6,72.5c-2.3,0.2-4.6,0.4-6.8,0.5c-4.5-0.4-7.5-1.6-8.8-3.8c-1.7-2.8-0.3-6.3-0.3-6.3
			c0.2-0.5,0-1-0.5-1.2c-0.5-0.2-1,0-1.2,0.5c-0.1,0.2-1.9,4.4,0.4,8c0.8,1.3,2,2.3,3.6,3.1c-1.3,0-2.6,0.1-3.8,0.1
			c-12.9,0-20.6-1.3-20.7-1.3c-8.1-1.7-15.2-4.6-20.9-8.5c-22-15.1-17.3-50.8-8.5-65.8C240.2,351.7,242.3,349.5,243.8,347.8z
			 M291.7,494.6c-2.3,3.3-6,5.3-10,5.3c-2.4,0-4.9-0.7-7.2-2.2c-0.7-0.5-1.5-1-2.2-1.6c-16.3-13.4-28.1-40.3-30-51.6
			c-0.6-3.2,0.1-6.3,1.8-8.3c1.3-1.5,3-2.3,4.9-2.3c3.2,0,6.5,2.2,9.4,6.2c1.8,2.4,3.7,5.4,5.9,8.6c3.2,4.7,6.7,10.1,10.5,15
			c1.4,1.8,5.2,5.5,8.6,8.8c1.9,1.9,3.7,3.6,4.8,4.8c2.3,2.4,3.9,4.8,4.8,7.1C294.3,487.7,293.8,491.5,291.7,494.6z M243.5,494.6
			c0,0.8,0.1,1.6,0.1,2.2c-0.5-0.5-0.9-1.1-1.4-1.6c0-0.3,0-0.8-0.1-1.5c-0.3-3.9-1.3-14.1,1.3-28.4c0.4-2.2,0.9-4.4,1.4-6.5
			c0.5,1.3,1.1,2.6,1.7,3.9c-0.9,3.9-1.7,7.9-2.3,12.1C243.1,482.7,243.3,490.1,243.5,494.6z M246.2,421.6c3.3,2.2,7,4.1,11,5.7
			c-1.3,1.8-2.6,3.8-3.8,5.8c-1.5-0.7-3-1.1-4.5-1.1c-2.5,0-4.7,1.1-6.3,3c-2.1,2.5-2.9,6-2.2,9.8c0.5,2.9,1.6,6.7,3.3,11.1
			c-0.9,3-1.6,6-2.1,9.1c-2.3,12.8-1.9,22.4-1.5,27.2c-1.4-2.2-2.6-4.6-3.5-7.1c-8.1-21.8-1.3-51.3,4.1-68.2
			C242.2,418.6,244.1,420.2,246.2,421.6z M256.9,435.6c-0.6-0.6-1.2-1.1-1.9-1.5c1.3-2.2,2.6-4.2,4-6.1c0.7,0.2,1.4,0.5,2.2,0.7
			C259.7,430.9,258.3,433.2,256.9,435.6z M241.9,501.4c-11.2-1-21.1-4.3-29.2-10c-19.1-13.4-25.4-37-27.3-54.5
			c-2.3-20.8,0.2-44.6,6.9-65.4c6.5-20.4,15.9-33.6,23.9-33.6c0,0,0,0,0,0c0.1,0,0.2,0,0.2,0c1.1,0,4.6-0.2,20,16.7
			c-4.6,8.6-7.3,21.2-7,32.6c0.3,8.5,2.3,19.5,9.7,28.2c-5.4,17-12.8,47.7-4.4,70.5c2.3,6.1,6,11.5,10.8,15.7
			C244.4,501.4,242.9,501.4,241.9,501.4z M256.3,508.4c5,2.3,10.6,3.7,16.5,4.1c2.2,0.1,4.4,0.2,6.5,0.2c0.4,15.1-1.1,29.7-2,34.2
			c-0.8,4.5-4.6,6.2-7.5,6.3c-3.3,0.1-7.1-1.7-8-5.8c-0.8-3.5-1.3-8.6-1.9-14.6c-0.6-5.7-1.2-12.1-2.2-18.2
			C257.5,513.3,257,510.8,256.3,508.4z M286.2,512.6c0.5,4,0.9,7.8,1.3,11.6c0.2,2.4,0.5,4.7,0.7,6.8c-2.4,0-4.9-0.1-7.4-0.1
			c0.3-5.5,0.5-11.8,0.3-18.1C282.9,512.7,284.6,512.7,286.2,512.6z M304.4,545.3C304.3,545.4,304.3,545.4,304.4,545.3
			C304.3,545.4,304.3,545.4,304.4,545.3z M296,545.9c4.1,3.9,9.1,5.7,10,4.1c0.7-1.2,0.3-3-1.6-4.7l0,0c8.5,1.9,9.7-0.1,4.7-3.5
			c2.3-0.3,3.7-0.9,4-1.7c20.5,2.1,29.9,6.1,29.9,9c0,4.2-20,10.2-56,10.2c-3.7,0-7.3-0.1-10.9-0.2c0.2-0.1,0.4-0.2,0.5-0.4
			c0.7-1.2,0.3-3-1.6-4.6h0c0,0,0,0,0,0c0,0,0,0,0,0l0,0h0c8.5,1.9,9.7-0.1,4.7-3.5c5.3-0.7,5.6-3-0.1-5.5c0.2-1.6,0.5-3.7,0.7-6.1
			c3.1-0.1,6.2-0.1,9.2-0.1c0.1,0.4,0.2,0.8,0.3,1.1C290.5,542.8,292.9,545,296,545.9z M221.6,546.6c-1.8-2.3-2.3-4.6-1.5-6.2
			c0.6-1.1,1.7-1.8,3.1-1.8c0.8,0,1.6,0.2,2.4,0.7c1,0.6,1.8,1.5,2.4,2.2c0.3,0.4,0.7,0.8,1.2,0.8l0.5,0l0.3-0.4
			c0.3-0.4,0.2-0.9,0.1-1.4c-0.4-1.4-0.5-2.7-0.3-3.8c0.4-2.5,1.8-4,3.8-4c1.8,0,3.8,1.4,4,4c0.1,1-0.1,2.8-0.2,3.5
			c0,0.2-0.2,0.9,0.2,1.3c0.4,0.5,1.2,0.5,1.8-0.1c0.3-0.3,0.7-0.6,1-0.9c2.9-2.5,6-2.9,7.4-1c0.4,0.5,0.5,1.1,0.6,1.8
			c0,1.3-0.4,2.8-1.3,4.4c-1.5,2.9-4.7,5.5-7.2,7.7c-0.5,0.4-0.9,0.8-1.3,1.1c-1,0.9-1.9,1.6-2.5,2c-0.3,0.2-0.7,0.4-1.1,0.4
			c-0.6,0-1.1-0.3-1.2-0.3C228,553,223.9,549.6,221.6,546.6z M248.7,546.6c1-1.8,1.5-3.6,1.5-5.1c2.7-0.4,5.6-0.8,8.7-1.2
			c0.3,2.9,0.7,5.4,1.2,7.4c0.9,3.7,3.6,5.9,6.5,6.8c2.4,2.3,5.1,3.9,7.1,4.5c-12.9-0.6-24.5-2.1-32.5-4.2
			C243.8,552.5,247,549.8,248.7,546.6z M280.4,537.1c0.1-1.4,0.2-2.8,0.3-4.4c2.6,0,5.2,0,7.7,0.1c0.2,1.5,0.4,3,0.6,4.3
			C286.2,537,283.3,537,280.4,537.1z M258.1,533.6c0.2,1.7,0.3,3.4,0.5,4.9c-3.1,0.3-6,0.7-8.7,1.2c-0.2-0.5-0.4-0.9-0.7-1.3
			c-1-1.3-2.4-2-4.1-2c-1.9,0-3.9,0.9-5.9,2.5c0.1-0.8,0.1-1.7,0.1-2.4c0-0.3-0.1-0.6-0.1-0.8C245.1,534.8,251.4,534.1,258.1,533.6z
			 M200.2,533.8c-3.6-4.7-3.1-8.3-1.5-10.1c1.7-2,4.8-2.3,7.6-0.7c1.5,0.8,2.7,2.2,3.4,3.1c0.3,0.4,1,1.3,1.8,0.9
			c0.8-0.4,0.6-1.4,0.4-1.9c-0.6-2-0.7-3.9-0.5-5.5c0.7-4.5,3.4-6,5.8-6c2.7,0.1,5.5,2.1,5.8,5.9c0.1,1.4-0.2,4-0.3,5
			c-0.2,0.9,0,1.5,0.6,1.8c0.5,0.3,1.1,0.1,1.6-0.4c0.5-0.5,1-0.9,1.4-1.3c2.7-2.3,5.4-3.5,7.7-3.2c1.4,0.2,2.5,0.8,3.3,1.9
			c0.5,0.8,0.8,1.7,0.9,2.8c0,1.7-0.5,3.6-1.5,5.8c-1-0.7-2.2-1.1-3.3-1.1c-2.2,0-5,1.5-5.6,5.6c-0.1,0.7-0.1,1.4,0,2.2
			c-0.4-0.3-0.8-0.7-1.3-0.9c-1.1-0.6-2.2-0.9-3.3-0.9c-2.1,0-3.9,1.1-4.8,2.8c-1.1,2.3-0.5,5.3,1.7,8.2c0.1,0.1,0.2,0.2,0.3,0.3
			c-1.5,0.6-3.1-0.3-3.1-0.3C209.2,542.7,203.5,538,200.2,533.8z M358.1,549c0,7.8-30.5,16.2-76,16.2c-45.5,0-76-8.4-76-16.2
			c0-1.4,1.1-2.9,3.1-4.4c2.1,1.6,4.5,3.2,7.1,4.8c0.5,0.3,1.6,0.8,2.9,0.8c0.8,0,1.6-0.2,2.4-0.7c2.5,2.7,6.2,5.6,11.1,8.7
			c0.4,0.2,1.2,0.6,2.2,0.6c0.8,0,1.6-0.3,2.2-0.8c0.5-0.4,1.3-1,2.2-1.8c10.7,3.1,28.5,4.9,47.5,4.9c28.1,0,57.9-4.2,57.9-12.1
			c0-7-22.4-9.9-32.7-10.9c-0.7-0.5-1.7-1.1-3-1.7c0.2-0.8,0.3-1.6,0.5-2.6C338.2,536.3,358.1,542.5,358.1,549z M306.8,538
			c-1.4,4.2-4.3,6.6-8.1,6.5c-3.4-0.1-6.5-2.2-7.3-5c-1-3.4-1.5-9-2.1-15.5c-0.4-3.7-0.8-7.6-1.2-11.5c8.1-0.6,15.1-2.3,21.1-5
			C309.5,520.9,308.2,533.7,306.8,538z M340.4,459.4c3.9,3.4,6,7.4,5.9,11c-0.1,3.2-1.9,6.2-5.4,8.8c-1.8,1.3-3.8,2-6,2
			c-1.1,0-2.2-0.2-3.4-0.5c2.1-7.4,2.7-16.1,1.9-26C336.2,456.3,338.6,457.9,340.4,459.4z M331,449.3c2.7,21.5-0.8,37.6-10.6,48
			c-9.7,10.3-25.7,14.8-47.5,13.4c-11-0.7-20.7-5.1-27.6-12c0.2-0.6,0.1-1.6,0-4.2c-0.2-4.4-0.4-11.8,0.7-19.5
			c0.5-3.3,1.1-6.5,1.8-9.6c5.5,11.5,13.6,24.1,23.3,32.1c0.8,0.6,1.6,1.2,2.4,1.7c0.9,0.6,1.9,1.1,2.9,1.5c3.8,4.5,10,6.2,11.3,4.7
			c0.9-1,0.9-2.8-0.3-4.9c0.3-0.2,0.7-0.3,1-0.5c8.7,3.9,11.2-0.3,5.6-5.7c0.2-0.3,0.3-0.7,0.5-1c7.7-0.4,8.7-3.4,1.1-6.4
			c-0.1-1.1-0.4-2.2-0.8-3.3c-1-2.5-2.7-5.1-5.2-7.7c-1.2-1.2-3-3-4.9-4.8c-3.3-3.2-7.1-6.9-8.4-8.6c-3.8-4.9-7.3-10.2-10.5-14.9
			c-2.1-3.2-4.1-6.2-5.9-8.6c-0.5-0.7-1.1-1.4-1.6-2c1.5-2.7,3.1-5.3,4.8-7.7c1.5,0.4,3.1,0.8,4.7,1.2c0.1,0,8,1.4,21,1.4
			c3.5,0,7-0.1,10.6-0.3c0.3,0,0.5,0,0.7,0.1c0,0,0,0,0,0c0.2,0,0.3-0.1,0.5-0.1c3-0.2,6.1-0.4,9.1-0.7c0.5,0,8.6,0.1,18.6,4.1
			C329.2,438.2,330.2,443.2,331,449.3z M364,459.2c-0.6,0.2-1.2,0.2-1.9,0.1c-3.8-0.9-8.6-6.9-11.4-10.5c-1-1.3-1.8-2.3-2.4-2.9
			c-0.6-0.6-1.1-1.1-1.7-1.6c2.4-7.5,8.8-18,19.8-26.1C369.8,435.9,370.9,456.6,364,459.2z M407.7,401c1.3,0.2,2.6,0.2,3.8,0.1
			l-1.1,13.8c-0.8,0.6-1.7,0.9-2.5,1c-0.6,0.1-1.1,0-1.7-0.1c0.4-6.1,0.9-12.6,1.1-14.9C407.4,401,407.5,401,407.7,401z
			 M387.6,431.3c-2.2,13.6-4.4,27.8-19,27.9c-0.1,0-0.5,0-0.5-0.5c0-0.3,0.1-0.9,0.8-0.9c14-0.1,16-14,18-27.4
			c2-14,4-27.2,18.3-26.3c0,0.5-0.1,1-0.1,1.5C391.8,405,389.7,418.3,387.6,431.3z M409.5,425L409.5,425l0,0.1c0,1-0.2,2.1-0.4,2.4
			c-0.6,0.5-1.6,0.6-2.4,0.2c-0.6-0.3-1-0.8-1-1.6c0-1.4,0.1-3.2,0.2-5.6c0.6,0.1,1.3,0.2,1.9,0.2c0.4,0,0.9,0,1.3-0.1
			c0.2,0,0.5-0.1,0.7-0.2L409.5,425z M414.1,408.3l0-1.3c0.9,2.4,1,4.9,0.2,6.8c-1.1,2.9-3.1,4.6-5.4,5c-1.8,0.3-3.8-0.2-5.4-1.3
			c-2.2-1.6-3-4-2.2-7.1c0-0.2,0.1-0.3,0.1-0.4c0,0,0,0,0,0c0,0.1,0.1,0.3,0.1,0.7c0,0.4,0,0.8,0,1.2c0,1.9,0,4.3,3.6,5.6
			c1,0.4,2,0.5,3,0.3c2.4-0.4,4.2-1.6,5.1-3.6C414.2,412.3,414.5,410.3,414.1,408.3z M403.9,398.6c-8.4-2.6-13-11.5-12.6-19.8
			c0.6-12.4,13.5-19.2,24.6-15.7c9.1,2.8,13.5,12.6,12.3,21.4C425.7,395.8,415.1,402.1,403.9,398.6z"/>
		<path d="M308.1,379.7c1.3-0.4,2-1.9,2.1-3.1c0-0.3,0.2-2.5-0.3-4.5c-0.9-4.1-4.9-3-4.9,0.4c0,2,0.4,4.9,0.7,5.6
			C306.1,379.1,306.9,380.1,308.1,379.7z"/>
		<path d="M269.3,384.1c1.3,0.2,1.9-0.9,2.1-1.9c0.1-0.7,0.1-3.7-0.3-5.7c-0.6-3.4-4.8-3.7-4.9,0.4c-0.1,2,0.4,4.2,0.5,4.5
			C267,382.6,268,383.9,269.3,384.1z"/>
		<path d="M256.8,405.7l0.2,0c2.5-0.1,4.8-1.1,6.5-2.9c1.7-1.8,2.6-4.2,2.6-6.7c-0.1-5-4.3-9.1-9.3-9.1l-0.2,0
			c-5.1,0.1-9.2,4.4-9.1,9.5C247.6,401.6,251.8,405.7,256.8,405.7z M256.7,388.9l0.2,0c4,0,7.4,3.3,7.5,7.3c0,2-0.7,3.9-2.1,5.3
			c-1.4,1.4-3.2,2.3-5.2,2.3l-0.2,0c-4,0-7.4-3.3-7.5-7.3C249.3,392.4,252.6,389,256.7,388.9z"/>
	</g>
</g>
</svg>
