<?xml version="1.0" encoding="utf-8"?>
<!-- Generator: Adobe Illustrator 18.1.1, SVG Export Plug-In . SVG Version: 6.00 Build 0)  -->
<svg version="1.1" xmlns="http://www.w3.org/2000/svg" xmlns:xlink="http://www.w3.org/1999/xlink" x="0px" y="0px"
	 viewBox="0 0 595.3 841.9" enable-background="new 0 0 595.3 841.9" xml:space="preserve">
<g id="Preenchimento">
	<g>
		<path d="M229.9,344.6c-5.9,0-10.7,4.7-10.7,10.5c-0.1,5.9,4.6,10.7,10.5,10.7l0.1,2.1v-2.1c0.1,0,0.2,0,0.4,0
			c-2.2-3.8-3.4-8.2-3.4-13.6c0-2.1,6.8-3.1,6.8-1.8c-0.1,5,1.1,9.3,3.1,12.8c2.3-1.9,3.7-4.7,3.8-7.9
			C240.4,349.5,235.7,344.6,229.9,344.6z"/>
		<path d="M369.2,353.5c-0.3-1.9,6.5-3.4,6.8-1.8c0.8,5,0.2,9.2-1.5,12.7c4.7-1,8.3-5.2,8.4-10.2c0.1-5.9-4.6-10.7-10.5-10.7h0
			c-5.9,0-10.7,4.7-10.7,10.5c-0.1,4.5,2.7,8.4,6.6,9.9C369.4,361,369.9,357.5,369.2,353.5z"/>
		<path d="M310.5,559.8c0.5,0.7,0.9,1.4,1.4,2.1c0-0.1,0-0.1,0-0.2C311.4,561.2,310.9,560.5,310.5,559.8z"/>
		<path d="M310.5,562c0.5,0.7,0.9,1.4,1.4,2.1c0-0.1,0-0.1,0-0.2C311.4,563.4,310.9,562.7,310.5,562z"/>
		<path fill="#FFFFFF" d="M405,348.5c-1.2-0.6-2.3-1.3-3.5-1.9c-11.3-5.8-22.5-7.9-36.9-9.6c-10-1.4-30.6-4.3-29.2-24.9
			c0.5-6.5,3.5-11.9,8.8-15.5c4-2.8,9.4-4.4,15.1-4.6c0.1,0,3.5-0.3,8.3-0.3c4.7,0,11.6,0.3,17.5,1.5c9,2,18.4,4.8,27,8.3
			c-4.8-20.1-18.2-38.6-37.1-51.2c-18.1-12.1-49.3-24.4-95.5-14.4c-18.2,3.9-35.8,10.9-50.8,20.3c-15.5,9.7-29.7,26.9-37.2,44.7
			c11.3-3.9,21.8-6.2,27.2-7.2c20.6-3.9,33.8-0.8,40.7,9.5c1.9,2.8,3,6,3.4,9.6c1.8,20.7-18.7,24-28.5,25.5
			c-14.5,2-25.7,4.4-36.9,10.4c-1.2,0.6-2.4,1.3-3.6,2l-0.5,0.3c-0.5,0.3-0.9,0.5-1.4,0.8c3.9,7.2,9.6,13.7,17,19.5
			c13.1,10.1,32.4,16.9,41.7,19.3c16.3,4.1,35.5,6.4,54,6.6c0.4,0,0.8,0,1.2,0c36.5,0,93.9-19.3,102.7-46.9c-0.9-0.5-1.9-1-2.8-1.5
			L405,348.5z"/>
		<path fill="#7B4671" d="M165.2,313.2c0.1-14.8,3.3-37.1,18.5-59.8c14.4-21.5,35.8-37.7,63.7-48.2c17.7-6.6,36.5-10.2,54.5-10.2
			c0.9,0,1.9,0,2.8,0c37.3,0.8,71.5,14.4,96.5,38.4c15.9,15.3,26,39.3,27.7,65.9c0.2,3,0.3,6.1,0.3,9.6l0,1.5l-1.3-0.7l-0.5-0.3
			c-0.3-0.2-0.6-0.3-0.9-0.5c-3-1.6-6.4-3.2-9.9-4.7l-0.4-0.2l-0.1-0.4c-4.4-22-18.7-42.5-39.1-56.2c-12.7-8.5-34.3-18.6-64.7-18.6
			c-10.7,0-21.9,1.3-33.4,3.7c-18.6,4-36.5,11.2-51.9,20.8c-17,10.6-32.6,30.2-39.9,49.8l-0.1,0.4l-0.4,0.1
			c-5.7,2.2-10.8,4.6-15.3,7.1c-1.6,0.9-3.2,2-4.8,3.2l-1.4,1L165.2,313.2z"/>
		<path fill="#7B4671" d="M190.7,567.4c-0.2,0-0.5,0-0.7,0c-9.8-0.4-17.4-8.9-20.7-23.3c-9.6-41.8,9.6-132.7,16.5-148.5
			c2.1-4.9,5-8.4,8.3-10.1l0.5-0.3l0.4,0.4c3.4,2.8,7,5.4,10.8,7.8l0.6,0.4l-0.2,0.6c-3.8,11.4-13.7,53.3-9.4,95
			c0.6,5.6,1.4,11,2.4,16.2c2.4,11.8,7.2,22.3,14.2,31.4l0.2,0.2l0,0.3c0,5-0.6,9.5-1.8,13.2C208.8,560.4,200,567.4,190.7,567.4
			L190.7,567.4z"/>
		<path fill="#7B4671" d="M302.1,413.4c-3.9,0-7.9-0.1-11.9-0.3c-54.9-2.9-92.5-19.9-111.7-50.5c-0.7-1.1-1.4-2.3-2.2-3.7l-0.5-1
			l1.1-0.3c1.7-0.4,3.2-0.9,4.8-1.6c1.9-0.8,3.8-1.7,6.1-3l0.7-0.4l0.4,0.7c4.1,7.6,10.1,14.5,17.9,20.5
			c13.5,10.4,33.4,17.4,43,19.9c16.6,4.1,36,6.5,54.7,6.7c0.4,0,0.8,0,1.2,0c36.3,0,95.5-18.9,105.7-48.6l0.3-0.9l0.9,0.4
			c1.2,0.6,2.2,1,3.1,1.4c1,0.4,1.9,0.8,2.6,1l0.9,0.3l-0.4,0.9C400.3,392.1,357.8,413.4,302.1,413.4
			C302.1,413.4,302.2,413.4,302.1,413.4z"/>
		<path fill="#7B4671" d="M293.9,569.7c-3.6,0-7.2-0.2-10.7-0.5c-33.7-3.1-72.9-21.5-81.5-64.1c-1-5.1-1.8-10.5-2.4-16
			c-4.1-40,5.1-80.8,9-93.2l0.3-1l0.9,0.5c20.6,11.8,47.7,18.7,80.6,20.4c4.1,0.2,8.1,0.3,12.1,0.3c30.9,0,58.7-6.7,80.4-19.3
			l0.8-0.5l0.4,0.9c9.8,22.5,18.1,61.7,9.4,98.5c-1.4,5.9-3.2,11.6-5.3,17c-7.4,18.5-21,33.5-39.2,43.5
			C332.8,564.9,313.3,569.7,293.9,569.7z"/>
		<path fill="#7B4671" d="M395.6,427.1c-2.3-11.2-5.7-22-9.8-31.3l-0.3-0.7l0.6-0.4c16-10.1,28-23.3,35.7-39.1l0.3-0.6l0.6,0.1
			c1.7,0.3,3.2,0.5,4.5,0.5c8.3,0,14.8-5.1,16.8-13.3c3-11.9-3.9-23.5-12-29.7l-0.4-0.3l0.2-1.2l0,0l0-0.1l0-0.1
			c0.8-3.9,1.6-7.7,2.4-11.3c0.4-1.8,0.8-3.9,1.2-6.4l0.1-0.4c3.2-17.6,9.2-50.5,27-53.6c1.8-0.3,3.6-0.5,5.3-0.5
			c5.5,0,9.9,1.6,13.3,4.9c5.1,4.8,7.2,13.2,6,22.8c-5.9,45.4-21,84.9-44.8,117.2c-19.1,25.9-38.2,39.4-45.6,44l-1,0.7L395.6,427.1z
			"/>
		<path fill="#7B4671" d="M356.3,645.7c-7.5,0-14.1-5.2-18.2-14.3c-2.4-5.4-3.6-12.4-3.6-20.7c0-3.4,0.1-9.5,0.3-14.9
			c0.3-11.5,0.6-24.6,0.1-29.4l-0.1-1.2l0.6-0.2c13.7-5,25.5-12.3,35.1-21.7l1.1-1.1l0.3,1.5c3.9,20,9.9,58.6,7.4,76.4
			c-1.9,13.5-10.3,24-20.6,25.5C357.9,645.7,357.1,645.7,356.3,645.7L356.3,645.7z"/>
		<path fill="#7B4671" d="M246.4,646.3c-2.3,0-4.4-0.6-6.5-1.6c-6.1-3.2-11.5-11.5-14.5-22.2c-5.8-21.1-4.2-55.1-2.6-73.5l0.1-1.7
			l1.3,1.1c10.3,8.8,23.4,15.6,38.1,19.6l0.6,0.2l0,0.6c0.4,5.2,2,15.4,3.5,24.4c0.8,5.2,1.7,10.6,2.2,14.1c0.8,6,0.8,11.5,0.2,16.2
			c-2.2,15.3-12.9,20.5-17.3,22C249.7,646,248,646.3,246.4,646.3z"/>
		<path fill="#7B4671" d="M229.6,366.7c-6.3-0.1-11.4-5.3-11.3-11.6c0.1-6.2,5.3-11.3,11.6-11.3c6.3,0.1,11.4,5.3,11.3,11.6
			c0,3.3-1.5,6.4-4.1,8.5l-0.8,0.7l-0.5-0.9c-2.1-3.8-3.2-8.1-3.2-12.9c-0.1,0-0.3-0.1-0.6-0.1c-2.1,0-4.4,1-4.4,1.6
			c-0.1,4.9,1,9.3,3.3,13.1l0.7,1.2l-1.4,0c-0.2,0-0.3,0-0.4,0L229.6,366.7z"/>
		<path fill="#7B4671" d="M373.7,364.1c1.7-3.5,2.2-7.5,1.5-12.1c-0.1,0-0.4-0.1-0.8-0.1c-2,0-4.2,1-4.4,1.5c0.6,3.9,0.3,7.6-1,10.8
			l-0.3,0.8l-0.8-0.3c-4.4-1.8-7.2-6-7.2-10.7c0.1-6.2,5.3-11.3,11.6-11.3c6.3,0.1,11.4,5.3,11.3,11.6c-0.1,5.3-3.9,9.9-9,11
			l-1.7,0.4L373.7,364.1z"/>
		<path fill="#636361" d="M170.2,355.9L170.2,355.9c-6.9-0.3-12-4.7-13.9-11.7c-2.4-9.3,1.6-23.1,16.2-31.4
			c16.9-9.5,38.3-14.3,46.8-15.9c5.5-1,10.5-1.6,14.8-1.6c10.8,0,18.2,3.2,22.5,9.6c1.6,2.3,2.5,5,2.8,8.1
			c1.4,16.2-12.5,19.8-25.7,21.9c-14.8,2-26.4,4.5-38,10.7c-1.2,0.6-2.4,1.4-3.7,2.1l-0.5,0.3c-3.5,2-7.1,4.1-10.9,5.7
			c-3.4,1.4-6.6,2.1-9.6,2.1H170.2z"/>
		<path fill="#636361" d="M427.3,352.3l0,0.9c-3.2,0-6.8-0.8-10.5-2.5c-3.3-1.4-6.4-3.1-9.4-4.8l-0.7-0.4c-1.2-0.7-2.4-1.3-3.5-1.9
			c-11.7-6-23.3-8.2-38-9.9c-13.3-1.9-27.3-5.2-26.3-21.4c0.4-5.5,3-9.9,7.4-13c3.5-2.4,8.3-3.9,13.4-4.1l0,0c0,0,3.4-0.3,8.1-0.3
			c4.6,0,11.2,0.3,16.8,1.5c14,3,29.2,8.5,40.8,14.7c14.6,7.7,18.7,21.3,16.4,30.5c-1.8,7.2-7.2,11.4-14.4,11.4
			C427.3,353.1,427.3,352.3,427.3,352.3z"/>
		<path fill="#005729" d="M301.2,681c-95.3,0-154.4-17.4-154.4-33.5c0-11.4,28.5-22.4,74.4-28.5l0.8-0.1l0.2,0.8
			c0.3,1.2,0.5,2.3,0.8,3.4c1.1,3.8,2.4,7.4,4.1,10.6l0.1,0.2l0,0.2c0.3,12.9,7.5,22.7,10.4,22.7c0.1,0,0.2,0,0.3,0
			c2.1-0.7,3.6-3.6,3.8-7.6l0.1-1l1,0.2c0.7,0.2,1.4,0.3,2.2,0.3l0.5,0l0.2,0.4c3.2,6.1,6.6,9.7,9.2,9.7c0.7,0,1.3-0.3,1.8-0.9
			c1.7-1.9,2.1-6.5,1.2-12.1l-0.1-0.6l0.5-0.3c0.6-0.4,1.2-0.8,1.8-1.2l0.5-0.4l0.5,0.4c3.6,2.6,6.7,4,8.6,4c1.2,0,1.5-0.6,1.7-0.8
			c0.4-0.6,1.3-3.4-3.4-11.8l-0.2-0.4l0.2-0.4c1.7-3.2,2.9-6.8,3.4-10.5c0.4-2.5,0.5-5.3,0.5-8.2l0-0.8l0.8,0
			c9.4-0.4,19.1-0.6,28.8-0.6c10.2,0,20.3,0.2,30,0.6l0.8,0l0,0.8c0.4,6.6,1.6,12.3,3.7,16.9c0.8,1.9,1.8,3.7,2.9,5.3l0.2,0.4
			l-0.2,0.4c-3.2,8.3-2.3,11-1.8,11.7c0.3,0.4,0.7,0.7,1.4,0.7c1,0,3.5-0.6,8.1-4.8l0.4-0.4l0.5,0.3c0.7,0.4,1.5,0.7,2.2,1l0.6,0.2
			l0,0.6c-0.1,5.4,0.8,9.6,2.6,11.4c0.6,0.6,1.2,0.9,1.8,0.9c2.2,0,5.6-3.3,8.7-12.5l0.1-0.3l0.5-0.3c0.4-0.2,0.8-0.4,1.1-0.6
			l1.1-0.6l0.2,1.2c0.6,4.8,2.6,8.2,5.1,8.7c0.1,0,0.1,0,0.2,0c0.6,0,1.4-0.5,2.2-1.5c3-3.4,6.6-12.9,5.1-23.2l0-0.2l0.1-0.2
			c1.3-3.2,2.2-6.6,2.7-10.1c0-0.1,0-0.5,0-0.5l0.1-0.9l0.9,0.1c44.9,6.2,72.7,17,72.7,28.3C455.5,663.7,396.5,681,301.2,681z"/>
	</g>
	<path fill="none" stroke="#000000" stroke-width="4.1954" stroke-miterlimit="10" d="M270.1,613.6c9.9-0.4,20.2-0.7,30.8-0.7
		c10.7,0,21.2,0.2,31.4,0.7"/>
	<path fill="none" d="M378,638.7c-0.3,0.6-0.5,1.3-0.8,1.9c0,0,0-0.1,0-0.2C377.5,639.9,377.8,639.3,378,638.7z"/>
	<path fill="none" d="M378.4,640.5c-0.2,0.6-0.5,1.3-0.8,1.9c0,0,0-0.1,0-0.2C377.9,641.7,378.1,641.1,378.4,640.5z"/>
	<path fill="none" d="M228.6,640.8c0.3,0.6,0.7,1.2,1,1.8c0-0.1,0-0.1,0-0.2C229.3,641.9,228.9,641.3,228.6,640.8z"/>
	<path fill="none" d="M228.5,642.6c0.3,0.6,0.7,1.2,1,1.8c0-0.1,0-0.1,0-0.1C229.1,643.7,228.8,643.1,228.5,642.6z"/>
	<path fill="none" d="M310.2,559.9c0.5,0.7,0.9,1.4,1.4,2.1c0-0.1,0-0.1,0-0.2C311.1,561.3,310.7,560.6,310.2,559.9z"/>
	<path fill="none" d="M310.2,562.1c0.5,0.7,0.9,1.4,1.4,2.1c0-0.1,0-0.1,0-0.2C311.1,563.5,310.6,562.8,310.2,562.1z"/>
</g>
<g id="Linhas">
	<g>
		<path d="M218.1,312.6c-4.7-1.2-7.8,4.1-7.5,10.2c0.2,3.5,1.6,10.7,5.4,11c5.5,0.4,5.9-4.3,6.4-8.8
			C222.7,321.3,221.8,313.5,218.1,312.6z"/>
		<path d="M383.1,312.1c4.7-1.3,7.9,4,7.7,10.1c-0.1,3.5-1.3,10.8-5.2,11.1c-5.5,0.6-6-4.2-6.5-8.7
			C378.6,320.9,379.3,313.1,383.1,312.1z"/>
		<g>
			<path fill="none" stroke="#000000" stroke-width="4.1954" stroke-miterlimit="10" d="M380.6,617.8c45.5,6.1,75.9,17.2,75.9,29.8
				c0,19.2-69.7,34.7-155.6,34.7c-85.9,0-155.6-15.5-155.6-34.7c0-12.8,31.1-24,77.4-30"/>
			<path fill="#030303" d="M338.6,636.2c-7,16.5-2,20.4,9.2,9.8c0.5,0.3,0.9,0.6,1.4,0.8c-0.8,16.9,8.3,20.4,14.7,1.1
				c0.4-0.2,0.9-0.4,1.4-0.7c0.7,5.7,3.1,8.9,5.8,9.4c4.1,0.8,11.3-13.7,8-28.3C379.1,628.4,369,665.9,338.6,636.2z"/>
			<path fill="#030303" d="M267.3,633.1c9.1,15.5,4.6,20-7.8,11c-0.4,0.4-0.9,0.7-1.3,1c3,16.7-5.5,21.3-14.4,3
				c-0.5-0.1-0.9-0.3-1.4-0.5c0.1,5.8-1.9,9.3-4.5,10.1c-4,1.3-13-12.2-11.7-27C226.1,630.7,241.1,666.5,267.3,633.1z"/>
			<path fill="#030303" d="M486.9,250.6c9.1-15.5,4.6-20-7.8-11c-0.4-0.4-0.9-0.7-1.3-1c3-16.7-5.5-21.3-14.5-3
				c-0.5,0.2-1,0.3-1.4,0.5c0-5.8-2-9.3-4.5-10.1c-4-1.3-13,12.2-11.7,27.1C445.6,253,460.6,217.1,486.9,250.6z"/>
			<path fill="#030303" d="M210.8,556.5c8.5,15.9,3.8,20.2-8.3,10.7c-0.4,0.3-0.9,0.7-1.3,1c2.3,16.8-6.4,21.1-14.6,2.4
				c-0.5-0.2-0.9-0.4-1.4-0.6c-0.2,5.8-2.3,9.2-4.9,9.9c-4,1.1-12.5-12.7-10.5-27.6C169.7,552.3,183.2,588.9,210.8,556.5z"/>
			<path fill="none" stroke="#000000" stroke-width="4.1954" stroke-miterlimit="10" d="M410.7,349.4c-7.3,29.5-68,50.5-106.4,50.1
				c-19.1-0.2-38.3-2.7-54.5-6.7c-11.1-2.9-29.9-10-42.5-19.7c-8.7-6.7-14.7-14.2-18.6-22"/>
			<path fill="none" stroke="#000000" stroke-width="4.1954" stroke-miterlimit="10" d="M187.7,304.5c7.6-21.4,24.2-40.4,39.7-50.1
				c15.4-9.6,33.2-16.7,51.5-20.6c77.4-16.7,127.8,26.8,136,71.2"/>
			<g>
				<path fill="none" stroke="#000000" stroke-width="4.1954" stroke-miterlimit="10" d="M420.9,353.6
					c-21.3,45.7-76,63.9-131.1,60.9c-61.8-3.3-95.6-23.7-112.9-51.2c-1.3-2-2.5-4.2-3.6-6.3"/>
				<path fill="none" stroke="#000000" stroke-width="4.5869" stroke-miterlimit="10" d="M420.9,353.6
					c-21.3,45.7-76,63.9-131.1,60.9c-61.8-3.3-95.6-23.7-112.9-51.2c-1.3-2-2.5-4.2-3.6-6.3"/>
			</g>
			<g>
				<path fill="none" stroke="#000000" stroke-width="4.1954" stroke-miterlimit="10" d="M163.5,318c-1.8-42.5,22.3-91.2,83-114
					c18.2-6.9,38-10.6,57.8-10.2c35.5,0.7,70.8,13.1,97.5,38.8c17,16.3,26.5,41.1,28.2,66.8c0.3,4.3,0.4,8.4,0.3,12.5"/>
				<path fill="none" stroke="#000000" stroke-width="4.5869" stroke-miterlimit="10" d="M163.5,318c-1.8-42.5,22.3-91.2,83-114
					c18.2-6.9,38-10.6,57.8-10.2c35.5,0.7,70.8,13.1,97.5,38.8c17,16.3,26.5,41.1,28.2,66.8c0.3,4.3,0.4,8.4,0.3,12.5"/>
			</g>
			<path fill="none" stroke="#000000" stroke-width="4.1954" stroke-miterlimit="10" d="M425.6,310.1c-12.6-6.7-27.9-11.9-41.2-14.8
				c-10.9-2.3-25.2-1.2-25.2-1.2c-5.2,0.2-10.2,1.7-14,4.3c-4.8,3.3-7.5,8.1-7.9,13.9c-1.2,18.7,17.3,21.3,27.3,22.7
				c14.7,1.7,26.1,3.9,37.7,9.8c1.4,0.7,2.8,1.5,4.2,2.3c3,1.6,6.2,3.4,9.5,4.8C445.8,364.9,454.3,325.4,425.6,310.1z"/>
			<path fill="none" stroke="#000000" stroke-width="4.1954" stroke-miterlimit="10" d="M260.5,313.1c-0.3-3.2-1.3-6.2-3-8.6
				c-5.2-7.8-15.6-13-38.6-8.6c-14.2,2.7-33,8-47.2,16.1c-29,16.4-19.2,55.1,9.2,43.2c3.9-1.6,7.6-3.8,11.1-5.7
				c1.4-0.8,2.8-1.6,4.2-2.3c11.4-6.1,22.8-8.6,37.5-10.6C243.6,334.7,262.1,331.8,260.5,313.1z"/>
			<g>
				<path d="M213.8,285.3c-0.2-1.1-2.1-0.9-2,0.3c0.4,3.8-3.3,5.4-6.5,5.5c-0.5,0-0.8,0.3-0.9,0.7c-0.7,0.3-1,1.3-0.2,1.8
					c1.5,0.9,3.2,1.3,5,0.8c1.3-0.4,2.2-1.5,2.8-2.6C213.4,289.9,214.3,287.4,213.8,285.3z"/>
				<path d="M389.6,286.3c-0.1-0.4-0.4-0.6-0.9-0.6c-3.2,0-7-1.5-6.6-5.3c0.1-1.1-1.8-1.4-2-0.3c0,0.1,0,0.2,0,0.3c0,0,0,0,0,0
					c0,0,0,0,0,0.1c-0.3,2.1,0.6,4.4,2,6.1c0.6,1.1,1.4,2.1,2.6,2.5c1.4,0.5,2.8,0.2,4.1-0.3c0.3-0.1,0.6-0.3,1-0.5
					C390.6,287.6,390.3,286.6,389.6,286.3z"/>
			</g>
			<path fill="#000100" d="M322.3,336.9c-1-3.1-3.8-5-7-5.5c-3.1-0.5-5.2,0.6-7.3,2.1c-7.4,5.5-16.2-0.7-16.6-0.9
				c-2.1-0.9-4.5-1.3-6.8-0.6c-2.6,0.8-4.8,2.6-5.6,5.3c-1,3.4,1,7.3,4.3,10.5c8.8,8.5,24.4,8.1,32.8,1.4
				C320.6,345.8,323.5,340.9,322.3,336.9z"/>
			<path fill="none" stroke="#000000" stroke-width="4.1954" stroke-miterlimit="10" d="M242.2,355.4c-0.1,7-5.8,12.6-12.9,12.6
				c-7-0.1-12.6-5.8-12.6-12.9c0.1-7,5.8-12.6,12.9-12.5C236.6,342.7,242.2,348.4,242.2,355.4z"/>
			<path fill="none" stroke="#000000" stroke-width="4.1954" stroke-miterlimit="10" d="M384.7,354.3c-0.1,7-5.9,12.6-12.9,12.5
				c-7-0.1-12.6-5.8-12.6-12.9c0.1-7,5.8-12.6,12.9-12.5C379.1,341.5,384.7,347.3,384.7,354.3z"/>
			<g>
				<path d="M226.4,352.3c-0.4,35.9,57.2,33.3,81,32.1c20.7-1.1,73.4-0.8,68.3-32.6c-0.3-1.6-7.1-0.1-6.8,1.8
					c4.7,29.5-46.1,27.5-65.8,28.1c-22.3,0.7-70.3,0.9-69.9-31.3C233.2,349.2,226.4,350.2,226.4,352.3L226.4,352.3z"/>
			</g>
			<path fill="none" stroke="#000000" stroke-width="4.1954" stroke-miterlimit="10" d="M383.5,394.5c10.2,22.1,19.7,63,10.6,101.7
				c-1.4,5.8-3.1,11.5-5.4,17.2c-32.6,81.2-171.7,75-188.6-7.9c-1.1-5.3-1.9-10.7-2.4-16.1c-4.3-42.2,6.1-84.9,9.5-94.8
				c0.2-0.5,0.3-1,0.5-1.4"/>
			<path fill="none" stroke="#000000" stroke-width="4.1954" stroke-miterlimit="10" d="M194.8,383.8c-3.8,1.4-7.5,4.8-10.3,11.3
				c-7.1,16.1-26.3,107.2-16.6,149.3c8.3,36.1,38.8,26.4,44.8,6.8c1.5-4.8,1.9-10,1.8-15"/>
			<path fill="none" stroke="#000000" stroke-width="4.1954" stroke-miterlimit="10" d="M393.7,430.8c1.1-0.2,78.8-43.4,94.6-164.2
				c2.4-18.3-6.9-32-26.1-28.6c-21.2,3.7-26,45.8-29.3,61.4c-0.8,3.9-1.7,8.1-2.6,12.4"/>
			<path fill="none" stroke="#000000" stroke-width="4.1954" stroke-miterlimit="10" d="M221.6,545c-2.6,28.1-2.9,58.8,2.3,77.9
				c4.1,15,13.9,28.5,27.6,23.8c8.3-2.9,16.3-10.3,18.2-23c0.8-5.5,0.5-11.3-0.2-16.5c-1.3-9.5-5.4-32.1-5.7-39.4"/>
			<path fill="none" stroke="#000000" stroke-width="4.1954" stroke-miterlimit="10" d="M372.1,539.6c5.1,24.7,10.6,63.4,8.2,80.8
				c-3.8,27.7-32.1,37.5-43.6,11.6c-2.9-6.5-3.7-14.3-3.7-21.2c0-9.6,1.1-36.9,0.4-44.2c-0.1-0.7-0.1-1.4-0.2-2.1"/>
		</g>
	</g>
</g>
</svg>
